# Blender 5.1.1
# www.blender.org
mtllib archuzimag.mtl
o Cube
o 94295809513474
v -0.008741 0.368350 0.038332
v 0.165525 0.368349 0.038332
v -0.008741 0.368349 -0.000000
v 0.165525 0.368349 -0.038331
v -0.008741 0.368349 -0.038331
v 0.251851 -0.287243 -0.100152
v 0.235754 -0.257052 0.084559
v 0.251851 -0.287243 0.100152
v 0.235754 -0.257052 -0.084559
v 0.235754 -0.318350 -0.084559
v 0.235754 -0.318350 0.084559
v 0.068440 -0.368349 0.084559
v -0.052054 -0.368349 0.084559
v -0.052054 -0.368349 -0.084559
v 0.068440 -0.368349 -0.084559
v 0.235754 -0.318350 -0.084559
v 0.235754 -0.318350 0.084559
v -0.068151 -0.337243 0.100152
v -0.052054 -0.307052 -0.084559
v -0.068151 -0.337243 -0.100152
v -0.052054 -0.307052 0.084559
v -0.052054 -0.368349 0.084559
v -0.052054 -0.368349 -0.084559
v 0.165525 0.368349 0.038332
v 0.179206 -0.187409 -0.045060
v 0.165525 0.368349 -0.038331
v 0.179206 -0.187409 0.045061
v 0.211561 -0.223168 -0.051788
v 0.211561 -0.223168 0.051789
v 0.220248 -0.293507 -0.065246
v 0.220248 -0.293508 0.065246
v 0.067485 -0.336742 0.065246
v -0.038982 -0.335862 0.000000
v 0.067485 -0.336742 -0.065246
v -0.038982 -0.335862 -0.065246
v -0.038982 -0.335862 0.065247
v 0.220248 -0.293507 -0.065246
v 0.220248 -0.293508 0.065246
v -0.042536 -0.223168 -0.051788
v -0.038982 -0.335862 0.000000
v -0.042536 -0.223168 0.000001
v -0.038982 -0.335862 -0.065246
v -0.016301 -0.187409 -0.045060
v -0.042536 -0.223168 0.051789
v -0.038982 -0.335862 0.065247
v -0.016301 -0.187409 0.045061
v -0.016301 -0.187409 0.000001
v -0.008741 0.368349 -0.038331
v -0.008741 0.368350 0.038332
v -0.008741 0.368349 -0.000000
v 0.067667 -0.337243 -0.106611
v -0.052054 -0.307052 -0.084559
v 0.068440 -0.307052 -0.084559
v -0.068151 -0.337243 -0.100152
v -0.052054 -0.368349 -0.084559
v 0.068440 -0.368349 -0.084559
v 0.235754 -0.318350 -0.084559
v 0.251851 -0.287243 -0.100152
v 0.235754 -0.257052 -0.084559
v -0.052054 -0.307052 0.084559
v 0.067667 -0.337243 0.106611
v 0.068440 -0.307052 0.084559
v -0.068151 -0.337243 0.100152
v -0.052054 -0.368349 0.084559
v 0.068440 -0.368349 0.084559
v 0.235754 -0.318350 0.084559
v 0.251851 -0.287243 0.100152
v 0.235754 -0.257052 0.084559
v -0.016301 -0.187409 0.045061
v 0.165525 0.368349 0.038332
v -0.008741 0.368350 0.038332
v 0.179206 -0.187409 0.045061
v 0.067485 -0.336742 0.065246
v 0.211561 -0.223168 0.051789
v 0.220248 -0.293508 0.065246
v -0.042536 -0.223168 0.051789
v -0.038982 -0.335862 0.065247
v 0.067485 -0.336742 -0.065246
v -0.042536 -0.223168 -0.051788
v -0.016301 -0.187409 -0.045060
v -0.038982 -0.335862 -0.065246
v -0.008741 0.368349 -0.038331
v 0.165525 0.368349 -0.038331
v 0.179206 -0.187409 -0.045060
v 0.211561 -0.223168 -0.051788
v 0.220248 -0.293507 -0.065246
v 0.235754 -0.257052 -0.084559
v 0.068440 -0.307052 -0.084559
v 0.235754 -0.257052 0.084559
v 0.068440 -0.307052 0.084559
v -0.052054 -0.307052 0.084559
v -0.052054 -0.307052 -0.084559
vn 0.0004 1.0000 0.0002
vn 1.0000 0.0045 0.0003
vn 0.8824 0.4705 -0.0000
vn 1.0000 0.0041 -0.0000
vn 0.8881 -0.4596 -0.0000
vn 0.1447 -0.9895 -0.0000
vn 0.0005 -1.0000 0.0002
vn 0.0004 -1.0000 0.0002
vn 0.2867 -0.9580 0.0002
vn 0.2866 -0.9580 0.0001
vn -1.0000 0.0047 0.0004
vn -0.8824 0.4705 -0.0000
vn -1.0000 0.0044 0.0002
vn -0.8881 -0.4596 -0.0000
vn 0.9997 0.0246 -0.0000
vn 0.9222 0.3868 -0.0000
vn 0.9997 0.0249 0.0002
vn 0.9223 0.3865 -0.0000
vn 0.9925 0.1226 -0.0000
vn 0.1333 -0.9911 0.0003
vn -0.6989 -0.7153 0.0002
vn 0.1334 -0.9911 -0.0000
vn -0.6716 -0.7409 0.0002
vn 0.2723 -0.9622 -0.0000
vn -0.9635 0.2675 -0.0000
vn -0.6987 -0.7154 0.0002
vn -0.9551 0.2962 -0.0000
vn -0.6715 -0.7410 0.0002
vn -0.9430 0.3327 -0.0000
vn -0.6715 -0.7410 0.0003
vn -0.9482 0.3177 -0.0000
vn -0.9999 0.0136 -0.0000
vn 0.0112 -0.0503 -0.9987
vn -0.0210 0.5329 -0.8459
vn -0.0787 0.5164 -0.8527
vn -0.0249 0.0044 -0.9997
vn -0.0210 -0.5221 -0.8526
vn 0.0679 -0.5331 -0.8433
vn 0.1685 -0.5406 -0.8242
vn -0.0103 0.0991 -0.9950
vn -0.1265 0.5017 -0.8557
vn -0.0210 0.5332 0.8457
vn 0.0112 -0.0503 0.9987
vn -0.0787 0.5167 0.8525
vn -0.0249 0.0044 0.9997
vn -0.0210 -0.5220 0.8527
vn 0.0679 -0.5330 0.8434
vn 0.1684 -0.5405 0.8243
vn -0.0103 0.0992 0.9950
vn -0.1265 0.5016 0.8558
vn -0.0024 0.0455 0.9990
vn -0.0024 0.0454 0.9990
vn -0.0025 0.0454 0.9990
vn -0.0025 0.0455 0.9990
vn -0.0025 0.0454 -0.9990
vn -0.0024 0.0454 -0.9990
vn -0.0025 0.0455 -0.9990
vn -0.2863 0.9581 -0.0000
vn -0.1447 0.9895 -0.0000
vn -0.2868 0.9580 0.0002
vn 0.0005 1.0000 0.0002
vt 0.000000 0.000000
vt 1.000000 0.000000
vt 0.000000 0.500000
vt 1.000000 1.000000
vt 0.000000 1.000000
vt 0.500000 0.500000
vt 0.625000 0.750000
vt 0.500000 0.750000
vt 0.625000 0.500000
vt 0.375000 0.500000
vt 0.375000 0.750000
vt 0.125000 0.750000
vt 0.125000 0.500000
vt 0.500000 0.000000
vt 0.625000 0.250000
vt 0.500000 0.250000
vt 0.625000 0.000000
vt 0.375000 0.000000
vt 0.375000 0.250000
vt 1.000000 0.500000
vt 0.500000 1.000000
vt 0.250000 1.000000
vt 0.250000 0.000000
vt 0.250000 0.500000
vt 0.625000 1.000000
vt 0.375000 1.000000
vt 0.875000 0.750000
vt 0.875000 0.500000
s 1
f 1/1/1 2/2/1 3/3/1
f 4/4/1 3/3/1 2/2/1
f 4/4/1 5/5/1 3/3/1
f 6/6/2 7/7/3 8/8/4
f 7/7/3 6/6/2 9/9/3
f 6/6/2 8/8/4 10/10/5
f 10/10/5 8/8/4 11/11/5
f 12/11/6 13/12/7 14/13/8
f 12/11/6 14/13/8 15/10/6
f 12/11/6 15/10/6 16/10/9
f 17/11/10 12/11/6 16/10/9
f 18/14/11 19/15/12 20/16/13
f 19/15/12 18/14/11 21/17/12
f 18/14/11 20/16/13 22/18/14
f 22/18/14 20/16/13 23/19/14
f 24/2/15 25/4/16 26/4/17
f 25/4/16 24/2/15 27/2/16
f 27/2/16 28/4/18 25/4/16
f 28/4/18 27/2/16 29/2/18
f 29/2/18 30/4/19 28/4/18
f 30/4/19 29/2/18 31/2/19
f 32/2/20 33/20/21 34/4/22
f 34/4/22 33/20/21 35/4/23
f 33/20/21 32/2/20 36/2/23
f 37/4/24 32/2/20 34/4/22
f 32/2/20 37/4/24 38/2/24
f 39/21/25 40/20/26 41/6/27
f 40/20/26 39/21/25 42/4/28
f 41/6/27 43/22/29 39/21/25
f 41/6/27 40/20/26 44/14/25
f 44/14/25 40/20/26 45/2/30
f 46/23/29 41/6/27 44/14/25
f 43/22/29 41/6/27 47/24/31
f 47/24/31 41/6/27 46/23/29
f 47/24/31 48/5/32 43/22/29
f 49/1/32 47/24/31 46/23/29
f 48/5/32 47/24/31 50/3/32
f 50/3/32 47/24/31 49/1/32
f 51/6/33 52/15/34 53/9/35
f 52/15/34 51/6/33 54/16/36
f 54/16/36 51/6/33 55/19/37
f 55/19/37 51/6/33 56/10/38
f 51/6/33 57/10/39 56/10/38
f 57/10/39 51/6/33 58/6/40
f 53/9/35 58/6/40 51/6/33
f 58/6/40 53/9/35 59/9/41
f 60/25/42 61/8/43 62/7/44
f 61/8/43 60/25/42 63/21/45
f 64/26/46 61/8/43 63/21/45
f 61/8/43 64/26/46 65/11/47
f 65/11/47 66/11/48 61/8/43
f 67/8/49 61/8/43 66/11/48
f 61/8/43 67/8/49 62/7/44
f 62/7/44 67/8/49 68/7/50
f 69/23/51 70/2/52 71/1/53
f 70/2/52 69/23/51 72/2/53
f 73/2/54 72/2/53 69/23/51
f 72/2/53 73/2/54 74/2/54
f 74/2/54 73/2/54 75/2/54
f 73/2/54 69/23/51 76/14/51
f 73/2/54 76/14/51 77/2/51
f 78/4/55 79/21/55 80/22/56
f 79/21/55 78/4/55 81/4/56
f 80/22/56 82/5/56 83/4/56
f 84/4/55 80/22/56 83/4/56
f 80/22/56 84/4/55 78/4/55
f 78/4/55 84/4/55 85/4/55
f 78/4/55 85/4/55 86/4/57
f 87/9/58 88/9/59 89/7/60
f 88/9/59 90/7/59 89/7/60
f 88/9/59 91/27/1 90/7/59
f 91/27/1 88/9/59 92/28/61
