# Blender 5.1.1
# www.blender.org
mtllib archnem.mtl
o Cube
o 107484094268762
v 0.256024 -0.719767 -0.000027
v 0.521422 -0.597202 -0.000027
v 0.521422 -0.597202 0.000027
v 0.256024 -0.719767 0.000027
v -0.521423 -0.597202 -0.000027
v -0.256025 -0.719767 -0.000027
v -0.256025 -0.719767 0.000027
v -0.521423 -0.597202 0.000027
v 0.092361 -0.679280 -0.000027
v 0.256024 -0.719767 -0.000027
v 0.256024 -0.719767 0.000027
v 0.092361 -0.679280 0.000027
v -0.256025 -0.719767 -0.000027
v -0.092363 -0.679280 -0.000027
v -0.092363 -0.679280 0.000027
v -0.256025 -0.719767 0.000027
v 0.521422 -0.597202 -0.000027
v 0.570686 -0.306519 -0.000027
v 0.570686 -0.306519 0.000027
v 0.521422 -0.597202 0.000027
v -0.570688 -0.306519 -0.000027
v -0.521423 -0.597202 -0.000027
v -0.521423 -0.597202 0.000027
v -0.570688 -0.306519 0.000027
v -1.167374 0.490565 -0.000027
v -1.116827 0.443818 -0.000027
v -1.116827 0.443818 0.000027
v -1.035954 0.378857 0.000027
v -1.167374 0.490565 0.000027
v -1.035954 0.378857 -0.000027
v -1.227009 0.553359 -0.000027
v -0.967510 0.333021 0.000027
v -1.227009 0.553359 0.000027
v -0.967510 0.333021 -0.000027
v -0.892466 0.291416 0.000027
v -0.892466 0.291416 -0.000027
v -1.280390 0.617537 -0.000027
v -1.280390 0.617537 0.000027
v -1.328608 0.683967 -0.000027
v -1.328608 0.683967 0.000027
v -1.351021 0.719767 -0.000027
v -1.351021 0.719767 0.000027
v 0.892466 0.291416 -0.000027
v 0.967508 0.333021 -0.000027
v 0.967508 0.333021 0.000027
v 0.892466 0.291416 0.000027
v 1.035953 0.378857 0.000027
v 1.035953 0.378857 -0.000027
v 1.116826 0.443818 0.000027
v 1.116826 0.443818 -0.000027
v 1.167372 0.490565 0.000027
v 1.167372 0.490565 -0.000027
v 1.227009 0.553359 0.000027
v 1.227009 0.553359 -0.000027
v 1.280389 0.617537 0.000027
v 1.280389 0.617537 -0.000027
v 1.328608 0.683967 0.000027
v 1.328608 0.683967 -0.000027
v 1.351021 0.719767 0.000027
v 1.351021 0.719767 -0.000027
v 0.549709 -0.266839 -0.000027
v 0.512789 -0.154277 -0.000027
v 0.512789 -0.154277 0.000027
v 0.549709 -0.266839 0.000027
v -0.512791 -0.154277 -0.000027
v -0.549711 -0.266839 -0.000027
v -0.549711 -0.266839 0.000027
v -0.512791 -0.154277 0.000027
v -1.056919 0.232685 -0.000027
v -0.945749 0.175336 -0.000027
v -0.945749 0.175336 0.000027
v -0.860426 0.140147 0.000027
v -1.056919 0.232685 0.000027
v -1.149563 0.291416 -0.000027
v -1.149563 0.291416 0.000027
v -0.860426 0.140147 -0.000027
v -0.817617 0.125363 0.000027
v -0.817617 0.125363 -0.000027
v -0.779842 0.114294 0.000027
v -0.779842 0.114294 -0.000027
v 0.945749 0.175336 -0.000027
v 1.056917 0.232685 -0.000027
v 1.056917 0.232685 0.000027
v 1.149563 0.291416 0.000027
v 1.149563 0.291416 -0.000027
v 0.945749 0.175336 0.000027
v 0.860426 0.140147 -0.000027
v 0.860426 0.140147 0.000027
v 0.817616 0.125363 -0.000027
v 0.817616 0.125363 0.000027
v 0.779840 0.114294 -0.000027
v 0.779840 0.114294 0.000027
v 0.000000 0.495014 -0.000044
v -0.126770 0.367988 -0.000051
v -0.126770 0.367988 -0.000031
v 0.126768 0.367988 -0.000051
v 0.000000 0.495014 -0.000044
v 0.126768 0.367988 -0.000031
v -0.000004 0.495014 -0.000025
v 0.126768 0.367988 -0.000031
v 0.000000 0.495014 -0.000044
v -0.126770 0.367988 -0.000031
v -0.000004 0.495014 -0.000025
v 0.000000 0.495014 -0.000044
v -0.764854 -0.121921 -0.000027
v -0.512791 -0.154277 -0.000027
v -0.512791 -0.154277 0.000027
v -0.764854 -0.121921 0.000027
v 0.512789 -0.154277 -0.000027
v 0.764853 -0.121921 -0.000027
v 0.764853 -0.121921 0.000027
v 0.512789 -0.154277 0.000027
v 0.716393 -0.030694 -0.000027
v 0.773487 -0.018565 -0.000027
v 0.773487 -0.018565 0.000027
v 0.849522 0.004826 0.000027
v 0.716393 -0.030694 0.000027
v 0.849522 0.004826 -0.000027
v 0.667175 -0.037470 -0.000027
v 0.913422 0.031378 0.000027
v 0.667175 -0.037470 0.000027
v 0.613525 -0.040803 -0.000027
v 0.613525 -0.040803 0.000027
v 0.913422 0.031378 -0.000027
v 0.964500 0.057632 0.000027
v 0.964500 0.057632 -0.000027
v -0.964502 0.057632 -0.000027
v -0.913424 0.031378 -0.000027
v -0.913424 0.031378 0.000027
v -0.964502 0.057632 0.000027
v -0.849524 0.004826 0.000027
v -0.849524 0.004826 -0.000027
v -0.773489 -0.018565 0.000027
v -0.773489 -0.018565 -0.000027
v -0.716394 -0.030694 0.000027
v -0.716394 -0.030694 -0.000027
v -0.667177 -0.037470 0.000027
v -0.667177 -0.037470 -0.000027
v -0.613525 -0.040803 0.000027
v -0.613525 -0.040803 -0.000027
v -0.779842 0.114294 -0.000027
v -0.964502 0.057632 -0.000027
v -0.964502 0.057632 0.000027
v -0.779842 0.114294 0.000027
v 0.964500 0.057632 -0.000027
v 0.779840 0.114294 -0.000027
v 0.779840 0.114294 0.000027
v 0.964500 0.057632 0.000027
v 0.000029 -0.663951 0.000000
v 0.290604 -0.432245 -0.031919
v 0.374741 -0.494843 0.000000
v 0.000029 -0.563383 -0.031919
v 0.000029 -0.663951 0.000000
v -0.290548 -0.432245 -0.031919
v 0.000029 -0.563383 -0.031919
v -0.374685 -0.494843 0.000000
v -0.000483 -0.663951 0.000000
v -0.291058 -0.432245 0.031918
v -0.375195 -0.494843 0.000000
v -0.000483 -0.563383 0.031918
v -0.000483 -0.663951 0.000000
v 0.374231 -0.494843 0.000000
v 0.290094 -0.432245 0.031918
v -0.000483 -0.563383 0.031918
v 1.149563 0.291416 -0.000027
v 0.892466 0.291416 -0.000027
v 0.892466 0.291416 0.000027
v 1.149563 0.291416 0.000027
v -0.892466 0.291416 -0.000027
v -1.149563 0.291416 -0.000027
v -1.149563 0.291416 0.000027
v -0.892466 0.291416 0.000027
v 1.351021 0.719767 -0.000027
v 0.774883 0.536136 -0.000027
v 0.774883 0.536136 0.000027
v 1.351021 0.719767 0.000027
v -0.774883 0.536136 -0.000027
v -1.351021 0.719767 -0.000027
v -1.351021 0.719767 0.000027
v -0.774883 0.536136 0.000027
v -0.549711 -0.266839 -0.000027
v -0.458776 -0.244054 -0.000027
v -0.458776 -0.244054 0.000027
v -0.549711 -0.266839 0.000027
v 0.458775 -0.244054 -0.000027
v 0.549709 -0.266839 -0.000027
v 0.549709 -0.266839 0.000027
v 0.458775 -0.244054 0.000027
v 0.764853 -0.121921 -0.000027
v 0.613525 -0.040803 -0.000027
v 0.613525 -0.040803 0.000027
v 0.764853 -0.121921 0.000027
v -0.613525 -0.040803 -0.000027
v -0.764854 -0.121921 -0.000027
v -0.764854 -0.121921 0.000027
v -0.613525 -0.040803 0.000027
v -0.313709 0.485482 -0.000031
v -0.126770 0.367988 -0.000031
v -0.313709 0.485482 -0.000051
v -0.126770 0.367988 -0.000051
v 0.126768 0.367988 -0.000031
v 0.313707 0.485482 -0.000031
v 0.126768 0.367988 -0.000051
v 0.313707 0.485482 -0.000051
v 0.313707 0.485482 -0.000031
v 0.243599 0.296194 -0.000031
v 0.313707 0.485482 -0.000051
v 0.243599 0.296194 -0.000051
v 0.374741 -0.494843 0.000000
v 0.371773 0.177061 -0.031919
v 0.480428 0.307430 -0.000000
v 0.290604 -0.432245 -0.031919
v -0.375195 -0.494843 0.000000
v -0.372227 0.177061 0.031918
v -0.480881 0.307430 -0.000000
v -0.291058 -0.432245 0.031918
v -0.374685 -0.494843 0.000000
v -0.480881 0.307430 -0.000000
v -0.371717 0.177061 -0.031919
v -0.290548 -0.432245 -0.031919
v 0.374231 -0.494843 0.000000
v 0.371264 0.177061 0.031918
v 0.290094 -0.432245 0.031918
v 0.480428 0.307430 -0.000000
v 0.000000 0.220594 -0.000038
v -0.243601 0.296194 -0.000051
v -0.243601 0.296194 -0.000031
v 0.000000 0.220594 -0.000038
v 0.126768 0.367988 -0.000031
v 0.126768 0.367988 -0.000051
v -0.126770 0.367988 -0.000051
v -0.126770 0.367988 -0.000031
v 0.000000 0.220594 -0.000038
v 0.569088 0.089027 -0.000027
v 0.504583 0.097280 -0.000027
v 0.504583 0.097280 0.000027
v 0.569088 0.089027 0.000027
v -0.504585 0.097280 -0.000027
v -0.569088 0.089027 -0.000027
v -0.569088 0.089027 0.000027
v -0.504585 0.097280 0.000027
v 0.000029 0.060151 -0.030537
v 0.371773 0.177061 -0.031919
v 0.262342 0.046694 -0.001679
v 0.000029 -0.034451 -0.001679
v 0.000029 0.060151 -0.030537
v -0.262287 0.046694 -0.001679
v -0.371717 0.177061 -0.031919
v 0.000029 -0.034451 -0.001679
v -0.000483 0.060151 0.030537
v -0.372227 0.177061 0.031918
v -0.262796 0.046694 0.001678
v -0.000483 -0.034451 0.001678
v 0.261833 0.046694 0.001678
v -0.000483 0.060151 0.030537
v -0.000483 -0.034451 0.001678
v 0.371264 0.177061 0.031918
v 0.000029 0.155994 -0.000000
v 0.480428 0.307430 -0.000000
v 0.371773 0.177061 -0.031919
v 0.000029 0.060151 -0.030537
v 0.000029 0.155994 -0.000000
v -0.371717 0.177061 -0.031919
v -0.480881 0.307430 -0.000000
v 0.000029 0.060151 -0.030537
v -0.000483 0.155994 -0.000000
v -0.480881 0.307430 -0.000000
v -0.372227 0.177061 0.031918
v -0.000483 0.060151 0.030537
v 0.371264 0.177061 0.031918
v -0.000483 0.155994 -0.000000
v -0.000483 0.060151 0.030537
v 0.480428 0.307430 -0.000000
v 0.000000 0.363585 -0.017599
v 0.000000 0.431085 -0.000051
v 0.064638 0.366157 -0.000051
v 0.000002 0.290221 -0.000051
v 0.000002 0.290221 -0.000051
v -0.064640 0.366157 -0.000051
v 0.000000 0.431085 -0.000051
v -0.000002 0.363585 0.017524
v 0.000000 0.431085 -0.000025
v -0.064640 0.366157 -0.000025
v -0.000004 0.290221 -0.000025
v -0.000004 0.290221 -0.000025
v 0.064638 0.366157 -0.000025
v 0.000000 0.431085 -0.000025
v 0.000029 -0.034451 -0.001679
v -0.206625 -0.369806 -0.001679
v -0.262287 0.046694 -0.001679
v 0.000029 -0.463068 -0.001679
v 0.206680 -0.369806 -0.001679
v 0.262342 0.046694 -0.001679
v 0.206172 -0.369806 0.001678
v -0.000483 -0.034451 0.001678
v -0.000483 -0.463068 0.001678
v 0.261833 0.046694 0.001678
v -0.207134 -0.369806 0.001678
v -0.262796 0.046694 0.001678
v 0.000000 0.431085 -0.000051
v 0.126768 0.367988 -0.000051
v 0.064638 0.366157 -0.000051
v 0.000002 0.290221 -0.000051
v 0.000000 0.495014 -0.000044
v 0.000000 0.220594 -0.000038
v -0.126770 0.367988 -0.000051
v -0.064640 0.366157 -0.000051
v 1.351021 0.719767 0.000027
v 0.774883 0.536136 0.000027
v 1.328608 0.683967 0.000027
v 1.280389 0.617537 0.000027
v 1.227009 0.553359 0.000027
v 1.167372 0.490565 0.000027
v 0.773516 0.505717 0.000027
v 1.116826 0.443818 0.000027
v 0.765790 0.458251 0.000027
v 1.035953 0.378857 0.000027
v 0.735344 0.375040 0.000027
v 0.967508 0.333021 0.000027
v 0.892466 0.291416 0.000027
v 0.686378 0.303222 0.000027
v 0.808741 0.254090 0.000027
v 0.718246 0.224539 0.000027
v 0.615840 0.241081 0.000027
v 0.517574 0.195259 0.000027
v 0.621087 0.204388 0.000027
v 0.860426 0.140147 0.000027
v 0.817616 0.125363 0.000027
v 0.808741 0.254090 0.000027
v 0.945749 0.175336 0.000027
v 0.892466 0.291416 0.000027
v 1.056917 0.232685 0.000027
v 1.149563 0.291416 0.000027
v 0.779840 0.114294 0.000027
v 0.964500 0.057632 0.000027
v 0.913422 0.031378 0.000027
v 0.849522 0.004826 0.000027
v 0.773487 -0.018565 0.000027
v 0.721788 0.100877 0.000027
v 0.716393 -0.030694 0.000027
v 0.656662 0.091153 0.000027
v 0.667175 -0.037470 0.000027
v 0.612860 0.088378 0.000027
v 0.613525 -0.040803 0.000027
v 0.569088 0.089027 0.000027
v 0.612860 0.088378 0.000027
v 0.517574 0.195259 0.000027
v 0.525640 0.093493 0.000027
v 0.504583 0.097280 0.000027
v 0.584408 -0.041701 0.000027
v 0.524469 -0.039365 0.000027
v 0.504583 0.097280 0.000027
v 0.486807 -0.035334 0.000027
v 0.469942 -0.159745 0.000027
v 0.524469 -0.039365 0.000027
v 0.764853 -0.121921 0.000027
v 0.512789 -0.154277 0.000027
v 0.549709 -0.266839 0.000027
v 0.458775 -0.244054 0.000027
v -1.351021 0.719767 0.000027
v -1.328608 0.683967 0.000027
v -0.774883 0.536136 0.000027
v -1.280390 0.617537 0.000027
v -1.227009 0.553359 0.000027
v -1.167374 0.490565 0.000027
v -0.773516 0.505717 0.000027
v -1.116827 0.443818 0.000027
v -0.765791 0.458251 0.000027
v -1.035954 0.378857 0.000027
v -0.735344 0.375040 0.000027
v -0.967510 0.333021 0.000027
v -0.892466 0.291416 0.000027
v -0.686378 0.303222 0.000027
v -1.056919 0.232685 0.000027
v -1.149563 0.291416 0.000027
v -0.945749 0.175336 0.000027
v -0.808743 0.254090 0.000027
v -0.860426 0.140147 0.000027
v -0.718248 0.224539 0.000027
v -0.615841 0.241081 0.000027
v -0.718248 0.224539 0.000027
v -0.817617 0.125363 0.000027
v -0.621088 0.204388 0.000027
v -0.517576 0.195259 0.000027
v -0.779842 0.114294 0.000027
v -0.964502 0.057632 0.000027
v -0.913424 0.031378 0.000027
v -0.849524 0.004826 0.000027
v -0.773489 -0.018565 0.000027
v -0.721790 0.100877 0.000027
v -0.716394 -0.030694 0.000027
v -0.656662 0.091153 0.000027
v -0.667177 -0.037470 0.000027
v -0.612860 0.088378 0.000027
v -0.613525 -0.040803 0.000027
v -0.569088 0.089027 0.000027
v -0.612860 0.088378 0.000027
v -0.517576 0.195259 0.000027
v -0.525640 0.093493 0.000027
v -0.504585 0.097280 0.000027
v -0.524471 -0.039365 0.000027
v -0.486807 -0.035334 0.000027
v -0.584410 -0.041701 0.000027
v -0.469944 -0.159745 0.000027
v -0.524471 -0.039365 0.000027
v -0.764854 -0.121921 0.000027
v -0.512791 -0.154277 0.000027
v -0.549711 -0.266839 0.000027
v -0.458776 -0.244054 0.000027
v 1.351021 0.719767 -0.000027
v 1.328608 0.683967 -0.000027
v 0.774883 0.536136 -0.000027
v 1.280389 0.617537 -0.000027
v 1.227009 0.553359 -0.000027
v 1.167372 0.490565 -0.000027
v 0.773516 0.505717 -0.000027
v 1.116826 0.443818 -0.000027
v 0.765790 0.458251 -0.000027
v 1.035953 0.378857 -0.000027
v 0.735344 0.375040 -0.000027
v 0.967508 0.333021 -0.000027
v 0.892466 0.291416 -0.000027
v 0.686378 0.303222 -0.000027
v 0.808741 0.254090 -0.000027
v 0.718246 0.224539 -0.000027
v 0.615840 0.241081 -0.000027
v 0.517574 0.195259 -0.000027
v 0.621087 0.204388 -0.000027
v 0.860426 0.140147 -0.000027
v 0.817616 0.125363 -0.000027
v 0.808741 0.254090 -0.000027
v 0.945749 0.175336 -0.000027
v 0.892466 0.291416 -0.000027
v 1.056917 0.232685 -0.000027
v 1.149563 0.291416 -0.000027
v 0.779840 0.114294 -0.000027
v 0.964500 0.057632 -0.000027
v 0.913422 0.031378 -0.000027
v 0.849522 0.004826 -0.000027
v 0.773487 -0.018565 -0.000027
v 0.721788 0.100877 -0.000027
v 0.716393 -0.030694 -0.000027
v 0.656662 0.091153 -0.000027
v 0.667175 -0.037470 -0.000027
v 0.612860 0.088378 -0.000027
v 0.613525 -0.040803 -0.000027
v 0.569088 0.089027 -0.000027
v 0.612860 0.088378 -0.000027
v 0.517574 0.195259 -0.000027
v 0.525640 0.093493 -0.000027
v 0.504583 0.097280 -0.000027
v 0.584408 -0.041701 -0.000027
v 0.524469 -0.039365 -0.000027
v 0.504583 0.097280 -0.000027
v 0.486807 -0.035334 -0.000027
v 0.469942 -0.159745 -0.000027
v 0.524469 -0.039365 -0.000027
v 0.764853 -0.121921 -0.000027
v 0.512789 -0.154277 -0.000027
v 0.549709 -0.266839 -0.000027
v 0.458775 -0.244054 -0.000027
v -1.351021 0.719767 -0.000027
v -0.774883 0.536136 -0.000027
v -1.328608 0.683967 -0.000027
v -1.280390 0.617537 -0.000027
v -1.227009 0.553359 -0.000027
v -1.167374 0.490565 -0.000027
v -0.773516 0.505717 -0.000027
v -1.116827 0.443818 -0.000027
v -0.765791 0.458251 -0.000027
v -1.035954 0.378857 -0.000027
v -0.735344 0.375040 -0.000027
v -0.967510 0.333021 -0.000027
v -0.892466 0.291416 -0.000027
v -0.686378 0.303222 -0.000027
v -1.056919 0.232685 -0.000027
v -1.149563 0.291416 -0.000027
v -0.945749 0.175336 -0.000027
v -0.808743 0.254090 -0.000027
v -0.860426 0.140147 -0.000027
v -0.718248 0.224539 -0.000027
v -0.615841 0.241081 -0.000027
v -0.718248 0.224539 -0.000027
v -0.817617 0.125363 -0.000027
v -0.621088 0.204388 -0.000027
v -0.517576 0.195259 -0.000027
v -0.779842 0.114294 -0.000027
v -0.964502 0.057632 -0.000027
v -0.913424 0.031378 -0.000027
v -0.849524 0.004826 -0.000027
v -0.773489 -0.018565 -0.000027
v -0.721790 0.100877 -0.000027
v -0.716394 -0.030694 -0.000027
v -0.656662 0.091153 -0.000027
v -0.667177 -0.037470 -0.000027
v -0.612860 0.088378 -0.000027
v -0.613525 -0.040803 -0.000027
v -0.569088 0.089027 -0.000027
v -0.612860 0.088378 -0.000027
v -0.517576 0.195259 -0.000027
v -0.525640 0.093493 -0.000027
v -0.504585 0.097280 -0.000027
v -0.524471 -0.039365 -0.000027
v -0.486807 -0.035334 -0.000027
v -0.584410 -0.041701 -0.000027
v -0.469944 -0.159745 -0.000027
v -0.524471 -0.039365 -0.000027
v -0.764854 -0.121921 -0.000027
v -0.512791 -0.154277 -0.000027
v -0.549711 -0.266839 -0.000027
v -0.458776 -0.244054 -0.000027
v 0.416698 -0.534359 0.000027
v 0.222390 -0.671063 0.000027
v 0.466688 -0.564200 0.000027
v 0.092361 -0.679280 0.000027
v 0.256024 -0.719767 0.000027
v 0.521422 -0.597202 0.000027
v 0.495457 -0.396276 0.000027
v 0.439964 -0.372570 0.000027
v 0.570686 -0.306519 0.000027
v -0.222391 -0.671063 0.000027
v -0.416698 -0.534359 0.000027
v -0.466690 -0.564200 0.000027
v -0.092363 -0.679280 0.000027
v -0.256025 -0.719767 0.000027
v -0.521423 -0.597202 0.000027
v -0.495459 -0.396276 0.000027
v -0.439966 -0.372570 0.000027
v -0.570688 -0.306519 0.000027
v 0.092361 -0.679280 -0.000027
v 0.416698 -0.534359 -0.000027
v 0.222390 -0.671063 -0.000027
v 0.256024 -0.719767 -0.000027
v 0.466688 -0.564200 -0.000027
v 0.521422 -0.597202 -0.000027
v 0.495457 -0.396276 -0.000027
v 0.439964 -0.372570 -0.000027
v 0.570686 -0.306519 -0.000027
v -0.416698 -0.534359 -0.000027
v -0.222391 -0.671063 -0.000027
v -0.466690 -0.564200 -0.000027
v -0.092363 -0.679280 -0.000027
v -0.256025 -0.719767 -0.000027
v -0.521423 -0.597202 -0.000027
v -0.495459 -0.396276 -0.000027
v -0.439966 -0.372570 -0.000027
v -0.570688 -0.306519 -0.000027
v -0.126764 0.367988 -0.000038
v 0.000004 0.220594 -0.000031
v -0.243597 0.296194 -0.000038
v -0.313704 0.485482 -0.000038
v 0.126772 0.367988 -0.000038
v 0.243604 0.296194 -0.000038
v 0.313711 0.485482 -0.000038
v -0.126770 0.367988 -0.000031
v 0.000000 0.431085 -0.000025
v -0.000004 0.495014 -0.000025
v 0.126768 0.367988 -0.000031
v -0.064640 0.366157 -0.000025
v 0.064638 0.366157 -0.000025
v -0.000004 0.290221 -0.000025
v 0.000000 0.220594 -0.000038
v 0.126768 0.367988 -0.000031
v 0.000000 0.220594 -0.000038
v 0.243599 0.296194 -0.000031
v 0.313707 0.485482 -0.000031
v -0.126770 0.367988 -0.000031
v -0.243601 0.296194 -0.000031
v -0.313709 0.485482 -0.000031
v 0.290604 -0.432245 -0.031919
v 0.262342 0.046694 -0.001679
v 0.371773 0.177061 -0.031919
v 0.206680 -0.369806 -0.001679
v -0.290548 -0.432245 -0.031919
v -0.371717 0.177061 -0.031919
v -0.262287 0.046694 -0.001679
v -0.206625 -0.369806 -0.001679
v -0.291058 -0.432245 0.031918
v -0.262796 0.046694 0.001678
v -0.372227 0.177061 0.031918
v -0.207134 -0.369806 0.001678
v 0.290094 -0.432245 0.031918
v 0.261833 0.046694 0.001678
v 0.206172 -0.369806 0.001678
v 0.371264 0.177061 0.031918
v 0.504583 0.097280 -0.000027
v 0.525640 0.093493 -0.000027
v 0.525640 0.093493 0.000027
v 0.504583 0.097280 0.000027
v 0.569088 0.089027 0.000027
v 0.569088 0.089027 -0.000027
v -0.525640 0.093493 -0.000027
v -0.504585 0.097280 -0.000027
v -0.504585 0.097280 0.000027
v -0.525640 0.093493 0.000027
v -0.569088 0.089027 -0.000027
v -0.569088 0.089027 0.000027
v 0.243599 0.296194 -0.000051
v 0.243599 0.296194 -0.000031
v 0.000000 0.220594 -0.000038
v -0.243601 0.296194 -0.000051
v -0.313709 0.485482 -0.000051
v -0.313709 0.485482 -0.000031
v -0.243601 0.296194 -0.000031
v 0.000029 -0.563383 -0.031919
v 0.206680 -0.369806 -0.001679
v 0.290604 -0.432245 -0.031919
v 0.000029 -0.463068 -0.001679
v 0.000029 -0.563383 -0.031919
v -0.206625 -0.369806 -0.001679
v 0.000029 -0.463068 -0.001679
v -0.290548 -0.432245 -0.031919
v -0.000483 -0.563383 0.031918
v 0.290094 -0.432245 0.031918
v 0.206172 -0.369806 0.001678
v -0.000483 -0.463068 0.001678
v -0.000483 -0.563383 0.031918
v -0.207134 -0.369806 0.001678
v -0.291058 -0.432245 0.031918
v -0.000483 -0.463068 0.001678
v 0.735344 0.375040 -0.000027
v 0.686378 0.303222 -0.000027
v 0.686378 0.303222 0.000027
v 0.615840 0.241081 0.000027
v 0.735344 0.375040 0.000027
v 0.615840 0.241081 -0.000027
v 0.517574 0.195259 0.000027
v 0.517574 0.195259 -0.000027
v 0.765790 0.458251 -0.000027
v 0.765790 0.458251 0.000027
v 0.773516 0.505717 -0.000027
v 0.773516 0.505717 0.000027
v 0.774883 0.536136 -0.000027
v 0.774883 0.536136 0.000027
v -0.735344 0.375040 -0.000027
v -0.765791 0.458251 -0.000027
v -0.765791 0.458251 0.000027
v -0.773516 0.505717 0.000027
v -0.735344 0.375040 0.000027
v -0.773516 0.505717 -0.000027
v -0.774883 0.536136 0.000027
v -0.774883 0.536136 -0.000027
v -0.686378 0.303222 -0.000027
v -0.686378 0.303222 0.000027
v -0.615841 0.241081 -0.000027
v -0.615841 0.241081 0.000027
v -0.517576 0.195259 -0.000027
v -0.517576 0.195259 0.000027
v 0.486807 -0.035334 -0.000027
v 0.469942 -0.159745 -0.000027
v 0.469942 -0.159745 0.000027
v 0.458775 -0.244054 0.000027
v 0.458775 -0.244054 -0.000027
v 0.486807 -0.035334 0.000027
v 0.504583 0.097280 -0.000027
v 0.504583 0.097280 0.000027
v -0.469944 -0.159745 -0.000027
v -0.486807 -0.035334 -0.000027
v -0.486807 -0.035334 0.000027
v -0.504585 0.097280 0.000027
v -0.504585 0.097280 -0.000027
v -0.469944 -0.159745 0.000027
v -0.458776 -0.244054 -0.000027
v -0.458776 -0.244054 0.000027
v 0.517574 0.195259 -0.000027
v 0.504583 0.097280 -0.000027
v 0.504583 0.097280 0.000027
v 0.517574 0.195259 0.000027
v -0.504585 0.097280 -0.000027
v -0.517576 0.195259 -0.000027
v -0.517576 0.195259 0.000027
v -0.504585 0.097280 0.000027
v 0.439964 -0.372570 -0.000027
v 0.416698 -0.534359 -0.000027
v 0.416698 -0.534359 0.000027
v 0.439964 -0.372570 0.000027
v -0.416698 -0.534359 -0.000027
v -0.439966 -0.372570 -0.000027
v -0.439966 -0.372570 0.000027
v -0.416698 -0.534359 0.000027
v 0.570686 -0.306519 -0.000027
v 0.439964 -0.372570 -0.000027
v 0.439964 -0.372570 0.000027
v 0.570686 -0.306519 0.000027
v -0.439966 -0.372570 -0.000027
v -0.570688 -0.306519 -0.000027
v -0.570688 -0.306519 0.000027
v -0.439966 -0.372570 0.000027
v 0.416698 -0.534359 -0.000027
v 0.092361 -0.679280 -0.000027
v 0.092361 -0.679280 0.000027
v 0.416698 -0.534359 0.000027
v -0.092363 -0.679280 -0.000027
v -0.416698 -0.534359 -0.000027
v -0.416698 -0.534359 0.000027
v -0.092363 -0.679280 0.000027
vn 0.4195 -0.9078 0.0004
vn 0.4195 -0.9077 0.0006
vn -0.4195 -0.9078 0.0006
vn -0.4194 -0.9078 0.0005
vn -0.2400 -0.9708 0.0003
vn -0.2399 -0.9708 0.0004
vn 0.2398 -0.9708 0.0007
vn 0.2399 -0.9708 0.0005
vn 0.2399 -0.9708 0.0006
vn 0.9859 -0.1675 0.0004
vn 0.9859 -0.1674 0.0004
vn 0.9859 -0.1675 0.0005
vn -0.9859 -0.1675 0.0005
vn -0.9859 -0.1675 0.0004
vn -0.7022 -0.7120 0.0005
vn -0.6530 -0.7574 -0.0000
vn -0.5919 -0.8060 0.0005
vn -0.7022 -0.7120 0.0004
vn -0.7474 -0.6644 -0.0000
vn -0.5212 -0.8535 0.0003
vn -0.5211 -0.8535 -0.0000
vn -0.4849 -0.8746 0.0005
vn -0.7895 -0.6138 -0.0000
vn -0.8289 -0.5593 0.0005
vn -0.8289 -0.5594 0.0003
vn -0.8474 -0.5309 0.0004
vn -0.8474 -0.5309 0.0005
vn 0.4849 -0.8746 0.0006
vn 0.5212 -0.8534 0.0005
vn 0.4849 -0.8746 0.0005
vn 0.5919 -0.8060 -0.0000
vn 0.6529 -0.7574 0.0007
vn 0.6529 -0.7574 0.0005
vn 0.7022 -0.7120 0.0006
vn 0.7022 -0.7119 0.0004
vn 0.7474 -0.6643 0.0006
vn 0.7474 -0.6643 0.0005
vn 0.7892 -0.6141 0.0004
vn 0.7892 -0.6142 0.0005
vn 0.8290 -0.5593 0.0005
vn 0.8474 -0.5309 0.0004
vn 0.9501 0.3121 0.0005
vn -0.9500 0.3121 0.0005
vn -0.9501 0.3120 0.0004
vn -0.4977 -0.8673 0.0004
vn -0.4205 -0.9073 0.0004
vn -0.4204 -0.9073 0.0003
vn -0.3540 -0.9352 -0.0000
vn -0.4978 -0.8673 0.0004
vn -0.5356 -0.8444 0.0004
vn -0.3540 -0.9352 0.0003
vn -0.3041 -0.9527 0.0003
vn -0.2808 -0.9598 0.0005
vn -0.2807 -0.9598 0.0006
vn 0.4205 -0.9073 0.0004
vn 0.4977 -0.8673 0.0003
vn 0.4979 -0.8673 0.0005
vn 0.5351 -0.8448 0.0004
vn 0.4206 -0.9072 0.0004
vn 0.3541 -0.9352 0.0003
vn 0.3042 -0.9526 0.0004
vn 0.2810 -0.9597 0.0003
vn 0.2812 -0.9597 -0.0000
vn -0.7032 0.7023 -0.1109
vn -0.7081 0.7061 0.0005
vn 0.7081 0.7061 0.0005
vn 0.7033 0.7022 0.1109
vn -0.7032 0.7023 -0.1110
vn -0.1274 -0.9918 0.0005
vn -0.1274 -0.9918 0.0006
vn 0.1275 -0.9918 0.0005
vn 0.1723 -0.9850 0.0003
vn 0.2516 -0.9678 0.0004
vn 0.3395 -0.9406 0.0004
vn 0.1724 -0.9850 0.0004
vn 0.3396 -0.9406 0.0005
vn 0.0993 -0.9951 -0.0000
vn 0.4207 -0.9072 0.0005
vn 0.0621 -0.9981 0.0003
vn 0.4207 -0.9072 0.0003
vn 0.4569 -0.8895 0.0004
vn -0.4569 -0.8895 0.0003
vn -0.4207 -0.9072 0.0003
vn -0.4208 -0.9072 -0.0000
vn -0.4568 -0.8896 0.0004
vn -0.3396 -0.9406 0.0006
vn -0.3395 -0.9406 0.0004
vn -0.2516 -0.9678 0.0005
vn -0.2515 -0.9679 0.0004
vn -0.1722 -0.9851 -0.0000
vn -0.0993 -0.9951 -0.0000
vn -0.0992 -0.9951 0.0003
vn -0.0620 -0.9981 0.0003
vn -0.2935 0.9560 0.0003
vn -0.2936 0.9559 0.0005
vn 0.2936 0.9559 0.0004
vn 0.2933 0.9560 -0.0000
vn -0.0004 -0.3024 -0.9532
vn 0.2342 -0.1736 -0.9566
vn 0.2341 -0.1736 -0.9566
vn -0.0004 -0.3025 -0.9532
vn -0.0005 -0.3024 -0.9532
vn -0.2339 -0.1734 -0.9567
vn -0.0005 -0.3024 0.9532
vn -0.2350 -0.1735 0.9564
vn -0.0004 -0.3024 0.9532
vn 0.2339 -0.1734 0.9567
vn -0.0004 1.0000 0.0004
vn -0.3035 0.9528 0.0003
vn -0.3033 0.9529 0.0005
vn -0.3034 0.9529 0.0004
vn 0.3035 0.9528 0.0003
vn 0.3034 0.9529 0.0004
vn 0.2431 -0.9700 -0.0000
vn 0.2429 -0.9700 0.0005
vn -0.2428 -0.9701 0.0005
vn -0.2429 -0.9701 0.0004
vn 0.4724 0.8814 -0.0000
vn 0.4723 0.8814 0.0004
vn 0.4723 0.8814 0.0003
vn -0.4722 0.8815 0.0005
vn -0.4723 0.8815 0.0004
vn 0.5321 0.8467 0.0005
vn 0.5321 0.8467 0.0007
vn -0.5321 0.8467 0.0003
vn 0.9377 -0.3474 0.0005
vn 0.9377 -0.3475 0.0006
vn 0.9377 -0.3474 0.0003
vn 0.2342 -0.1735 -0.9566
vn 0.3281 -0.0435 -0.9437
vn 0.3280 -0.0435 -0.9437
vn -0.2351 -0.1735 0.9564
vn -0.3279 -0.0435 0.9437
vn -0.3267 -0.0435 -0.9441
vn -0.3268 -0.0435 -0.9441
vn 0.2340 -0.1734 0.9567
vn 0.3268 -0.0435 0.9441
vn 0.2965 0.9550 0.0003
vn -0.7579 0.6524 0.0005
vn 0.7579 0.6524 0.0006
vn 0.1266 0.9920 0.0004
vn 0.1266 0.9920 0.0005
vn -0.1265 0.9920 0.0005
vn -0.1265 0.9920 0.0004
vn -0.0004 -0.2945 -0.9557
vn 0.0894 -0.2936 -0.9518
vn -0.0942 -0.1060 -0.9899
vn -0.0004 -0.1208 -0.9927
vn -0.0005 -0.2945 -0.9557
vn 0.0933 -0.1061 -0.9900
vn -0.0893 -0.2936 -0.9518
vn -0.0005 -0.1208 -0.9927
vn -0.0005 -0.2945 0.9557
vn -0.0893 -0.2935 0.9518
vn 0.0933 -0.1061 0.9900
vn -0.0005 -0.1208 0.9927
vn -0.0942 -0.1060 0.9899
vn -0.0004 -0.2945 0.9557
vn -0.0004 -0.1208 0.9927
vn 0.0894 -0.2936 0.9518
vn -0.0005 0.3100 -0.9507
vn -0.0991 0.3082 -0.9461
vn -0.0004 0.3100 -0.9507
vn 0.0982 0.3091 -0.9459
vn 0.0982 0.3091 -0.9460
vn -0.0004 0.3100 0.9507
vn 0.0982 0.3082 0.9462
vn -0.0005 0.3100 0.9507
vn -0.0991 0.3091 0.9459
vn -0.0004 0.0034 -1.0000
vn -0.0004 0.2515 -0.9678
vn 0.2616 0.0103 -0.9651
vn 0.2636 -0.2244 -0.9382
vn -0.0005 0.0034 -1.0000
vn -0.2633 -0.2243 -0.9383
vn -0.2616 0.0103 -0.9651
vn -0.0005 0.2516 -0.9678
vn -0.0005 0.0034 1.0000
vn -0.0005 0.2516 0.9678
vn -0.2616 0.0103 0.9651
vn -0.2632 -0.2242 0.9383
vn -0.0004 0.0034 1.0000
vn 0.2632 -0.2241 0.9384
vn 0.2613 0.0102 0.9652
vn -0.0004 0.2516 0.9678
vn -0.0005 -0.1207 -0.9927
vn 0.1479 0.1098 -0.9829
vn 0.0933 -0.1060 -0.9900
vn -0.0005 0.1840 -0.9829
vn -0.1479 0.1098 -0.9829
vn -0.1479 0.1098 0.9829
vn -0.0004 -0.1207 0.9927
vn -0.0005 0.1840 0.9829
vn 0.1479 0.1098 0.9829
vn 0.0933 -0.1060 0.9900
vn -0.0004 0.0004 -1.0000
vn 0.0005 0.0005 -1.0000
vn 0.0005 0.0004 -1.0000
vn -0.0005 -0.0005 -1.0000
vn -0.0004 -0.0005 -1.0000
vn -0.0004 0.0004 1.0000
vn -0.0003 0.0003 1.0000
vn -0.0003 0.0003 -1.0000
vn -0.0005 0.0005 -1.0000
vn -0.0004 -0.0005 1.0000
vn 0.0005 -0.0005 1.0000
vn 0.0005 -0.0004 1.0000
vn -0.0005 0.0005 1.0000
vn -0.2232 0.1655 -0.9606
vn -0.0943 -0.1060 -0.9899
vn -0.3113 0.0415 -0.9494
vn 0.2232 0.1655 -0.9606
vn 0.3113 0.0415 -0.9494
vn 0.0934 -0.1060 -0.9900
vn 0.1480 0.1098 -0.9829
vn 0.2232 0.1655 0.9606
vn 0.3113 0.0415 0.9494
vn 0.1480 0.1098 0.9829
vn -0.2232 0.1655 0.9606
vn -0.0943 -0.1060 0.9899
vn -0.3113 0.0415 0.9494
vn -0.1772 -0.9842 0.0004
vn -0.1401 -0.9901 0.0004
vn -0.1020 -0.9948 0.0005
vn 0.1392 -0.9903 0.0006
vn 0.1773 -0.9842 0.0004
vn 0.1773 -0.9842 0.0005
vn 0.1020 -0.9948 0.0006
vn 0.2965 -0.9550 0.0003
vn 0.9377 0.3474 0.0006
vn 0.9377 0.3474 0.0003
vn 0.9377 0.3474 0.0005
vn -0.0005 0.2888 -0.9574
vn -0.1479 0.1099 -0.9829
vn -0.2231 0.1655 -0.9606
vn -0.0005 0.1841 -0.9829
vn -0.0004 0.2888 -0.9574
vn 0.1480 0.1099 -0.9829
vn -0.0004 0.1841 -0.9829
vn -0.0005 0.2888 0.9574
vn -0.2231 0.1656 0.9606
vn -0.0005 0.1841 0.9829
vn -0.0004 0.2888 0.9574
vn -0.0004 0.1841 0.9829
vn -0.8896 0.4568 0.0004
vn -0.7495 0.6620 -0.0000
vn -0.7497 0.6618 0.0004
vn -0.5476 0.8368 0.0005
vn -0.8896 0.4567 0.0005
vn -0.4226 0.9063 0.0005
vn -0.9674 0.2534 0.0005
vn -0.9947 0.1029 -0.0000
vn -0.9990 0.0444 0.0005
vn -0.9990 0.0445 0.0004
vn 0.8896 0.4568 0.0004
vn 0.9674 0.2533 -0.0000
vn 0.9674 0.2534 0.0004
vn 0.9947 0.1030 0.0006
vn 0.9947 0.1030 0.0005
vn 0.9990 0.0444 0.0005
vn 0.9990 0.0445 0.0004
vn 0.7495 0.6620 -0.0000
vn 0.7497 0.6618 0.0004
vn 0.5476 0.8367 0.0004
vn 0.4227 0.9063 0.0007
vn 0.4227 0.9063 0.0006
vn -0.9911 0.1334 0.0003
vn -0.9912 0.1323 0.0006
vn -0.9912 0.1324 0.0005
vn -0.9913 0.1314 0.0003
vn -0.9913 0.1314 0.0005
vn -0.9911 0.1334 0.0004
vn -0.9911 0.1333 0.0005
vn -0.9911 0.1333 0.0004
vn 0.9912 0.1324 0.0004
vn 0.9911 0.1334 0.0004
vn 0.9911 0.1333 0.0005
vn 0.9913 0.1313 -0.0000
vn 0.9913 0.1314 0.0003
vn -0.9899 0.1421 0.0004
vn -0.9899 0.1421 0.0005
vn 0.9899 0.1421 0.0004
vn 0.9899 0.1421 0.0005
vn 0.9898 0.1422 0.0003
vn -0.4509 0.8926 0.0005
vn -0.4509 0.8926 0.0003
vn 0.4510 0.8925 0.0005
vn -0.4079 0.9130 0.0005
vn 0.4079 0.9130 0.0003
vt 0.405035 0.308065
vt 0.306595 0.353526
vt 0.693401 0.353526
vt 0.594962 0.308065
vt 0.465739 0.323082
vt 0.534257 0.323082
vt 0.288322 0.461344
vt 0.711675 0.461344
vt 0.932992 0.756994
vt 0.914244 0.739655
vt 0.884247 0.715560
vt 0.955111 0.780285
vt 0.858860 0.698559
vt 0.831026 0.683127
vt 0.974913 0.804089
vt 0.992796 0.828728
vt 1.001115 0.842017
vt 0.168971 0.683127
vt 0.141137 0.698559
vt 0.115750 0.715560
vt 0.085752 0.739655
vt 0.067004 0.756994
vt 0.044884 0.780285
vt 0.025086 0.804089
vt 0.007200 0.828728
vt -0.001118 0.842017
vt 0.296104 0.476062
vt 0.309798 0.517813
vt 0.690199 0.517813
vt 0.703893 0.476062
vt 0.892024 0.661342
vt 0.850790 0.640071
vt 0.819141 0.627019
vt 0.926387 0.683127
vt 0.803264 0.621536
vt 0.789252 0.617430
vt 0.149207 0.640071
vt 0.107974 0.661342
vt 0.073610 0.683127
vt 0.180854 0.627019
vt 0.196733 0.621536
vt 0.210745 0.617430
vt 0.499998 0.758645
vt 0.547019 0.711529
vt 0.452978 0.711529
vt 0.783693 0.529814
vt 0.216304 0.529814
vt 0.234279 0.563653
vt 0.213102 0.568151
vt 0.184899 0.576826
vt 0.252533 0.561138
vt 0.161198 0.586675
vt 0.272434 0.559903
vt 0.142252 0.596413
vt 0.857745 0.596413
vt 0.838799 0.586675
vt 0.815098 0.576826
vt 0.786896 0.568151
vt 0.765718 0.563653
vt 0.747463 0.561138
vt 0.727562 0.559903
vt 0.499988 0.328769
vt 0.392210 0.414711
vt 0.361001 0.391493
vt 0.499988 0.366070
vt 0.607766 0.414711
vt 0.638973 0.391493
vt 0.168972 0.683127
vt 0.212584 0.773897
vt 0.787413 0.773897
vt 0.670249 0.484514
vt 0.329748 0.484514
vt 0.000000 0.000000
vt 0.362102 0.640710
vt 0.321802 0.689066
vt 0.678364 0.689068
vt 0.637872 0.640710
vt 0.499998 0.656858
vt 0.288917 0.608058
vt 0.312841 0.611119
vt 0.687155 0.611119
vt 0.711082 0.608058
vt 0.499988 0.597347
vt 0.402692 0.592356
vt 0.499988 0.562259
vt 0.597284 0.592356
vt 0.499988 0.632897
vt 0.499998 0.709895
vt 0.499998 0.734932
vt 0.476023 0.710849
vt 0.499998 0.682684
vt 0.523974 0.710849
vt 0.576638 0.437871
vt 0.499988 0.403278
vt 0.423337 0.437871
vt 0.213091 0.762613
vt 0.215956 0.745008
vt 0.227250 0.714144
vt 0.245412 0.687506
vt 0.200025 0.669281
vt 0.233591 0.658321
vt 0.271575 0.664457
vt 0.308107 0.647461
vt 0.269628 0.650846
vt 0.200026 0.669281
vt 0.232277 0.612454
vt 0.256433 0.608847
vt 0.272681 0.607817
vt 0.272680 0.607817
vt 0.307939 0.647461
vt 0.305031 0.609714
vt 0.312842 0.611119
vt 0.283234 0.559570
vt 0.305466 0.560436
vt 0.319436 0.561931
vt 0.325690 0.515785
vt 0.305465 0.560436
vt 0.786905 0.762613
vt 0.784041 0.745008
vt 0.772747 0.714144
vt 0.754585 0.687506
vt 0.799971 0.669281
vt 0.766406 0.658321
vt 0.728422 0.664457
vt 0.766405 0.658321
vt 0.730368 0.650846
vt 0.691890 0.647461
vt 0.767719 0.612454
vt 0.743562 0.608847
vt 0.727316 0.607817
vt 0.727317 0.607817
vt 0.692058 0.647461
vt 0.694966 0.609714
vt 0.694531 0.560436
vt 0.680561 0.561931
vt 0.716763 0.559570
vt 0.674307 0.515785
vt 0.694532 0.560436
vt 0.345440 0.376836
vt 0.417511 0.326130
vt 0.326898 0.365768
vt 0.316226 0.428053
vt 0.336810 0.436846
vt 0.582486 0.326130
vt 0.654557 0.376836
vt 0.673099 0.365768
vt 0.683769 0.428053
vt 0.663187 0.436846
vt 0.409644 0.684900
vt 0.383640 0.755109
vt 0.590353 0.684900
vt 0.616357 0.755109
s 1
usemtl Material.001
f 1/1/1 2/2/2 3/2/1
f 1/1/1 3/2/1 4/1/2
f 5/3/3 6/4/3 7/4/4
f 5/3/3 7/4/4 8/3/3
f 9/5/5 10/1/6 11/1/5
f 9/5/5 11/1/5 12/5/6
f 13/4/7 14/6/7 15/6/8
f 13/4/7 15/6/8 16/4/9
f 17/2/10 18/7/11 19/7/10
f 17/2/10 19/7/10 20/2/12
f 21/8/13 22/3/13 23/3/13
f 21/8/13 23/3/13 24/8/14
f 25/9/15 26/10/16 27/10/16
f 26/10/16 28/11/17 27/10/16
f 25/9/15 27/10/16 29/9/18
f 26/10/16 30/11/17 28/11/17
f 31/12/19 25/9/15 29/9/18
f 30/11/17 32/13/20 28/11/17
f 31/12/19 29/9/18 33/12/19
f 30/11/17 34/13/21 32/13/20
f 34/13/21 35/14/22 32/13/20
f 34/13/21 36/14/22 35/14/22
f 37/15/23 31/12/19 33/12/19
f 37/15/23 33/12/19 38/15/23
f 39/16/24 37/15/23 38/15/23
f 39/16/24 38/15/23 40/16/25
f 41/17/26 39/16/24 40/16/25
f 41/17/26 40/16/25 42/17/27
f 43/18/28 44/19/29 45/19/29
f 43/18/28 45/19/29 46/18/30
f 44/19/29 47/20/31 45/19/29
f 44/19/29 48/20/31 47/20/31
f 48/20/31 49/21/32 47/20/31
f 48/20/31 50/21/33 49/21/32
f 50/21/33 51/22/34 49/21/32
f 50/21/33 52/22/35 51/22/34
f 52/22/35 53/23/36 51/22/34
f 52/22/35 54/23/37 53/23/36
f 54/23/37 55/24/38 53/23/36
f 54/23/37 56/24/39 55/24/38
f 56/24/39 57/25/40 55/24/38
f 56/24/39 58/25/40 57/25/40
f 58/25/40 59/26/41 57/25/40
f 58/25/40 60/26/41 59/26/41
f 61/27/42 62/28/42 63/28/42
f 61/27/42 63/28/42 64/27/42
f 65/29/43 66/30/43 67/30/43
f 65/29/43 67/30/43 68/29/44
f 69/31/45 70/32/46 71/32/47
f 70/32/46 72/33/48 71/32/47
f 69/31/45 71/32/47 73/31/49
f 74/34/50 69/31/45 73/31/49
f 74/34/50 73/31/49 75/34/50
f 70/32/46 76/33/51 72/33/48
f 76/33/51 77/35/52 72/33/48
f 76/33/51 78/35/52 77/35/52
f 78/35/52 79/36/53 77/35/52
f 78/35/52 80/36/54 79/36/53
f 81/37/55 82/38/56 83/38/57
f 82/38/56 84/39/58 83/38/57
f 82/38/56 85/39/58 84/39/58
f 81/37/55 83/38/57 86/37/59
f 87/40/60 81/37/55 86/37/59
f 87/40/60 86/37/59 88/40/60
f 89/41/61 87/40/60 88/40/60
f 89/41/61 88/40/60 90/41/61
f 91/42/62 89/41/61 90/41/61
f 91/42/62 90/41/61 92/42/63
f 93/43/64 94/44/65 95/44/65
f 96/45/66 97/43/67 98/45/66
f 99/43/67 100/44/66 101/43/67
f 102/45/65 103/43/68 104/43/64
f 105/46/69 106/29/70 107/29/69
f 105/46/69 107/29/69 108/46/70
f 109/28/71 110/47/71 111/47/71
f 109/28/71 111/47/71 112/28/71
f 113/48/72 114/49/73 115/49/73
f 114/49/73 116/50/74 115/49/73
f 113/48/72 115/49/73 117/48/75
f 114/49/73 118/50/76 116/50/74
f 119/51/77 113/48/72 117/48/75
f 118/50/76 120/52/78 116/50/74
f 119/51/77 117/48/75 121/51/77
f 122/53/79 119/51/77 121/51/77
f 122/53/79 121/51/77 123/53/79
f 118/50/76 124/52/80 120/52/78
f 124/52/80 125/54/81 120/52/78
f 124/52/80 126/54/81 125/54/81
f 127/55/82 128/56/83 129/56/84
f 127/55/82 129/56/84 130/55/85
f 128/56/83 131/57/86 129/56/84
f 128/56/83 132/57/87 131/57/86
f 132/57/87 133/58/88 131/57/86
f 132/57/87 134/58/89 133/58/88
f 134/58/89 135/59/90 133/58/88
f 134/58/89 136/59/90 135/59/90
f 136/59/90 137/60/91 135/59/90
f 136/59/90 138/60/92 137/60/91
f 138/60/92 139/61/93 137/60/91
f 138/60/92 140/61/93 139/61/93
f 141/36/94 142/55/95 143/55/95
f 141/36/94 143/55/95 144/36/94
f 145/54/96 146/42/97 147/42/96
f 145/54/96 147/42/96 148/54/97
f 149/62/98 150/63/99 151/64/100
f 150/63/99 149/62/98 152/65/101
f 153/62/102 154/66/103 155/65/102
f 153/62/102 156/67/103 154/66/103
f 157/62/104 158/63/105 159/64/105
f 158/63/105 157/62/104 160/65/104
f 161/62/106 162/67/107 163/66/107
f 161/62/106 163/66/107 164/65/106
f 165/39/108 166/68/108 167/68/108
f 165/39/108 167/68/108 168/39/108
f 169/14/108 170/34/108 171/34/108
f 169/14/108 171/34/108 172/14/108
f 173/26/109 174/69/110 175/69/111
f 173/26/109 175/69/111 176/26/110
f 177/70/112 178/17/113 179/17/112
f 177/70/112 179/17/112 180/70/113
f 181/30/114 182/71/115 183/71/114
f 181/30/114 183/71/114 184/30/115
f 185/72/116 186/27/117 187/27/117
f 185/72/116 187/27/117 188/72/116
f 189/47/118 190/53/119 191/53/120
f 189/47/118 191/53/120 192/47/119
f 193/61/121 194/46/122 195/46/121
f 193/61/121 195/46/121 196/61/122
f 197/73/123 198/73/123 199/73/123
f 200/73/124 199/73/123 198/73/123
f 201/73/125 202/73/125 203/73/125
f 204/73/125 203/73/125 202/73/125
f 205/73/126 206/73/126 207/73/127
f 208/73/128 207/73/127 206/73/126
f 209/64/129 210/74/130 211/75/131
f 210/74/130 209/64/129 212/63/129
f 213/64/132 214/74/133 215/75/133
f 214/74/133 213/64/132 216/63/132
f 217/67/103 218/76/134 219/77/135
f 217/67/103 219/77/135 220/66/103
f 221/67/136 222/77/137 223/66/136
f 221/67/136 224/76/137 222/77/137
f 225/73/138 226/73/138 227/73/138
f 228/78/139 229/45/139 230/45/139
f 231/44/140 232/44/140 233/78/140
f 234/79/141 235/80/142 236/80/142
f 234/79/141 236/80/142 237/79/142
f 238/81/143 239/82/143 240/82/144
f 238/81/143 240/82/144 241/81/144
f 242/83/145 243/74/146 244/84/147
f 242/83/145 244/84/147 245/85/148
f 246/83/149 247/86/150 248/77/151
f 247/86/150 246/83/149 249/85/152
f 250/83/153 251/74/154 252/84/155
f 252/84/155 253/85/156 250/83/153
f 254/86/157 255/83/158 256/85/159
f 255/83/158 254/86/157 257/77/160
f 258/87/161 259/75/162 260/74/162
f 258/87/161 260/74/162 261/83/161
f 262/87/163 263/77/164 264/76/165
f 263/77/164 262/87/163 265/83/161
f 266/87/166 267/75/167 268/74/167
f 268/74/167 269/83/168 266/87/166
f 270/77/169 271/87/168 272/83/168
f 271/87/168 270/77/169 273/76/169
f 274/88/170 275/89/171 276/90/172
f 274/88/170 276/90/172 277/91/173
f 274/88/174 278/91/175 279/92/176
f 274/88/174 279/92/176 280/89/177
f 281/88/178 282/89/179 283/90/180
f 281/88/178 283/90/180 284/91/181
f 281/88/182 285/91/183 286/92/184
f 281/88/182 286/92/184 287/89/185
f 288/85/186 289/93/187 290/86/188
f 289/93/187 288/85/186 291/94/189
f 288/85/186 292/95/190 291/94/189
f 292/95/190 288/85/186 293/84/147
f 294/93/191 295/85/192 296/94/193
f 295/85/192 294/93/191 297/86/157
f 295/85/192 298/95/194 296/94/193
f 298/95/194 295/85/192 299/84/195
f 300/89/196 301/45/197 302/90/198
f 301/45/197 303/91/199 302/90/198
f 301/45/197 300/89/196 304/43/196
f 301/45/197 305/78/200 303/91/199
f 306/44/196 304/43/196 300/89/196
f 306/44/196 303/91/199 305/78/200
f 306/44/196 300/89/196 307/92/196
f 303/91/199 306/44/196 307/92/196
f 308/26/201 309/69/201 310/25/201
f 309/69/201 311/24/201 310/25/201
f 312/23/201 311/24/201 309/69/201
f 309/69/201 313/22/202 312/23/201
f 313/22/202 309/69/201 314/96/202
f 315/21/202 313/22/202 314/96/202
f 315/21/202 314/96/202 316/97/202
f 317/20/202 315/21/202 316/97/202
f 317/20/202 316/97/202 318/98/201
f 319/19/201 317/20/202 318/98/201
f 320/18/202 319/19/201 318/98/201
f 320/18/202 318/98/201 321/99/201
f 322/100/201 320/18/202 321/99/201
f 323/101/202 322/100/201 321/99/201
f 323/101/202 321/99/201 324/102/202
f 325/103/201 326/104/202 324/102/202
f 326/104/202 323/101/202 324/102/202
f 327/40/202 323/101/202 328/41/201
f 327/40/202 329/105/202 323/101/202
f 329/105/202 327/40/202 330/37/202
f 331/68/202 329/105/202 330/37/202
f 330/37/202 332/38/201 331/68/202
f 332/38/201 333/39/201 331/68/202
f 328/41/201 323/101/202 334/42/202
f 335/54/201 334/42/202 336/52/201
f 337/50/201 336/52/201 334/42/202
f 334/42/202 338/49/202 337/50/201
f 334/42/202 323/101/202 339/106/202
f 338/49/202 334/42/202 339/106/202
f 339/106/202 323/101/202 326/104/202
f 340/48/202 338/49/202 339/106/202
f 340/48/202 339/106/202 341/107/202
f 339/106/202 326/104/202 341/107/202
f 341/107/202 342/51/201 340/48/202
f 341/107/202 326/104/202 343/108/201
f 344/53/201 342/51/201 341/107/202
f 343/108/201 326/104/202 345/79/202
f 344/53/201 341/107/202 346/109/202
f 326/104/202 347/110/202 345/79/202
f 345/79/202 347/110/202 348/111/201
f 348/111/201 347/110/202 349/112/201
f 346/109/202 345/79/202 350/113/201
f 344/53/201 346/109/202 350/113/201
f 345/79/202 351/114/202 350/113/201
f 351/114/202 345/79/202 352/80/201
f 352/80/201 353/115/201 351/114/202
f 344/53/201 350/113/201 354/116/202
f 355/117/201 353/115/201 354/116/202
f 350/113/201 355/117/201 354/116/202
f 356/47/201 344/53/201 354/116/202
f 357/28/201 356/47/201 354/116/202
f 358/27/201 357/28/201 354/116/202
f 358/27/201 354/116/202 359/72/201
f 360/17/201 361/16/201 362/70/201
f 362/70/201 361/16/201 363/15/201
f 364/12/201 362/70/201 363/15/201
f 362/70/201 364/12/201 365/9/202
f 365/9/202 366/118/202 362/70/201
f 367/10/202 366/118/202 365/9/202
f 367/10/202 368/119/202 366/118/202
f 369/11/202 368/119/202 367/10/202
f 369/11/202 370/120/201 368/119/202
f 371/13/201 370/120/201 369/11/202
f 372/14/202 370/120/201 371/13/201
f 372/14/202 373/121/201 370/120/201
f 374/31/201 372/14/202 375/34/201
f 372/14/202 374/31/201 376/32/202
f 372/14/202 376/32/202 377/122/201
f 377/122/201 373/121/201 372/14/202
f 378/33/202 377/122/201 376/32/202
f 379/123/202 373/121/201 377/122/201
f 379/123/202 380/124/202 373/121/201
f 377/122/201 378/33/202 381/125/201
f 378/33/202 382/35/201 381/125/201
f 383/126/201 380/124/202 379/123/202
f 384/127/201 380/124/202 383/126/201
f 382/35/201 385/36/202 381/125/201
f 386/55/201 387/56/201 385/36/202
f 388/57/201 385/36/202 387/56/201
f 389/58/202 385/36/202 388/57/201
f 385/36/202 390/128/202 381/125/201
f 385/36/202 389/58/202 390/128/202
f 390/128/202 383/126/201 381/125/201
f 391/59/202 390/128/202 389/58/202
f 391/59/202 392/129/202 390/128/202
f 392/129/202 383/126/201 390/128/202
f 393/60/201 392/129/202 391/59/202
f 392/129/202 394/130/201 383/126/201
f 395/61/201 392/129/202 393/60/201
f 394/130/201 396/82/202 383/126/201
f 395/61/201 397/131/202 392/129/202
f 383/126/201 396/82/202 398/132/202
f 396/82/202 399/133/201 398/132/202
f 399/133/201 400/81/201 398/132/202
f 396/82/202 401/134/202 400/81/201
f 400/81/201 401/134/202 402/135/201
f 401/134/202 396/82/202 403/136/201
f 397/131/202 403/136/201 396/82/202
f 395/61/201 403/136/201 397/131/202
f 395/61/201 404/137/202 403/136/201
f 405/138/201 404/137/202 402/135/201
f 403/136/201 404/137/202 405/138/201
f 406/46/201 404/137/202 395/61/201
f 407/29/201 404/137/202 406/46/201
f 408/30/201 404/137/202 407/29/201
f 408/30/201 409/71/201 404/137/202
f 410/26/196 411/25/196 412/69/196
f 412/69/196 411/25/196 413/24/196
f 414/23/196 412/69/196 413/24/196
f 412/69/196 414/23/196 415/22/203
f 415/22/203 416/96/203 412/69/196
f 417/21/203 416/96/203 415/22/203
f 417/21/203 418/97/203 416/96/203
f 419/20/203 418/97/203 417/21/203
f 419/20/203 420/98/196 418/97/203
f 421/19/196 420/98/196 419/20/203
f 422/18/203 420/98/196 421/19/196
f 422/18/203 423/99/196 420/98/196
f 424/100/196 423/99/196 422/18/203
f 425/101/203 423/99/196 424/100/196
f 425/101/203 426/102/203 423/99/196
f 427/103/196 426/102/203 428/104/203
f 428/104/203 426/102/203 425/101/203
f 429/40/203 430/41/196 425/101/203
f 431/105/203 429/40/203 425/101/203
f 429/40/203 431/105/203 432/37/203
f 432/37/203 431/105/203 433/68/203
f 434/38/196 432/37/203 433/68/203
f 434/38/196 433/68/203 435/39/196
f 430/41/196 436/42/203 425/101/203
f 437/54/196 438/52/196 436/42/203
f 439/50/196 436/42/203 438/52/196
f 440/49/203 436/42/203 439/50/196
f 436/42/203 441/106/203 425/101/203
f 436/42/203 440/49/203 441/106/203
f 428/104/203 425/101/203 441/106/203
f 442/48/203 441/106/203 440/49/203
f 441/106/203 442/48/203 443/107/203
f 428/104/203 441/106/203 443/107/203
f 443/107/203 442/48/203 444/51/196
f 443/107/203 445/108/196 428/104/203
f 446/53/196 443/107/203 444/51/196
f 445/108/196 447/79/203 428/104/203
f 446/53/196 448/109/203 443/107/203
f 428/104/203 447/79/203 449/110/203
f 447/79/203 450/111/196 449/110/203
f 450/111/196 451/112/196 449/110/203
f 448/109/203 452/113/196 447/79/203
f 446/53/196 452/113/196 448/109/203
f 453/114/203 447/79/203 452/113/196
f 447/79/203 453/114/203 454/80/196
f 454/80/196 453/114/203 455/115/196
f 446/53/196 456/116/203 452/113/196
f 457/117/196 456/116/203 455/115/196
f 452/113/196 456/116/203 457/117/196
f 458/47/196 456/116/203 446/53/196
f 459/28/196 456/116/203 458/47/196
f 460/27/196 456/116/203 459/28/196
f 460/27/196 461/72/196 456/116/203
f 462/17/196 463/70/196 464/16/196
f 463/70/196 465/15/196 464/16/196
f 466/12/196 465/15/196 463/70/196
f 463/70/196 467/9/203 466/12/196
f 467/9/203 463/70/196 468/118/203
f 469/10/203 467/9/203 468/118/203
f 469/10/203 468/118/203 470/119/203
f 471/11/203 469/10/203 470/119/203
f 471/11/203 470/119/203 472/120/196
f 473/13/196 471/11/203 472/120/196
f 474/14/203 473/13/196 472/120/196
f 474/14/203 472/120/196 475/121/196
f 476/31/196 477/34/196 474/14/203
f 476/31/196 474/14/203 478/32/203
f 479/122/196 478/32/203 474/14/203
f 479/122/196 474/14/203 475/121/196
f 479/122/196 480/33/203 478/32/203
f 481/123/203 479/122/196 475/121/196
f 481/123/203 475/121/196 482/124/203
f 480/33/203 479/122/196 483/125/196
f 480/33/203 483/125/196 484/35/196
f 485/126/196 481/123/203 482/124/203
f 486/127/196 485/126/196 482/124/203
f 484/35/196 483/125/196 487/36/203
f 488/55/196 487/36/203 489/56/196
f 490/57/196 489/56/196 487/36/203
f 487/36/203 491/58/203 490/57/196
f 487/36/203 483/125/196 492/128/203
f 491/58/203 487/36/203 492/128/203
f 485/126/196 492/128/203 483/125/196
f 493/59/203 491/58/203 492/128/203
f 494/129/203 493/59/203 492/128/203
f 492/128/203 485/126/196 494/129/203
f 493/59/203 494/129/203 495/60/196
f 494/129/203 485/126/196 496/130/196
f 497/61/196 495/60/196 494/129/203
f 496/130/196 485/126/196 498/82/203
f 497/61/196 494/129/203 499/131/203
f 485/126/196 500/132/203 498/82/203
f 498/82/203 500/132/203 501/133/196
f 501/133/196 500/132/203 502/81/196
f 503/134/203 498/82/203 502/81/196
f 502/81/196 504/135/196 503/134/203
f 498/82/203 503/134/203 505/136/196
f 499/131/203 498/82/203 505/136/196
f 497/61/196 499/131/203 505/136/196
f 497/61/196 505/136/196 506/137/203
f 507/138/196 504/135/196 506/137/203
f 505/136/196 507/138/196 506/137/203
f 508/46/196 497/61/196 506/137/203
f 509/29/196 508/46/196 506/137/203
f 510/30/196 509/29/196 506/137/203
f 510/30/196 506/137/203 511/71/196
f 512/139/201 513/140/201 514/141/201
f 513/140/201 512/139/201 515/5/201
f 513/140/201 515/5/201 516/1/202
f 516/1/202 514/141/201 513/140/201
f 514/141/201 516/1/202 517/2/202
f 514/141/201 518/142/201 512/139/201
f 517/2/202 518/142/201 514/141/201
f 512/139/201 518/142/201 519/143/201
f 518/142/201 517/2/202 520/7/201
f 518/142/201 520/7/201 519/143/201
f 521/144/201 522/145/201 523/146/201
f 524/6/201 522/145/201 521/144/201
f 521/144/201 525/4/202 524/6/201
f 523/146/201 525/4/202 521/144/201
f 525/4/202 523/146/201 526/3/202
f 522/145/201 527/147/201 523/146/201
f 527/147/201 526/3/202 523/146/201
f 522/145/201 528/148/201 527/147/201
f 526/3/202 527/147/201 529/8/201
f 527/147/201 528/148/201 529/8/201
f 530/5/196 531/139/196 532/140/196
f 532/140/196 533/1/203 530/5/196
f 534/141/196 533/1/203 532/140/196
f 534/141/196 532/140/196 531/139/196
f 533/1/203 534/141/196 535/2/203
f 536/142/196 534/141/196 531/139/196
f 536/142/196 535/2/203 534/141/196
f 536/142/196 531/139/196 537/143/196
f 535/2/203 536/142/196 538/7/196
f 536/142/196 537/143/196 538/7/196
f 539/145/196 540/144/196 541/146/196
f 540/144/196 539/145/196 542/6/196
f 540/144/196 542/6/196 543/4/203
f 543/4/203 541/146/196 540/144/196
f 541/146/196 543/4/203 544/3/203
f 541/146/196 545/147/196 539/145/196
f 544/3/203 545/147/196 541/146/196
f 546/148/196 539/145/196 545/147/196
f 545/147/196 544/3/203 547/8/196
f 545/147/196 547/8/196 546/148/196
f 548/45/196 549/78/196 550/149/196
f 550/149/196 551/150/204 548/45/196
f 552/44/196 553/151/196 549/78/196
f 553/151/196 552/44/196 554/152/204
f 555/45/205 556/89/201 557/43/201
f 558/44/206 557/43/201 556/89/201
f 556/89/201 555/45/205 559/90/205
f 558/44/206 556/89/201 560/92/207
f 555/45/205 561/91/205 559/90/205
f 561/91/205 558/44/206 560/92/207
f 555/45/205 562/78/205 561/91/205
f 558/44/206 561/91/205 562/78/205
f 563/45/201 564/78/208 565/149/201
f 565/149/201 566/150/201 563/45/201
f 567/44/201 568/151/201 564/78/201
f 568/151/201 567/44/201 569/152/201
f 570/63/209 571/84/210 572/74/211
f 571/84/210 570/63/209 573/95/190
f 574/66/212 575/77/213 576/86/214
f 574/66/212 576/86/214 577/93/215
f 578/63/216 579/84/195 580/74/217
f 579/84/195 578/63/216 581/95/218
f 582/66/219 583/86/220 584/93/191
f 582/66/219 585/77/221 583/86/220
f 586/112/222 587/111/223 588/111/223
f 586/112/222 588/111/223 589/112/222
f 587/111/223 590/79/224 588/111/223
f 587/111/223 591/79/224 590/79/224
f 592/133/225 593/81/226 594/81/227
f 592/133/225 594/81/227 595/133/225
f 596/82/228 592/133/225 595/133/225
f 596/82/228 595/133/225 597/82/228
f 598/73/229 599/73/229 600/73/229
f 601/73/230 602/73/231 603/73/232
f 601/73/230 603/73/232 604/73/231
f 605/65/233 606/95/234 607/63/235
f 606/95/234 605/65/233 608/94/236
f 609/65/237 610/93/238 611/94/239
f 609/65/237 612/66/212 610/93/238
f 613/65/240 614/66/241 615/93/191
f 613/65/240 615/93/191 616/94/242
f 617/65/243 618/95/218 619/63/216
f 618/95/218 617/65/243 620/94/244
f 621/98/245 622/99/246 623/99/247
f 622/99/246 624/102/248 623/99/247
f 621/98/245 623/99/247 625/98/249
f 622/99/246 626/102/248 624/102/248
f 626/102/248 627/103/250 624/102/248
f 626/102/248 628/103/250 627/103/250
f 629/97/251 621/98/245 625/98/249
f 629/97/251 625/98/249 630/97/251
f 631/96/252 629/97/251 630/97/251
f 631/96/252 630/97/251 632/96/252
f 633/69/253 631/96/252 632/96/252
f 633/69/253 632/96/252 634/69/254
f 635/120/255 636/119/256 637/119/257
f 636/119/256 638/118/258 637/119/257
f 635/120/255 637/119/257 639/120/255
f 636/119/256 640/118/259 638/118/258
f 640/118/259 641/70/260 638/118/258
f 640/118/259 642/70/261 641/70/260
f 643/121/262 635/120/255 639/120/255
f 643/121/262 639/120/255 644/121/263
f 645/124/264 643/121/262 644/121/263
f 645/124/264 644/121/263 646/124/264
f 647/127/265 645/124/264 646/124/264
f 647/127/265 646/124/264 648/127/266
f 649/115/267 650/116/268 651/116/269
f 650/116/268 652/72/270 651/116/269
f 650/116/268 653/72/271 652/72/270
f 649/115/267 651/116/269 654/115/272
f 655/80/273 649/115/267 654/115/272
f 655/80/273 654/115/272 656/80/274
f 657/137/275 658/135/276 659/135/277
f 658/135/276 660/81/277 659/135/277
f 658/135/276 661/81/277 660/81/277
f 657/137/275 659/135/277 662/137/275
f 663/71/278 657/137/275 662/137/275
f 663/71/278 662/137/275 664/71/278
f 665/110/271 666/112/270 667/112/270
f 665/110/271 667/112/270 668/110/270
f 669/81/279 670/132/279 671/132/279
f 669/81/279 671/132/279 672/81/279
f 673/143/280 674/139/281 675/139/281
f 673/143/280 675/139/281 676/143/280
f 677/145/282 678/148/283 679/148/282
f 677/145/282 679/148/282 680/145/284
f 681/7/285 682/143/285 683/143/286
f 681/7/285 683/143/286 684/7/286
f 685/148/287 686/8/287 687/8/287
f 685/148/287 687/8/287 688/148/287
f 689/139/288 690/5/288 691/5/288
f 689/139/288 691/5/288 692/139/288
f 693/6/289 694/145/289 695/145/289
f 693/6/289 695/145/289 696/6/289
