# Blender 5.1.1
# www.blender.org
mtllib basepournirra.mtl
o base
v 0.666565 0.075000 -0.757056
v 0.746389 0.075000 -0.285506
v 0.683735 -0.075000 -0.767357
v 0.770161 -0.075000 -0.256611
v 0.417814 -0.075000 -0.893413
v 0.399845 0.075000 -0.880485
v 0.399845 0.075000 -1.130352
v 0.417812 -0.075000 -1.138510
v 0.000000 -0.075000 -1.335171
v 0.000000 0.075000 -1.314693
v -0.399845 0.075000 -1.130352
v -0.417812 -0.075000 -1.138510
v -0.417814 -0.075000 -0.893413
v -0.399845 0.075000 -0.880485
v -0.666565 0.075000 -0.757056
v -0.683735 -0.075000 -0.767357
v -0.746389 0.075000 -0.285506
v -0.770161 -0.075000 -0.256611
v 1.581907 -0.075000 0.683632
v 1.557108 0.075000 0.683632
v 1.725252 0.075000 0.937260
v 1.767450 -0.075000 0.965266
v 1.471083 -0.075000 0.557879
v 1.446283 0.075000 0.557879
v 1.326515 -0.075000 0.428318
v 1.301716 0.075000 0.428318
v 1.286909 -0.075000 0.399886
v 1.246504 0.075000 0.387300
v -1.581907 -0.075000 0.683632
v -1.725252 0.075000 0.937260
v -1.557108 0.075000 0.683632
v -1.767450 -0.075000 0.965266
v -1.471083 -0.075000 0.557879
v -1.446283 0.075000 0.557879
v -1.326515 -0.075000 0.428318
v -1.301716 0.075000 0.428318
v -1.286909 -0.075000 0.399886
v -1.246504 0.075000 0.387300
v 1.344093 0.075000 0.258619
v 1.530418 0.075000 0.387300
v 1.376682 -0.075000 0.260209
v 1.572281 -0.075000 0.399886
v 1.267204 -0.075000 0.196720
v 1.234615 0.075000 0.195129
v 1.125532 -0.075000 0.129758
v 1.092941 0.075000 0.128168
v 1.044920 -0.075000 -0.060048
v 1.014717 0.075000 -0.057663
v 1.128996 0.075000 -0.009630
v 0.974125 -0.075000 -0.081633
v 1.159201 -0.075000 -0.012016
v 1.276493 0.075000 0.071625
v 1.313324 -0.075000 0.072892
v 0.943920 0.075000 -0.079248
v 0.926094 -0.075000 -0.092971
v 0.895891 0.075000 -0.090587
v -1.344093 0.075000 0.258619
v -1.376682 -0.075000 0.260209
v -1.530418 0.075000 0.387300
v -1.572281 -0.075000 0.399886
v -1.267204 -0.075000 0.196720
v -1.234615 0.075000 0.195129
v -1.125532 -0.075000 0.129758
v -1.092941 0.075000 0.128168
v -1.014717 0.075000 -0.057663
v -1.044920 -0.075000 -0.060048
v -1.128996 0.075000 -0.009630
v -1.159201 -0.075000 -0.012016
v -1.276493 0.075000 0.071625
v -1.313324 -0.075000 0.072892
v -0.974125 -0.075000 -0.081633
v -0.943920 0.075000 -0.079248
v -0.926094 -0.075000 -0.092971
v -0.895891 0.075000 -0.090587
v 0.633463 -0.075000 0.303020
v 0.614004 0.075000 0.274405
v 0.634546 0.075000 0.427680
v 0.654005 -0.075000 0.451715
v -0.633463 -0.075000 0.303020
v -0.634546 0.075000 0.427680
v -0.614004 0.075000 0.274405
v -0.654005 -0.075000 0.451715
v 0.000000 -0.075000 0.870806
v 0.000000 0.075000 0.871148
v -0.082844 -0.075000 0.847389
v -0.082981 0.075000 0.847715
v 1.125795 -0.075000 -0.201541
v 0.700542 -0.075000 -0.253842
v 1.074240 0.075000 -0.186240
v 0.677471 0.075000 -0.236951
v -1.074240 0.075000 -0.186240
v -0.677471 0.075000 -0.236951
v -0.700542 -0.075000 -0.253842
v -1.125795 -0.075000 -0.201541
v 0.707001 -0.075000 -0.282999
v 0.700930 0.075000 -0.308390
v 0.677471 0.075000 -0.236951
v 0.700542 -0.075000 -0.253842
v -0.707001 -0.075000 -0.282999
v -0.677471 0.075000 -0.236951
v -0.700930 0.075000 -0.308390
v -0.700542 -0.075000 -0.253842
v 0.342201 0.075000 0.335956
v 0.472364 0.075000 0.690615
v 0.371960 -0.075000 0.362282
v 0.500978 -0.075000 0.726098
v -0.371960 -0.075000 0.362282
v -0.472364 0.075000 0.690615
v -0.342201 0.075000 0.335956
v -0.500978 -0.075000 0.726098
v 0.161198 -0.075000 0.519358
v 0.157764 0.075000 0.493033
v 0.075228 0.075000 0.575850
v 0.075237 -0.075000 0.605524
v -0.161198 -0.075000 0.519358
v -0.075228 0.075000 0.575850
v -0.157764 0.075000 0.493033
v -0.075237 -0.075000 0.605524
v 0.075237 -0.075000 0.605524
v 0.075228 0.075000 0.575850
v 0.000000 0.075000 0.681474
v 0.000000 -0.075000 0.680943
v -0.075237 -0.075000 0.605524
v 0.000000 0.075000 0.681474
v -0.075228 0.075000 0.575850
v 0.000000 -0.075000 0.680943
v 0.107286 -0.075000 0.701273
v 0.107441 0.075000 0.701273
v 0.119488 0.075000 0.760876
v 0.119488 -0.075000 0.760876
v 0.082844 -0.075000 0.847389
v 0.082981 0.075000 0.847715
v 0.000000 0.075000 0.871148
v 0.000000 -0.075000 0.870806
v 0.107286 -0.075000 0.701273
v 0.075186 0.075000 0.646828
v 0.075077 -0.075000 0.646828
v 1.276493 0.075000 0.071625
v 1.125532 -0.075000 0.129758
v 1.313324 -0.075000 0.072892
v 1.092941 0.075000 0.128168
v -1.125532 -0.075000 0.129758
v -1.276493 0.075000 0.071625
v -1.313324 -0.075000 0.072892
v -1.092941 0.075000 0.128168
v 0.854984 -0.075000 0.679529
v 1.725252 0.075000 0.937260
v 0.872114 0.075000 0.665260
v 1.767450 -0.075000 0.965266
v 1.530418 0.075000 0.387300
v 1.286909 -0.075000 0.399886
v 1.572281 -0.075000 0.399886
v 1.246504 0.075000 0.387300
v -0.854984 -0.075000 0.679529
v -1.725252 0.075000 0.937260
v -1.767450 -0.075000 0.965266
v -0.872114 0.075000 0.665260
v -1.286909 -0.075000 0.399886
v -1.530418 0.075000 0.387300
v -1.572281 -0.075000 0.399886
v -1.246504 0.075000 0.387300
v 0.161198 -0.075000 0.519358
v 0.472364 0.075000 0.690615
v 0.157764 0.075000 0.493033
v 0.500978 -0.075000 0.726098
v -0.161198 -0.075000 0.519358
v -0.472364 0.075000 0.690615
v -0.500978 -0.075000 0.726098
v -0.157764 0.075000 0.493033
v 1.074240 0.075000 -0.186240
v 0.926094 -0.075000 -0.092971
v 1.125795 -0.075000 -0.201541
v 0.895891 0.075000 -0.090587
v -0.926094 -0.075000 -0.092971
v -1.074240 0.075000 -0.186240
v -1.125795 -0.075000 -0.201541
v -0.895891 0.075000 -0.090587
v -0.119488 -0.075000 0.760876
v -0.119488 0.075000 0.760876
v -0.107286 -0.075000 0.701273
v -0.107441 0.075000 0.701273
v -0.082844 -0.075000 0.847389
v -0.082981 0.075000 0.847715
v -0.075186 0.075000 0.646828
v -0.107286 -0.075000 0.701273
v -0.075077 -0.075000 0.646828
v 0.075237 -0.075000 0.605524
v 0.075228 0.075000 0.575850
v 0.075186 0.075000 0.646828
v 0.075077 -0.075000 0.646828
v -0.075237 -0.075000 0.605524
v -0.075186 0.075000 0.646828
v -0.075228 0.075000 0.575850
v -0.075077 -0.075000 0.646828
v 0.000000 -0.075000 0.680943
v 0.075077 -0.075000 0.646828
v 0.028072 -0.075000 0.693103
v 0.075237 -0.075000 0.605524
v -0.028072 -0.075000 0.693103
v -0.075077 -0.075000 0.646828
v -0.075237 -0.075000 0.605524
v 0.000000 -0.075000 -0.858992
v 0.161198 -0.075000 0.519358
v -0.161198 -0.075000 0.519358
v 0.500978 -0.075000 0.726098
v 0.371960 -0.075000 0.362282
v 0.654005 -0.075000 0.451715
v 0.633463 -0.075000 0.303020
v 0.700542 -0.075000 -0.253842
v 0.926094 -0.075000 -0.092971
v 1.125795 -0.075000 -0.201541
v 0.702236 -0.075000 0.337257
v 0.707001 -0.075000 -0.282999
v 1.125532 -0.075000 0.129758
v 0.783094 -0.075000 0.420109
v 0.974125 -0.075000 -0.081633
v 1.044920 -0.075000 -0.060048
v 1.159201 -0.075000 -0.012016
v 1.313324 -0.075000 0.072892
v 0.833147 -0.075000 0.518082
v 1.286909 -0.075000 0.399886
v 0.851238 -0.075000 0.603446
v 1.267204 -0.075000 0.196720
v 1.376682 -0.075000 0.260209
v 1.572281 -0.075000 0.399886
v 0.854984 -0.075000 0.679529
v 1.326515 -0.075000 0.428318
v 1.471083 -0.075000 0.557879
v 1.581907 -0.075000 0.683632
v 1.767450 -0.075000 0.965266
v 0.107286 -0.075000 0.701273
v 0.079418 -0.075000 0.760876
v 0.056145 -0.075000 0.704733
v 0.119488 -0.075000 0.760876
v 0.056145 -0.075000 0.817037
v 0.079418 -0.075000 0.760876
v 0.082844 -0.075000 0.847389
v 0.000000 -0.075000 0.870806
v 0.000000 -0.075000 0.840296
v -0.056145 -0.075000 0.817037
v -0.082844 -0.075000 0.847389
v -0.119488 -0.075000 0.760876
v -0.079418 -0.075000 0.760876
v -0.107286 -0.075000 0.701273
v -0.079418 -0.075000 0.760876
v -0.056145 -0.075000 0.704733
v 0.028072 0.075000 0.693103
v 0.075186 0.075000 0.646828
v 0.000000 0.075000 0.681474
v 0.075228 0.075000 0.575850
v 0.056145 0.075000 0.704733
v 0.107441 0.075000 0.701273
v 0.079418 0.075000 0.760875
v 0.119488 0.075000 0.760876
v 0.056145 0.075000 0.817037
v 0.082981 0.075000 0.847715
v 0.000000 0.075000 0.871148
v 0.000000 0.075000 0.840296
v -0.056145 0.075000 0.817037
v -0.082981 0.075000 0.847715
v -0.119488 0.075000 0.760876
v -0.079418 0.075000 0.760875
v -0.107441 0.075000 0.701273
v -0.056145 0.075000 0.704733
v -0.075186 0.075000 0.646828
v -0.028072 0.075000 0.693103
v -0.075228 0.075000 0.575850
v 0.075077 -0.075000 0.646828
v 0.056145 -0.075000 0.704733
v 0.028072 -0.075000 0.693103
v 0.107286 -0.075000 0.701273
v -0.075077 -0.075000 0.646828
v -0.056145 -0.075000 0.704733
v -0.107286 -0.075000 0.701273
v -0.028072 -0.075000 0.693103
v 0.943920 0.075000 -0.079248
v 1.092941 0.075000 0.128168
v 1.014717 0.075000 -0.057663
v 1.128996 0.075000 -0.009630
v 1.276493 0.075000 0.071625
v 0.895891 0.075000 -0.090587
v 0.721695 0.075000 0.330390
v 0.802553 0.075000 0.413241
v 0.614004 0.075000 0.274405
v 1.246504 0.075000 0.387300
v 1.234615 0.075000 0.195129
v 0.852604 0.075000 0.511215
v 1.344093 0.075000 0.258619
v 1.530418 0.075000 0.387300
v 0.870695 0.075000 0.596578
v 1.301716 0.075000 0.428318
v 0.872114 0.075000 0.665260
v 1.446283 0.075000 0.557879
v 1.557108 0.075000 0.683632
v 1.725252 0.075000 0.937260
v 0.677471 0.075000 -0.236951
v 1.074240 0.075000 -0.186240
v 0.342201 0.075000 0.335956
v 0.634546 0.075000 0.427680
v 0.000000 0.075000 -0.845256
v 0.700930 0.075000 -0.308390
v 0.472364 0.075000 0.690615
v 0.157764 0.075000 0.493033
v 0.075228 0.075000 0.575850
v 0.000000 0.075000 0.681474
v -0.075228 0.075000 0.575850
v 0.666565 0.075000 -0.757056
v 0.746389 0.075000 -0.285506
v 0.399845 0.075000 -0.880485
v -0.157764 0.075000 0.493033
v 0.399845 0.075000 -1.130352
v 0.000000 0.075000 -1.314693
v -0.399845 0.075000 -0.880485
v -0.399845 0.075000 -1.130352
v -0.700930 0.075000 -0.308390
v -0.666565 0.075000 -0.757056
v -0.746389 0.075000 -0.285506
v -0.677471 0.075000 -0.236951
v -0.342201 0.075000 0.335956
v -0.472364 0.075000 0.690615
v -0.614004 0.075000 0.274405
v -0.634546 0.075000 0.427680
v -0.895891 0.075000 -0.090587
v -1.074240 0.075000 -0.186240
v -0.721695 0.075000 0.330390
v -1.092941 0.075000 0.128168
v -0.943920 0.075000 -0.079248
v -1.014717 0.075000 -0.057663
v -1.128996 0.075000 -0.009630
v -1.276493 0.075000 0.071625
v -0.802553 0.075000 0.413241
v -1.246504 0.075000 0.387300
v -0.852604 0.075000 0.511215
v -1.234615 0.075000 0.195129
v -1.344093 0.075000 0.258619
v -1.530418 0.075000 0.387300
v -0.870695 0.075000 0.596578
v -1.301716 0.075000 0.428318
v -0.872114 0.075000 0.665260
v -1.446283 0.075000 0.557879
v -1.557108 0.075000 0.683632
v -1.725252 0.075000 0.937260
v 0.417814 -0.075000 -0.893413
v 0.683735 -0.075000 -0.767357
v 0.770161 -0.075000 -0.256611
v 0.000000 -0.075000 -1.335171
v 0.417812 -0.075000 -1.138510
v -0.417814 -0.075000 -0.893413
v -0.417812 -0.075000 -1.138510
v -0.707001 -0.075000 -0.282999
v -0.683735 -0.075000 -0.767357
v -0.770161 -0.075000 -0.256611
v -0.700542 -0.075000 -0.253842
v -0.371960 -0.075000 0.362282
v -0.500978 -0.075000 0.726098
v -0.633463 -0.075000 0.303020
v -0.654005 -0.075000 0.451715
v -0.926094 -0.075000 -0.092971
v -1.125795 -0.075000 -0.201541
v -0.702236 -0.075000 0.337257
v -1.125532 -0.075000 0.129758
v -0.974125 -0.075000 -0.081633
v -0.783094 -0.075000 0.420109
v -1.044920 -0.075000 -0.060048
v -1.159201 -0.075000 -0.012016
v -1.313324 -0.075000 0.072892
v -0.833147 -0.075000 0.518082
v -1.286909 -0.075000 0.399886
v -0.851238 -0.075000 0.603446
v -1.267204 -0.075000 0.196720
v -1.376682 -0.075000 0.260209
v -1.572281 -0.075000 0.399886
v -0.854984 -0.075000 0.679529
v -1.326515 -0.075000 0.428318
v -1.471083 -0.075000 0.557879
v -1.581907 -0.075000 0.683632
v -1.767450 -0.075000 0.965266
v 0.371960 -0.075000 0.362282
v 0.634546 0.075000 0.427680
v 0.342201 0.075000 0.335956
v 0.654005 -0.075000 0.451715
v -0.371960 -0.075000 0.362282
v -0.634546 0.075000 0.427680
v -0.654005 -0.075000 0.451715
v -0.342201 0.075000 0.335956
v 0.056145 -0.075000 0.704733
v 0.056145 0.075000 0.704733
v 0.028072 -0.075000 0.693103
v 0.028072 0.075000 0.693103
v 0.000000 -0.075000 0.680943
v 0.000000 0.075000 0.681474
v 0.056145 -0.075000 0.704733
v 0.079418 0.075000 0.760875
v 0.079418 -0.075000 0.760876
v 0.079418 -0.075000 0.760876
v 0.056145 0.075000 0.817037
v 0.056145 -0.075000 0.817037
v 0.000000 0.075000 0.840296
v 0.000000 -0.075000 0.840296
v -0.056145 0.075000 0.704733
v -0.056145 -0.075000 0.704733
v -0.028072 -0.075000 0.693103
v -0.028072 0.075000 0.693103
v 0.000000 -0.075000 0.680943
v 0.000000 0.075000 0.681474
v -0.079418 0.075000 0.760875
v -0.056145 -0.075000 0.704733
v -0.079418 -0.075000 0.760876
v -0.056145 0.075000 0.817037
v -0.079418 -0.075000 0.760876
v -0.056145 -0.075000 0.817037
v 0.000000 0.075000 0.840296
v 0.000000 -0.075000 0.840296
v 0.721695 0.075000 0.330390
v 0.633463 -0.075000 0.303020
v 0.702236 -0.075000 0.337257
v 0.614004 0.075000 0.274405
v 0.802553 0.075000 0.413241
v 0.783094 -0.075000 0.420109
v 0.852604 0.075000 0.511215
v 0.833147 -0.075000 0.518082
v 0.870695 0.075000 0.596578
v 0.851238 -0.075000 0.603446
v 0.872114 0.075000 0.665260
v 0.854984 -0.075000 0.679529
v -0.633463 -0.075000 0.303020
v -0.721695 0.075000 0.330390
v -0.702236 -0.075000 0.337257
v -0.614004 0.075000 0.274405
v -0.802553 0.075000 0.413241
v -0.783094 -0.075000 0.420109
v -0.852604 0.075000 0.511215
v -0.833147 -0.075000 0.518082
v -0.870695 0.075000 0.596578
v -0.851238 -0.075000 0.603446
v -0.872114 0.075000 0.665260
v -0.854984 -0.075000 0.679529
v 0.707001 -0.075000 -0.282999
v 0.746389 0.075000 -0.285506
v 0.700930 0.075000 -0.308390
v 0.770161 -0.075000 -0.256611
v -0.707001 -0.075000 -0.282999
v -0.746389 0.075000 -0.285506
v -0.770161 -0.075000 -0.256611
v -0.700930 0.075000 -0.308390
vn 0.7859 0.1361 -0.6032
vn 0.9785 0.1232 -0.1656
vn 0.7910 0.1363 -0.5965
vn 0.9784 0.1237 -0.1656
vn 0.8369 0.1402 -0.5291
vn 0.8338 0.1402 -0.5339
vn 0.8320 0.1363 -0.5379
vn 0.8388 0.1363 -0.5271
vn 0.0005 0.1226 -0.9925
vn -0.8320 0.1363 -0.5379
vn -0.8388 0.1363 -0.5271
vn -0.8369 0.1402 -0.5291
vn -0.8338 0.1402 -0.5339
vn -0.7859 0.1361 -0.6032
vn -0.7910 0.1363 -0.5965
vn -0.9785 0.1232 -0.1656
vn -0.9784 0.1237 -0.1656
vn 0.7900 0.1292 -0.5994
vn 0.7849 0.1285 -0.6062
vn 0.8269 0.1332 -0.5464
vn 0.8268 0.1333 -0.5465
vn 0.7082 0.1171 -0.6963
vn 0.7022 0.1161 -0.7024
vn 0.6295 0.1030 -0.7701
vn 0.6237 0.1011 -0.7751
vn 0.5883 0.0942 -0.8031
vn -0.7899 0.1297 -0.5994
vn -0.8269 0.1332 -0.5464
vn -0.7849 0.1286 -0.6062
vn -0.8268 0.1333 -0.5465
vn -0.7082 0.1171 -0.6963
vn -0.7022 0.1161 -0.7024
vn -0.6295 0.1030 -0.7701
vn -0.6237 0.1011 -0.7751
vn -0.5883 0.0942 -0.8031
vn 0.5320 0.1011 -0.8407
vn 0.5722 0.1031 -0.8136
vn 0.5401 0.1022 -0.8354
vn 0.4675 0.0922 -0.8792
vn 0.4584 0.0902 -0.8841
vn 0.4255 0.0826 -0.9012
vn 0.3443 0.0842 -0.9351
vn 0.3335 0.0817 -0.9392
vn 0.4282 0.1005 -0.8981
vn 0.2639 0.0684 -0.9621
vn 0.4384 0.1025 -0.8929
vn 0.4796 0.1104 -0.8705
vn 0.4795 0.1099 -0.8706
vn 0.2566 0.0670 -0.9642
vn 0.2293 0.0616 -0.9714
vn -0.5320 0.1011 -0.8407
vn -0.5401 0.1022 -0.8354
vn -0.5722 0.1031 -0.8136
vn -0.4675 0.0922 -0.8792
vn -0.4584 0.0902 -0.8841
vn -0.4255 0.0826 -0.9012
vn -0.3334 0.0824 -0.9392
vn -0.3442 0.0847 -0.9351
vn -0.4282 0.1005 -0.8981
vn -0.4384 0.1025 -0.8929
vn -0.4796 0.1104 -0.8705
vn -0.4795 0.1099 -0.8706
vn -0.2639 0.0684 -0.9621
vn -0.2566 0.0670 -0.9642
vn -0.2293 0.0616 -0.9714
vn 0.9855 0.1043 -0.1341
vn 0.9855 0.1041 -0.1343
vn 0.9854 0.1041 -0.1344
vn -0.9855 0.1043 -0.1341
vn -0.9855 0.1041 -0.1343
vn -0.9855 0.1040 -0.1343
vn 0.0005 -0.0024 1.0000
vn 0.0004 -0.0025 1.0000
vn -0.6618 -0.0015 0.7497
vn 0.1235 0.1363 -0.9829
vn 0.1235 0.1362 -0.9830
vn 0.1236 0.1362 -0.9829
vn -0.1236 0.1362 -0.9829
vn -0.1235 0.1361 -0.9830
vn -0.1235 0.1362 -0.9830
vn -0.1235 0.1363 -0.9829
vn 0.9536 0.1011 0.2837
vn 0.9536 0.1011 0.2836
vn -0.9536 0.1011 0.2837
vn -0.9536 0.1011 0.2836
vn 0.9345 0.1129 -0.3376
vn 0.9345 0.1128 -0.3376
vn -0.9345 0.1129 -0.3376
vn -0.9345 0.1128 -0.3376
vn 0.7013 0.1386 0.6993
vn 0.7012 0.1381 0.6995
vn 0.7013 0.1386 0.6992
vn 0.7011 0.1384 0.6995
vn -0.7013 0.1386 0.6993
vn -0.7013 0.1386 0.6992
vn -0.7012 0.1381 0.6995
vn -0.7011 0.1384 0.6995
vn 0.7677 0.0621 0.6378
vn 0.7678 0.0621 0.6377
vn -0.7677 0.0621 0.6378
vn -0.7678 0.0621 0.6377
vn 0.9334 -0.0005 -0.3589
vn 0.9334 -0.0005 -0.3588
vn 0.9951 -0.0010 0.0993
vn 0.9951 -0.0000 0.0992
vn 0.6620 -0.0016 0.7495
vn 0.6618 -0.0016 0.7497
vn 0.0006 -0.0024 1.0000
vn 0.9333 -0.0005 -0.3591
vn 0.9647 -0.0008 -0.2633
vn 0.9333 -0.0005 -0.3590
vn 0.9647 -0.0005 -0.2633
vn 0.2913 0.0767 0.9535
vn 0.2916 0.0761 0.9535
vn 0.2915 0.0767 0.9535
vn 0.2915 0.0766 0.9535
vn -0.2915 0.0765 0.9535
vn -0.2913 0.0767 0.9536
vn -0.2915 0.0767 0.9535
vn -0.2915 0.0766 0.9535
vn -0.2994 0.1089 0.9479
vn 0.0005 0.0836 0.9965
vn -0.0000 0.0836 0.9965
vn 0.2994 0.1089 0.9479
vn -0.5222 0.1187 0.8445
vn 0.5222 0.1187 0.8445
vn 0.4744 0.0775 0.8769
vn 0.4744 0.0776 0.8769
vn 0.4744 0.0777 0.8769
vn -0.4744 0.0777 0.8769
vn -0.4744 0.0775 0.8769
vn -0.9951 -0.0000 0.0992
vn -0.9951 -0.0010 0.0993
vn -0.9334 -0.0005 -0.3589
vn -0.9334 -0.0005 -0.3588
vn -0.6618 -0.0014 0.7497
vn -0.9647 -0.0005 -0.2633
vn -0.9333 -0.0005 -0.3591
vn -0.9333 -0.0005 -0.3590
vn -0.9647 -0.0006 -0.2633
vn 1.0000 -0.0005 0.0015
vn 1.0000 -0.0004 0.0013
vn 0.9647 -0.0005 -0.2632
vn 0.9647 -0.0007 -0.2632
vn -1.0000 -0.0005 0.0015
vn -0.9647 -0.0000 -0.2632
vn -1.0000 -0.0004 0.0013
vn -0.9647 -0.0005 -0.2632
vn -0.0000 -1.0000 -0.0000
vn 0.0005 -1.0000 0.0005
vn 0.0003 -1.0000 0.0003
vn 0.0005 1.0000 0.0005
vn -0.0000 1.0000 -0.0000
vn -0.2993 0.1099 0.9478
vn -0.2993 0.1098 0.9478
vn 0.2993 0.1099 0.9478
vn 0.2993 0.1098 0.9478
vn -0.7071 0.0005 0.7071
vn -0.7071 -0.0000 0.7071
vn -0.3862 -0.0005 0.9224
vn -0.3903 -0.0015 0.9207
vn -1.0000 -0.0000 0.0006
vn -1.0000 0.0005 0.0005
vn -1.0000 -0.0000 0.0005
vn -0.7071 -0.0000 -0.7072
vn -1.0000 0.0005 0.0004
vn -0.7071 -0.0000 -0.7071
vn 0.0003 -0.0000 -1.0000
vn 0.0003 0.0005 -1.0000
vn 0.7071 0.0005 0.7071
vn 0.7071 -0.0000 0.7071
vn 0.3862 -0.0005 0.9224
vn 0.3903 -0.0015 0.9207
vn 1.0000 0.0005 0.0006
vn 1.0000 -0.0000 0.0005
vn 0.7071 -0.0000 -0.7072
vn 1.0000 0.0005 0.0005
vn 1.0000 -0.0000 0.0004
vn 0.7071 -0.0000 -0.7071
vn 0.0005 0.0005 -1.0000
vn 0.0005 -0.0000 -1.0000
vn -0.5960 0.1167 0.7945
vn -0.4527 0.1050 0.8854
vn -0.5827 0.1157 0.8044
vn -0.8073 0.1311 0.5754
vn -0.8031 0.1308 0.5812
vn -0.9338 0.1363 0.3309
vn -0.9840 0.1294 0.1225
vn -0.9843 0.1295 0.1198
vn -0.9917 0.1235 0.0356
vn 0.4527 0.1050 0.8854
vn 0.5960 0.1167 0.7945
vn 0.5827 0.1157 0.8044
vn 0.8073 0.1311 0.5754
vn 0.8031 0.1308 0.5812
vn 0.9338 0.1363 0.3309
vn 0.9840 0.1294 0.1225
vn 0.9843 0.1295 0.1199
vn 0.9917 0.1235 0.0356
vn -0.4097 0.1226 0.9039
vn 0.4097 0.1226 0.9039
vt 0.000000 0.000000
vt 0.000000 0.750000
vt 0.000000 1.000000
vt 0.041667 0.750000
vt 0.041667 1.000000
vt 0.041667 0.875000
vt 0.541667 0.750000
vt 0.711321 0.750000
vt 0.816076 0.750000
vt 0.675321 0.750000
vt 0.726421 0.750000
vt 1.000000 0.750000
vt 0.008394 1.000000
vt 0.020833 1.000000
vt 0.016787 1.000000
vt 0.024691 1.000000
vt 0.029307 1.000000
vt 0.375000 0.713626
vt 0.437500 0.713626
vt 0.375000 0.784760
vt 0.437500 0.784760
vt 0.500000 0.713626
vt 0.500000 0.784760
vt 0.352955 0.713626
vt 0.250000 0.784760
vt 0.250000 0.713626
vt 0.213545 0.713626
vt 0.125000 0.784760
vt 0.125000 0.713626
vt 0.000000 0.784760
vt 0.000000 0.713626
s 1
f 1/1/1 2/1/2 3/1/3
f 3/1/3 2/1/2 4/1/4
f 1/1/1 3/1/3 5/1/5
f 6/1/6 1/1/1 5/1/5
f 5/1/5 7/1/7 6/1/6
f 7/1/7 5/1/5 8/1/8
f 8/1/8 9/1/9 7/1/7
f 10/1/9 7/1/7 9/1/9
f 11/1/10 10/1/9 9/1/9
f 11/1/10 9/1/9 12/1/11
f 13/1/12 11/1/10 12/1/11
f 11/1/10 13/1/12 14/1/13
f 14/1/13 13/1/12 15/1/14
f 15/1/14 13/1/12 16/1/15
f 16/1/15 17/1/16 15/1/14
f 17/1/16 16/1/15 18/1/17
f 19/1/18 20/1/19 21/1/20
f 19/1/18 21/1/20 22/1/21
f 23/1/22 20/1/19 19/1/18
f 23/1/22 24/1/23 20/1/19
f 24/1/23 23/1/22 25/1/24
f 26/1/25 24/1/23 25/1/24
f 26/1/25 25/1/24 27/1/26
f 27/1/26 28/1/26 26/1/25
f 29/1/27 30/1/28 31/1/29
f 30/1/28 29/1/27 32/1/30
f 31/1/29 33/1/31 29/1/27
f 33/1/31 31/1/29 34/1/32
f 34/1/32 35/1/33 33/1/31
f 36/1/34 35/1/33 34/1/32
f 36/1/34 37/1/35 35/1/33
f 38/1/35 37/1/35 36/1/34
f 39/1/36 40/1/37 41/1/38
f 40/1/37 42/1/37 41/1/38
f 39/1/36 41/1/38 43/1/39
f 43/1/39 44/1/40 39/1/36
f 44/1/40 43/1/39 45/1/41
f 46/1/41 44/1/40 45/1/41
f 47/1/42 48/1/43 49/1/44
f 48/1/43 47/1/42 50/1/45
f 49/1/44 51/1/46 47/1/42
f 49/1/44 52/1/47 51/1/46
f 52/1/47 53/1/48 51/1/46
f 50/1/45 54/1/49 48/1/43
f 54/1/49 50/1/45 55/1/50
f 55/1/50 56/1/50 54/1/49
f 57/1/51 58/1/52 59/1/53
f 59/1/53 58/1/52 60/1/53
f 57/1/51 61/1/54 58/1/52
f 62/1/55 61/1/54 57/1/51
f 62/1/55 63/1/56 61/1/54
f 64/1/56 63/1/56 62/1/55
f 65/1/57 66/1/58 67/1/59
f 67/1/59 66/1/58 68/1/60
f 67/1/59 68/1/60 69/1/61
f 69/1/61 68/1/60 70/1/62
f 65/1/57 71/1/63 66/1/58
f 72/1/64 71/1/63 65/1/57
f 72/1/64 73/1/65 71/1/63
f 74/1/65 73/1/65 72/1/64
f 75/1/66 76/1/67 77/1/66
f 75/1/66 77/1/66 78/1/68
f 79/1/69 80/1/69 81/1/70
f 80/1/69 79/1/69 82/1/71
f 83/2/72 84/3/73 85/4/74
f 85/4/74 84/3/73 86/5/74
f 87/1/75 88/1/76 89/1/77
f 90/1/76 89/1/77 88/1/76
f 91/1/78 92/1/79 93/1/80
f 91/1/78 93/1/80 94/1/81
f 95/1/82 96/1/82 97/1/82
f 95/1/82 97/1/82 98/1/83
f 99/1/84 100/1/84 101/1/84
f 100/1/84 99/1/84 102/1/85
f 103/1/86 104/1/87 105/1/86
f 105/1/86 104/1/87 106/1/87
f 107/1/88 108/1/89 109/1/88
f 108/1/89 107/1/88 110/1/89
f 111/1/90 112/1/91 113/1/92
f 111/1/90 113/1/92 114/1/93
f 115/1/94 116/1/95 117/1/96
f 116/1/95 115/1/94 118/1/97
f 119/1/98 120/1/99 121/1/99
f 119/1/98 121/1/99 122/1/98
f 123/1/100 124/1/101 125/1/101
f 124/1/101 123/1/100 126/1/100
f 127/4/102 128/5/103 129/5/104
f 127/4/102 129/5/104 130/4/105
f 129/5/104 131/4/106 130/4/105
f 131/4/106 129/5/104 132/5/107
f 131/4/106 132/5/107 133/3/72
f 133/3/72 134/2/108 131/4/106
f 135/4/109 136/5/110 128/5/111
f 136/5/110 135/4/109 137/6/112
f 138/1/113 139/1/114 140/1/115
f 139/1/114 138/1/113 141/1/116
f 142/1/117 143/1/118 144/1/119
f 143/1/118 142/1/117 145/1/120
f 146/1/121 147/1/121 148/1/121
f 147/1/121 146/1/121 149/1/121
f 150/1/122 151/1/123 152/1/122
f 151/1/123 150/1/122 153/1/122
f 154/1/124 155/1/124 156/1/124
f 155/1/124 154/1/124 157/1/124
f 158/1/123 159/1/122 160/1/122
f 159/1/122 158/1/123 161/1/122
f 162/1/125 163/1/125 164/1/125
f 163/1/125 162/1/125 165/1/125
f 166/1/126 167/1/126 168/1/126
f 167/1/126 166/1/126 169/1/126
f 170/1/127 171/1/128 172/1/129
f 171/1/128 170/1/127 173/1/129
f 174/1/130 175/1/131 176/1/130
f 175/1/131 174/1/130 177/1/130
f 178/4/132 179/5/133 180/4/134
f 181/5/135 180/4/134 179/5/133
f 182/4/74 179/5/133 178/4/132
f 179/5/133 182/4/74 183/5/136
f 184/5/137 185/4/138 181/5/139
f 184/5/137 186/6/140 185/4/138
f 187/6/141 188/5/142 189/5/143
f 187/6/141 189/5/143 190/6/144
f 191/6/145 192/5/146 193/5/147
f 192/5/146 191/6/145 194/6/148
f 195/1/149 196/1/150 197/1/150
f 195/1/149 198/1/150 196/1/150
f 199/1/150 200/1/150 195/1/149
f 200/1/150 201/1/150 195/1/149
f 202/1/149 198/1/150 195/1/149
f 201/1/150 202/1/149 195/1/149
f 202/1/149 203/1/150 198/1/150
f 204/1/150 202/1/149 201/1/150
f 205/1/150 203/1/150 206/1/149
f 202/1/149 206/1/149 203/1/150
f 207/1/150 206/1/149 208/1/150
f 208/1/150 206/1/149 209/1/149
f 202/1/149 209/1/149 206/1/149
f 208/1/150 209/1/149 210/1/149
f 209/1/149 211/1/150 210/1/149
f 210/1/149 212/1/150 208/1/150
f 209/1/149 202/1/149 213/1/150
f 210/1/149 214/1/151 212/1/150
f 214/1/151 215/1/150 212/1/150
f 214/1/151 210/1/149 216/1/150
f 214/1/151 216/1/150 217/1/150
f 218/1/150 214/1/151 217/1/150
f 214/1/151 218/1/150 219/1/150
f 214/1/151 220/1/150 215/1/150
f 221/1/149 220/1/150 214/1/151
f 220/1/150 221/1/149 222/1/150
f 221/1/149 214/1/151 223/1/150
f 223/1/150 224/1/150 221/1/149
f 225/1/150 221/1/149 224/1/150
f 222/1/150 221/1/149 226/1/149
f 226/1/149 221/1/149 227/1/150
f 227/1/150 228/1/150 226/1/149
f 226/1/149 228/1/150 229/1/150
f 226/1/149 229/1/150 230/1/150
f 231/7/150 232/8/150 233/9/150
f 232/8/150 231/7/150 234/7/150
f 234/7/150 235/10/150 236/11/150
f 234/7/150 237/7/150 235/10/150
f 235/10/150 237/7/150 238/12/150
f 239/12/150 235/10/150 238/12/150
f 238/12/150 240/10/150 239/12/150
f 240/10/150 238/12/150 241/7/150
f 241/7/150 242/7/150 240/10/150
f 240/10/150 242/7/150 243/11/150
f 244/7/150 245/8/150 242/7/150
f 245/8/150 244/7/150 246/9/150
f 247/13/152 248/14/152 249/3/152
f 249/3/152 248/14/152 250/14/152
f 251/15/152 248/14/152 247/13/152
f 251/15/152 252/5/152 248/14/152
f 253/16/152 252/5/152 251/15/152
f 252/5/152 253/16/152 254/5/152
f 255/17/152 254/5/152 253/16/152
f 254/5/152 255/17/152 256/5/152
f 255/17/152 257/3/152 256/5/152
f 257/3/152 255/17/152 258/3/152
f 259/17/152 257/3/152 258/3/152
f 257/3/152 259/17/152 260/5/152
f 261/5/152 260/5/152 259/17/152
f 261/5/152 259/17/152 262/16/152
f 262/16/152 263/5/152 261/5/152
f 263/5/152 262/16/152 264/15/152
f 264/15/152 265/14/152 263/5/152
f 266/13/152 265/14/152 264/15/152
f 266/13/152 249/3/152 265/14/152
f 249/3/152 267/14/152 265/14/152
f 268/6/150 269/18/150 270/19/150
f 269/18/150 268/6/150 271/4/150
f 272/6/150 273/18/150 274/4/150
f 273/18/150 272/6/150 275/19/150
f 276/1/152 277/1/153 278/1/152
f 277/1/153 279/1/152 278/1/152
f 277/1/153 280/1/152 279/1/152
f 281/1/153 277/1/153 276/1/152
f 277/1/153 281/1/153 282/1/152
f 277/1/153 282/1/152 283/1/152
f 281/1/153 284/1/152 282/1/152
f 285/1/153 277/1/153 283/1/152
f 277/1/153 285/1/153 286/1/152
f 287/1/152 285/1/153 283/1/152
f 288/1/152 286/1/152 285/1/153
f 285/1/153 289/1/152 288/1/152
f 290/1/152 285/1/153 287/1/152
f 285/1/153 290/1/152 291/1/152
f 292/1/152 291/1/152 290/1/152
f 291/1/152 292/1/152 293/1/152
f 293/1/152 292/1/152 294/1/152
f 294/1/152 292/1/152 295/1/152
f 284/1/152 281/1/153 296/1/153
f 297/1/152 296/1/153 281/1/153
f 296/1/153 298/1/153 284/1/152
f 298/1/153 299/1/152 284/1/152
f 300/1/153 298/1/153 296/1/153
f 301/1/152 300/1/153 296/1/153
f 302/1/152 298/1/153 303/1/152
f 298/1/153 300/1/153 303/1/152
f 303/1/152 300/1/153 304/1/152
f 300/1/153 305/1/152 304/1/152
f 305/1/152 300/1/153 306/1/152
f 307/1/152 301/1/152 308/1/152
f 301/1/152 307/1/152 309/1/152
f 300/1/153 301/1/152 309/1/152
f 300/1/153 310/1/152 306/1/152
f 309/1/152 311/1/152 312/1/152
f 300/1/153 309/1/152 312/1/152
f 313/1/152 312/1/152 314/1/152
f 300/1/153 312/1/152 313/1/152
f 313/1/152 315/1/152 300/1/153
f 316/1/152 315/1/152 313/1/152
f 315/1/152 316/1/152 317/1/152
f 318/1/153 300/1/153 315/1/152
f 300/1/153 319/1/153 310/1/152
f 300/1/153 318/1/153 319/1/153
f 320/1/152 310/1/152 319/1/153
f 321/1/152 319/1/153 318/1/153
f 322/1/152 319/1/153 321/1/152
f 321/1/152 318/1/153 323/1/153
f 318/1/153 324/1/152 323/1/153
f 323/1/153 325/1/152 321/1/152
f 323/1/153 326/1/153 325/1/152
f 326/1/153 323/1/153 327/1/152
f 326/1/153 327/1/152 328/1/152
f 329/1/152 326/1/153 328/1/152
f 326/1/153 329/1/152 330/1/152
f 326/1/153 331/1/152 325/1/152
f 332/1/153 331/1/152 326/1/153
f 331/1/152 332/1/153 333/1/152
f 332/1/153 326/1/153 334/1/152
f 334/1/152 335/1/152 332/1/153
f 336/1/152 332/1/153 335/1/152
f 333/1/152 332/1/153 337/1/152
f 338/1/152 337/1/152 332/1/153
f 337/1/152 338/1/152 339/1/152
f 338/1/152 340/1/152 339/1/152
f 339/1/152 340/1/152 341/1/152
f 339/1/152 341/1/152 342/1/152
f 343/1/150 213/1/150 202/1/149
f 344/1/150 213/1/150 343/1/150
f 213/1/150 344/1/150 345/1/150
f 343/1/150 346/1/150 347/1/150
f 343/1/150 202/1/149 346/1/150
f 348/1/150 349/1/150 346/1/150
f 348/1/150 346/1/150 202/1/149
f 202/1/149 350/1/150 348/1/150
f 350/1/150 351/1/150 348/1/150
f 351/1/150 350/1/150 352/1/150
f 350/1/150 202/1/149 353/1/149
f 202/1/149 354/1/149 353/1/149
f 354/1/149 202/1/149 204/1/150
f 355/1/150 354/1/149 204/1/150
f 353/1/149 354/1/149 356/1/150
f 354/1/149 357/1/150 356/1/150
f 356/1/150 358/1/149 353/1/149
f 359/1/150 353/1/149 358/1/149
f 358/1/149 356/1/150 360/1/150
f 361/1/151 358/1/149 360/1/150
f 358/1/149 361/1/151 362/1/150
f 361/1/151 360/1/150 363/1/150
f 362/1/150 361/1/151 364/1/150
f 361/1/151 365/1/150 364/1/150
f 361/1/151 366/1/150 365/1/150
f 367/1/150 361/1/151 363/1/150
f 361/1/151 367/1/150 368/1/149
f 369/1/150 368/1/149 367/1/150
f 361/1/151 368/1/149 370/1/150
f 371/1/150 370/1/150 368/1/149
f 368/1/149 372/1/150 371/1/150
f 373/1/149 368/1/149 369/1/150
f 368/1/149 373/1/149 374/1/150
f 374/1/150 373/1/149 375/1/150
f 375/1/150 373/1/149 376/1/150
f 373/1/149 377/1/150 376/1/150
f 378/1/154 379/1/154 380/1/155
f 379/1/154 378/1/154 381/1/154
f 382/1/156 383/1/156 384/1/156
f 383/1/156 382/1/156 385/1/157
f 386/18/158 387/20/159 388/19/160
f 388/19/160 387/20/159 389/21/160
f 388/19/160 389/21/160 390/22/161
f 390/22/161 389/21/160 391/23/161
f 392/24/159 393/25/162 387/20/158
f 393/25/162 392/24/159 394/26/163
f 395/27/164 396/28/165 393/25/166
f 396/28/165 395/27/164 397/29/167
f 397/29/167 398/30/168 396/28/165
f 398/30/168 397/29/167 399/31/169
f 400/20/170 401/18/171 402/19/172
f 402/19/172 403/21/172 400/20/170
f 403/21/172 402/19/172 404/22/173
f 404/22/173 405/23/173 403/21/172
f 406/25/174 407/24/170 400/20/171
f 407/24/170 406/25/174 408/26/175
f 409/28/176 410/27/177 406/25/178
f 410/27/177 409/28/176 411/29/179
f 411/29/179 409/28/176 412/30/180
f 412/30/180 413/31/181 411/29/179
f 414/1/182 415/1/183 416/1/184
f 415/1/183 414/1/182 417/1/183
f 416/1/184 418/1/185 414/1/182
f 418/1/185 416/1/184 419/1/186
f 419/1/186 420/1/187 418/1/185
f 420/1/187 419/1/186 421/1/187
f 421/1/187 422/1/188 420/1/187
f 422/1/188 421/1/187 423/1/189
f 423/1/189 424/1/190 422/1/188
f 424/1/190 423/1/189 425/1/190
f 426/1/191 427/1/192 428/1/193
f 427/1/192 426/1/191 429/1/191
f 430/1/194 428/1/193 427/1/192
f 428/1/193 430/1/194 431/1/195
f 432/1/196 431/1/195 430/1/194
f 431/1/195 432/1/196 433/1/196
f 434/1/197 433/1/196 432/1/196
f 433/1/196 434/1/197 435/1/198
f 436/1/199 435/1/198 434/1/197
f 435/1/198 436/1/199 437/1/199
f 438/1/200 439/1/200 440/1/200
f 439/1/200 438/1/200 441/1/200
f 442/1/201 443/1/201 444/1/201
f 443/1/201 442/1/201 445/1/201
