# Blender 5.1.1
# www.blender.org
mtllib eyethingsnipermag.mtl
o Cube
o 111232010893414
v -0.019440 -0.121439 -0.129104
v -0.000430 -0.092054 -0.129104
v 0.004045 -0.130325 -0.136917
v 0.021202 -0.085088 -0.129104
v -0.024693 -0.156029 -0.129104
v 0.032784 -0.104622 -0.129104
v -0.013111 -0.175561 -0.129104
v 0.027531 -0.139212 -0.129104
v 0.008521 -0.168597 -0.129104
v -0.026632 -0.143793 0.129373
v -0.043044 -0.114249 0.129373
v -0.049836 -0.150833 0.136917
v -0.063435 -0.106135 0.129373
v -0.023813 -0.177462 0.129373
v -0.075860 -0.124206 0.129373
v -0.036238 -0.195531 0.129373
v -0.073041 -0.157874 0.129373
v -0.056629 -0.187418 0.129373
v 0.052138 -0.006606 0.127867
v 0.050963 0.022037 0.127867
v 0.031872 -0.003096 0.134266
v 0.038605 0.035956 0.127867
v 0.041442 -0.033190 0.127867
v 0.022303 0.027000 0.127867
v 0.025139 -0.042147 0.127867
v 0.011606 0.000414 0.127867
v 0.012781 -0.028228 0.127867
v 0.035883 0.003134 -0.121090
v 0.037415 0.024773 -0.121090
v 0.051290 0.005334 -0.125932
v 0.047075 0.035024 -0.121090
v 0.043376 -0.017215 -0.121090
v 0.059205 0.027883 -0.121090
v 0.055506 -0.024354 -0.121090
v 0.066698 0.007535 -0.121090
v 0.065166 -0.014104 -0.121090
v 0.047075 0.035024 -0.121090
v 0.037415 0.024773 -0.121090
v 0.059205 0.027883 -0.121090
v 0.066698 0.007535 -0.121090
v 0.035883 0.003134 -0.121090
v 0.065166 -0.014104 -0.121090
v 0.043376 -0.017215 -0.121090
v 0.055506 -0.024354 -0.121090
v 0.012781 -0.028228 0.127867
v 0.041442 -0.033190 0.127867
v 0.025139 -0.042147 0.127867
v 0.052138 -0.006606 0.127867
v 0.011606 0.000414 0.127867
v 0.050963 0.022037 0.127867
v 0.022303 0.027000 0.127867
v 0.038605 0.035956 0.127867
v -0.056629 -0.187418 0.129373
v -0.026632 -0.143793 0.129373
v -0.023813 -0.177462 0.129373
v -0.036238 -0.195531 0.129373
v -0.073041 -0.157874 0.129373
v -0.043044 -0.114249 0.129373
v -0.075860 -0.124206 0.129373
v -0.063435 -0.106135 0.129373
v -0.000430 -0.092054 -0.129104
v -0.019440 -0.121439 -0.129104
v 0.027531 -0.139212 -0.129104
v 0.032784 -0.104622 -0.129104
v 0.021202 -0.085088 -0.129104
v 0.008521 -0.168597 -0.129104
v -0.024693 -0.156029 -0.129104
v -0.013111 -0.175561 -0.129104
vn -0.2704 0.1238 -0.9548
vn -0.0926 0.1884 -0.9777
vn -0.0000 -0.0000 -1.0000
vn 0.0256 0.1610 -0.9866
vn -0.1952 -0.0794 -0.9775
vn 0.1947 0.0789 -0.9777
vn -0.0252 -0.1605 -0.9867
vn 0.2708 -0.1233 -0.9547
vn 0.0921 -0.1888 -0.9777
vn 0.2795 0.1023 0.9547
vn 0.1038 0.1825 0.9777
vn -0.0000 -0.0000 1.0000
vn -0.0203 0.1609 0.9868
vn 0.1879 -0.0930 0.9778
vn -0.1884 0.0936 0.9776
vn 0.0198 -0.1604 0.9869
vn -0.2792 -0.1018 0.9548
vn -0.1034 -0.1820 0.9778
vn 0.2913 -0.0608 0.9547
vn 0.1742 0.1170 0.9777
vn 0.0110 0.1600 0.9871
vn 0.1234 -0.1683 0.9780
vn -0.1239 0.1689 0.9778
vn -0.0115 -0.1595 0.9871
vn -0.2909 0.0603 0.9549
vn -0.1737 -0.1175 0.9778
vn -0.2928 -0.0501 -0.9549
vn -0.1699 0.1219 -0.9779
vn -0.0096 0.1600 -0.9871
vn -0.1288 -0.1654 -0.9778
vn 0.1283 0.1649 -0.9779
vn 0.0090 -0.1595 -0.9872
vn 0.2932 0.0506 -0.9547
vn 0.1703 -0.1224 -0.9778
vt 0.000000 0.000000
s 1
f 1/1/1 2/1/2 3/1/3
f 2/1/2 4/1/4 3/1/3
f 5/1/5 1/1/1 3/1/3
f 4/1/4 6/1/6 3/1/3
f 7/1/7 5/1/5 3/1/3
f 6/1/6 8/1/8 3/1/3
f 9/1/9 7/1/7 3/1/3
f 8/1/8 9/1/9 3/1/3
f 10/1/10 11/1/11 12/1/12
f 11/1/11 13/1/13 12/1/12
f 14/1/14 10/1/10 12/1/12
f 13/1/13 15/1/15 12/1/12
f 16/1/16 14/1/14 12/1/12
f 15/1/15 17/1/17 12/1/12
f 18/1/18 16/1/16 12/1/12
f 17/1/17 18/1/18 12/1/12
f 19/1/19 20/1/20 21/1/12
f 20/1/20 22/1/21 21/1/12
f 23/1/22 19/1/19 21/1/12
f 22/1/21 24/1/23 21/1/12
f 25/1/24 23/1/22 21/1/12
f 24/1/23 26/1/25 21/1/12
f 27/1/26 25/1/24 21/1/12
f 26/1/25 27/1/26 21/1/12
f 28/1/27 29/1/28 30/1/3
f 29/1/28 31/1/29 30/1/3
f 32/1/30 28/1/27 30/1/3
f 31/1/29 33/1/31 30/1/3
f 34/1/32 32/1/30 30/1/3
f 33/1/31 35/1/33 30/1/3
f 36/1/34 34/1/32 30/1/3
f 35/1/33 36/1/34 30/1/3
f 37/1/12 38/1/12 39/1/12
f 38/1/12 40/1/12 39/1/12
f 41/1/12 40/1/12 38/1/12
f 41/1/12 42/1/12 40/1/12
f 42/1/12 41/1/12 43/1/12
f 42/1/12 43/1/12 44/1/12
f 45/1/3 46/1/3 47/1/3
f 45/1/3 48/1/3 46/1/3
f 48/1/3 45/1/3 49/1/3
f 49/1/3 50/1/3 48/1/3
f 50/1/3 49/1/3 51/1/3
f 50/1/3 51/1/3 52/1/3
f 53/1/3 54/1/3 55/1/3
f 53/1/3 55/1/3 56/1/3
f 54/1/3 53/1/3 57/1/3
f 57/1/3 58/1/3 54/1/3
f 59/1/3 58/1/3 57/1/3
f 58/1/3 59/1/3 60/1/3
f 61/1/12 62/1/12 63/1/12
f 61/1/12 63/1/12 64/1/12
f 61/1/12 64/1/12 65/1/12
f 62/1/12 66/1/12 63/1/12
f 66/1/12 62/1/12 67/1/12
f 66/1/12 67/1/12 68/1/12
o 122802264910777
v 0.024657 -0.079304 -0.127703
v 0.031654 -0.180090 -0.127703
v -0.013462 -0.179833 -0.127703
v 0.058608 -0.109005 -0.127703
v 0.061506 -0.150753 -0.127703
v -0.020459 -0.079047 -0.127703
v -0.047413 -0.150132 -0.127703
v -0.050311 -0.108385 -0.127703
v 0.001459 -0.173326 0.127703
v -0.019904 -0.103087 0.127703
v -0.033178 -0.199743 0.127703
v 0.006957 -0.133290 0.127703
v -0.063390 -0.100411 0.127703
v -0.076665 -0.197066 0.127703
v -0.098028 -0.126828 0.127703
v -0.103526 -0.166864 0.127703
v 0.040909 0.041051 0.123425
v -0.005990 -0.027126 0.123425
v 0.025940 -0.045729 0.123425
v 0.004595 0.034237 0.123425
v -0.014832 0.005996 0.123425
v 0.072838 0.022448 0.123425
v 0.062254 -0.038915 0.123425
v 0.081680 -0.010675 0.123425
v 0.082098 -0.013542 -0.118405
v 0.048156 0.039079 -0.118405
v 0.075471 0.033109 -0.118405
v 0.089530 0.011312 -0.118405
v 0.057529 -0.026897 -0.118405
v 0.023587 0.025725 -0.118405
v 0.030214 -0.020927 -0.118405
v 0.016155 0.000870 -0.118405
vn -0.0000 -0.0000 -1.0000
vn -0.0000 -0.0000 1.0000
vt 0.000000 0.000000
s 1
f 69/2/35 70/2/35 71/2/35
f 70/2/35 69/2/35 72/2/35
f 70/2/35 72/2/35 73/2/35
f 69/2/35 71/2/35 74/2/35
f 74/2/35 71/2/35 75/2/35
f 74/2/35 75/2/35 76/2/35
f 77/2/36 78/2/36 79/2/36
f 78/2/36 77/2/36 80/2/36
f 79/2/36 78/2/36 81/2/36
f 81/2/36 82/2/36 79/2/36
f 82/2/36 81/2/36 83/2/36
f 82/2/36 83/2/36 84/2/36
f 85/2/36 86/2/36 87/2/36
f 86/2/36 85/2/36 88/2/36
f 86/2/36 88/2/36 89/2/36
f 85/2/36 87/2/36 90/2/36
f 90/2/36 87/2/36 91/2/36
f 90/2/36 91/2/36 92/2/36
f 93/2/35 94/2/35 95/2/35
f 93/2/35 95/2/35 96/2/35
f 94/2/35 93/2/35 97/2/35
f 97/2/35 98/2/35 94/2/35
f 98/2/35 97/2/35 99/2/35
f 98/2/35 99/2/35 100/2/35
o 125524586106221
v -0.074799 -0.036356 -0.096784
v 0.035903 -0.052238 -0.096784
v -0.019669 -0.079580 -0.127703
v 0.025447 -0.079837 -0.127703
v -0.049521 -0.108918 -0.127703
v 0.059398 -0.109538 -0.127703
v -0.137944 -0.075389 -0.096784
v 0.129316 -0.113731 -0.096784
v -0.116542 -0.146472 -0.096784
v 0.062296 -0.151286 -0.127703
v -0.046623 -0.150665 -0.127703
v 0.150719 -0.184814 -0.096784
v -0.023129 -0.207966 -0.096784
v 0.087574 -0.223847 -0.096784
v -0.012672 -0.180366 -0.127703
v 0.032444 -0.180623 -0.127703
v -0.070887 -0.073674 0.097845
v -0.019114 -0.103620 0.127703
v 0.036806 -0.065547 0.097845
v -0.062600 -0.100944 0.127703
v 0.007747 -0.133823 0.127703
v -0.097238 -0.127361 0.127703
v 0.095117 -0.107248 0.097845
v -0.164877 -0.126870 0.097845
v 0.069888 -0.174350 0.097845
v -0.102736 -0.167397 0.127703
v 0.002249 -0.173859 0.127703
v -0.190104 -0.193972 0.097845
v -0.024102 -0.227546 0.097845
v -0.131795 -0.235673 0.097845
v -0.032388 -0.200276 0.127703
v -0.075875 -0.197599 0.127703
v 0.073628 0.021915 0.123425
v 0.045814 0.064339 0.098100
v 0.041699 0.040518 0.123425
v 0.005385 0.033704 0.123425
v 0.130512 0.029450 0.098100
v -0.045679 0.059857 0.098100
v 0.082470 -0.011208 0.123425
v -0.014042 0.005463 0.123425
v 0.158800 -0.024374 0.098100
v -0.090371 0.018628 0.098100
v 0.114109 -0.065602 0.098100
v -0.062083 -0.035194 0.098100
v 0.063044 -0.039448 0.123425
v -0.005200 -0.027659 0.123425
v 0.022615 -0.070084 0.098100
v 0.026730 -0.046262 0.123425
v -0.018480 0.032169 -0.099241
v 0.046368 0.056657 -0.099241
v 0.024377 0.025192 -0.118405
v 0.048947 0.038546 -0.118405
v 0.016945 0.000337 -0.118405
v 0.076261 0.032576 -0.118405
v -0.041086 -0.007907 -0.099241
v 0.115472 0.051212 -0.099241
v -0.008207 -0.040095 -0.099241
v 0.090320 0.010779 -0.118405
v 0.031004 -0.021460 -0.118405
v 0.148351 0.019023 -0.099241
v 0.060898 -0.045540 -0.099241
v 0.125745 -0.021053 -0.099241
v 0.058319 -0.027430 -0.118405
v 0.082888 -0.014075 -0.118405
vn -0.1066 0.4832 -0.8690
vn 0.1862 0.6473 -0.7392
vn -0.0679 0.5320 -0.8440
vn 0.2544 0.6225 -0.7401
vn -0.3277 0.0762 -0.9417
vn 0.4045 0.3930 -0.8258
vn -0.2861 0.1839 -0.9404
vn 0.3981 0.2586 -0.8801
vn -0.3985 -0.2589 -0.8799
vn 0.3272 -0.0758 -0.9419
vn -0.4043 -0.3927 -0.8260
vn 0.2856 -0.1835 -0.9406
vn -0.1868 -0.6469 -0.7393
vn 0.1070 -0.4836 -0.8687
vn -0.2550 -0.6221 -0.7403
vn 0.0674 -0.5324 -0.8438
vn -0.1499 0.6561 0.7396
vn 0.1043 0.5247 0.8449
vn 0.1328 0.4840 0.8649
vn -0.2089 0.6391 0.7402
vn 0.3296 0.0596 0.9422
vn -0.3774 0.4105 0.8301
vn 0.3006 0.1546 0.9411
vn -0.3801 0.2990 0.8753
vn 0.3805 -0.2986 0.8753
vn -0.3302 -0.0591 0.9420
vn 0.3770 -0.4102 0.8304
vn -0.3010 -0.1550 0.9409
vn 0.1494 -0.6559 0.7399
vn -0.1333 -0.4836 0.8651
vn 0.2092 -0.6393 0.7399
vn -0.1039 -0.5244 0.8451
vn 0.3261 0.4389 0.8373
vn 0.0849 0.6674 0.7399
vn 0.1218 0.6613 0.7402
vn -0.1692 0.5062 0.8457
vn 0.3373 0.3664 0.8672
vn -0.1859 0.4752 0.8600
vn 0.3326 -0.0324 0.9425
vn -0.3323 0.0330 0.9426
vn 0.3215 -0.0932 0.9423
vn -0.3220 0.0937 0.9421
vn 0.1863 -0.4754 0.8598
vn -0.3369 -0.3668 0.8672
vn 0.1696 -0.5065 0.8454
vn -0.3258 -0.4386 0.8375
vn -0.0846 -0.6672 0.7401
vn -0.1214 -0.6615 0.7400
vn -0.3258 0.3809 -0.8653
vn -0.0698 0.6686 -0.7403
vn -0.3138 0.4455 -0.8385
vn -0.1011 0.6648 -0.7401
vn -0.3331 -0.0270 -0.9425
vn 0.1844 0.5007 -0.8457
vn -0.3257 -0.0775 -0.9423
vn 0.1991 0.4704 -0.8597
vn -0.1996 -0.4705 -0.8595
vn 0.3327 0.0265 -0.9427
vn -0.1839 -0.5011 -0.8456
vn 0.3252 0.0780 -0.9424
vn 0.0693 -0.6689 -0.7401
vn 0.3254 -0.3807 -0.8656
vn 0.1006 -0.6646 -0.7404
vn 0.3134 -0.4452 -0.8388
vt 0.000000 0.000000
s 1
f 101/3/37 102/3/38 103/3/39
f 102/3/38 104/3/40 103/3/39
f 105/3/41 101/3/37 103/3/39
f 102/3/38 106/3/42 104/3/40
f 105/3/41 107/3/43 101/3/37
f 106/3/42 102/3/38 108/3/44
f 105/3/41 109/3/45 107/3/43
f 108/3/44 110/3/46 106/3/42
f 109/3/45 105/3/41 111/3/47
f 110/3/46 108/3/44 112/3/48
f 111/3/47 113/3/49 109/3/45
f 112/3/48 114/3/50 110/3/46
f 113/3/49 111/3/47 115/3/51
f 114/3/50 116/3/52 110/3/46
f 116/3/52 113/3/49 115/3/51
f 113/3/49 116/3/52 114/3/50
f 117/3/53 118/3/54 119/3/55
f 118/3/54 117/3/53 120/3/56
f 119/3/55 118/3/54 121/3/57
f 117/3/53 122/3/58 120/3/56
f 123/3/59 119/3/55 121/3/57
f 122/3/58 117/3/53 124/3/60
f 121/3/57 125/3/61 123/3/59
f 124/3/60 126/3/62 122/3/58
f 125/3/61 121/3/57 127/3/63
f 126/3/62 124/3/60 128/3/64
f 127/3/63 129/3/65 125/3/61
f 126/3/62 128/3/64 130/3/66
f 129/3/65 127/3/63 131/3/67
f 126/3/62 130/3/66 132/3/68
f 130/3/66 129/3/65 132/3/68
f 129/3/65 131/3/67 132/3/68
f 133/3/69 134/3/70 135/3/71
f 134/3/70 136/3/72 135/3/71
f 137/3/73 134/3/70 133/3/69
f 136/3/72 134/3/70 138/3/74
f 137/3/73 133/3/69 139/3/75
f 138/3/74 140/3/76 136/3/72
f 139/3/75 141/3/77 137/3/73
f 140/3/76 138/3/74 142/3/78
f 139/3/75 143/3/79 141/3/77
f 144/3/80 140/3/76 142/3/78
f 143/3/79 139/3/75 145/3/81
f 140/3/76 144/3/80 146/3/82
f 145/3/81 147/3/83 143/3/79
f 144/3/80 147/3/83 146/3/82
f 147/3/83 145/3/81 148/3/84
f 146/3/82 147/3/83 148/3/84
f 149/3/85 150/3/86 151/3/87
f 151/3/87 150/3/86 152/3/88
f 153/3/89 149/3/85 151/3/87
f 150/3/86 154/3/90 152/3/88
f 149/3/85 153/3/89 155/3/91
f 154/3/90 150/3/86 156/3/92
f 153/3/89 157/3/93 155/3/91
f 156/3/92 158/3/94 154/3/90
f 157/3/93 153/3/89 159/3/95
f 158/3/94 156/3/92 160/3/96
f 159/3/95 161/3/97 157/3/93
f 158/3/94 160/3/96 162/3/98
f 161/3/97 159/3/95 163/3/99
f 162/3/98 164/3/100 158/3/94
f 164/3/100 161/3/97 163/3/99
f 162/3/98 161/3/97 164/3/100
o 135696335441419
v 0.182189 0.291353 0.104107
v 0.182189 -0.151999 -0.104107
v 0.182189 0.291353 -0.104107
v 0.182189 -0.151999 0.104107
v -0.182189 0.291353 0.104107
v 0.229433 -0.195221 0.104107
v -0.182189 0.291353 -0.104107
v 0.229433 -0.195221 -0.104107
v 0.229433 -0.260055 0.104107
v 0.229433 -0.260055 -0.104107
v -0.182189 -0.151999 0.104107
v -0.182189 -0.151999 -0.104107
v -0.229433 -0.195221 -0.104107
v -0.229433 -0.195221 0.104107
v -0.229433 -0.260055 -0.104107
v -0.229433 -0.260055 0.104107
v -0.229433 -0.260055 -0.104107
v 0.229433 -0.260055 -0.104107
v 0.229433 -0.260055 0.104107
v -0.229433 -0.260055 0.104107
v -0.229433 -0.260055 0.104107
v 0.229433 -0.260055 0.104107
v 0.182189 -0.151999 0.104107
v 0.229433 -0.195221 0.104107
v -0.182189 -0.151999 0.104107
v -0.229433 -0.195221 0.104107
v -0.182189 0.291353 0.104107
v 0.182189 0.291353 0.104107
v 0.182189 0.291353 -0.104107
v -0.182189 -0.151999 -0.104107
v -0.182189 0.291353 -0.104107
v 0.182189 -0.151999 -0.104107
v 0.229433 -0.260055 -0.104107
v 0.229433 -0.195221 -0.104107
v -0.229433 -0.260055 -0.104107
v -0.229433 -0.195221 -0.104107
vn 0.7071 0.7071 0.0003
vn 0.9152 0.4031 0.0004
vn 0.7071 0.7071 -0.0000
vn 0.9152 0.4031 0.0005
vn -0.7071 0.7071 -0.0000
vn 0.9152 0.4031 -0.0000
vn -0.7071 0.7071 0.0003
vn 0.9151 0.4031 -0.0000
vn 1.0000 0.0005 0.0005
vn -0.9152 0.4031 0.0004
vn -0.9152 0.4031 0.0005
vn -0.9152 0.4031 -0.0000
vn -0.9151 0.4031 -0.0000
vn -1.0000 0.0005 0.0005
vn 0.0005 -1.0000 0.0005
vn 0.0005 0.0005 1.0000
vn 0.0002 0.0002 1.0000
vn 0.0005 0.0005 -1.0000
vn 0.0002 0.0002 -1.0000
vt 0.000000 0.000000
s 1
f 165/4/101 166/4/102 167/4/103
f 166/4/102 165/4/101 168/4/104
f 167/4/103 169/4/105 165/4/101
f 166/4/102 168/4/104 170/4/106
f 167/4/103 171/4/107 169/4/105
f 170/4/106 172/4/108 166/4/102
f 172/4/108 170/4/106 173/4/109
f 173/4/109 174/4/109 172/4/108
f 171/4/107 175/4/110 169/4/105
f 171/4/107 176/4/111 175/4/110
f 177/4/112 175/4/110 176/4/111
f 175/4/110 177/4/112 178/4/113
f 179/4/114 178/4/113 177/4/112
f 178/4/113 179/4/114 180/4/114
f 181/4/115 182/4/115 183/4/115
f 181/4/115 183/4/115 184/4/115
f 185/4/116 186/4/116 187/4/117
f 188/4/116 187/4/117 186/4/116
f 185/4/116 187/4/117 189/4/116
f 189/4/116 190/4/116 185/4/116
f 187/4/117 191/4/116 189/4/116
f 191/4/116 187/4/117 192/4/116
f 193/4/118 194/4/119 195/4/118
f 194/4/119 193/4/118 196/4/118
f 197/4/118 194/4/119 196/4/118
f 196/4/118 198/4/118 197/4/118
f 194/4/119 197/4/118 199/4/118
f 200/4/118 194/4/119 199/4/118
