# Blender 5.1.1
# www.blender.org
mtllib keyperscopenwaaarr.mtl
o scope_noir
v -0.830590 0.084952 -0.030439
v -0.831265 0.095668 0.000136
v -0.824252 0.106442 -0.021550
v -0.824304 0.115272 0.000136
v -0.831265 0.083287 -0.029745
v -0.824304 0.106442 0.021450
v -0.830642 0.084952 0.030340
v -0.831265 0.083410 0.029748
v -0.831265 0.063457 -0.021550
v -0.831265 0.063457 0.021450
v -0.831265 0.003471 0.000136
v -0.831265 0.016816 0.032375
v -0.831265 0.016977 -0.032474
v -0.824304 -0.000962 0.036498
v -0.824252 -0.000962 -0.036597
v -0.829707 -0.000962 0.000136
v 0.989037 0.100686 0.000136
v 0.983996 0.106442 0.021450
v 0.989037 0.088829 0.028731
v 0.983996 0.115272 0.000136
v 0.983946 0.106442 -0.021550
v 0.989037 0.088658 -0.028887
v 0.989037 0.063457 -0.021550
v 0.989037 0.084952 -0.030439
v 0.989037 0.063457 0.021450
v 0.989037 0.084952 0.030340
v 0.989037 -0.000962 -0.001257
v 0.989037 0.012372 -0.033438
v 0.983946 -0.000962 -0.036597
v 0.989037 -0.000962 0.001530
v 0.989037 0.012242 0.033392
v 0.983996 -0.000962 0.036498
vn -0.9338 0.3301 -0.1382
vn -0.9784 0.2066 -0.0000
vn -0.9337 0.3303 -0.1381
vn -0.9413 0.3377 -0.0000
vn -0.9799 0.1840 -0.0766
vn -0.9338 0.3301 0.1382
vn -0.9338 0.3302 0.1381
vn -0.9799 0.1841 0.0767
vn -1.0000 -0.0000 -0.0000
vn -0.9784 -0.2068 -0.0000
vn -0.9846 -0.1605 0.0687
vn -0.9846 -0.1605 -0.0687
vn -0.9338 -0.3301 0.1382
vn -0.9338 -0.3301 -0.1382
vn -0.9413 -0.3377 -0.0000
vn 0.9799 0.1994 -0.0000
vn 0.9361 0.3232 0.1385
vn 0.9957 0.0844 0.0382
vn 0.9445 0.3284 -0.0000
vn 0.9371 0.3236 -0.1311
vn 0.9957 0.0844 -0.0383
vn 1.0000 -0.0000 -0.0000
vn 0.9992 -0.0382 -0.0152
vn 0.9858 -0.1530 -0.0688
vn 0.9371 -0.3236 -0.1310
vn 0.9992 -0.0381 0.0153
vn 0.9863 -0.1531 0.0613
vn 0.9361 -0.3232 0.1385
vt 1.804820 -0.599105
vt 1.811950 -0.596603
vt 1.806900 -0.594088
vt 1.811950 -0.592026
vt 1.804980 -0.599492
vt 1.816930 -0.594088
vt 1.819010 -0.599105
vt 1.818860 -0.599464
vt 1.806900 -0.604122
vt 1.816930 -0.604122
vt 1.811950 -0.618124
vt 1.819470 -0.615009
vt 1.804340 -0.614972
vt 1.820440 -0.619159
vt 1.803380 -0.619159
vt 1.811950 -0.619159
vt 1.811870 -0.595432
vt 1.805190 -0.598199
vt 1.811870 -0.592026
vt 1.818650 -0.598239
vt 1.812200 -0.619160
vt 1.819720 -0.616047
vt 1.820440 -0.619160
vt 1.811550 -0.619160
vt 1.804100 -0.616077
vt 1.803380 -0.619160
s 1
usemtl Meshpart1Mtl.012
f 1/1/1 2/2/2 3/3/3
f 3/3/3 2/2/2 4/4/4
f 2/2/2 1/1/1 5/5/5
f 2/2/2 6/6/6 4/4/4
f 2/2/2 7/7/7 6/6/6
f 7/7/7 2/2/2 8/8/8
f 9/9/9 2/2/2 5/5/5
f 2/2/2 10/10/9 8/8/8
f 2/2/2 9/9/9 10/10/9
f 9/9/9 11/11/10 10/10/9
f 10/10/9 11/11/10 12/12/11
f 11/11/10 9/9/9 13/13/12
f 11/11/10 14/14/13 12/12/11
f 15/15/14 11/11/10 13/13/12
f 14/14/13 11/11/10 16/16/15
f 11/11/10 15/15/14 16/16/15
f 17/17/16 18/3/17 19/18/18
f 18/3/17 17/17/16 20/19/19
f 17/17/16 21/6/20 20/19/19
f 21/6/20 17/17/16 22/20/21
f 17/17/16 23/10/22 22/20/21
f 22/20/21 23/10/22 24/7/22
f 19/18/18 25/9/22 17/17/16
f 17/17/16 25/9/22 23/10/22
f 25/9/22 19/18/18 26/1/22
f 27/21/23 23/10/22 25/9/22
f 23/10/22 27/21/23 28/22/24
f 27/21/23 29/23/25 28/22/24
f 25/9/22 30/24/26 27/21/23
f 30/24/26 25/9/22 31/25/27
f 31/25/27 32/26/28 30/24/26
