# Blender 5.1.1
# www.blender.org
mtllib keyperletruc.mtl
o le_machin
v 0.405688 0.056102 0.079914
v 0.405688 0.056102 -0.081301
v 0.386429 0.079528 -0.081301
v 0.386429 0.079528 0.079914
v 0.405688 0.056102 0.079914
v 0.353347 -0.031738 -0.081301
v 0.405688 0.056102 -0.081301
v 0.353347 -0.031738 0.079914
v 0.307944 -0.006236 -0.256650
v 0.315502 -0.014457 -0.250954
v 0.315088 -0.013452 -0.256132
v 0.320161 -0.022352 -0.255559
v 0.315709 -0.014969 -0.261101
v 0.309135 -0.009155 -0.266228
v 0.317159 -0.018598 -0.264620
v 0.311982 -0.016134 -0.273010
v 0.304838 -0.015083 -0.280151
v 0.319126 -0.023372 -0.265706
v 0.315658 -0.025308 -0.275080
v 0.320990 -0.028005 -0.264102
v 0.322284 -0.031262 -0.260169
v 0.322698 -0.032266 -0.254990
v 0.319282 -0.034218 -0.271919
v 0.310118 -0.028036 -0.283101
v 0.321818 -0.040477 -0.264415
v 0.322595 -0.042408 -0.254524
v 0.315192 -0.040617 -0.278650
v 0.318764 -0.049454 -0.268037
v 0.319851 -0.052177 -0.254058
v 0.313380 -0.057572 -0.270833
v 0.308979 -0.046762 -0.283828
v 0.303906 -0.012676 -0.232472
v 0.307788 -0.043816 -0.225481
v 0.312655 -0.055874 -0.237129
v 0.314725 -0.060911 -0.253750
v 0.318194 -0.048061 -0.240495
v 0.314208 -0.038209 -0.230972
v 0.308979 -0.025256 -0.228017
v 0.321404 -0.039493 -0.244895
v 0.318609 -0.032515 -0.238164
v 0.314881 -0.023341 -0.236043
v 0.322077 -0.030749 -0.250022
v 0.320628 -0.027120 -0.246502
v 0.318712 -0.022347 -0.245412
v 0.311257 -0.014431 -0.239203
v 0.316797 -0.017713 -0.247071
v 0.308720 -0.008167 -0.246708
v 0.275483 0.016932 -0.177282
v 0.292827 0.050609 -0.058985
v 0.312344 0.030506 -0.059246
v 0.264249 0.027421 -0.182977
v 0.275173 0.001375 -0.171381
v 0.312086 0.002612 -0.059091
v 0.292827 -0.028466 -0.243445
v 0.284905 -0.021456 -0.249868
v 0.291998 -0.039038 -0.237181
v 0.262955 -0.009994 -0.168636
v 0.282938 -0.047016 -0.234645
v 0.386429 0.079528 -0.081301
v -0.434142 0.079528 -0.081301
v -0.434142 0.079528 0.079914
v 0.386429 0.079528 0.079914
v 0.307944 -0.006236 -0.256650
v 0.309135 -0.009155 -0.266228
v 0.299194 -0.001115 -0.257064
v 0.300851 -0.005231 -0.270628
v 0.289410 0.001572 -0.257424
v 0.311982 -0.016134 -0.273010
v 0.291480 -0.003466 -0.273993
v 0.281541 -0.003973 -0.276114
v 0.304838 -0.015083 -0.280151
v 0.296347 -0.015523 -0.285693
v 0.286977 -0.017413 -0.289109
v 0.280764 -0.002078 -0.238528
v 0.285682 -0.014131 -0.224032
v 0.290756 -0.001763 -0.240289
v 0.295156 -0.012578 -0.227294
v 0.303906 -0.012676 -0.232472
v 0.276053 -0.017237 -0.222946
v 0.271031 -0.004760 -0.237959
v 0.262126 -0.009621 -0.238528
v 0.279263 0.001639 -0.257633
v 0.269478 -0.000908 -0.257684
v 0.254723 -0.016341 -0.240289
v 0.260625 -0.005904 -0.257633
v 0.271807 -0.006717 -0.276837
v 0.262903 -0.011516 -0.276114
v 0.255447 -0.018045 -0.273993
v 0.253377 -0.013007 -0.257424
v 0.311257 -0.014431 -0.239203
v 0.300333 -0.003844 -0.243086
v 0.308720 -0.008167 -0.246708
v 0.292827 0.050609 -0.058985
v 0.264249 0.027421 -0.182977
v 0.264767 0.051080 -0.058467
v 0.284905 -0.021456 -0.249868
v 0.272894 -0.022145 -0.252609
v 0.247993 0.027007 -0.185256
v 0.236086 0.015995 -0.182614
v 0.244576 0.031474 -0.057898
v -0.434142 -0.031738 0.079914
v -0.413486 0.063619 0.089907
v -0.434142 0.079528 0.079914
v -0.413486 -0.031738 0.089907
v 0.386429 0.079528 0.079914
v 0.382132 0.054979 0.089907
v 0.405688 0.056102 0.079914
v 0.375039 0.063619 0.089907
v 0.386429 0.079528 0.079914
v -0.434142 0.079528 0.079914
v -0.413486 0.063619 0.089907
v 0.375039 0.063619 0.089907
v 0.375039 0.063619 0.089907
v -0.413486 0.063619 0.089907
v 0.330257 -0.031738 0.089907
v -0.413486 -0.031738 0.089907
v 0.382132 0.054979 0.089907
v 0.382132 0.054979 0.089907
v 0.330257 -0.031738 0.089907
v 0.353347 -0.031738 0.079914
v 0.405688 0.056102 0.079914
v 0.263214 -0.058835 -0.230972
v 0.285682 -0.014131 -0.224032
v 0.295156 -0.012578 -0.227294
v 0.303906 -0.012676 -0.232472
v 0.292620 -0.031293 -0.217977
v 0.301369 -0.027969 -0.221859
v 0.283249 -0.034994 -0.216681
v 0.307788 -0.043816 -0.225481
v 0.276053 -0.017237 -0.222946
v 0.299764 -0.048957 -0.222014
v 0.271031 -0.004760 -0.237959
v 0.312655 -0.055874 -0.237129
v 0.262126 -0.009621 -0.238528
v 0.266993 -0.021679 -0.224032
v 0.254723 -0.016341 -0.240289
v 0.259123 -0.027156 -0.227294
v 0.273982 -0.038836 -0.217977
v 0.252911 -0.033301 -0.232472
v 0.265336 -0.042548 -0.221859
v 0.281126 -0.056505 -0.222014
v 0.271756 -0.058395 -0.225481
v 0.257984 -0.045882 -0.228017
v 0.290652 -0.053285 -0.220821
v 0.286562 -0.069945 -0.235008
v 0.305200 -0.062397 -0.235008
v 0.296295 -0.067201 -0.234282
v 0.314208 -0.038209 -0.230972
v 0.308979 -0.025256 -0.228017
v -0.434142 0.079528 -0.081301
v -0.434142 -0.031738 -0.081301
v -0.434142 -0.031738 0.079914
v -0.434142 0.079528 0.079914
v 0.260314 -0.030102 -0.285693
v 0.264197 -0.061237 -0.278650
v 0.253895 -0.035709 -0.280151
v 0.249909 -0.025857 -0.270628
v 0.259123 -0.048662 -0.283101
v 0.246698 -0.034425 -0.266228
v 0.245508 -0.031510 -0.256650
v 0.249494 -0.041404 -0.273010
v 0.253222 -0.050577 -0.275080
v 0.256846 -0.059487 -0.271919
v 0.247475 -0.046798 -0.264620
v 0.249391 -0.051571 -0.265706
v 0.246025 -0.043169 -0.261101
v 0.247941 -0.051566 -0.255559
v 0.251255 -0.056205 -0.264102
v 0.245404 -0.041652 -0.256132
v 0.246285 -0.033441 -0.246708
v 0.245819 -0.042656 -0.250954
v 0.248821 -0.039700 -0.239203
v 0.247112 -0.045913 -0.247071
v 0.252393 -0.048610 -0.236043
v 0.248977 -0.050546 -0.245412
v 0.256121 -0.057784 -0.238164
v 0.263214 -0.058835 -0.230972
v 0.250944 -0.055320 -0.246502
v 0.258968 -0.064763 -0.244895
v 0.252393 -0.058949 -0.250022
v 0.260159 -0.067677 -0.254524
v 0.253015 -0.060466 -0.254990
v 0.252601 -0.059461 -0.260169
v 0.259331 -0.065746 -0.264415
v 0.254723 -0.016341 -0.240289
v 0.255447 -0.018045 -0.273993
v 0.253377 -0.013007 -0.257424
v 0.248252 -0.021741 -0.257064
v 0.249339 -0.024464 -0.243086
v 0.259123 -0.027156 -0.227294
v 0.252911 -0.033301 -0.232472
v 0.257984 -0.045882 -0.228017
v 0.272894 -0.022145 -0.252609
v 0.264197 -0.017004 -0.057950
v 0.270927 -0.047766 -0.237390
v 0.247993 0.027007 -0.185256
v 0.236086 0.015995 -0.182614
v 0.263834 -0.030123 -0.250124
v 0.244576 0.031474 -0.057898
v 0.235412 0.000743 -0.176662
v 0.263007 -0.040762 -0.243809
v 0.244265 0.003176 -0.057642
v 0.246388 -0.010061 -0.170863
v 0.313380 -0.057572 -0.270833
v 0.292050 -0.056681 -0.288177
v 0.282421 -0.059788 -0.287091
v 0.287287 -0.071840 -0.272595
v 0.277295 -0.072150 -0.270833
v 0.272947 -0.061341 -0.283828
v 0.278693 -0.075490 -0.253750
v 0.264197 -0.061237 -0.278650
v 0.267769 -0.070074 -0.268037
v 0.256846 -0.059487 -0.271919
v 0.256121 -0.057784 -0.238164
v 0.263214 -0.058835 -0.230972
v 0.267200 -0.068687 -0.240495
v 0.276622 -0.070452 -0.237129
v 0.258968 -0.064763 -0.244895
v 0.268908 -0.072803 -0.254058
v 0.260159 -0.067677 -0.254524
v 0.259331 -0.065746 -0.264415
v 0.330257 -0.031738 0.089907
v -0.434142 -0.031738 0.079914
v 0.353347 -0.031738 0.079914
v -0.413486 -0.031738 0.089907
v -0.434142 -0.031738 -0.081301
v 0.353347 -0.031738 -0.081301
v 0.330257 -0.031738 -0.091239
v -0.413486 -0.031738 -0.091239
v 0.312655 -0.055874 -0.237129
v 0.281126 -0.056505 -0.222014
v 0.271756 -0.058395 -0.225481
v 0.286562 -0.069945 -0.235008
v 0.305200 -0.062397 -0.235008
v 0.296295 -0.067201 -0.234282
v 0.288789 -0.075557 -0.253541
v 0.298625 -0.073010 -0.253438
v 0.307477 -0.068014 -0.253541
v 0.297072 -0.069158 -0.273163
v 0.314725 -0.060911 -0.253750
v 0.305976 -0.064297 -0.272595
v 0.275173 0.001375 -0.171381
v 0.312086 0.002612 -0.059091
v 0.292309 -0.017045 -0.058574
v 0.262955 -0.009994 -0.168636
v 0.282938 -0.047016 -0.234645
v 0.264197 -0.017004 -0.057950
v 0.270927 -0.047766 -0.237390
v 0.246388 -0.010061 -0.170863
v -0.434142 -0.031738 -0.081301
v -0.434142 0.079528 -0.081301
v -0.413486 0.063619 -0.091239
v -0.413486 -0.031738 -0.091239
v 0.281541 -0.003973 -0.276114
v 0.304838 -0.015083 -0.280151
v 0.310118 -0.028036 -0.283101
v 0.315192 -0.040617 -0.278650
v 0.302767 -0.031370 -0.289263
v 0.313380 -0.057572 -0.270833
v 0.308979 -0.046762 -0.283828
v 0.301058 -0.052239 -0.287091
v 0.296347 -0.015523 -0.285693
v 0.294121 -0.035082 -0.293146
v 0.286977 -0.017413 -0.289109
v 0.277451 -0.020633 -0.290298
v 0.284854 -0.038919 -0.294441
v 0.268339 -0.024956 -0.289109
v 0.292050 -0.056681 -0.288177
v 0.275483 -0.042625 -0.293146
v 0.282421 -0.059788 -0.287091
v 0.260314 -0.030102 -0.285693
v 0.272947 -0.061341 -0.283828
v 0.266734 -0.045949 -0.289263
v 0.264197 -0.061237 -0.278650
v 0.253895 -0.035709 -0.280151
v 0.259123 -0.048662 -0.283101
v 0.271807 -0.006717 -0.276837
v 0.262903 -0.011516 -0.276114
v 0.255447 -0.018045 -0.273993
v 0.297072 -0.069158 -0.273163
v 0.305976 -0.064297 -0.272595
v 0.375039 0.063619 -0.091239
v 0.386429 0.079528 -0.081301
v 0.382132 0.054979 -0.091239
v 0.405688 0.056102 -0.081301
v 0.386429 0.079528 -0.081301
v -0.413486 0.063619 -0.091239
v -0.434142 0.079528 -0.081301
v 0.375039 0.063619 -0.091239
v 0.353347 -0.031738 -0.081301
v 0.382132 0.054979 -0.091239
v 0.405688 0.056102 -0.081301
v 0.330257 -0.031738 -0.091239
v -0.413486 0.063619 -0.091239
v 0.330257 -0.031738 -0.091239
v -0.413486 -0.031738 -0.091239
v 0.375039 0.063619 -0.091239
v 0.382132 0.054979 -0.091239
vn 0.7708 0.6371 -0.0000
vn 0.8591 -0.5119 -0.0000
vn 0.6010 0.7986 -0.0316
vn 0.7964 0.5914 0.1262
vn 0.7884 0.6150 -0.0158
vn 0.9263 0.3768 -0.0000
vn 0.8040 0.5754 -0.1499
vn 0.6294 0.7237 -0.2832
vn 0.8408 0.4794 -0.2514
vn 0.7030 0.5371 -0.4661
vn 0.8949 0.3454 -0.2826
vn 0.8032 0.2915 -0.5196
vn 0.5199 0.5592 -0.6458
vn 0.9478 0.2133 -0.2370
vn 0.9840 0.1260 -0.1259
vn 0.9946 0.1024 0.0158
vn 0.8993 0.0552 -0.4339
vn 0.6534 0.2204 -0.7242
vn 0.9664 -0.1022 -0.2357
vn 0.9870 -0.1579 0.0314
vn 0.7882 -0.1025 -0.6069
vn 0.8834 -0.3313 -0.3313
vn 0.9147 -0.4022 0.0394
vn 0.7453 -0.5334 -0.4001
vn 0.6311 -0.2524 -0.7335
vn 0.7267 -0.4897 0.4818
vn 0.7808 -0.6230 0.0473
vn 0.8685 -0.3000 0.3947
vn 0.5990 -0.1812 0.7800
vn 0.7631 -0.0393 0.6451
vn 0.9555 -0.0790 0.2843
vn 0.8802 0.1022 0.4635
vn 0.6217 0.2990 0.7239
vn 0.7804 0.3468 0.5203
vn 0.4960 0.6218 0.6061
vn 0.9784 0.1420 0.1501
vn 0.9383 0.2365 0.2523
vn 0.8841 0.3710 0.2841
vn 0.6863 0.5837 0.4339
vn 0.8320 0.5023 0.2355
vn 0.6214 0.7471 0.2359
vn 0.8949 0.4082 -0.1805
vn 0.4098 0.8744 -0.2599
vn 0.8919 0.3237 -0.3157
vn 0.3472 0.8680 -0.3551
vn 0.9372 -0.3465 0.0394
vn 0.8789 -0.3843 -0.2825
vn 0.9191 0.3928 -0.0314
vn 0.4183 0.7891 -0.4498
vn 0.8845 -0.2606 0.3870
vn 0.3387 -0.9217 0.1891
vn 0.3301 -0.7781 0.5344
vn -0.0000 1.0000 -0.0000
vn 0.6293 0.7237 -0.2832
vn 0.3791 0.9245 -0.0395
vn 0.6009 0.7987 -0.0316
vn 0.4174 0.8190 -0.3937
vn 0.1259 0.9909 -0.0472
vn 0.7029 0.5373 -0.4661
vn 0.1811 0.8582 -0.4803
vn -0.0630 0.8423 -0.5353
vn 0.5198 0.5593 -0.6458
vn 0.3075 0.5442 -0.7806
vn 0.0711 0.4899 -0.8689
vn -0.0866 0.8895 0.4487
vn 0.0393 0.5742 0.8178
vn 0.1646 0.9017 0.3998
vn 0.2757 0.6225 0.7324
vn 0.4959 0.6219 0.6061
vn -0.1974 0.4977 0.8446
vn -0.3314 0.8207 0.4655
vn -0.1258 0.9905 -0.0550
vn -0.3762 0.9249 -0.0549
vn -0.5576 0.6991 0.4477
vn -0.5966 0.8007 -0.0544
vn -0.7452 0.5336 0.3999
vn -0.3139 0.7690 -0.5569
vn -0.5353 0.6535 -0.5351
vn -0.7267 0.4897 -0.4818
vn -0.7808 0.6230 -0.0473
vn 0.6862 0.5839 0.4339
vn 0.4028 0.8531 0.3317
vn 0.6213 0.7472 0.2360
vn -0.3393 0.9311 -0.1341
vn 0.4096 0.8745 -0.2599
vn -0.2846 0.7200 -0.6329
vn 0.4182 0.7892 -0.4498
vn -0.3710 0.8368 -0.4026
vn -0.8963 0.3538 -0.2673
vn -0.9021 0.4315 0.0078
vn -0.4355 -0.0000 0.9002
vn -0.4345 -0.0000 0.9006
vn -0.4343 -0.0000 0.9008
vn 0.3625 0.2994 0.8826
vn 0.3625 0.2993 0.8826
vn 0.3625 0.2995 0.8826
vn -0.0000 0.5271 0.8498
vn -0.0000 0.5272 0.8497
vn -0.0000 -0.0000 1.0000
vn 0.3872 -0.2292 0.8930
vn 0.3873 -0.2292 0.8930
vn 0.3872 -0.2293 0.8930
vn 0.2123 0.1415 0.9669
vn 0.2757 0.6223 0.7326
vn 0.0393 0.5740 0.8179
vn 0.4324 0.2279 0.8724
vn 0.4959 0.6216 0.6064
vn -0.0236 0.0472 0.9986
vn 0.5988 -0.1812 0.7801
vn -0.1974 0.4973 0.8448
vn 0.3938 -0.3072 0.8663
vn 0.7266 -0.4897 0.4819
vn -0.5576 0.6990 0.4477
vn -0.3314 0.8205 0.4658
vn -0.4251 0.3858 0.8188
vn -0.7452 0.5334 0.4003
vn -0.6310 0.2524 0.7336
vn -0.2513 -0.0472 0.9668
vn -0.4646 -0.1417 0.8741
vn -0.7880 0.1025 0.6071
vn -0.0711 -0.4898 0.8689
vn -0.3075 -0.5439 0.7808
vn -0.5198 -0.5591 0.6459
vn -0.6533 -0.2204 0.7243
vn 0.1653 -0.4093 0.8973
vn 0.0630 -0.8423 0.5353
vn 0.5353 -0.6532 0.5355
vn 0.3138 -0.7688 0.5572
vn 0.6216 0.2990 0.7240
vn -1.0000 -0.0000 -0.0000
vn -0.8684 0.3000 -0.3948
vn -0.5990 0.1812 -0.7800
vn -0.7631 0.0394 -0.6451
vn -0.9555 0.0790 -0.2842
vn -0.9869 0.1579 -0.0316
vn -0.6218 -0.2990 -0.7239
vn -0.8803 -0.1022 -0.4634
vn -0.4960 -0.6218 -0.6061
vn -0.7804 -0.3469 -0.5202
vn -0.6863 -0.5837 -0.4339
vn -0.9383 -0.2365 -0.2523
vn -0.8841 -0.3710 -0.2842
vn -0.9784 -0.1420 -0.1499
vn -0.9263 -0.3768 -0.0000
vn -0.8321 -0.5020 -0.2358
vn -0.9946 -0.1025 -0.0158
vn -0.9664 0.1021 0.2357
vn -0.9840 -0.1261 0.1259
vn -0.8993 -0.0552 0.4339
vn -0.9478 -0.2133 0.2369
vn -0.8032 -0.2914 0.5196
vn -0.8949 -0.3454 0.2826
vn -0.7030 -0.5371 0.4661
vn -0.5199 -0.5592 0.6458
vn -0.8408 -0.4794 0.2514
vn -0.6293 -0.7237 0.2832
vn -0.8040 -0.5754 0.1498
vn -0.6011 -0.7986 0.0316
vn -0.7884 -0.6149 0.0158
vn -0.7964 -0.5915 -0.1260
vn -0.6214 -0.7471 -0.2359
vn -0.9147 0.4021 -0.0394
vn -0.7809 0.6229 -0.0473
vn -0.7453 0.5334 0.4001
vn -0.8835 0.3313 0.3313
vn -0.6311 0.2524 0.7335
vn -0.7882 0.1025 0.6068
vn -0.6534 -0.2204 0.7242
vn -0.3711 0.8368 -0.4026
vn -0.2849 0.7199 -0.6329
vn -0.8231 0.2508 -0.5095
vn -0.9436 -0.3302 -0.0236
vn -0.9021 0.4314 0.0078
vn -0.9068 -0.4022 -0.1261
vn -0.4263 -0.8447 0.3237
vn -0.9294 -0.3623 0.0709
vn -0.4662 -0.8690 0.1659
vn -0.3537 -0.9354 -0.0000
vn 0.1973 -0.4975 -0.8447
vn 0.0866 -0.8895 -0.4487
vn -0.0393 -0.5742 -0.8178
vn -0.1647 -0.9017 -0.3999
vn -0.2757 -0.6225 -0.7325
vn -0.1258 -0.9909 0.0472
vn -0.4959 -0.6219 -0.6061
vn -0.4028 -0.8531 -0.3317
vn -0.6861 -0.5840 -0.4339
vn -0.7030 -0.5373 0.4660
vn -0.4174 -0.8190 0.3937
vn -0.5198 -0.5593 0.6458
vn -0.1811 -0.8582 0.4803
vn -0.3793 -0.9244 0.0395
vn -0.6009 -0.7987 0.0316
vn -0.6213 -0.7472 -0.2360
vn -0.0000 -1.0000 -0.0000
vn -0.0711 -0.4900 0.8688
vn -0.3075 -0.5443 0.7805
vn 0.1258 -0.9905 0.0550
vn 0.3138 -0.7690 0.5569
vn 0.3762 -0.9249 0.0549
vn 0.5353 -0.6534 0.5353
vn 0.5966 -0.8007 0.0548
vn 0.7267 -0.4897 0.4817
vn 0.3314 -0.8207 -0.4655
vn 0.5576 -0.6990 -0.4477
vn 0.7452 -0.5335 -0.4001
vn 0.3937 -0.9056 -0.1575
vn 0.8788 -0.3846 -0.2824
vn 0.3387 -0.9217 0.1890
vn -0.3535 -0.9354 -0.0000
vn -0.4661 -0.8690 0.1659
vn -0.4345 -0.0000 -0.9007
vn -0.4342 -0.0000 -0.9008
vn -0.4344 -0.0000 -0.9007
vn 0.4646 0.1417 -0.8741
vn 0.5198 0.5591 -0.6459
vn 0.7881 -0.1024 -0.6070
vn 0.6310 -0.2524 -0.7336
vn 0.4251 -0.3858 -0.8188
vn 0.7452 -0.5334 -0.4003
vn 0.3075 0.5440 -0.7807
vn 0.2515 0.0472 -0.9667
vn 0.0711 0.4898 -0.8689
vn -0.1653 0.4093 -0.8973
vn 0.0236 -0.0472 -0.9986
vn -0.3938 0.3072 -0.8663
vn 0.1974 -0.4974 -0.8448
vn -0.2123 -0.1415 -0.9669
vn -0.0393 -0.5740 -0.8179
vn -0.5988 0.1812 -0.7801
vn -0.2757 -0.6223 -0.7326
vn -0.4324 -0.2279 -0.8724
vn -0.4959 -0.6217 -0.6063
vn -0.7631 0.0393 -0.6451
vn -0.6216 -0.2990 -0.7240
vn -0.3138 0.7689 -0.5571
vn -0.5353 0.6533 -0.5354
vn 0.3314 -0.8206 -0.4656
vn 0.5575 -0.6990 -0.4479
vn 0.3625 0.2994 -0.8826
vn -0.0000 0.5272 -0.8497
vn 0.3874 -0.2292 -0.8930
vn 0.3872 -0.2292 -0.8930
vn 0.3872 -0.2293 -0.8930
vn 0.3873 -0.2292 -0.8930
vn -0.0000 -0.0000 -1.0000
vt 1.280330 0.088237
vt 1.319260 0.088237
vt 1.319260 0.093893
vt 1.280330 0.093893
vt 1.319260 0.067028
vt 1.280330 0.067028
vt 1.361590 0.073184
vt 1.360230 0.071200
vt 1.361470 0.071442
vt 1.361340 0.069294
vt 1.362680 0.071077
vt 1.363910 0.072481
vt 1.363520 0.070200
vt 1.365540 0.070795
vt 1.363790 0.069048
vt 1.366050 0.068580
vt 1.367280 0.071049
vt 1.363390 0.067929
vt 1.362440 0.067143
vt 1.361200 0.066901
vt 1.365290 0.066429
vt 1.367990 0.067921
vt 1.363470 0.064918
vt 1.361080 0.064452
vt 1.366910 0.064884
vt 1.364350 0.062751
vt 1.360970 0.062093
vt 1.365020 0.060790
vt 1.368160 0.063400
vt 1.356880 0.061200
vt 1.360890 0.059984
vt 1.357700 0.063086
vt 1.354070 0.064111
vt 1.355400 0.065465
vt 1.358760 0.065155
vt 1.357130 0.066840
vt 1.354690 0.068592
vt 1.356630 0.069055
vt 1.355760 0.071630
vt 1.360000 0.067267
vt 1.359150 0.068143
vt 1.358890 0.069295
vt 1.357380 0.071207
vt 1.359280 0.070414
vt 1.359200 0.072718
vt 1.342440 0.078779
vt 1.313880 0.086910
vt 1.313930 0.082057
vt 1.343810 0.081311
vt 1.341000 0.075023
vt 1.313890 0.075322
vt 1.358410 0.067818
vt 1.359950 0.069511
vt 1.356890 0.065265
vt 1.340350 0.072278
vt 1.356290 0.063339
vt 1.227590 0.080239
vt 1.425720 0.080239
vt 1.425720 0.119163
vt 1.227590 0.119163
vt 1.246250 0.035583
vt 1.248650 0.037798
vt 1.246540 0.037904
vt 1.248250 0.034522
vt 1.251010 0.037717
vt 1.245570 0.033953
vt 1.250520 0.033708
vt 1.252910 0.033197
vt 1.247290 0.032221
vt 1.249340 0.030892
vt 1.251600 0.030058
vt 1.253100 0.042268
vt 1.251920 0.045769
vt 1.250690 0.041845
vt 1.249630 0.044985
vt 1.247520 0.043738
vt 1.254240 0.046036
vt 1.255460 0.042413
vt 1.253460 0.037667
vt 1.255830 0.037649
vt 1.257600 0.042268
vt 1.257960 0.037667
vt 1.259390 0.041845
vt 1.255260 0.033023
vt 1.257420 0.033197
vt 1.259220 0.033708
vt 1.259710 0.037717
vt 1.245740 0.042111
vt 1.248380 0.041172
vt 1.246350 0.040293
vt 1.257100 0.055682
vt 1.256970 0.085745
vt 1.250190 0.085618
vt 1.255000 0.038876
vt 1.252100 0.039542
vt 1.261010 0.055139
vt 1.263890 0.055768
vt 1.261840 0.085884
vt 1.222930 0.067028
vt 1.227930 0.090052
vt 1.222930 0.093893
vt 1.227930 0.067028
vt 1.421060 0.093893
vt 1.420030 0.087965
vt 1.425720 0.088237
vt 1.418310 0.090052
vt 1.407500 0.067028
vt 1.413080 0.067028
vt 1.398410 0.067136
vt 1.399020 0.071654
vt 1.396730 0.071279
vt 1.400530 0.067937
vt 1.401130 0.071630
vt 1.396150 0.066241
vt 1.402070 0.064111
vt 1.394410 0.070529
vt 1.400130 0.062870
vt 1.403250 0.061200
vt 1.391050 0.072367
vt 1.393200 0.073542
vt 1.392230 0.069457
vt 1.389270 0.070745
vt 1.390320 0.068134
vt 1.393910 0.065314
vt 1.391830 0.064417
vt 1.388820 0.066650
vt 1.395630 0.061048
vt 1.393370 0.060591
vt 1.391320 0.060486
vt 1.390050 0.063613
vt 1.397940 0.061825
vt 1.396940 0.057803
vt 1.401450 0.059625
vt 1.399300 0.058466
vt 1.403630 0.065465
vt 1.402360 0.068592
vt 1.329400 0.093893
vt 1.329400 0.067028
vt 1.368320 0.067028
vt 1.368320 0.093893
vt 1.283680 0.068448
vt 1.280050 0.067423
vt 1.281380 0.066069
vt 1.284740 0.066379
vt 1.287060 0.067083
vt 1.280670 0.062942
vt 1.283110 0.064694
vt 1.281740 0.059905
vt 1.282610 0.062479
vt 1.283360 0.060327
vt 1.285130 0.063391
vt 1.284870 0.062239
vt 1.285980 0.064268
vt 1.287320 0.062240
vt 1.285260 0.061120
vt 1.287180 0.064634
vt 1.289450 0.066617
vt 1.288430 0.064391
vt 1.291270 0.065105
vt 1.289370 0.063605
vt 1.292030 0.062954
vt 1.289770 0.062486
vt 1.291520 0.060739
vt 1.293260 0.060486
vt 1.289500 0.061334
vt 1.289890 0.059054
vt 1.288660 0.060458
vt 1.287570 0.058350
vt 1.287450 0.060092
vt 1.286210 0.060334
vt 1.285180 0.058816
vt 1.286950 0.069442
vt 1.286870 0.071550
vt 1.282860 0.070334
vt 1.291000 0.070745
vt 1.290330 0.068783
vt 1.294140 0.068134
vt 1.292890 0.066650
vt 1.293970 0.063613
vt 1.304290 0.081211
vt 1.288030 0.069344
vt 1.304920 0.078553
vt 1.288630 0.067417
vt 1.306370 0.074871
vt 1.335040 0.082291
vt 1.290150 0.064849
vt 1.291700 0.063158
vt 1.335100 0.075457
vt 1.307770 0.072261
vt 1.335030 0.070586
vt 1.398270 0.030284
vt 1.397130 0.034052
vt 1.395950 0.030551
vt 1.394720 0.034475
vt 1.393660 0.031335
vt 1.395040 0.038603
vt 1.391550 0.032582
vt 1.392410 0.035149
vt 1.389770 0.034209
vt 1.389600 0.042368
vt 1.392280 0.041798
vt 1.391320 0.044100
vt 1.394550 0.042612
vt 1.390280 0.040737
vt 1.392680 0.038522
vt 1.390570 0.038416
vt 1.390380 0.036027
vt 1.407500 0.121569
vt 1.222930 0.119163
vt 1.413080 0.119163
vt 1.227930 0.121569
vt 1.222930 0.080239
vt 1.413080 0.080239
vt 1.407500 0.077833
vt 1.227930 0.077833
vt 1.395630 0.046263
vt 1.393370 0.045428
vt 1.396940 0.043123
vt 1.397490 0.038654
vt 1.399300 0.043297
vt 1.399860 0.038671
vt 1.401450 0.043123
vt 1.401990 0.038654
vt 1.403250 0.042612
vt 1.399490 0.033908
vt 1.403740 0.038603
vt 1.401630 0.034052
vt 1.403420 0.034475
vt 1.398330 0.085718
vt 1.394190 0.058492
vt 1.403110 0.085601
vt 1.391250 0.059147
vt 1.391550 0.085871
vt 1.396080 0.043208
vt 1.393180 0.042546
vt 1.387240 0.058612
vt 1.425720 0.067028
vt 1.425720 0.093893
vt 1.420720 0.090052
vt 1.420720 0.067028
vt 1.247790 0.067117
vt 1.247290 0.071049
vt 1.246020 0.067921
vt 1.244790 0.064884
vt 1.246290 0.063400
vt 1.248200 0.062077
vt 1.245230 0.060790
vt 1.249340 0.070943
vt 1.249870 0.066220
vt 1.251600 0.070486
vt 1.253900 0.069709
vt 1.252910 0.073732
vt 1.252120 0.065293
vt 1.256100 0.068665
vt 1.250380 0.061005
vt 1.254380 0.064399
vt 1.252700 0.060256
vt 1.258040 0.067423
vt 1.254990 0.059880
vt 1.256490 0.063597
vt 1.257100 0.059905
vt 1.259590 0.066069
vt 1.258330 0.062942
vt 1.255260 0.073068
vt 1.257420 0.071910
vt 1.259220 0.070334
vt 1.249160 0.057992
vt 1.247020 0.059167
vt 1.230340 0.090052
vt 1.227590 0.093893
vt 1.228620 0.087965
vt 1.222930 0.088237
vt 1.235570 0.067028
vt 1.241150 0.067028
s 1
usemtl Meshpart1Mtl.009
f 1/1/1 2/2/1 3/3/1
f 3/3/1 4/4/1 1/1/1
f 5/1/2 6/5/2 7/2/2
f 6/5/2 5/1/2 8/6/2
f 9/7/3 10/8/4 11/9/5
f 10/8/4 12/10/6 11/9/5
f 13/11/7 9/7/3 11/9/5
f 11/9/5 12/10/6 13/11/7
f 9/7/3 13/11/7 14/12/8
f 15/13/9 14/12/8 13/11/7
f 13/11/7 12/10/6 15/13/9
f 14/12/8 15/13/9 16/14/10
f 16/14/10 15/13/9 18/15/11
f 15/13/9 12/10/6 18/15/11
f 19/16/12 16/14/10 18/15/11
f 16/14/10 19/16/12 17/17/13
f 18/15/11 12/10/6 20/18/14
f 19/16/12 18/15/11 20/18/14
f 20/18/14 12/10/6 21/19/15
f 21/19/15 12/10/6 22/20/16
f 20/18/14 23/21/17 19/16/12
f 21/19/15 23/21/17 20/18/14
f 24/22/18 17/17/13 19/16/12
f 24/22/18 19/16/12 23/21/17
f 22/20/16 25/23/19 21/19/15
f 23/21/17 21/19/15 25/23/19
f 25/23/19 22/20/16 26/24/20
f 27/25/21 24/22/18 23/21/17
f 25/23/19 27/25/21 23/21/17
f 26/24/20 28/26/22 25/23/19
f 27/25/21 25/23/19 28/26/22
f 28/26/22 26/24/20 29/27/23
f 29/27/23 30/28/24 28/26/22
f 28/26/22 31/29/25 27/25/21
f 31/29/25 28/26/22 30/28/24
f 29/27/23 34/30/26 35/31/27
f 30/28/24 29/27/23 35/31/27
f 34/30/26 29/27/23 36/32/28
f 36/32/28 33/33/29 34/30/26
f 33/33/29 36/32/28 37/34/30
f 39/35/31 37/34/30 36/32/28
f 40/36/32 38/37/33 37/34/30
f 37/34/30 39/35/31 40/36/32
f 38/37/33 40/36/32 41/38/34
f 41/38/34 32/39/35 38/37/33
f 42/40/36 40/36/32 39/35/31
f 43/41/37 41/38/34 40/36/32
f 40/36/32 42/40/36 43/41/37
f 36/32/28 26/24/20 39/35/31
f 26/24/20 36/32/28 29/27/23
f 39/35/31 22/20/16 42/40/36
f 22/20/16 39/35/31 26/24/20
f 42/40/36 12/10/6 43/41/37
f 22/20/16 12/10/6 42/40/36
f 41/38/34 43/41/37 44/42/38
f 43/41/37 12/10/6 44/42/38
f 44/42/38 45/43/39 41/38/34
f 32/39/35 41/38/34 45/43/39
f 45/43/39 44/42/38 46/44/40
f 44/42/38 12/10/6 46/44/40
f 46/44/40 47/45/41 45/43/39
f 47/45/41 46/44/40 10/8/4
f 46/44/40 12/10/6 10/8/4
f 10/8/4 9/7/3 47/45/41
f 48/46/42 49/47/43 50/48/44
f 49/47/43 48/46/42 51/49/45
f 50/48/44 52/50/46 48/46/42
f 52/50/46 50/48/44 53/51/47
f 52/50/46 54/52/48 48/46/42
f 54/52/48 51/49/45 48/46/42
f 51/49/45 54/52/48 55/53/49
f 54/52/48 52/50/46 56/54/50
f 57/55/51 56/54/50 52/50/46
f 56/54/50 57/55/51 58/56/52
f 59/57/53 60/58/53 61/59/53
f 59/57/53 61/59/53 62/60/53
f 64/61/54 65/62/55 63/63/56
f 65/62/55 64/61/54 66/64/57
f 66/64/57 67/65/58 65/62/55
f 68/66/59 66/64/57 64/61/54
f 67/65/58 66/64/57 69/67/60
f 70/68/61 67/65/58 69/67/60
f 66/64/57 68/66/59 71/69/62
f 71/69/62 69/67/60 66/64/57
f 69/67/60 71/69/62 72/70/63
f 73/71/64 69/67/60 72/70/63
f 69/67/60 73/71/64 70/68/61
f 74/72/65 75/73/66 76/74/67
f 75/73/66 77/75/68 76/74/67
f 78/76/69 76/74/67 77/75/68
f 79/77/70 75/73/66 74/72/65
f 80/78/71 79/77/70 74/72/65
f 82/79/72 80/78/71 74/72/65
f 83/80/73 81/81/74 80/78/71
f 83/80/73 80/78/71 82/79/72
f 85/82/75 81/81/74 83/80/73
f 85/82/75 84/83/76 81/81/74
f 82/79/72 74/72/65 67/65/58
f 67/65/58 74/72/65 76/74/67
f 82/79/72 86/84/77 83/80/73
f 83/80/73 87/85/78 85/82/75
f 87/85/78 83/80/73 86/84/77
f 86/84/77 82/79/72 70/68/61
f 67/65/58 70/68/61 82/79/72
f 88/86/79 85/82/75 87/85/78
f 85/82/75 88/86/79 89/87/80
f 89/87/80 84/83/76 85/82/75
f 90/88/81 91/89/82 78/76/69
f 76/74/67 78/76/69 91/89/82
f 91/89/82 67/65/58 76/74/67
f 91/89/82 90/88/81 92/90/83
f 67/65/58 91/89/82 65/62/55
f 92/90/83 65/62/55 91/89/82
f 65/62/55 92/90/83 63/63/56
f 94/91/45 95/92/84 93/93/85
f 97/94/86 94/91/45 96/95/87
f 94/91/45 97/94/86 98/96/88
f 95/92/84 94/91/45 98/96/88
f 99/97/89 95/92/84 98/96/88
f 95/92/84 99/97/89 100/98/90
f 101/99/91 102/100/92 103/101/92
f 102/100/92 101/99/91 104/102/93
f 105/103/94 106/104/94 107/105/95
f 106/104/94 105/103/94 108/106/96
f 109/103/97 110/101/97 111/100/98
f 111/100/98 112/106/98 109/103/97
f 113/106/99 114/100/99 115/107/99
f 116/102/99 115/107/99 114/100/99
f 113/106/99 115/107/99 117/104/99
f 118/104/100 119/107/101 120/108/102
f 118/104/100 120/108/102 121/105/100
f 126/109/103 124/110/104 123/111/105
f 127/112/106 125/113/107 124/110/104
f 124/110/104 126/109/103 127/112/106
f 123/111/105 128/114/108 126/109/103
f 126/109/103 129/115/109 127/112/106
f 128/114/108 123/111/105 130/116/110
f 128/114/108 131/117/111 126/109/103
f 129/115/109 126/109/103 131/117/111
f 131/117/111 133/118/112 129/115/109
f 134/119/113 130/116/110 132/120/114
f 130/116/110 134/119/113 135/121/115
f 135/121/115 128/114/108 130/116/110
f 136/122/116 135/121/115 134/119/113
f 135/121/115 136/122/116 137/123/117
f 137/123/117 138/124/118 135/121/115
f 128/114/108 135/121/115 138/124/118
f 138/124/118 137/123/117 140/125/119
f 139/126/120 140/125/119 137/123/117
f 141/127/121 128/114/108 138/124/118
f 142/128/122 138/124/118 140/125/119
f 138/124/118 142/128/122 141/127/121
f 142/128/122 140/125/119 122/129/123
f 140/125/119 139/126/120 143/130/124
f 122/129/123 140/125/119 143/130/124
f 128/114/108 141/127/121 144/131/125
f 131/117/111 128/114/108 144/131/125
f 145/132/126 144/131/125 141/127/121
f 144/131/125 146/133/127 131/117/111
f 144/131/125 145/132/126 147/134/128
f 146/133/127 144/131/125 147/134/128
f 133/118/112 131/117/111 146/133/127
f 148/135/30 127/112/106 129/115/109
f 127/112/106 148/135/30 149/136/129
f 125/113/107 127/112/106 149/136/129
f 150/137/130 151/138/130 152/139/130
f 150/137/130 152/139/130 153/140/130
f 157/141/131 154/142/132 156/143/133
f 157/141/131 156/143/133 159/144/134
f 159/144/134 160/145/135 157/141/131
f 156/143/133 158/146/136 161/147/137
f 159/144/134 156/143/133 161/147/137
f 155/148/138 162/149/139 158/146/136
f 161/147/137 158/146/136 162/149/139
f 162/149/139 155/148/138 163/150/140
f 161/147/137 162/149/139 164/151/141
f 163/150/140 165/152/142 162/149/139
f 164/151/141 162/149/139 165/152/142
f 166/153/143 161/147/137 164/151/141
f 166/153/143 159/144/134 161/147/137
f 167/154/144 164/151/141 165/152/142
f 167/154/144 166/153/143 164/151/141
f 165/152/142 163/150/140 168/155/145
f 167/154/144 165/152/142 168/155/145
f 159/144/134 166/153/143 169/156/146
f 169/156/146 160/145/135 159/144/134
f 167/154/144 169/156/146 166/153/143
f 169/156/146 170/157/147 160/145/135
f 170/157/147 169/156/146 171/158/148
f 167/154/144 171/158/148 169/156/146
f 171/158/148 172/159/149 170/157/147
f 172/159/149 171/158/148 173/160/150
f 167/154/144 173/160/150 171/158/148
f 173/160/150 174/161/151 172/159/149
f 174/161/151 173/160/150 175/162/152
f 167/154/144 175/162/152 173/160/150
f 175/162/152 176/163/153 174/161/151
f 177/164/154 174/161/151 176/163/153
f 176/163/153 175/162/152 178/165/155
f 167/154/144 178/165/155 175/162/152
f 178/165/155 179/166/156 176/163/153
f 179/166/156 178/165/155 180/167/157
f 167/154/144 180/167/157 178/165/155
f 180/167/157 181/168/158 179/166/156
f 167/154/144 182/169/159 180/167/157
f 181/168/158 180/167/157 182/169/159
f 167/154/144 183/170/160 182/169/159
f 183/170/160 181/168/158 182/169/159
f 167/154/144 168/155/145 183/170/160
f 184/171/161 181/168/158 183/170/160
f 184/171/161 183/170/160 168/155/145
f 168/155/145 163/150/140 184/171/161
f 188/172/162 187/173/163 186/174/79
f 188/172/162 185/175/164 187/173/163
f 157/141/131 188/172/162 186/174/79
f 186/174/79 154/142/132 157/141/131
f 160/145/135 188/172/162 157/141/131
f 185/175/164 188/172/162 189/176/165
f 160/145/135 189/176/165 188/172/162
f 189/176/165 190/177/166 185/175/164
f 189/176/165 160/145/135 170/157/147
f 190/177/166 189/176/165 191/178/167
f 170/157/147 191/178/167 189/176/165
f 172/159/149 192/179/168 191/178/167
f 191/178/167 170/157/147 172/159/149
f 192/179/168 172/159/149 174/161/151
f 174/161/151 177/164/154 192/179/168
f 196/180/169 193/181/170 197/182/89
f 198/183/171 197/182/89 193/181/170
f 197/182/89 198/183/171 200/184/172
f 200/184/172 199/185/173 197/182/89
f 201/186/174 200/184/172 198/183/171
f 195/187/175 200/184/172 201/186/174
f 199/185/173 200/184/172 202/188/176
f 200/184/172 195/187/175 203/189/177
f 203/189/177 202/188/176 200/184/172
f 202/188/176 203/189/177 194/190/178
f 205/191/179 207/192/180 206/193/181
f 208/194/182 206/193/181 207/192/180
f 206/193/181 208/194/182 209/195/183
f 207/192/180 210/196/184 208/194/182
f 209/195/183 208/194/182 211/197/185
f 208/194/182 210/196/184 212/198/186
f 211/197/185 208/194/182 212/198/186
f 213/199/187 211/197/185 212/198/186
f 214/200/188 216/201/189 215/202/190
f 217/203/191 215/202/190 216/201/189
f 216/201/189 210/196/184 217/203/191
f 216/201/189 214/200/188 218/204/156
f 210/196/184 216/201/189 219/205/192
f 218/204/156 219/205/192 216/201/189
f 212/198/186 210/196/184 219/205/192
f 219/205/192 218/204/156 220/206/193
f 221/207/194 219/205/192 220/206/193
f 212/198/186 219/205/192 221/207/194
f 221/207/194 213/199/187 212/198/186
f 222/208/195 223/209/195 224/210/195
f 223/209/195 222/208/195 225/211/195
f 226/212/195 224/210/195 223/209/195
f 226/212/195 227/213/195 224/210/195
f 226/212/195 228/214/195 227/213/195
f 228/214/195 226/212/195 229/215/195
f 217/203/191 231/216/196 232/217/197
f 215/202/190 217/203/191 232/217/197
f 231/216/196 217/203/191 233/218/126
f 236/219/198 235/220/199 233/218/126
f 210/196/184 233/218/126 217/203/191
f 236/219/198 233/218/126 210/196/184
f 237/221/200 234/222/201 235/220/199
f 237/221/200 235/220/199 236/219/198
f 238/223/202 234/222/201 237/221/200
f 238/223/202 230/224/203 234/222/201
f 236/219/198 239/225/204 237/221/200
f 240/226/27 230/224/203 238/223/202
f 239/225/204 236/219/198 207/192/180
f 210/196/184 207/192/180 236/219/198
f 241/227/205 237/221/200 239/225/204
f 237/221/200 241/227/205 238/223/202
f 238/223/202 204/228/206 240/226/27
f 204/228/206 238/223/202 241/227/205
f 207/192/180 205/191/179 239/225/204
f 244/229/207 242/230/46 243/231/208
f 242/230/46 244/229/207 245/232/209
f 247/233/210 245/232/209 244/229/207
f 246/234/52 245/232/209 248/235/175
f 249/236/211 248/235/175 245/232/209
f 245/232/209 247/233/210 249/236/211
f 250/237/212 251/238/213 252/239/213
f 252/239/213 253/240/214 250/237/212
f 258/241/215 255/242/216 256/243/18
f 256/243/18 257/244/217 258/241/215
f 260/245/218 258/241/215 257/244/217
f 261/246/219 260/245/218 259/247/220
f 255/242/216 258/241/215 262/248/221
f 258/241/215 260/245/218 263/249/222
f 261/246/219 263/249/222 260/245/218
f 263/249/222 262/248/221 258/241/215
f 262/248/221 263/249/222 264/250/223
f 265/251/224 254/252/61 264/250/223
f 266/253/225 264/250/223 263/249/222
f 264/250/223 266/253/225 265/251/224
f 263/249/222 261/246/219 266/253/225
f 265/251/224 266/253/225 267/254/226
f 268/255/227 266/253/225 261/246/219
f 269/256/228 267/254/226 266/253/225
f 270/257/229 266/253/225 268/255/227
f 266/253/225 270/257/229 269/256/228
f 267/254/226 269/256/228 271/258/230
f 272/259/231 269/256/228 270/257/229
f 269/256/228 272/259/231 273/260/232
f 273/260/232 271/258/230 269/256/228
f 274/261/233 273/260/232 272/259/231
f 271/258/230 273/260/232 275/262/234
f 273/260/232 274/261/233 276/263/235
f 276/263/235 275/262/234 273/260/232
f 277/264/236 265/251/224 278/265/237
f 254/252/61 265/251/224 277/264/236
f 267/254/226 278/265/237 265/251/224
f 279/266/79 278/265/237 267/254/226
f 271/258/230 279/266/79 267/254/226
f 280/267/238 268/255/227 281/268/239
f 281/268/239 261/246/219 259/247/220
f 268/255/227 261/246/219 281/268/239
f 282/269/240 283/270/240 284/271/240
f 284/271/240 283/270/240 285/272/240
f 286/270/241 287/239/241 288/238/241
f 287/239/241 286/270/241 289/269/241
f 290/273/242 291/271/243 292/272/244
f 291/271/243 290/273/242 293/274/245
f 294/239/246 295/274/246 296/240/246
f 295/274/246 294/239/246 297/269/246
f 295/274/246 297/269/246 298/271/246
