# Blender 5.1.1
# www.blender.org
mtllib minecraftaarow.mtl
o minecraftaarow
v -0.048254 0.878182 -0.429150
v -0.037949 1.173297 -0.429151
v 0.109072 0.872690 -0.429150
v -0.037949 1.173297 -0.429151
v -0.048254 0.878182 -0.429150
v -0.048254 0.878182 -0.258390
v -0.048254 0.878182 -0.429150
v 0.109072 0.872690 -0.429150
v 0.109072 0.872690 -0.258390
v 0.098767 0.577575 -0.429150
v -0.058560 0.583069 -0.429150
v 0.109072 0.872690 -0.429150
v -0.058560 0.583069 -0.429150
v 0.098767 0.577575 -0.429150
v 0.083102 0.578122 -0.258390
v 0.098767 0.577575 -0.258390
v 0.098767 0.577575 -0.429150
v 0.109072 0.872690 -0.258390
v 0.098767 0.577575 -0.258390
v 0.109072 0.872690 -0.429150
v 0.109072 0.872690 -0.429150
v -0.048254 0.878182 -0.429150
v -0.048254 0.878182 -0.258390
v -0.048254 0.878182 -0.429150
v 0.119378 1.167803 -0.429151
v 0.109072 0.872690 -0.429150
v 0.119378 1.167803 -0.429151
v 0.119378 1.167803 -0.258390
v 0.119378 1.167803 -0.429151
v 0.129684 1.462917 -0.429151
v 0.119378 1.167803 -0.258390
v 0.129684 1.462917 -0.429151
v 0.119378 1.167803 -0.429151
v -0.027644 1.468409 -0.429151
v 0.129684 1.462917 -0.429151
v -0.027644 1.468409 -0.429151
v -0.027644 1.468409 -0.258390
v -0.037949 1.173297 -0.429151
v 0.098767 0.577580 0.425149
v -0.058560 0.583074 0.425149
v 0.098767 0.577580 0.254389
v -0.058560 0.583074 0.425149
v 0.098767 0.577580 0.425149
v 0.109072 0.872695 0.425149
v -0.048254 0.878187 0.425149
v -0.058560 0.583074 0.425149
v -0.048254 0.878187 0.425149
v -0.048254 0.878187 0.254389
v -0.048254 0.878189 0.425149
v -0.048254 0.878189 0.254389
v 0.109072 0.872696 0.254389
v -0.048254 0.878189 0.254389
v -0.048254 0.878189 0.425149
v -0.037949 1.173304 0.254389
v -0.037949 1.173304 0.425149
v -0.048254 0.878189 0.425149
v 0.119378 1.167809 0.425149
v -0.037949 1.173304 0.425149
v -0.037949 1.173304 0.425149
v -0.027644 1.468417 0.425149
v -0.037949 1.173304 0.254389
v -0.027644 1.468417 0.425149
v -0.037949 1.173304 0.425149
v 0.129684 1.462922 0.425149
v -0.048254 0.878187 0.425149
v 0.109072 0.872695 0.425149
v 0.109072 0.872695 0.254389
v 0.109072 0.872696 0.425149
v 0.109072 0.872696 0.425149
v -0.027644 1.468417 0.425149
v 0.129684 1.462922 0.425149
v 0.129684 1.462922 0.254389
v 0.119378 1.167809 0.425149
v -0.089477 -0.302281 -0.087465
v -0.079172 -0.007160 -0.087465
v 0.067849 -0.307776 -0.087465
v -0.079172 -0.007160 -0.087465
v -0.089477 -0.302281 -0.087465
v -0.079172 -0.007160 0.083462
v -0.089477 -0.302281 0.083462
v -0.089477 -0.302281 -0.087465
v 0.067849 -0.307776 -0.087465
v -0.089477 -0.302281 0.083462
v -0.079172 -0.007160 0.083462
v -0.089477 -0.302281 0.083462
v 0.078156 -0.012655 0.083462
v -0.079172 -0.007160 -0.087465
v -0.079172 -0.007160 0.083462
v 0.078156 -0.012655 -0.087465
v -0.226186 0.293456 -0.087465
v -0.226186 0.293456 0.083462
v -0.215881 0.588570 -0.087465
v -0.226186 0.293456 0.083462
v -0.226186 0.293456 -0.087465
v -0.068866 0.287962 -0.087465
v -0.089477 -0.302281 0.083462
v 0.067849 -0.307776 0.083462
v 0.067849 -0.307776 -0.087465
v 0.067849 -0.307776 0.083462
v -0.089477 -0.302281 0.083462
v 0.047238 -0.898003 0.083462
v 0.067849 -0.307776 0.083462
v 0.067849 -0.307776 0.083462
v 0.078156 -0.012655 0.083462
v 0.088462 0.282463 0.083462
v -0.068866 0.287958 0.083462
v -0.058560 0.583072 0.083462
v -0.068866 0.287958 0.083462
v 0.088462 0.282463 0.083462
v -0.068866 0.287958 0.254389
v 0.067849 -0.307776 0.083462
v 0.067849 -0.307776 -0.087465
v 0.078156 -0.012655 -0.087465
v 0.088462 0.282476 0.083462
v 0.088462 0.282476 -0.087465
v 0.245946 0.276977 -0.087465
v 0.088462 0.282476 -0.087465
v 0.088462 0.282476 0.083462
v 0.078156 -0.012655 -0.087465
v 0.078156 -0.012655 0.083462
v 0.088462 0.282476 0.083462
v 0.088462 0.282476 0.083462
v 0.078156 -0.012655 0.083462
v 0.088462 0.282476 0.083462
v 0.088462 0.282476 0.083462
v 0.245946 0.276977 0.083462
v 0.067849 -0.307776 -0.087465
v 0.067849 -0.307776 0.083462
v 0.047238 -0.898003 -0.087465
v 0.078156 -0.012655 0.083462
v -0.079172 -0.007160 0.083462
v 0.088462 0.282460 -0.258390
v -0.068866 0.287953 -0.258390
v 0.098767 0.577574 -0.258390
v -0.068866 0.287953 -0.258390
v 0.088462 0.282460 -0.258390
v 0.088462 0.282460 -0.087465
v 0.078156 -0.012655 -0.087465
v 0.078156 -0.012655 0.083462
v -0.079172 -0.007160 0.083462
v -0.079172 -0.007160 -0.087465
v -0.068866 0.287953 -0.087465
v 0.088462 0.282460 -0.087465
v 0.098767 0.577574 -0.087465
v -0.068866 0.287953 -0.087465
v -0.089477 -0.302281 0.083462
v -0.110088 -0.892509 -0.087465
v -0.110088 -0.892509 0.083462
v -0.089477 -0.302281 -0.087465
v -0.110088 -0.892509 0.083462
v -0.110088 -0.892509 -0.087465
v -0.089477 -0.302281 -0.087465
v 0.047238 -0.898003 -0.087465
v -0.009442 -2.521114 -0.087463
v -0.166769 -2.515619 -0.087463
v -0.009442 -2.521114 0.083462
v -0.166769 -2.515619 -0.087463
v -0.009442 -2.521114 -0.087463
v -0.019747 -2.816227 -0.087463
v -0.166769 -2.515619 -0.087463
v -0.177075 -2.810733 -0.087463
v -0.177075 -2.810733 0.083462
v -0.177075 -2.810733 -0.087463
v -0.324089 -2.510126 -0.087463
v -0.166769 -2.515619 -0.087463
v -0.324089 -2.510126 0.083462
v -0.166769 -2.515619 -0.087463
v -0.324089 -2.510126 -0.087463
v -0.156463 -2.220505 -0.087463
v -0.313784 -2.215013 -0.087463
v -0.313784 -2.215013 -0.087463
v -0.324089 -2.510126 -0.087463
v -0.313784 -2.215013 0.083462
v -0.156463 -2.220505 -0.087463
v -0.313784 -2.215013 -0.087463
v -0.303479 -1.919897 -0.087463
v -0.166769 -2.515619 -0.087463
v -0.156463 -2.220505 -0.087463
v -0.166769 -2.515619 0.083462
v -0.156463 -2.220505 -0.087463
v -0.166769 -2.515619 -0.087463
v 0.000864 -2.226001 -0.087463
v -0.166769 -2.515619 -0.087463
v -0.156463 -2.220505 -0.087463
v -0.156463 -2.220505 -0.258390
v -0.156463 -2.220505 -0.258390
v -0.156463 -2.220505 -0.087463
v -0.146158 -1.925392 -0.258390
v -0.166769 -2.515619 0.083462
v -0.177075 -2.810733 0.083462
v -0.009442 -2.521114 0.083462
v -0.166769 -2.515619 0.083462
v -0.166769 -2.515619 0.083462
v -0.324089 -2.510126 0.083462
v -0.313784 -2.215013 -0.087463
v -0.313784 -2.215013 0.083462
v -0.303479 -1.919897 0.083462
v -0.313784 -2.215013 0.083462
v -0.324089 -2.510126 0.083462
v -0.156463 -2.220505 0.083462
v -0.166769 -2.515619 0.083462
v -0.166769 -2.515619 0.083462
v -0.156463 -2.220505 0.083462
v -0.156463 -2.220505 0.083462
v -0.156463 -2.220505 -0.087463
v -0.146158 -1.925392 0.083462
v -0.313784 -2.215013 0.083462
v -0.156463 -2.220505 0.083462
v -0.303479 -1.919897 0.083462
v -0.146158 -1.925392 0.083462
v -0.156463 -2.220505 0.083462
v -0.146158 -1.925392 0.254389
v -0.156463 -2.220505 0.083462
v -0.146158 -1.925392 0.083462
v 0.011169 -1.930885 0.083462
v 0.011169 -1.930885 0.083462
v -0.146158 -1.925392 0.083462
v -0.146158 -1.925392 0.254389
v 0.011169 -1.930885 -0.258390
v -0.146158 -1.925392 -0.258390
v -0.146158 -1.925392 -0.087463
v -0.146158 -1.925392 -0.258390
v 0.011169 -1.930885 -0.258390
v -0.156463 -2.220505 -0.258390
v -0.146158 -1.925392 -0.087463
v -0.146158 -1.925392 -0.087463
v -0.303479 -1.919897 -0.087463
v -0.303479 -1.919897 0.083462
v -0.146158 -1.925392 -0.087463
v -0.303479 -1.919897 -0.087463
v -0.146158 -1.925392 0.083462
v -0.146158 -1.925392 0.083462
v -0.146158 -1.925392 -0.087463
v -0.151312 -2.072965 0.083462
v 0.006015 -2.078458 0.083462
v 0.011169 -1.930885 0.083462
v 0.006015 -2.078458 0.083462
v -0.151312 -2.072965 0.083462
v 0.006015 -2.078458 -0.087463
v -0.019747 -2.816227 0.083462
v -0.009442 -2.521114 0.083462
v -0.019747 -2.816227 0.083462
v -0.009442 -2.521114 -0.087463
v -0.019747 -2.816227 -0.087463
v 0.000864 -2.226001 -0.258390
v -0.009442 -2.521114 -0.258390
v -0.166769 -2.515619 -0.258390
v -0.009442 -2.521114 -0.258390
v 0.000864 -2.226001 -0.258390
v -0.009442 -2.521114 -0.087463
v -0.009442 -2.521114 -0.087463
v 0.000864 -2.226001 -0.087463
v -0.009442 -2.521114 0.254389
v 0.000864 -2.226001 0.254389
v -0.166769 -2.515619 0.254389
v 0.000864 -2.226001 0.254389
v -0.009442 -2.521114 0.254389
v -0.009442 -2.521114 0.083462
v -0.009442 -2.521114 0.083462
v -0.009442 -2.521114 0.254389
v -0.166769 -2.515619 0.254389
v 0.000864 -2.226001 0.083462
v -0.009442 -2.521114 0.083462
v -0.166769 -2.515619 0.083462
v 0.000864 -2.226001 0.083462
v 0.148044 -2.526613 0.083462
v 0.158350 -2.231498 0.083462
v -0.009442 -2.521114 0.083462
v 0.158350 -2.231498 0.083462
v 0.148044 -2.526613 0.083462
v 0.148044 -2.526613 -0.087463
v 0.148044 -2.526613 -0.087463
v 0.148044 -2.526613 0.083462
v -0.009442 -2.521114 -0.087463
v 0.158350 -2.231498 -0.087463
v 0.148044 -2.526613 -0.087463
v -0.009442 -2.521114 -0.087463
v 0.158350 -2.231498 -0.087463
v -0.009442 -2.521114 0.083462
v -0.009442 -2.521114 -0.087463
v -0.009442 -2.521114 0.083462
v 0.000864 -2.226001 -0.087463
v 0.000864 -2.226001 -0.087463
v 0.158350 -2.231498 -0.087463
v 0.000864 -2.226001 -0.087463
v 0.006015 -2.078458 -0.087463
v 0.006015 -2.078458 -0.087463
v 0.000864 -2.226001 -0.087463
v 0.000864 -2.226001 0.083462
v 0.000864 -2.226001 0.083462
v 0.000864 -2.226001 0.083462
v 0.006015 -2.078458 0.083462
v 0.000864 -2.226001 0.083462
v 0.158350 -2.231498 0.083462
v 0.006015 -2.078458 0.083462
v -0.019747 -2.816227 -0.087463
v -0.177075 -2.810733 0.083462
v -0.177075 -2.810733 -0.087463
v -0.019747 -2.816227 0.083462
v -0.166769 -2.515619 -0.087463
v -0.009442 -2.521114 -0.258390
v -0.009442 -2.521114 -0.087463
v -0.166769 -2.515619 -0.258390
v -0.166769 -2.515619 0.083462
v -0.120393 -1.187624 0.083462
v 0.036931 -1.193116 0.083462
v 0.168655 -1.936383 0.083462
v 0.158350 -2.231498 0.083462
v 0.158350 -2.231498 -0.087463
v 0.168655 -1.936383 0.083462
v 0.011169 -1.930885 0.083462
v 0.168655 -1.936383 0.083462
v 0.011169 -1.930885 -0.087463
v 0.011169 -1.930885 0.083462
v 0.047238 -0.898003 0.083462
v -0.110088 -0.892509 0.083462
v -0.120393 -1.187624 0.083462
v 0.036931 -1.193116 0.083462
v -0.120393 -1.187624 0.083462
v 0.036931 -1.193116 -0.087465
v 0.036931 -1.193116 0.083462
v 0.000864 -2.226001 0.254389
v 0.011169 -1.930885 0.254389
v -0.156463 -2.220505 0.254389
v 0.011169 -1.930885 0.254389
v 0.000864 -2.226001 0.254389
v 0.000864 -2.226001 0.083462
v 0.000864 -2.226001 0.083462
v 0.011169 -1.930885 0.083462
v -0.146158 -1.925392 0.254389
v 0.011169 -1.930885 0.254389
v 0.011169 -1.930885 0.083462
v 0.011169 -1.930885 -0.087463
v 0.036931 -1.193116 -0.087465
v 0.036931 -1.193116 0.083462
v 0.036931 -1.193116 -0.087465
v -0.120393 -1.187624 0.083462
v 0.036931 -1.193116 0.083462
v 0.036931 -1.193116 0.083462
v 0.036931 -1.193116 -0.087465
v 0.047238 -0.898003 -0.087465
v 0.047238 -0.898003 0.083462
v 0.047238 -0.898003 0.083462
v 0.168655 -1.936383 -0.087463
v 0.168655 -1.936383 -0.087463
v 0.168655 -1.936383 -0.087463
v 0.011169 -1.930885 -0.087463
v 0.006015 -2.078458 -0.087463
v -0.151312 -2.072965 -0.087463
v 0.011169 -1.930885 -0.087463
v -0.120393 -1.187624 -0.087465
v -0.120393 -1.187624 -0.087465
v 0.036931 -1.193116 -0.087465
v 0.036931 -1.193116 -0.087465
v -0.120393 -1.187624 -0.087465
v 0.047238 -0.898003 -0.087465
v -0.120393 -1.187624 -0.087465
v 0.067849 -0.307776 -0.087465
v -0.110088 -0.892509 -0.087465
v 0.000864 -2.226001 -0.258390
v 0.000864 -2.226001 -0.258390
v 0.011169 -1.930885 -0.258390
v 0.011169 -1.930885 -0.087463
v 0.000864 -2.226001 -0.087463
v 0.011169 -1.930885 -0.087463
v -0.156463 -2.220505 -0.087463
v 0.000864 -2.226001 -0.087463
v -0.146158 -1.925392 -0.087463
v 0.011169 -1.930885 -0.087463
v -0.215881 0.588570 0.083462
v -0.068866 0.287962 0.083462
v -0.058560 0.583075 0.083462
v -0.226186 0.293456 0.083462
v -0.215881 0.588570 0.083462
v -0.048254 0.878187 0.083462
v -0.058560 0.583075 0.083462
v -0.048254 0.878187 -0.087465
v -0.058560 0.583075 0.083462
v -0.048254 0.878187 0.083462
v -0.215881 0.588570 0.083462
v -0.205575 0.883681 0.083462
v -0.048254 0.878187 0.083462
v -0.048254 0.878187 -0.087465
v -0.205575 0.883681 0.083462
v -0.215881 0.588570 0.083462
v -0.205575 0.883681 0.083462
v -0.215881 0.588570 -0.087465
v -0.058560 0.583075 0.083462
v -0.068866 0.287962 0.083462
v -0.058560 0.583075 -0.087465
v -0.373201 0.594061 0.083462
v -0.362896 0.889175 0.083462
v -0.362896 0.889175 -0.087465
v -0.362896 0.889175 0.083462
v -0.373201 0.594061 0.083462
v -0.205575 0.883681 0.083462
v -0.215881 0.588568 0.083462
v -0.373201 0.594061 0.083462
v -0.215881 0.588568 -0.087465
v -0.215881 0.588568 0.083462
v -0.205575 0.883681 0.083462
v -0.215881 0.588568 0.083462
v -0.205575 0.883681 -0.087465
v -0.342284 1.479406 0.083462
v -0.184964 1.473913 0.083462
v -0.342284 1.479406 -0.087465
v -0.184964 1.473913 0.083462
v -0.342284 1.479406 0.083462
v -0.195270 1.178798 0.083462
v -0.352591 1.184292 0.083462
v -0.342284 1.479406 0.083462
v -0.352591 1.184292 -0.087465
v -0.352591 1.184292 0.083462
v -0.195270 1.178798 0.083462
v -0.352591 1.184292 0.083462
v -0.195270 1.178798 -0.087465
v -0.184964 1.473913 0.083462
v -0.195270 1.178798 0.083462
v -0.184964 1.473913 -0.087465
v -0.352591 1.184290 0.083462
v -0.195270 1.178797 0.083462
v -0.352591 1.184290 -0.087465
v -0.195270 1.178797 0.083462
v -0.352591 1.184290 0.083462
v -0.205575 0.883684 0.083462
v -0.362896 0.889177 0.083462
v -0.352591 1.184290 0.083462
v -0.362896 0.889177 -0.087465
v -0.362896 0.889177 0.083462
v -0.195270 1.178797 0.083462
v -0.205575 0.883684 0.083462
v -0.205575 0.883684 -0.087465
v -0.037949 1.173304 0.083462
v -0.048254 0.878189 0.083462
v -0.037949 1.173304 -0.087465
v -0.048254 0.878189 0.083462
v -0.037949 1.173304 0.083462
v -0.205575 0.883684 0.083462
v -0.195270 1.178797 0.083462
v -0.037949 1.173304 0.083462
v -0.037949 1.173304 -0.087465
v -0.195270 1.178797 0.083462
v -0.205575 0.883684 0.083462
v -0.195270 1.178797 0.083462
v -0.205575 0.883684 -0.087465
v -0.058560 0.583074 0.254389
v -0.058560 0.583074 0.254389
v 0.098767 0.577579 0.083462
v -0.058560 0.583072 0.083462
v -0.058560 0.583072 0.254389
v 0.098767 0.577579 0.083462
v -0.058560 0.583072 0.083462
v -0.068866 0.287958 0.083462
v -0.068866 0.287958 0.254389
v -0.058560 0.583072 0.254389
v -0.058560 0.583072 0.254389
v -0.068866 0.287958 0.254389
v 0.098767 0.577579 0.254389
v -0.048254 0.878187 0.083462
v -0.058560 0.583074 0.083462
v -0.058560 0.583074 0.254389
v -0.058560 0.583074 0.083462
v -0.048254 0.878187 0.083462
v 0.109072 0.872695 0.083462
v -0.048254 0.878187 0.083462
v -0.048254 0.878187 0.254389
v 0.109072 0.872695 0.083462
v -0.048254 0.878187 0.254389
v -0.048254 0.878187 0.254389
v -0.058560 0.583074 0.254389
v -0.048254 0.878187 0.254389
v 0.098767 0.577580 0.254389
v -0.048254 0.878189 0.254389
v -0.048254 0.878189 0.083462
v 0.109072 0.872696 0.083462
v -0.048254 0.878189 0.083462
v -0.048254 0.878189 0.254389
v -0.037949 1.173304 0.083462
v -0.037949 1.173304 0.254389
v -0.027644 1.468417 0.254389
v -0.027644 1.468417 0.254389
v 0.119378 1.167809 0.254389
v -0.037949 1.173304 0.254389
v 0.129684 1.462922 0.254389
v -0.037949 1.173304 0.254389
v 0.119378 1.167809 0.254389
v 0.109072 0.872696 0.254389
v -0.373201 0.594061 -0.087465
v -0.373201 0.594061 -0.087465
v -0.215881 0.588568 -0.087465
v -0.058560 0.583067 -0.258390
v -0.058560 0.583067 -0.258390
v -0.068866 0.287953 -0.258390
v -0.068866 0.287953 -0.087465
v -0.058560 0.583067 -0.087465
v -0.058560 0.583067 -0.087465
v -0.058560 0.583069 -0.258390
v -0.058560 0.583069 -0.429150
v -0.058560 0.583069 -0.258390
v -0.048254 0.878182 -0.258390
v -0.048254 0.878182 -0.258390
v -0.058560 0.583069 -0.258390
v 0.083102 0.578122 -0.258390
v 0.078156 -0.012655 -0.087465
v -0.079172 -0.007160 -0.087465
v 0.129684 1.462917 -0.087465
v 0.078156 -0.012655 -0.087465
v 0.109072 0.872690 -0.258390
v -0.205575 0.883681 0.083462
v -0.205575 0.883681 -0.087465
v -0.362896 0.889175 -0.087465
v -0.205575 0.883681 -0.087465
v -0.215881 0.588568 -0.087465
v -0.373201 0.594061 -0.087465
v -0.195270 1.178797 -0.087465
v -0.205575 0.883684 -0.087465
v -0.352591 1.184290 -0.087465
v -0.195270 1.178797 -0.087465
v -0.205575 0.883684 -0.087465
v -0.205575 0.883684 0.083462
v -0.362896 0.889177 0.083462
v -0.195270 1.178797 -0.087465
v -0.184964 1.473913 -0.087465
v -0.195270 1.178798 -0.087465
v -0.342284 1.479406 -0.087465
v -0.195270 1.178798 -0.087465
v -0.184964 1.473913 -0.087465
v -0.048254 0.878182 -0.258390
v -0.048254 0.878182 -0.429150
v -0.058560 0.583069 -0.258390
v -0.048254 0.878182 -0.258390
v 0.109072 0.872690 -0.258390
v -0.048254 0.878182 -0.258390
v -0.058560 0.583069 -0.258390
v -0.048254 0.878182 -0.087465
v -0.048254 0.878182 -0.087465
v -0.058560 0.583069 -0.087465
v 0.109072 0.872690 -0.087465
v -0.058560 0.583069 -0.087465
v -0.037949 1.173297 -0.258390
v -0.037949 1.173297 -0.429151
v -0.037949 1.173297 -0.258390
v -0.027644 1.468409 -0.258390
v -0.027644 1.468409 -0.429151
v -0.205575 0.883684 0.083462
v -0.205575 0.883684 -0.087465
v -0.048254 0.878189 -0.087465
v -0.058560 0.583075 -0.087465
v -0.048254 0.878187 -0.087465
v -0.058560 0.583075 -0.087465
v -0.215881 0.588570 -0.087465
v -0.058560 0.583075 -0.087465
v -0.068866 0.287962 -0.087465
v -0.215881 0.588570 -0.087465
v -0.068866 0.287962 -0.087465
v -0.205575 0.883681 -0.087465
v -0.205575 0.883681 -0.087465
v -0.205575 0.883681 -0.087465
v -0.226186 0.293456 -0.087465
v -0.048254 0.878189 -0.087465
v -0.048254 0.878189 0.083462
v -0.037949 1.173304 -0.087465
v -0.048254 0.878189 -0.087465
v -0.205575 0.883684 -0.087465
v -0.195270 1.178797 -0.087465
v -0.195270 1.178797 -0.087465
v -0.195270 1.178797 -0.087465
v -0.048254 0.878182 -0.258390
v 0.109072 0.872690 -0.087465
v 0.109072 0.872690 -0.258390
v -0.048254 0.878182 -0.087465
v -0.037949 1.173297 -0.258390
v 0.119378 1.167803 -0.087465
v 0.119378 1.167803 -0.258390
v -0.037949 1.173297 -0.087465
v 0.129684 1.462917 -0.258390
v 0.129684 1.462917 -0.258390
v -0.027644 1.468409 -0.258390
v 0.119378 1.167803 -0.258390
v -0.037949 1.173297 -0.258390
v -0.362896 0.889175 -0.087465
v -0.362896 0.889177 -0.087465
v -0.362896 0.889177 -0.087465
v -0.352591 1.184290 -0.087465
v -0.352591 1.184292 -0.087465
v -0.352591 1.184292 -0.087465
v -0.342284 1.479406 -0.087465
v -0.362896 0.889175 0.083462
v 0.098767 0.577592 -0.087465
v 0.256253 0.572092 -0.087465
v 0.098767 0.577592 0.083462
v 0.256253 0.572092 -0.087465
v 0.098767 0.577592 -0.087465
v 0.266558 0.867204 -0.087465
v 0.245946 0.276977 -0.087465
v 0.256253 0.572091 -0.087465
v 0.256253 0.572091 0.083462
v 0.256253 0.572091 -0.087465
v 0.245946 0.276977 -0.087465
v 0.098767 0.577591 -0.087465
v 0.098767 0.577591 -0.087465
v 0.088462 0.282476 -0.087465
v 0.256253 0.572091 -0.087465
v 0.098767 0.577591 -0.087465
v 0.098767 0.577591 0.083462
v 0.413580 0.566598 -0.087465
v 0.423885 0.861710 -0.087465
v 0.413580 0.566598 0.083462
v 0.423885 0.861710 -0.087465
v 0.413580 0.566598 -0.087465
v 0.256253 0.572092 -0.087465
v 0.266558 0.867204 -0.087465
v 0.256253 0.572092 -0.087465
v 0.266558 0.867204 0.083462
v 0.266558 0.867204 -0.087465
v 0.109072 0.872704 -0.087465
v 0.098767 0.577592 -0.087465
v 0.109072 0.872704 -0.087465
v 0.256253 0.572092 -0.087465
v 0.266558 0.867204 -0.087465
v 0.256253 0.572092 0.083462
v 0.434191 1.156825 -0.087465
v 0.444497 1.451940 -0.087465
v 0.434191 1.156825 0.083462
v 0.444497 1.451940 -0.087465
v 0.434191 1.156825 -0.087465
v 0.287169 1.457434 -0.087465
v 0.276864 1.162320 -0.087465
v 0.434191 1.156825 -0.087465
v 0.434191 1.156825 0.083462
v 0.276864 1.162320 -0.087465
v 0.287169 1.457434 -0.087465
v 0.276864 1.162320 -0.087465
v 0.287169 1.457434 0.083462
v 0.423885 0.861710 -0.087465
v 0.434191 1.156824 -0.087465
v 0.423885 0.861710 0.083462
v 0.434191 1.156824 -0.087465
v 0.423885 0.861710 -0.087465
v 0.266558 0.867204 -0.087465
v 0.276864 1.162319 -0.087465
v 0.266558 0.867204 -0.087465
v 0.276864 1.162319 0.083462
v 0.276864 1.162319 -0.087465
v 0.434191 1.156824 -0.087465
v 0.276864 1.162319 -0.087465
v 0.434191 1.156824 0.083462
v 0.119378 1.167818 -0.087465
v 0.129684 1.462917 -0.087465
v 0.109072 0.872704 -0.087465
v 0.119378 1.167818 -0.087465
v 0.276864 1.162319 -0.087465
v 0.276864 1.162319 -0.087465
v 0.119378 1.167818 -0.087465
v 0.119378 1.167818 0.083462
v 0.266558 0.867204 -0.087465
v 0.276864 1.162319 -0.087465
v 0.266558 0.867204 0.083462
v 0.266558 0.867204 -0.087465
v 0.109072 0.872690 -0.258390
v -0.048254 0.878182 -0.258390
v -0.037949 1.173297 -0.258390
v -0.048254 0.878182 -0.258390
v 0.109072 0.872690 -0.258390
v 0.109072 0.872690 -0.087465
v 0.109072 0.872690 -0.258390
v 0.098767 0.577574 -0.087465
v 0.088462 0.282460 -0.087465
v 0.088462 0.282460 -0.258390
v -0.058560 0.583067 -0.087465
v 0.098767 0.577574 -0.087465
v -0.058560 0.583067 -0.258390
v 0.098767 0.577575 -0.087465
v -0.058560 0.583069 -0.087465
v -0.058560 0.583069 -0.258390
v 0.098767 0.577575 -0.087465
v 0.098767 0.577592 0.083462
v 0.098767 0.577574 -0.258390
v 0.098767 0.577574 -0.258390
v 0.098767 0.577575 -0.258390
v 0.098767 0.577575 -0.087465
v 0.098767 0.577575 -0.258390
v 0.109072 0.872690 -0.087465
v 0.109072 0.872690 -0.258390
v 0.098767 0.577575 -0.258390
v 0.098767 0.577575 -0.258390
v -0.048254 0.878182 -0.087465
v 0.109072 0.872690 -0.087465
v 0.119378 1.167803 -0.087465
v -0.048254 0.878182 -0.087465
v 0.119378 1.167803 -0.087465
v 0.109072 0.872690 -0.087465
v 0.109072 0.872690 -0.258390
v -0.037949 1.173297 -0.087465
v 0.119378 1.167818 0.083462
v -0.027644 1.468412 -0.087465
v 0.129684 1.462917 -0.087465
v -0.027644 1.468412 -0.087465
v 0.129684 1.462917 0.083462
v -0.027644 1.468412 0.083462
v 0.109072 0.872690 -0.258390
v 0.119378 1.167803 -0.258390
v -0.048254 0.878182 -0.258390
v 0.119378 1.167803 -0.258390
v 0.129684 1.462917 -0.258390
v 0.119378 1.167803 -0.258390
v -0.037949 1.173297 -0.258390
v 0.276864 1.162320 0.083462
v 0.276864 1.162320 0.083462
v 0.098767 0.577592 0.083462
v 0.098767 0.577592 0.083462
v 0.098767 0.577591 0.083462
v 0.098767 0.577592 0.083462
v 0.098767 0.577592 0.083462
v 0.413580 0.566598 -0.087465
v 0.413580 0.566598 0.083462
v 0.256253 0.572092 -0.087465
v 0.256253 0.572092 0.083462
v 0.088462 0.282476 0.083462
v 0.088462 0.282476 0.083462
v 0.098767 0.577591 0.083462
v 0.088462 0.282464 0.254389
v 0.098767 0.577579 0.254389
v 0.088462 0.282464 0.254389
v 0.088462 0.282463 0.083462
v 0.098767 0.577580 0.254389
v 0.109072 0.872695 0.254389
v -0.048254 0.878187 0.254389
v 0.109072 0.872695 0.254389
v 0.098767 0.577580 0.254389
v 0.109072 0.872695 0.083462
v 0.098767 0.577580 0.083462
v 0.098767 0.577580 0.254389
v -0.058560 0.583074 0.254389
v 0.098767 0.577580 0.083462
v 0.098767 0.577591 0.083462
v 0.098767 0.577591 0.083462
v 0.109072 0.872704 0.083462
v -0.027644 1.468412 0.083462
v 0.098767 0.577591 0.083462
v 0.098767 0.577591 0.083462
v 0.098767 0.577591 0.083462
v 0.098767 0.577591 0.083462
v 0.088462 0.282476 0.083462
v 0.245946 0.276977 0.083462
v 0.245946 0.276977 0.083462
v 0.256253 0.572091 0.083462
v 0.256253 0.572091 0.083462
v 0.098767 0.577580 0.083462
v -0.058560 0.583074 0.083462
v -0.058560 0.583074 0.254389
v 0.098767 0.577579 0.254389
v 0.109072 0.872695 0.254389
v 0.256253 0.572092 0.083462
v 0.256253 0.572092 0.083462
v 0.266558 0.867204 0.083462
v 0.256253 0.572092 0.083462
v 0.423885 0.861710 0.083462
v 0.266558 0.867204 0.083462
v 0.276864 1.162319 0.083462
v 0.266558 0.867204 0.083462
v 0.434191 1.156824 0.083462
v 0.276864 1.162319 0.083462
v 0.098767 0.577580 0.425149
v 0.098767 0.577580 0.254389
v 0.109072 0.872695 0.425149
v 0.109072 0.872696 0.425149
v 0.109072 0.872696 0.254389
v 0.119378 1.167809 0.425149
v 0.119378 1.167809 0.254389
v 0.109072 0.872696 0.254389
v 0.119378 1.167809 0.254389
v -0.048254 0.878189 0.254389
v 0.119378 1.167809 0.254389
v 0.109072 0.872696 0.254389
v 0.119378 1.167809 0.083462
v 0.109072 0.872696 0.254389
v 0.109072 0.872696 0.083462
v 0.109072 0.872695 0.254389
v 0.109072 0.872704 0.083462
v 0.098767 0.577592 0.083462
v 0.256253 0.572092 0.083462
v 0.098767 0.577592 0.083462
v 0.109072 0.872704 0.083462
v 0.109072 0.872704 0.083462
v 0.098767 0.577592 0.083462
v 0.266558 0.867204 0.083462
v 0.266558 0.867204 0.083462
v 0.109072 0.872696 0.083462
v -0.048254 0.878189 0.083462
v -0.037949 1.173304 0.083462
v 0.119378 1.167818 0.083462
v 0.109072 0.872695 0.254389
v -0.048254 0.878189 0.254389
v 0.119378 1.167818 0.083462
v 0.109072 0.872704 0.083462
v 0.109072 0.872704 0.083462
v 0.109072 0.872704 0.083462
v 0.266558 0.867204 0.083462
v 0.119378 1.167818 0.083462
v 0.119378 1.167809 0.425149
v 0.119378 1.167809 0.254389
v 0.129684 1.462922 0.254389
v 0.119378 1.167809 0.083462
v 0.119378 1.167818 0.083462
v 0.276864 1.162319 0.083462
v 0.276864 1.162319 0.083462
v 0.119378 1.167818 0.083462
v 0.276864 1.162319 0.083462
v 0.119378 1.167818 0.083462
v 0.129684 1.462917 0.083462
v 0.119378 1.167818 0.083462
v 0.129684 1.462917 0.083462
v 0.119378 1.167809 0.083462
v -0.037949 1.173304 0.083462
v -0.037949 1.173304 0.254389
v -0.037949 1.173304 0.254389
v 0.119378 1.167809 0.254389
v -0.027644 1.468417 0.254389
v 0.423885 0.861710 0.083462
v 0.434191 1.156824 0.083462
v 0.423885 0.861710 0.083462
v 0.287169 1.457434 0.083462
v 0.276864 1.162320 0.083462
v 0.434191 1.156825 0.083462
v 0.287169 1.457434 -0.087465
v 0.287169 1.457434 0.083462
v 0.444497 1.451940 0.083462
v 0.129684 1.462922 0.425149
v 0.444497 1.451940 0.083462
v 0.444497 1.451940 0.083462
v 0.444497 1.451940 -0.087465
v -0.089477 -0.302281 -0.087465
v -0.079172 -0.007160 -0.087465
v -0.079172 -0.007160 0.083462
v -0.027644 1.468412 0.083462
v -0.068866 0.287962 0.083462
v 0.088462 0.282464 0.254389
v -0.120393 -1.187624 0.083462
v -0.151312 -2.072965 -0.087463
v -0.151312 -2.072965 0.083462
v -0.120393 -1.187624 -0.087465
v -0.151312 -2.072965 -0.087463
v -0.110088 -0.892509 0.083462
v -0.110088 -0.892509 -0.087465
v -0.120393 -1.187624 0.083462
v -0.120393 -1.187624 -0.087465
v -0.166769 -2.515619 -0.258390
v -0.156463 -2.220505 -0.258390
v -0.156463 -2.220505 0.254389
v -0.156463 -2.220505 0.083462
v -0.166769 -2.515619 0.254389
v -0.156463 -2.220505 0.254389
v -0.166769 -2.515619 0.083462
v -0.156463 -2.220505 0.083462
v -0.156463 -2.220505 0.254389
v 0.098767 0.577579 0.083462
v -0.048254 0.878182 -0.258390
v -0.048254 0.878182 -0.087465
v -0.037949 1.173297 -0.087465
v -0.037949 1.173297 -0.258390
v -0.027644 1.468412 -0.087465
v 0.109072 0.872690 -0.258390
v 0.413580 0.566598 0.083462
vn -0.0000 -0.0000 -1.0000
vn -0.9994 0.0349 -0.0000
vn -0.0349 -0.9994 -0.0000
vn 0.9994 -0.0349 -0.0000
vn 0.0349 0.9994 -0.0000
vn -0.0000 -0.0000 1.0000
vn -0.9420 0.0329 0.3340
vn -0.9420 0.0329 0.3341
vn -0.9420 0.0328 0.3340
vn 0.0001 -0.0000 1.0000
vn 0.1744 -0.0061 -0.9847
vn 0.1744 -0.0061 -0.9846
vt 19.994101 -53.116199
vt 19.994101 -53.138302
vt 20.005899 -53.116199
vt 20.032000 -53.138302
vt 20.032000 -53.116199
vt 20.019199 -53.116199
vt 20.005899 -52.967999
vt 19.994101 -52.967999
vt 19.994101 -52.980801
vt 20.005899 -53.094101
vt 19.994101 -53.094101
vt 19.995300 -52.980801
vt 19.980801 -53.094101
vt 19.968000 -53.094101
vt 19.980801 -53.116199
vt 19.968000 -53.116199
vt 20.005899 -53.138302
vt 19.968000 -53.138302
vt 19.980801 -53.138302
vt 19.968000 -53.160500
vt 20.005899 -53.160500
vt 19.994101 -53.160500
vt 19.994101 -53.032001
vt 20.005899 -53.032001
vt 19.994101 -53.019199
vt 20.005899 -53.019199
vt 19.994101 -53.027699
vt 19.994101 -53.049801
vt 20.005899 -53.027699
vt 20.006399 -53.049801
vt 20.006399 -53.027699
vt 19.993601 -53.049801
vt 20.005899 -53.006401
vt 20.005899 -52.993599
vt 19.994101 -52.993599
vt 19.993601 -53.027699
vt 20.005899 -53.049801
vt 19.994101 -53.006401
vt 20.006399 -53.071899
vt 19.993601 -53.071899
vt 20.006399 -53.094101
vt 20.017700 -53.006401
vt 20.017700 -52.993599
vt 19.994101 -52.983398
vt 20.005899 -53.071899
vt 19.994101 -53.071899
vt 19.982300 -52.993599
vt 19.982300 -53.006401
vt 19.993601 -52.983398
vt 20.005899 -52.980801
vt 20.006399 -52.983398
vt 20.005899 -52.983398
vt 19.994101 -52.861698
vt 20.005899 -52.861698
vt 20.005899 -52.839500
vt 20.006399 -52.861698
vt 20.006399 -52.839500
vt 19.993601 -52.839500
vt 19.994101 -52.839500
vt 19.982300 -52.861698
vt 19.994101 -52.883801
vt 19.982300 -52.883801
vt 20.006399 -52.883801
vt 19.993601 -52.883801
vt 19.982300 -52.905899
vt 19.993601 -52.861698
vt 20.005899 -52.883801
vt 20.019199 -52.883801
vt 20.019199 -52.905899
vt 19.993601 -52.905899
vt 20.017700 -52.883801
vt 20.017700 -52.861698
vt 20.006399 -52.905899
vt 20.017700 -52.905899
vt 19.980801 -52.905899
vt 19.994101 -52.905899
vt 20.005899 -52.905899
vt 20.005899 -52.894901
vt 19.994101 -52.894901
vt 19.980801 -52.861698
vt 19.980801 -52.883801
vt 20.019199 -52.861698
vt 20.006399 -52.894901
vt 19.993601 -52.894901
vt 20.005899 -52.961300
vt 19.994101 -52.961300
vt 19.993601 -52.961300
vt 20.006399 -52.961300
vt 20.017700 -53.094101
vt 20.017700 -53.071899
vt 19.993601 -53.094101
vt 20.006399 -53.116199
vt 19.993601 -53.116199
vt 20.017700 -53.116199
vt 20.029499 -53.116199
vt 20.029499 -53.094101
vt 20.029499 -53.006401
vt 19.970501 -53.006401
vt 19.970501 -52.993599
vt 20.017700 -53.160500
vt 20.029499 -53.160500
vt 20.017700 -53.138302
vt 19.993601 -53.138302
vt 19.993601 -53.160500
vt 20.006399 -53.138302
vt 20.029499 -53.138302
vt 20.006399 -53.160500
vt 19.980801 -53.071899
vt 19.980801 -53.160500
vt 20.029499 -52.993599
vt 20.019199 -53.094101
vt 20.019199 -53.071899
vt 20.032000 -53.094101
vt 19.995300 -53.094101
vt 19.982300 -53.116199
vt 19.982300 -53.094101
vt 19.970501 -53.094101
vt 19.982300 -53.138302
vt 19.970501 -53.138302
vt 19.982300 -53.160500
vt 19.970501 -53.160500
vt 20.019199 -53.138302
vt 20.019199 -53.160500
vt 20.032000 -53.160500
vt 19.982300 -53.071899
vt 19.970501 -53.116199
s 1
usemtl Arrow1Mtl.002
f 1/1/1 2/2/1 3/3/1
f 4/4/2 5/5/2 6/6/2
f 7/7/3 8/8/3 9/9/3
f 10/10/1 11/11/1 12/3/1
f 13/7/3 14/8/3 15/12/3
f 16/13/4 17/14/4 18/15/4
f 14/8/3 19/9/3 15/12/3
f 17/14/4 20/16/4 18/15/4
f 21/7/5 22/8/5 23/9/5
f 24/1/1 12/3/1 11/11/1
f 25/17/1 3/3/1 2/2/1
f 26/16/4 27/18/4 28/19/4
f 29/18/4 30/20/4 31/19/4
f 32/21/1 33/17/1 34/22/1
f 35/7/5 36/8/5 37/9/5
f 33/17/1 38/2/1 34/22/1
f 39/23/3 40/24/3 41/25/3
f 42/10/6 43/11/6 44/1/6
f 45/3/6 42/10/6 44/1/6
f 46/14/2 47/16/2 48/15/2
f 49/24/3 50/26/3 51/25/3
f 52/15/2 53/16/2 54/19/2
f 55/17/6 56/3/6 57/2/6
f 53/16/2 58/18/2 54/19/2
f 59/18/2 60/20/2 61/19/2
f 62/21/6 63/17/6 64/22/6
f 65/23/5 66/24/5 67/26/5
f 56/3/6 68/1/6 57/2/6
f 69/23/3 49/24/3 51/25/3
f 70/23/5 71/24/5 72/26/5
f 63/17/6 73/2/6 64/22/6
f 74/27/1 75/28/1 76/29/1
f 77/30/2 78/31/2 79/32/2
f 80/33/3 81/34/3 82/35/3
f 78/31/2 83/36/2 79/32/2
f 84/37/6 85/29/6 86/28/6
f 87/35/5 88/38/5 89/34/5
f 90/39/2 91/40/2 92/41/2
f 93/42/3 94/43/3 95/34/3
f 96/38/5 97/33/5 98/34/5
f 99/27/6 100/29/6 101/44/6
f 102/38/3 80/33/3 82/35/3
f 85/29/6 103/27/6 86/28/6
f 88/38/5 104/33/5 89/34/5
f 105/45/1 106/46/1 107/11/1
f 108/33/3 109/38/3 110/26/3
f 111/31/4 112/36/4 113/32/4
f 114/38/3 115/35/3 116/47/3
f 117/40/4 118/39/4 119/32/4
s 0
f 120/28/6 121/46/6 122/46/6
s 1
f 118/39/4 123/30/4 119/32/4
s 0
f 114/38/1 124/38/1 125/38/1
f 124/38/1 114/38/1 126/48/1
s 1
f 127/36/4 128/31/4 129/49/4
f 113/32/4 130/30/4 111/31/4
f 120/28/6 122/46/6 131/37/6
f 132/45/1 133/46/1 134/10/1
f 135/50/3 136/9/3 137/35/3
f 75/28/1 138/37/1 76/29/1
f 139/38/3 140/33/3 141/34/3
f 142/45/6 143/46/6 144/11/6
f 137/35/3 145/34/3 135/50/3
f 146/36/2 147/51/2 148/49/2
f 147/51/2 146/36/2 149/31/2
f 100/29/6 150/52/6 101/44/6
f 151/44/1 152/27/1 153/52/1
f 154/34/5 155/35/5 156/33/5
f 157/53/1 158/54/1 159/55/1
f 160/56/2 161/57/2 162/58/2
f 163/59/1 157/53/1 159/55/1
f 164/43/3 165/34/3 166/42/3
f 167/53/1 168/60/1 169/61/1
f 168/60/1 170/62/1 169/61/1
f 171/63/2 172/56/2 173/64/2
f 174/61/1 175/62/1 176/65/1
f 177/66/4 178/64/4 179/56/4
f 180/67/6 181/54/6 182/61/6
f 183/56/2 184/63/2 185/68/2
f 186/68/2 187/63/2 188/69/2
f 189/54/6 190/55/6 191/53/6
f 162/58/2 192/66/2 160/56/2
f 155/35/5 193/38/5 156/33/5
f 172/56/2 194/66/2 173/64/2
f 195/63/2 196/64/2 197/70/2
f 198/71/6 199/72/6 200/67/6
f 165/34/3 201/33/3 166/42/3
f 199/72/6 202/54/6 200/67/6
f 178/64/4 203/63/4 179/56/4
f 204/63/4 205/64/4 206/73/4
f 207/71/6 208/67/6 209/74/6
f 210/70/2 211/64/2 212/75/2
f 213/61/1 214/76/1 215/77/1
f 216/33/5 217/38/5 218/25/5
f 219/50/5 220/9/5 221/35/5
f 222/76/1 223/77/1 224/61/1
f 225/73/2 188/69/2 187/63/2
f 226/35/5 227/47/5 228/48/5
f 176/65/1 229/76/1 174/61/1
f 230/73/2 195/63/2 197/70/2
f 226/35/5 228/48/5 231/38/5
f 232/77/6 209/74/6 208/67/6
f 205/64/4 233/70/4 206/73/4
f 234/78/6 235/79/6 236/76/6
f 237/38/3 238/33/3 239/35/3
f 240/59/6 191/53/6 190/55/6
f 241/56/4 242/57/4 243/66/4
f 244/58/4 243/66/4 242/57/4
f 245/67/1 246/54/1 247/53/1
f 248/80/4 249/81/4 250/66/4
f 251/53/6 182/61/6 181/54/6
f 252/64/4 250/66/4 249/81/4
f 253/53/6 254/61/6 255/54/6
f 256/68/4 257/82/4 258/56/4
f 259/38/3 260/25/3 261/26/3
f 262/67/1 263/54/1 264/53/1
f 258/56/4 265/63/4 256/68/4
f 266/60/6 267/62/6 268/53/6
f 269/63/4 270/56/4 271/66/4
f 272/47/3 273/48/3 274/35/3
f 275/71/1 276/72/1 277/54/1
f 271/66/4 278/64/4 269/63/4
f 273/48/3 279/38/3 274/35/3
f 280/56/2 281/66/2 282/63/2
f 277/54/1 283/67/1 275/71/1
f 284/71/1 285/67/1 286/78/1
f 287/83/2 288/63/2 289/64/2
f 290/61/6 268/53/6 267/62/6
f 281/66/2 291/64/2 282/63/2
f 292/79/6 293/61/6 294/62/6
f 289/64/2 295/84/2 287/83/2
f 296/35/3 297/33/3 298/34/3
f 297/33/3 296/35/3 299/38/3
f 300/34/3 301/9/3 302/35/3
f 301/9/3 300/34/3 303/50/3
f 304/33/3 259/38/3 261/26/3
f 305/85/6 236/76/6 306/86/6
f 236/76/6 305/85/6 234/78/6
f 307/73/4 308/63/4 309/64/4
f 294/62/6 310/65/6 292/79/6
f 311/33/5 312/42/5 313/34/5
f 310/65/6 314/76/6 292/79/6
f 315/44/6 316/52/6 317/85/6
f 318/38/3 319/33/3 320/35/3
f 317/85/6 321/86/6 315/44/6
f 322/61/6 323/76/6 324/67/6
f 325/69/4 326/68/4 327/63/4
f 215/77/1 328/67/1 213/61/1
f 327/63/4 329/73/4 325/69/4
f 323/76/6 330/77/6 324/67/6
f 218/25/5 331/26/5 216/33/5
f 332/73/4 333/70/4 334/87/4
f 335/33/5 336/34/5 337/38/5
f 334/87/4 338/88/4 332/73/4
f 339/88/4 340/87/4 341/49/4
f 342/51/4 129/49/4 128/31/4
f 341/49/4 343/51/4 339/88/4
f 312/42/5 344/43/5 313/34/5
f 345/70/4 307/73/4 309/64/4
f 346/74/1 284/71/1 286/78/1
f 347/77/1 348/78/1 349/79/1
f 286/78/1 350/77/1 346/74/1
f 337/38/5 336/34/5 351/35/5
f 352/86/1 353/85/1 347/77/1
f 354/85/1 355/86/1 356/52/1
f 357/34/3 320/35/3 319/33/3
f 358/29/1 153/52/1 152/27/1
f 359/44/1 356/52/1 355/86/1
f 347/77/1 349/79/1 352/86/1
f 223/77/1 360/67/1 224/61/1
f 361/81/4 362/75/4 363/70/4
f 364/61/6 365/76/6 366/67/6
f 363/70/4 367/64/4 361/81/4
f 365/76/6 368/77/6 366/67/6
f 221/35/5 369/34/5 219/50/5
f 370/89/6 371/45/6 372/10/6
f 371/45/6 370/89/6 373/90/6
f 91/40/2 374/91/2 92/41/2
f 375/92/4 376/41/4 377/93/4
f 378/10/6 379/3/6 380/89/6
f 381/48/5 382/38/5 383/35/5
f 379/3/6 384/94/6 380/89/6
f 385/91/2 386/93/2 387/41/2
f 388/41/4 389/39/4 390/91/4
f 391/91/2 392/93/2 393/92/2
f 394/95/6 395/96/6 396/94/6
f 397/42/3 398/97/3 399/43/3
f 395/96/6 400/89/6 396/94/6
f 401/92/4 402/41/4 403/93/4
f 404/98/5 405/48/5 406/99/5
f 407/100/6 408/101/6 409/102/6
f 410/103/2 411/104/2 412/105/2
f 408/101/6 413/106/6 409/102/6
f 414/42/3 415/97/3 416/43/3
f 417/107/4 418/105/4 419/104/4
f 420/98/5 421/48/5 422/99/5
f 423/102/6 424/106/6 425/94/6
f 426/93/2 427/103/2 428/92/2
f 424/106/6 429/95/6 425/94/6
f 430/105/4 431/92/4 432/93/4
f 433/105/4 434/92/4 435/103/4
f 436/3/6 437/17/6 438/94/6
f 439/48/5 440/38/5 441/35/5
f 437/17/6 442/102/6 438/94/6
f 443/93/2 444/103/2 445/92/2
f 40/24/3 446/26/3 41/25/3
f 447/13/2 46/14/2 48/15/2
f 448/33/5 449/38/5 450/25/5
f 107/11/1 451/10/1 105/45/1
f 452/91/2 453/40/2 454/108/2
f 455/13/2 452/91/2 454/108/2
f 456/10/6 457/45/6 458/11/6
f 459/93/2 460/91/2 461/13/2
f 462/11/1 463/1/1 464/3/1
f 465/38/5 466/25/5 467/33/5
f 468/15/2 459/93/2 461/13/2
f 469/25/5 65/23/5 67/26/5
f 470/11/1 471/1/1 472/10/1
f 473/26/3 474/33/3 475/38/3
f 476/93/2 477/15/2 478/103/2
f 478/103/2 477/15/2 479/19/2
f 480/25/5 70/23/5 72/26/5
f 60/20/2 481/109/2 61/19/2
f 482/17/1 483/2/1 484/21/1
f 485/2/1 486/17/1 487/3/1
f 488/41/2 391/91/2 393/92/2
f 398/97/3 489/110/3 399/43/3
f 402/41/4 490/91/4 403/93/4
f 133/46/1 491/11/1 134/10/1
f 492/111/2 493/112/2 494/39/2
f 495/10/6 142/45/6 144/11/6
f 494/39/2 496/41/2 492/111/2
f 497/50/3 13/7/3 15/12/3
f 498/113/2 499/111/2 500/6/2
f 501/3/6 502/10/6 503/114/6
f 504/37/1 505/28/1 506/21/1
f 141/34/3 507/35/3 139/38/3
f 501/3/6 503/114/6 508/1/6
f 509/48/5 510/47/5 511/99/5
f 512/115/1 513/116/1 514/117/1
f 515/118/1 516/115/1 517/119/1
f 432/93/4 518/103/4 430/105/4
f 519/43/3 520/42/3 521/97/3
f 421/48/5 522/47/5 422/99/5
f 523/120/1 524/118/1 525/121/1
f 526/103/4 419/104/4 418/105/4
f 405/48/5 527/47/5 406/99/5
f 528/50/3 7/7/3 9/9/3
f 500/6/2 529/5/2 498/113/2
f 530/11/1 531/1/1 532/3/1
f 533/6/2 534/111/2 535/92/2
f 536/3/6 537/10/6 538/1/6
f 539/41/2 535/92/2 534/111/2
f 4/4/2 6/6/2 540/122/2
f 541/4/2 542/122/2 543/123/2
f 543/123/2 544/124/2 541/4/2
f 545/42/3 546/43/3 547/34/3
f 376/41/4 548/91/4 377/93/4
f 549/1/1 550/11/1 551/116/1
f 552/11/1 553/46/1 554/116/1
f 555/40/4 390/91/4 389/39/4
f 556/92/2 387/41/2 386/93/2
f 551/116/1 557/115/1 549/1/1
f 383/35/5 558/47/5 381/48/5
f 559/125/1 554/116/1 553/46/1
f 434/92/4 560/93/4 435/103/4
f 547/34/3 561/33/3 545/42/3
f 562/2/1 563/1/1 564/115/1
f 565/105/2 445/92/2 444/103/2
f 564/115/1 566/118/1 562/2/1
f 441/35/5 567/47/5 439/48/5
f 568/9/5 569/34/5 570/50/5
f 569/34/5 568/9/5 571/35/5
f 572/9/5 573/34/5 574/50/5
f 573/34/5 572/9/5 575/35/5
f 37/9/5 576/50/5 35/7/5
f 577/22/6 578/21/6 579/2/6
f 579/2/6 578/21/6 580/17/6
f 512/115/1 514/117/1 581/126/1
f 582/110/3 519/43/3 521/97/3
f 516/115/1 583/126/1 517/119/1
f 584/105/2 428/92/2 427/103/2
f 585/110/3 416/43/3 415/97/3
f 524/118/1 586/119/1 525/121/1
f 587/107/2 412/105/2 411/104/2
f 511/99/5 588/98/5 509/48/5
f 589/35/3 590/47/3 591/38/3
f 592/89/1 593/10/1 594/94/1
f 595/40/4 596/91/4 597/41/4
f 598/89/1 599/90/1 600/10/1
f 601/91/7 117/40/8 119/32/9
f 602/45/1 600/10/1 599/90/1
f 603/43/5 604/34/5 605/33/5
f 606/91/4 607/93/4 608/41/4
f 609/95/1 610/96/1 611/89/1
f 612/92/2 613/41/2 614/93/2
f 611/89/1 615/94/1 609/95/1
f 616/93/6 617/91/6 601/91/10
f 593/10/1 618/3/1 594/94/1
f 619/91/4 620/93/4 621/41/4
f 622/103/4 623/104/4 624/105/4
f 625/101/1 626/106/1 627/100/1
f 628/47/3 629/99/3 630/98/3
f 626/106/1 631/102/1 627/100/1
f 632/107/2 633/105/2 634/104/2
f 635/93/4 636/103/4 637/92/4
f 638/106/1 639/95/1 640/94/1
f 641/105/2 642/92/2 643/103/2
f 640/94/1 644/102/1 638/106/1
f 645/110/5 646/43/5 647/97/5
f 648/103/6 616/93/6 649/104/6
f 650/3/1 651/17/1 652/102/1
f 653/43/5 654/34/5 655/33/5
f 656/93/4 657/103/4 658/92/4
f 652/102/1 659/94/1 650/3/1
f 660/3/1 661/1/1 662/2/1
f 663/50/3 664/9/3 665/35/3
f 666/15/4 26/16/4 28/19/4
f 667/91/4 668/40/4 669/108/4
f 670/35/5 671/34/5 672/9/5
f 673/35/3 674/34/3 675/50/3
f 537/10/6 676/11/6 538/1/6
f 616/93/1 601/91/1 649/104/1
f 601/91/4 617/91/4 677/41/4
f 669/108/4 678/13/4 667/91/4
f 671/34/5 679/50/5 672/9/5
f 680/9/3 673/35/3 675/50/3
f 681/91/4 682/13/4 683/93/4
f 684/50/5 21/7/5 23/9/5
f 503/114/6 685/11/6 508/1/6
f 686/10/1 530/11/1 532/3/1
f 687/3/6 688/1/6 689/2/6
f 665/35/3 690/34/3 663/50/3
f 691/103/4 692/93/4 693/15/4
f 689/2/6 694/17/6 687/3/6
f 648/103/4 649/104/4 695/105/4
f 119/32/11 649/104/12 601/91/11
f 696/22/1 506/21/1 505/28/1
f 697/34/5 698/35/5 699/33/5
f 699/33/5 698/35/5 700/38/5
f 701/1/6 702/2/6 703/3/6
f 704/19/4 691/103/4 693/15/4
f 30/20/4 705/109/4 31/19/4
f 662/2/1 706/17/1 660/3/1
f 702/2/6 707/17/6 703/3/6
f 633/105/2 708/103/2 634/104/2
f 709/48/3 628/47/3 630/98/3
s 0
f 710/11/6 711/11/6 712/11/6
f 713/38/1 591/38/1 714/38/1
s 1
f 715/99/3 716/98/3 717/47/3
f 590/47/3 718/48/3 591/38/3
s 0
f 719/40/6 720/40/6 721/91/6
s 1
f 722/46/6 458/11/6 457/45/6
f 723/111/4 724/112/4 725/39/4
f 726/11/6 727/1/6 728/3/6
f 729/6/4 730/111/4 731/92/4
f 732/38/3 733/25/3 734/26/3
f 730/111/4 735/41/4 731/92/4
s 0
f 736/91/6 719/40/6 721/91/6
s 1
f 122/46/6 737/11/6 131/37/6
s 0
f 711/11/6 737/11/6 712/11/6
s 1
f 737/11/6 711/11/6 738/1/6
f 131/37/6 737/11/6 739/21/6
s 0
f 605/33/1 740/33/1 741/33/1
s 1
f 677/41/4 742/41/4 601/91/4
f 743/11/6 744/46/6 745/125/6
f 597/41/4 746/39/4 595/40/4
f 745/125/6 747/116/6 743/11/6
s 0
f 741/33/6 748/42/6 605/33/1
s 1
f 605/33/5 748/42/5 603/43/5
f 749/10/1 462/11/1 464/3/1
f 750/33/3 732/38/3 734/26/3
f 751/10/6 726/11/6 728/3/6
f 450/25/5 752/26/5 448/33/5
f 472/10/1 471/1/1 753/3/1
f 613/41/2 754/91/2 614/93/2
f 755/48/3 717/47/3 716/98/3
f 756/115/6 757/116/6 758/126/6
f 642/92/2 759/93/2 643/103/2
f 760/118/6 761/115/6 762/119/6
f 646/43/5 763/42/5 647/97/5
f 764/113/4 765/111/4 766/5/4
f 767/5/4 768/6/4 769/4/4
f 768/6/4 770/122/4 769/4/4
f 771/1/6 772/2/6 773/3/6
f 774/122/4 775/6/4 776/105/4
f 475/38/3 777/25/3 473/26/3
f 775/6/4 778/92/4 776/105/4
f 765/111/4 779/6/4 766/5/4
f 780/1/6 781/11/6 782/116/6
s 0
f 783/91/6 784/93/6 785/93/6
f 785/93/6 786/91/6 783/91/6
s 1
f 787/92/4 621/41/4 620/93/4
f 782/116/6 788/115/6 780/1/6
f 789/3/1 790/1/1 791/2/1
f 738/1/6 739/21/6 737/11/6
f 739/21/6 738/1/6 792/2/6
f 466/25/5 793/26/5 467/33/5
f 487/3/1 794/1/1 485/2/1
s 0
f 795/103/6 796/93/6 797/93/6
s 1
f 798/1/6 799/115/6 800/2/6
f 801/4/4 802/122/4 803/123/4
f 804/17/1 789/3/1 791/2/1
s 0
f 797/93/6 805/103/6 795/103/6
s 1
f 806/105/4 658/92/4 657/103/4
f 799/115/6 807/118/6 800/2/6
s 0
f 808/33/6 809/42/6 655/33/1
f 792/2/6 810/2/6 811/22/6
f 655/33/1 812/33/1 808/33/1
s 1
f 655/33/5 809/42/5 653/43/5
f 695/105/4 649/104/4 813/107/4
f 814/33/5 815/38/5 816/25/5
f 772/2/6 817/17/6 773/3/6
f 816/25/5 818/26/5 814/33/5
f 484/21/1 483/2/1 819/22/1
f 761/115/6 820/126/6 762/119/6
f 636/103/4 821/105/4 637/92/4
f 607/93/4 822/92/4 608/41/4
f 823/120/6 824/118/6 825/119/6
f 826/43/5 827/42/5 828/97/5
f 803/123/4 829/124/4 801/4/4
f 792/2/6 811/22/6 739/21/6
f 830/107/4 624/105/4 623/104/4
f 825/119/6 831/121/6 823/120/6
f 826/43/5 828/97/5 832/110/5
f 833/35/5 96/38/5 98/34/5
f 834/30/2 835/32/2 836/104/2
f 93/42/3 95/34/3 837/33/3
f 110/26/3 109/38/3 838/25/3
f 126/48/3 114/38/3 116/47/3
f 839/87/2 840/83/2 841/84/2
f 840/83/2 839/87/2 842/88/2
f 238/33/3 843/34/3 239/35/3
f 844/49/2 845/51/2 846/87/2
f 846/87/2 845/51/2 847/88/2
f 848/82/2 183/56/2 185/68/2
f 247/53/1 849/61/1 245/67/1
f 850/81/2 851/64/2 852/80/2
f 211/64/2 853/81/2 212/75/2
f 852/80/2 851/64/2 854/66/2
f 264/53/1 855/61/1 262/67/1
f 856/67/6 255/54/6 254/61/6
f 725/39/4 857/41/4 723/111/4
f 858/6/2 859/92/2 860/105/2
f 858/6/2 860/105/2 861/122/2
f 834/30/2 836/104/2 862/107/2
f 863/15/4 683/93/4 682/13/4
s 0
f 718/48/1 714/38/1 591/38/1
s 1
f 757/116/6 864/117/6 758/126/6
