# Blender 5.1.1
# www.blender.org
mtllib minecraftbow.mtl
o minecraftbow
v 0.541597 -0.492652 0.186017
v 0.741490 -0.729796 0.194291
v 0.572339 -0.477497 -0.122340
v 0.741490 -0.729796 0.194291
v 0.541597 -0.492652 0.186017
v 0.306303 -0.692147 0.152753
v 0.772233 -0.714641 -0.114065
v 0.541597 -0.492652 0.186017
v 0.572339 -0.477497 -0.122340
v 0.337045 -0.676990 -0.155603
v 0.306303 -0.692147 0.152753
v 0.541597 -0.492652 0.186017
v 0.506197 -0.929291 0.161027
v 0.772233 -0.714641 -0.114065
v 0.741490 -0.729796 0.194291
v 0.506197 -0.929291 0.161027
v 0.572339 -0.477497 -0.122340
v 0.772233 -0.714641 -0.114065
v 0.536940 -0.914136 -0.147329
v 0.337045 -0.676990 -0.155603
v 0.306303 -0.692147 0.152753
v 0.337045 -0.676990 -0.155603
v 0.536940 -0.914136 -0.147329
v 0.506197 -0.929291 0.161027
v 0.306303 -0.692147 0.152753
v 0.536940 -0.914136 -0.147329
v 0.647776 0.817314 0.260986
v 0.847673 0.580165 0.269260
v 0.678518 0.832470 -0.047372
v 0.847673 0.580165 0.269260
v 0.647776 0.817314 0.260986
v 0.412482 0.617820 0.227722
v 0.678518 0.832470 -0.047372
v 0.847673 0.580165 0.269260
v 0.878416 0.595321 -0.039097
v 0.647776 0.817314 0.260986
v 0.678518 0.832470 -0.047372
v 0.443225 0.632975 -0.080635
v 0.412482 0.617820 0.227722
v 0.612379 0.380671 0.235996
v 0.878416 0.595321 -0.039097
v 0.847673 0.580165 0.269260
v 0.612379 0.380671 0.235996
v 0.678518 0.832470 -0.047372
v 0.878416 0.595321 -0.039097
v 0.643122 0.395826 -0.072359
v 0.443225 0.632975 -0.080635
v 0.412482 0.617820 0.227722
v 0.443225 0.632975 -0.080635
v 0.643122 0.395826 -0.072359
v 0.612379 0.380671 0.235996
v 0.643122 0.395826 -0.072359
v 0.470795 -1.365927 0.136038
v 0.670693 -1.603077 0.144312
v 0.501537 -1.350772 -0.172318
v 0.670693 -1.603077 0.144312
v 0.470795 -1.365927 0.136038
v 0.235501 -1.565421 0.102774
v 0.501537 -1.350772 -0.172318
v 0.670693 -1.603077 0.144312
v 0.701437 -1.587922 -0.164044
v 0.470795 -1.365927 0.136038
v 0.501537 -1.350772 -0.172318
v 0.266243 -1.550266 -0.205582
v 0.235501 -1.565421 0.102774
v 0.470795 -1.365927 0.136038
v 0.435399 -1.802572 0.111048
v 0.701437 -1.587922 -0.164044
v 0.670693 -1.603077 0.144312
v 0.435399 -1.802572 0.111048
v 0.501537 -1.350772 -0.172318
v 0.701437 -1.587922 -0.164044
v 0.466143 -1.787417 -0.197307
v 0.266243 -1.550266 -0.205582
v 0.235501 -1.565421 0.102774
v 0.266243 -1.550266 -0.205582
v 0.466143 -1.787417 -0.197307
v 0.435399 -1.802572 0.111048
v 0.466143 -1.787417 -0.197307
v 0.683088 1.253919 0.286807
v 0.882996 1.016756 0.295082
v 0.713833 1.269074 -0.021564
v 0.882996 1.016756 0.295082
v 0.683088 1.253919 0.286807
v 0.447794 1.054423 0.253543
v 0.713833 1.269074 -0.021564
v 0.882996 1.016756 0.295082
v 0.913740 1.031913 -0.013289
v 0.683088 1.253919 0.286807
v 0.713833 1.269074 -0.021564
v 0.478539 1.069580 -0.054827
v 0.447794 1.054423 0.253543
v 0.647702 0.817262 0.261817
v 0.913740 1.031913 -0.013289
v 0.882996 1.016756 0.295082
v 0.647702 0.817262 0.261817
v 0.713833 1.269074 -0.021564
v 0.913740 1.031913 -0.013289
v 0.678447 0.832418 -0.046553
v 0.478539 1.069580 -0.054827
v 0.447794 1.054423 0.253543
v 0.478539 1.069580 -0.054827
v 0.678447 0.832418 -0.046553
v 0.647702 0.817262 0.261817
v 0.678447 0.832418 -0.046553
v 0.678447 0.832418 -0.046553
v 0.576972 -0.055984 0.211005
v 0.776871 -0.293133 0.219279
v 0.607716 -0.040829 -0.097350
v 0.776871 -0.293133 0.219279
v 0.576972 -0.055984 0.211005
v 0.341679 -0.255478 0.177741
v 0.607716 -0.040829 -0.097350
v 0.807613 -0.277978 -0.089078
v 0.576972 -0.055984 0.211005
v 0.607716 -0.040829 -0.097350
v 0.372421 -0.240323 -0.130615
v 0.341679 -0.255478 0.177741
v 0.541577 -0.492627 0.186015
v 0.807613 -0.277978 -0.089078
v 0.776871 -0.293133 0.219279
v 0.541577 -0.492627 0.186015
v 0.607716 -0.040829 -0.097350
v 0.807613 -0.277978 -0.089078
v 0.572319 -0.477472 -0.122342
v 0.372421 -0.240323 -0.130615
v 0.341679 -0.255478 0.177741
v 0.372421 -0.240323 -0.130615
v 0.572319 -0.477472 -0.122342
v 0.541577 -0.492627 0.186015
v 0.572319 -0.477472 -0.122342
v 0.718554 1.690594 0.310962
v 0.918452 1.453443 0.319235
v 0.749297 1.705749 0.002607
v 0.918452 1.453443 0.319235
v 0.718554 1.690594 0.310962
v 0.483260 1.491099 0.277698
v 0.918452 1.453443 0.319235
v 0.949196 1.468598 0.010880
v 0.718554 1.690594 0.310962
v 0.749297 1.705749 0.002607
v 0.514003 1.506254 -0.030657
v 0.483260 1.491099 0.277698
v 0.683158 1.253949 0.285973
v 0.949196 1.468598 0.010880
v 0.918452 1.453443 0.319235
v 0.683158 1.253949 0.285973
v 0.749297 1.705749 0.002607
v 0.949196 1.468598 0.010880
v 0.713903 1.269104 -0.022383
v 0.514003 1.506254 -0.030657
v 0.483260 1.491099 0.277698
v 0.514003 1.506254 -0.030657
v 0.713903 1.269104 -0.022383
v 0.683158 1.253949 0.285973
v 0.713903 1.269104 -0.022383
v 0.612390 0.380658 0.235997
v 0.812287 0.143509 0.244270
v 0.643133 0.395814 -0.072360
v 0.812287 0.143509 0.244270
v 0.612390 0.380658 0.235997
v 0.377096 0.181164 0.202733
v 0.843031 0.158665 -0.064085
v 0.612390 0.380658 0.235997
v 0.643133 0.395814 -0.072360
v 0.407839 0.196321 -0.105624
v 0.377096 0.181164 0.202733
v 0.576995 -0.055985 0.211008
v 0.843031 0.158665 -0.064085
v 0.812287 0.143509 0.244270
v 0.576995 -0.055985 0.211008
v 0.643133 0.395814 -0.072360
v 0.843031 0.158665 -0.064085
v 0.607737 -0.040830 -0.097349
v 0.407839 0.196321 -0.105624
v 0.377096 0.181164 0.202733
v 0.407839 0.196321 -0.105624
v 0.607737 -0.040830 -0.097349
v 0.576995 -0.055985 0.211008
v 0.607737 -0.040830 -0.097349
v -0.457915 0.693121 0.144645
v -0.657813 0.930270 0.136370
v -0.893108 0.730775 0.103107
v -0.693209 0.493626 0.111382
v -1.328287 0.768441 0.061571
v -0.857699 1.167430 0.128098
v -1.297545 0.783596 -0.246785
v -0.857699 1.167430 0.128098
v -1.328287 0.768441 0.061571
v -1.128390 0.531292 0.069845
v -0.826957 1.182585 -0.180258
v -1.328287 0.768441 0.061571
v -1.297545 0.783596 -0.246785
v -1.097646 0.546447 -0.238512
v -1.128390 0.531292 0.069845
v -1.097646 0.546447 -0.238512
v -0.893108 0.730775 0.103107
v -0.657801 0.930281 0.136372
v -1.297545 0.783596 -0.246785
v -0.826957 1.182585 -0.180258
v -0.627059 0.945436 -0.171984
v -1.097646 0.546447 -0.238512
v -0.862363 0.745932 -0.205250
v -0.427162 0.708285 -0.163694
v 0.278720 1.306769 -0.063904
v -0.457906 0.693129 0.144678
v 0.278720 1.306769 -0.063904
v -0.427162 0.708285 -0.163694
v -0.627060 0.945434 -0.171968
v 0.247976 1.291612 0.244468
v 0.078821 1.543918 -0.072177
v 0.247976 1.291612 0.244468
v 0.278720 1.306769 -0.063904
v 0.078821 1.543918 -0.072177
v -0.457906 0.693129 0.144678
v 0.247976 1.291612 0.244468
v 0.048078 1.528763 0.236194
v -0.657804 0.930279 0.136404
v 0.048078 1.528763 0.236194
v -0.493382 0.256446 0.120490
v -0.293472 0.019283 0.128763
v -0.462636 0.271601 -0.187882
v -0.293472 0.019283 0.128763
v -0.493382 0.256446 0.120490
v -0.728675 0.056950 0.087226
v -0.293472 0.019283 0.128763
v -0.262728 0.034440 -0.179607
v -0.528767 -0.180211 0.095501
v -0.262728 0.034440 -0.179607
v -0.293472 0.019283 0.128763
v -0.528767 -0.180211 0.095501
v -0.462636 0.271601 -0.187882
v -0.262728 0.034440 -0.179607
v -0.498023 -0.165055 -0.212871
v -0.697932 0.072107 -0.221146
v -0.498023 -0.165055 -0.212871
v -0.493298 0.256487 0.119657
v -0.693197 0.493636 0.111384
v -0.928491 0.294141 0.078120
v -0.728593 0.056992 0.086393
v -0.457915 0.693121 0.144645
v -0.258016 0.455970 0.152919
v -0.427171 0.708276 -0.163711
v -0.258016 0.455970 0.152919
v -0.457915 0.693121 0.144645
v -0.693209 0.493626 0.111382
v -0.227273 0.471126 -0.155436
v -0.493311 0.256476 0.119655
v -0.227273 0.471126 -0.155436
v -0.258016 0.455970 0.152919
v -0.493311 0.256476 0.119655
v -0.427171 0.708276 -0.163711
v -0.227273 0.471126 -0.155436
v -0.462567 0.271632 -0.188700
v -0.662465 0.508781 -0.196975
v -0.462567 0.271632 -0.188700
v -0.728605 0.056981 0.086392
v -0.928503 0.294132 0.078118
v -1.163796 0.094637 0.044854
v -0.963898 -0.142513 0.053128
v -0.199700 -1.527756 0.061236
v -0.799394 -0.816306 0.036412
v -1.034689 -1.015801 0.003150
v -0.434995 -1.727251 0.027972
v -0.564093 -0.616804 0.069710
v 0.035602 -1.328252 0.094532
v -0.533348 -0.601647 -0.238662
v 0.035602 -1.328252 0.094532
v -0.564093 -0.616804 0.069710
v -0.799387 -0.816298 0.036446
v 0.035602 -1.328252 0.094532
v 0.066346 -1.313097 -0.213839
v -0.199692 -1.527747 0.061268
v 0.066346 -1.313097 -0.213839
v 0.035602 -1.328252 0.094532
v -0.199692 -1.527747 0.061268
v -0.533348 -0.601647 -0.238662
v 0.066346 -1.313097 -0.213839
v -0.168947 -1.512592 -0.247102
v -0.768641 -0.801142 -0.271926
v -0.168947 -1.512592 -0.247102
v 0.364607 -2.675859 0.061069
v -0.434985 -1.727262 0.027973
v -0.670278 -1.926756 -0.005291
v 0.129313 -2.875352 0.027805
v 0.435407 -1.802558 0.111049
v 0.635307 -2.039709 0.119324
v 0.466150 -1.787403 -0.197306
v 0.635307 -2.039709 0.119324
v 0.435407 -1.802558 0.111049
v 0.200113 -2.002053 0.077786
v 0.466150 -1.787403 -0.197306
v 0.666049 -2.024554 -0.189032
v 0.435407 -1.802558 0.111049
v 0.466150 -1.787403 -0.197306
v 0.230857 -1.986896 -0.230570
v 0.200113 -2.002053 0.077786
v 0.215472 -1.994485 -0.076385
v 0.400014 -2.239203 0.086060
v 0.666049 -2.024554 -0.189032
v 0.635307 -2.039709 0.119324
v 0.400014 -2.239203 0.086060
v 0.466150 -1.787403 -0.197306
v 0.666049 -2.024554 -0.189032
v 0.430756 -2.224048 -0.222296
v 0.230857 -1.986896 -0.230570
v 0.407687 -2.235424 0.008965
v 0.430756 -2.224048 -0.222296
v 0.200113 -2.002053 0.077786
v 0.215484 -1.994474 -0.076384
v -0.168948 -1.512612 -0.247121
v -0.199691 -1.527767 0.061237
v -0.199691 -1.527767 0.061237
v -0.434985 -1.727262 0.027973
v 0.200113 -2.002053 0.077786
v 0.400014 -2.239203 0.086060
v 0.599900 -2.476363 0.094333
v 0.230845 -1.986907 -0.230572
v -0.168948 -1.512612 -0.247121
v 0.364607 -2.675859 0.061069
v 0.630642 -2.461208 -0.214023
v 0.599900 -2.476363 0.094333
v 0.364607 -2.675859 0.061069
v 0.630642 -2.461208 -0.214023
v 0.395349 -2.660702 -0.247287
v 0.430756 -2.224048 -0.222296
v 0.230845 -1.986907 -0.230572
v -0.168948 -1.512612 -0.247121
v -0.404242 -1.712106 -0.280383
v 0.395349 -2.660702 -0.247287
v 0.407687 -2.235424 0.008965
v 0.400002 -2.239213 0.086059
v 0.599924 -2.476345 0.094336
v 0.430756 -2.224048 -0.222296
v 0.407700 -2.235413 0.008967
v 0.599912 -2.476354 0.094334
v 0.630656 -2.461199 -0.214021
v -0.434995 -1.727251 0.027972
v -1.034689 -1.015801 0.003150
v -1.269983 -1.215295 -0.030114
v -1.034689 -1.015801 0.003150
v -1.003946 -1.000646 -0.305207
v -1.239240 -1.200140 -0.338471
v -1.269983 -1.215295 -0.030114
v -1.034689 -1.015801 0.003150
v -1.239240 -1.200140 -0.338471
v -0.670289 -1.926745 -0.005292
v -1.003946 -1.000646 -0.305207
v -0.404251 -1.712096 -0.280384
v -0.639545 -1.911589 -0.313647
v -1.239240 -1.200140 -0.338471
v -1.003946 -1.000646 -0.305207
v -1.269983 -1.215295 -0.030114
v -1.239240 -1.200140 -0.338471
v -0.639545 -1.911589 -0.313647
v -0.670289 -1.926745 -0.005292
v -1.269983 -1.215295 -0.030114
v -0.639545 -1.911589 -0.313647
v 0.364607 -2.675859 0.061069
v 0.564505 -2.913008 0.069343
v 0.395349 -2.660702 -0.247287
v 0.564505 -2.913008 0.069343
v 0.364607 -2.675859 0.061069
v 0.129313 -2.875352 0.027805
v 0.395349 -2.660702 -0.247287
v 0.564505 -2.913008 0.069343
v 0.595247 -2.897853 -0.239013
v 0.329211 -3.112503 0.036079
v 0.595247 -2.897853 -0.239013
v 0.564505 -2.913008 0.069343
v 0.329211 -3.112503 0.036079
v 0.395349 -2.660702 -0.247287
v 0.595247 -2.897853 -0.239013
v 0.359953 -3.097348 -0.272276
v 0.160055 -2.860197 -0.280551
v 0.129313 -2.875352 0.027805
v 0.160055 -2.860197 -0.280551
v 0.359953 -3.097348 -0.272276
v 0.329211 -3.112503 0.036079
v 0.129313 -2.875352 0.027805
v 0.359953 -3.097348 -0.272276
v 0.359953 -3.097348 -0.272276
v -0.404242 -1.712106 -0.280383
v 0.395349 -2.660702 -0.247287
v 0.160055 -2.860197 -0.280551
v -0.639535 -1.911601 -0.313647
v 0.129325 -2.875343 0.027807
v -0.670266 -1.926747 -0.005289
v -0.905560 -2.126242 -0.038553
v -0.670266 -1.926747 -0.005289
v -0.639524 -1.911592 -0.313645
v -0.874818 -2.111086 -0.346909
v -0.905560 -2.126242 -0.038553
v -0.670266 -1.926747 -0.005289
v -0.874818 -2.111086 -0.346909
v -0.105969 -3.074837 -0.005456
v 0.160068 -2.860188 -0.280549
v 0.129325 -2.875343 0.027807
v -0.105969 -3.074837 -0.005456
v -0.639524 -1.911592 -0.313645
v 0.160068 -2.860188 -0.280549
v -0.075227 -3.059682 -0.313813
v -0.874818 -2.111086 -0.346909
v -0.905560 -2.126242 -0.038553
v -0.874818 -2.111086 -0.346909
v -0.075227 -3.059682 -0.313813
v -0.105969 -3.074837 -0.005456
v -0.905560 -2.126242 -0.038553
v -0.075227 -3.059682 -0.313813
v -0.075227 -3.059682 -0.313813
v -0.768652 -0.801151 -0.271943
v -0.168958 -1.512599 -0.247120
v -0.404251 -1.712096 -0.280384
v -1.003946 -1.000646 -0.305207
v -0.768652 -0.801151 -0.271943
v -0.999294 -0.579157 0.028139
v -1.199192 -0.342006 0.019865
v -1.434485 -0.541503 -0.013399
v -0.799394 -0.816306 0.036412
v -1.199192 -0.342006 0.019865
v -1.168449 -0.326851 -0.288491
v -1.403743 -0.526347 -0.321755
v -1.434485 -0.541503 -0.013399
v -1.034689 -1.015801 0.003150
v -0.968538 -0.563991 -0.280216
v -0.768652 -0.801151 -0.271943
v -1.003946 -1.000646 -0.305207
v -1.168449 -0.326851 -0.288491
v -1.403743 -0.526347 -0.321755
v -1.434485 -0.541503 -0.013399
v -1.403743 -0.526347 -0.321755
v -1.003946 -1.000646 -0.305207
v -1.034689 -1.015801 0.003150
v -1.434485 -0.541503 -0.013399
v -1.003946 -1.000646 -0.305207
v -0.528705 -0.180168 0.094666
v -0.328807 -0.417318 0.102940
v -0.497963 -0.165013 -0.213690
v -0.328807 -0.417318 0.102940
v -0.528705 -0.180168 0.094666
v -0.764000 -0.379662 0.061402
v -0.497963 -0.165013 -0.213690
v -0.328807 -0.417318 0.102940
v -0.298065 -0.402162 -0.205416
v -0.564101 -0.616811 0.069676
v -0.298065 -0.402162 -0.205416
v -0.328807 -0.417318 0.102940
v -0.564101 -0.616811 0.069676
v -0.497963 -0.165013 -0.213690
v -0.298065 -0.402162 -0.205416
v -0.533359 -0.601656 -0.238680
v -0.733258 -0.364507 -0.246954
v -0.533359 -0.601656 -0.238680
v -0.564090 -0.616802 0.069678
v -0.763988 -0.379653 0.061403
v -0.999282 -0.579146 0.028139
v -0.799384 -0.816297 0.036416
v -0.733245 -0.364496 -0.246952
v -0.533347 -0.601647 -0.238678
v -0.768640 -0.801142 -0.271942
v -0.968538 -0.563991 -0.280216
v -0.763978 -0.379664 0.061404
v -0.963887 -0.142503 0.053130
v -1.199180 -0.341997 0.019867
v -0.999273 -0.579158 0.028140
v -0.528696 -0.180180 0.094667
v -0.728605 0.056981 0.086392
v -0.963898 -0.142513 0.053128
v -0.763989 -0.379675 0.061403
v -0.697862 0.072136 -0.221965
v -0.497954 -0.165025 -0.213689
v -0.733247 -0.364520 -0.246953
v -0.933156 -0.127357 -0.255228
v 0.620200 2.816174 0.044311
v -0.320975 2.018196 -0.088744
v -0.520884 2.255358 -0.097018
v -0.320975 2.018196 -0.088744
v -0.351718 2.003041 0.219614
v -0.551627 2.240202 0.211340
v -0.520884 2.255358 -0.097018
v -0.320975 2.018196 -0.088744
v -0.551627 2.240202 0.211340
v 0.420292 3.053336 0.036036
v 0.589458 2.801019 0.352668
v 0.620200 2.816174 0.044311
v 0.420292 3.053336 0.036036
v -0.351718 2.003041 0.219614
v 0.589458 2.801019 0.352668
v 0.389549 3.038181 0.344392
v -0.551627 2.240202 0.211340
v -0.351718 2.003041 0.219614
v 0.389549 3.038181 0.344392
v -0.520884 2.255358 -0.097018
v -0.551627 2.240202 0.211340
v 0.389549 3.038181 0.344392
v 0.420292 3.053336 0.036036
v -0.520884 2.255358 -0.097018
v 0.389549 3.038181 0.344392
v -0.121076 1.781069 -0.080468
v -0.826957 1.182585 -0.180258
v -1.026855 1.419736 -0.188533
v -0.826957 1.182585 -0.180258
v -0.857699 1.167430 0.128098
v -1.057598 1.404579 0.119824
v -1.026855 1.419736 -0.188533
v -0.320974 2.018218 -0.088741
v -0.857699 1.167430 0.128098
v -0.151818 1.765914 0.227889
v -0.351716 2.003063 0.219615
v -1.057598 1.404579 0.119824
v -0.857699 1.167430 0.128098
v -1.026855 1.419736 -0.188533
v -1.057598 1.404579 0.119824
v -0.351716 2.003063 0.219615
v -0.320974 2.018218 -0.088741
v 0.777008 2.138604 0.104689
v 0.784693 2.142394 0.027596
v 1.019987 2.341887 0.060858
v 0.784693 2.142394 0.027596
v 0.549399 1.942898 -0.005667
v -0.121087 1.781060 -0.080469
v 1.019987 2.341887 0.060858
v 0.078812 1.543909 -0.072195
v 0.753950 2.127238 0.335952
v 0.777008 2.138604 0.104689
v 1.019987 2.341887 0.060858
v 0.989244 2.326732 0.369216
v 0.820089 2.579038 0.052584
v 0.989244 2.326732 0.369216
v 1.019987 2.341887 0.060858
v 0.820089 2.579038 0.052584
v 0.789346 2.563881 0.360942
v 0.048068 1.528754 0.236161
v 0.518657 1.927743 0.302688
v 0.753950 2.127238 0.335952
v 0.989244 2.326732 0.369216
v -0.151829 1.765903 0.227887
v 0.789346 2.563881 0.360942
v 0.549399 1.942898 -0.005667
v 0.534027 1.935320 0.148518
v 0.048068 1.528754 0.236161
v 0.078812 1.543909 -0.072195
v 0.518657 1.927743 0.302688
v 0.820077 2.579027 0.052583
v 1.055382 2.778531 0.085848
v 0.789333 2.563872 0.360939
v 1.055382 2.778531 0.085848
v 0.820077 2.579027 0.052583
v 0.620179 2.816178 0.044309
v 0.789333 2.563872 0.360939
v 1.055382 2.778531 0.085848
v 1.024640 2.763376 0.394204
v 0.855484 3.015682 0.077574
v 1.024640 2.763376 0.394204
v 1.055382 2.778531 0.085848
v 0.855484 3.015682 0.077574
v 0.789333 2.563872 0.360939
v 1.024640 2.763376 0.394204
v 0.824742 3.000526 0.385931
v 0.589437 2.801021 0.352665
v 0.620179 2.816178 0.044309
v 0.589437 2.801021 0.352665
v 0.824742 3.000526 0.385931
v 0.855484 3.015682 0.077574
v 0.620179 2.816178 0.044309
v 0.824742 3.000526 0.385931
v 0.824742 3.000526 0.385931
v 0.820089 2.579038 0.052584
v -0.121087 1.781060 -0.080469
v -0.320985 2.018209 -0.088743
v 0.620189 2.816187 0.044311
v -0.151829 1.765903 0.227887
v 0.789346 2.563881 0.360942
v 0.589447 2.801032 0.352666
v -0.351727 2.003053 0.219613
v 0.078823 1.543920 -0.072193
v -0.627059 0.945436 -0.171984
v -0.826957 1.182585 -0.180258
v -0.121076 1.781069 -0.080468
v -0.657801 0.930281 0.136372
v 0.048081 1.528765 0.236162
v -0.151818 1.765914 0.227889
v -0.857699 1.167430 0.128098
v -0.933143 -0.127347 -0.255226
v -0.733235 -0.364509 -0.246951
v -0.968529 -0.564003 -0.280215
v -1.168437 -0.326842 -0.288489
v -0.963887 -0.142503 0.053130
v -1.163786 0.094646 0.044856
v -1.399077 -0.104848 0.011593
v -1.163786 0.094646 0.044856
v -1.133042 0.109802 -0.263500
v -1.368335 -0.089691 -0.296763
v -1.399077 -0.104848 0.011593
v -1.199180 -0.341997 0.019867
v -1.133042 0.109802 -0.263500
v -0.933143 -0.127347 -0.255226
v -1.168437 -0.326842 -0.288489
v -1.368335 -0.089691 -0.296763
v -1.399077 -0.104848 0.011593
v -1.368335 -0.089691 -0.296763
v -1.168437 -0.326842 -0.288489
v -1.199180 -0.341997 0.019867
v 0.753950 2.127238 0.335952
v 0.953849 1.890088 0.344227
v 0.777008 2.138604 0.104689
v 0.784693 2.142394 0.027596
v 0.953849 1.890088 0.344227
v 0.753950 2.127238 0.335952
v 0.518657 1.927743 0.302688
v 0.784693 2.142394 0.027596
v 0.953849 1.890088 0.344227
v 0.984592 1.905244 0.035870
v 0.718554 1.690594 0.310962
v 0.984592 1.905244 0.035870
v 0.953849 1.890088 0.344227
v 0.718554 1.690594 0.310962
v 0.784693 2.142394 0.027596
v 0.984592 1.905244 0.035870
v 0.749297 1.705749 0.002607
v 0.549399 1.942898 -0.005667
v 0.784693 2.142394 0.027596
v 0.749297 1.705749 0.002607
v 0.534027 1.935320 0.148518
v 0.549399 1.942898 -0.005667
v 0.749297 1.705749 0.002607
v 0.518657 1.927743 0.302688
v 0.718554 1.690594 0.310962
v 0.749297 1.705749 0.002607
v -0.627070 0.945425 -0.171986
v -0.427171 0.708276 -0.163711
v -0.662465 0.508781 -0.196975
v -0.862363 0.745932 -0.205250
v -0.662454 0.508791 -0.196974
v -0.462556 0.271642 -0.188698
v -0.697849 0.072147 -0.221962
v -0.897748 0.309296 -0.230237
v -0.897761 0.309287 -0.230238
v -0.697862 0.072136 -0.221965
v -0.933156 -0.127357 -0.255228
v -1.133055 0.109792 -0.263502
v -0.928503 0.294132 0.078118
v -1.128402 0.531281 0.069844
v -1.363695 0.331786 0.036580
v -1.128402 0.531281 0.069844
v -1.097659 0.546436 -0.238514
v -1.332951 0.346943 -0.271775
v -1.363695 0.331786 0.036580
v -1.163796 0.094637 0.044854
v -1.097659 0.546436 -0.238514
v -0.897761 0.309287 -0.230238
v -1.133055 0.109792 -0.263502
v -1.332951 0.346943 -0.271775
v -1.363695 0.331786 0.036580
v -1.332951 0.346943 -0.271775
v -1.133055 0.109792 -0.263502
v -1.163796 0.094637 0.044854
v -0.693197 0.493636 0.111384
v -0.893095 0.730786 0.103110
v -1.128390 0.531292 0.069845
v -0.928491 0.294141 0.078120
v -0.862352 0.745941 -0.205248
v -0.662454 0.508791 -0.196974
v -0.897748 0.309296 -0.230237
v -1.097646 0.546447 -0.238512
v 0.506122 -0.929317 0.161861
v 0.706021 -1.166468 0.170135
v 0.536865 -0.914161 -0.146511
v 0.706021 -1.166468 0.170135
v 0.506122 -0.929317 0.161861
v 0.270828 -1.128812 0.128598
v 0.736766 -1.151311 -0.138237
v 0.506122 -0.929317 0.161861
v 0.536865 -0.914161 -0.146511
v 0.301572 -1.113655 -0.179775
v 0.270828 -1.128812 0.128598
v 0.470727 -1.365963 0.136871
v 0.736766 -1.151311 -0.138237
v 0.706021 -1.166468 0.170135
v 0.470727 -1.365963 0.136871
v 0.536865 -0.914161 -0.146511
v 0.736766 -1.151311 -0.138237
v 0.501472 -1.350807 -0.171501
v 0.301572 -1.113655 -0.179775
v 0.270828 -1.128812 0.128598
v 0.301572 -1.113655 -0.179775
v 0.501472 -1.350807 -0.171501
v 0.470727 -1.365963 0.136871
v 0.501472 -1.350807 -0.171501
vn 0.7584 0.6430 0.1072
vn 0.7583 0.6430 0.1072
vn -0.0991 -0.0488 0.9939
vn -0.6443 0.7643 -0.0267
vn 0.6443 -0.7643 0.0267
vn 0.0991 0.0488 -0.9939
vn -0.7584 -0.6430 -0.1072
vn -0.0991 -0.0489 0.9939
vn 0.0991 0.0489 -0.9939
vn -0.7583 -0.6430 -0.1072
vn 0.7584 0.6430 0.1071
vn 0.6443 -0.7643 0.0266
vt 39.987499 -43.037498
vt 39.987499 -43.062500
vt 40.012501 -43.037498
vt 39.962502 -43.037498
vt 40.012501 -43.062500
vt 40.012501 -43.012501
vt 39.987499 -43.012501
vt 39.962502 -43.062500
vt 40.037498 -43.062500
vt 40.037498 -43.037498
vt 39.987499 -42.962502
vt 39.987499 -42.987499
vt 40.012501 -42.962502
vt 40.062500 -42.987499
vt 40.062500 -42.962502
vt 40.037498 -42.962502
vt 40.012501 -42.987499
vt 40.012501 -42.937500
vt 39.987499 -42.937500
vt 40.037498 -42.987499
vt 39.937500 -42.962502
vt 39.937500 -42.987499
vt 39.962502 -42.987499
vt 39.962502 -42.962502
vt 39.987499 -43.087502
vt 39.987499 -43.112499
vt 40.012501 -43.087502
vt 39.937500 -43.112499
vt 39.937500 -43.087502
vt 39.912498 -43.087502
vt 40.012501 -43.112499
vt 39.912498 -43.112499
vt 40.062500 -43.087502
vt 40.062500 -43.112499
vt 40.087502 -43.112499
vt 40.087502 -43.087502
vt 40.087502 -42.962502
vt 40.087502 -42.937500
vt 40.062500 -42.937500
vt 40.012501 -42.912498
vt 39.987499 -42.912498
vt 39.912498 -42.937500
vt 39.912498 -42.962502
vt 39.937500 -42.937500
vt 40.112499 -42.937500
vt 40.112499 -42.912498
vt 40.087502 -42.912498
vt 40.012501 -42.887501
vt 39.987499 -42.887501
vt 39.887501 -42.912498
vt 39.887501 -42.937500
vt 39.912498 -42.912498
vt 40.037498 -43.012501
vt 39.962502 -43.012501
vt 39.962502 -42.887501
vt 39.962502 -42.912498
vt 39.987499 -42.862499
vt 39.937500 -42.862499
vt 39.937500 -42.887501
vt 40.012501 -42.862499
vt 40.062500 -42.862499
vt 40.062500 -42.887501
vt 40.037498 -42.887501
vt 39.937500 -42.912498
vt 40.062500 -42.912498
vt 39.962502 -42.937500
vt 40.037498 -42.937500
vt 40.037498 -42.912498
vt 39.887501 -43.062500
vt 39.887501 -42.987499
vt 39.862499 -42.987499
vt 39.862499 -43.062500
vt 39.912498 -43.062500
vt 39.912498 -42.987499
vt 40.087502 -42.987499
vt 40.087502 -43.062500
vt 40.112499 -43.062500
vt 40.112499 -42.987499
vt 39.862499 -43.162498
vt 39.837502 -43.062500
vt 39.837502 -43.162498
vt 39.987499 -43.137501
vt 39.912498 -43.137501
vt 39.887501 -43.112499
vt 40.012501 -43.137501
vt 40.000000 -43.112499
vt 39.887501 -43.137501
vt 40.087502 -43.137501
vt 40.112499 -43.137501
vt 40.112499 -43.112499
vt 39.993801 -43.112499
vt 39.887501 -43.162498
vt 40.112499 -43.162498
vt 40.137501 -43.162498
vt 40.137501 -43.062500
vt 39.993801 -43.137501
vt 39.987499 -43.162498
vt 40.012501 -43.162498
vt 39.837502 -42.987499
vt 40.137501 -42.987499
vt 40.162498 -43.062500
vt 40.162498 -42.987499
vt 39.987499 -43.187500
vt 39.862499 -43.187500
vt 40.012501 -43.187500
vt 39.837502 -43.187500
vt 40.137501 -43.187500
vt 40.162498 -43.187500
vt 40.162498 -43.162498
vt 39.812500 -43.062500
vt 39.812500 -43.162498
vt 40.187500 -43.162498
vt 40.187500 -43.062500
vt 39.887501 -42.962502
vt 39.862499 -42.937500
vt 40.112499 -42.962502
vt 40.137501 -42.937500
vt 39.837502 -42.837502
vt 39.937500 -42.837502
vt 39.937500 -42.812500
vt 39.987499 -42.837502
vt 40.012501 -42.837502
vt 40.012501 -42.812500
vt 39.987499 -42.812500
vt 39.837502 -42.812500
vt 40.062500 -42.837502
vt 40.162498 -42.837502
vt 40.162498 -42.812500
vt 40.062500 -42.812500
vt 40.006302 -42.862499
vt 39.862499 -42.887501
vt 39.887501 -42.887501
vt 39.837502 -42.887501
vt 39.837502 -42.862499
vt 40.162498 -42.862499
vt 40.112499 -42.887501
vt 40.137501 -42.887501
vt 40.162498 -42.887501
vt 40.000000 -42.887501
vt 39.812500 -42.862499
vt 39.812500 -42.837502
vt 40.187500 -42.862499
vt 40.187500 -42.837502
vt 40.006302 -42.887501
vt 40.137501 -42.912498
vt 39.862499 -42.912498
vt 39.912498 -42.887501
vt 40.087502 -42.887501
vt 39.962502 -43.087502
vt 39.937500 -43.062500
vt 40.037498 -43.087502
vt 40.062500 -43.062500
s 1
usemtl Union1Mtl.002
f 1/1/1 2/2/2 3/3/2
f 4/2/3 5/1/3 6/4/3
f 3/3/2 2/2/2 7/5/2
f 8/6/4 9/7/4 10/1/4
f 11/3/4 12/6/4 10/1/4
f 4/2/3 6/4/3 13/8/3
f 14/6/5 15/7/5 16/1/5
f 17/3/6 18/5/6 19/9/6
f 20/10/6 17/3/6 19/9/6
f 21/3/7 22/1/7 23/2/7
f 24/5/7 25/3/7 23/2/7
f 14/6/5 16/1/5 26/3/5
f 27/11/1 28/12/1 29/13/1
f 30/14/3 31/15/3 32/16/3
f 33/13/1 34/12/1 35/17/1
f 36/18/4 37/19/4 38/11/4
f 39/13/4 36/18/4 38/11/4
f 30/14/3 32/16/3 40/20/3
f 41/18/5 42/19/5 43/11/5
f 44/21/6 45/22/6 46/23/6
f 47/24/6 44/21/6 46/23/6
f 48/13/7 49/11/7 50/12/7
f 51/17/7 48/13/7 50/12/7
f 41/18/5 43/11/5 52/13/5
f 53/25/1 54/26/1 55/27/1
f 56/28/3 57/29/3 58/30/3
f 59/27/2 60/26/2 61/31/2
f 62/5/4 63/2/4 64/25/4
f 65/27/4 66/5/4 64/25/4
f 56/28/3 58/30/3 67/32/3
f 68/5/5 69/2/5 70/25/5
f 71/33/6 72/34/6 73/35/6
f 74/36/6 71/33/6 73/35/6
f 75/27/7 76/25/7 77/26/7
f 78/31/7 75/27/7 77/26/7
f 68/5/5 70/25/5 79/27/5
f 80/19/1 81/11/1 82/18/1
f 83/37/3 84/38/3 85/39/3
f 86/18/1 87/11/1 88/13/1
f 89/40/4 90/41/4 91/19/4
f 92/18/4 89/40/4 91/19/4
f 83/37/3 85/39/3 93/15/8
f 94/40/5 95/41/5 96/19/5
f 97/42/6 98/43/6 99/21/6
f 100/44/6 97/42/6 99/21/6
f 101/18/7 102/19/7 103/11/7
f 104/13/7 101/18/7 105/11/7
f 94/40/5 96/19/5 106/18/5
f 107/7/2 108/1/2 109/6/2
f 110/3/3 111/6/3 112/7/3
f 113/6/1 108/1/1 114/3/1
f 115/17/4 116/12/4 117/7/4
f 118/6/4 115/17/4 117/7/4
f 110/3/3 112/7/3 119/1/3
f 120/17/5 121/12/5 122/7/5
f 123/7/9 124/1/9 125/3/9
f 126/6/9 123/7/9 125/3/9
f 127/6/7 128/7/7 129/1/7
f 130/3/7 127/6/7 129/1/7
f 120/17/5 122/7/5 131/6/5
f 132/41/1 133/19/1 134/40/1
f 135/45/3 136/46/8 137/47/3
f 134/40/1 138/19/1 139/18/1
f 140/48/4 141/49/4 142/41/4
f 143/40/4 140/48/4 142/41/4
f 135/45/3 137/47/3 144/38/3
f 145/48/5 146/49/5 147/41/5
f 148/50/6 149/51/6 150/42/6
f 151/52/6 148/50/6 150/42/6
f 152/40/7 153/41/10 154/19/7
f 155/18/7 152/40/7 154/19/7
f 145/48/5 147/41/5 156/40/5
f 157/12/1 158/7/1 159/17/1
f 160/53/3 161/20/8 162/17/3
f 159/17/1 158/7/1 163/6/1
f 164/13/4 165/11/4 166/12/4
f 167/17/4 164/13/4 166/12/4
f 160/53/3 162/17/3 168/6/3
f 169/13/5 170/11/5 171/12/5
f 172/23/6 173/54/6 174/7/6
f 175/12/6 172/23/6 174/7/6
f 176/17/7 177/12/7 178/7/7
f 179/6/10 176/17/7 178/7/7
f 169/13/5 171/12/5 180/17/5
f 181/41/3 182/49/3 183/55/3
f 181/41/3 183/55/3 184/56/3
f 185/5/4 186/6/4 187/2/4
f 188/57/3 189/58/3 190/59/3
f 187/2/4 186/6/4 191/7/4
f 192/60/10 193/57/10 194/49/10
f 195/48/7 192/60/7 196/49/7
f 188/57/3 190/59/3 197/55/3
f 188/57/3 197/55/3 198/49/3
f 199/61/6 200/60/6 201/48/6
f 202/62/9 199/61/6 203/63/6
f 199/61/6 201/48/6 203/63/6
f 204/6/5 205/18/5 206/7/5
f 207/64/6 208/40/6 209/48/6
f 206/7/5 205/18/5 210/19/5
f 207/64/6 209/48/6 211/59/9
f 212/41/1 213/40/2 214/48/1
f 215/41/3 216/65/3 217/62/3
f 218/49/3 215/41/3 217/62/3
f 212/41/1 214/48/1 219/49/1
f 220/19/1 221/11/1 222/18/1
f 223/24/3 224/66/8 225/44/3
f 222/18/2 226/11/2 227/13/2
f 223/24/3 225/44/3 228/21/3
f 229/3/5 230/1/5 231/2/5
f 232/67/6 233/16/6 234/15/6
f 235/39/6 232/67/6 234/15/6
f 229/3/5 231/2/5 236/5/5
f 237/66/8 238/56/8 239/64/8
f 237/66/8 239/64/8 240/44/8
f 241/41/1 242/19/1 243/40/1
f 244/19/3 245/41/3 246/56/3
f 243/40/1 242/19/1 247/18/1
f 244/19/3 246/56/3 248/66/8
f 249/6/5 250/7/5 251/1/5
f 252/40/6 253/18/6 254/67/6
f 255/68/6 252/40/6 254/67/6
f 249/6/5 251/1/5 256/3/5
f 257/44/3 258/64/3 259/52/3
f 257/44/3 259/52/3 260/42/3
f 261/69/3 262/70/3 263/71/3
f 261/69/3 263/71/3 264/72/8
f 265/12/2 266/2/2 267/17/2
f 268/73/3 269/74/3 270/70/3
f 267/17/1 271/2/1 272/5/1
f 268/73/3 270/70/3 273/69/3
f 274/27/5 275/25/5 276/26/5
f 277/75/6 278/76/6 279/77/6
f 280/78/6 277/75/6 279/77/6
f 274/27/5 276/26/5 281/31/5
f 282/79/3 283/72/3 284/80/3
f 282/79/3 284/80/3 285/81/3
f 286/26/1 287/82/1 288/31/1
f 289/83/3 290/32/3 291/84/3
f 292/31/1 287/82/1 293/85/1
f 294/27/4 295/25/4 296/26/4
f 297/31/4 294/27/4 298/86/4
f 294/27/4 296/26/4 298/86/4
f 289/83/3 291/84/3 299/87/3
f 300/27/5 301/25/5 302/26/5
f 303/35/6 304/88/6 305/89/6
f 306/90/6 303/35/6 305/89/6
f 300/27/5 302/26/5 307/91/5
f 300/27/5 307/91/5 308/31/5
f 309/26/2 310/86/2 311/5/2
f 309/26/2 311/5/2 312/2/2
f 313/69/3 314/72/3 315/84/8
f 314/72/3 316/87/3 315/84/8
f 316/87/3 314/72/3 317/92/3
f 310/86/11 318/31/11 319/5/11
f 317/92/3 314/72/3 320/79/3
f 321/31/5 322/26/5 323/82/5
f 324/93/6 325/94/6 326/89/6
f 327/90/6 326/89/6 325/94/6
f 328/77/6 327/90/6 325/94/6
f 329/95/6 328/77/6 325/94/6
f 321/31/5 323/82/5 330/85/5
f 331/96/2 332/82/2 333/97/2
f 334/85/1 335/96/1 336/97/1
f 334/85/1 336/97/1 337/98/1
f 338/72/3 339/71/3 340/99/3
f 341/85/4 342/82/4 343/97/4
f 344/98/4 345/85/4 346/97/4
f 338/72/3 340/99/3 347/80/3
f 348/100/6 349/95/6 350/101/6
f 351/102/6 352/100/6 350/101/6
f 353/17/7 354/12/7 355/2/7
f 356/5/7 357/17/7 358/2/7
f 359/97/1 360/103/1 361/98/1
f 362/104/3 363/79/3 364/81/3
f 365/98/1 366/103/1 367/105/1
f 362/104/3 364/81/3 368/106/3
f 369/85/5 370/82/5 371/97/5
f 372/94/6 373/107/6 374/108/6
f 375/109/6 372/94/6 374/108/6
f 376/98/7 377/97/7 378/103/7
f 379/105/7 380/98/7 381/103/7
f 369/85/5 371/97/5 382/98/5
f 383/95/6 384/94/6 385/109/6
f 386/101/6 383/95/6 385/109/6
f 387/81/3 388/80/3 389/110/3
f 390/98/4 391/97/4 392/103/4
f 393/105/4 394/98/4 395/103/4
f 387/81/3 389/110/3 396/111/3
f 397/98/5 398/97/5 399/103/5
f 400/101/6 401/109/6 402/112/6
f 403/113/6 400/101/6 402/112/6
f 404/5/7 405/2/7 406/97/7
f 407/98/7 408/5/7 409/97/7
f 397/98/5 399/103/5 410/105/5
f 411/78/6 412/77/6 413/95/6
f 414/100/6 415/78/6 413/95/6
f 416/114/8 417/51/3 418/115/3
f 416/114/8 418/115/3 419/70/3
f 420/31/4 421/26/4 422/82/4
f 423/85/4 420/31/4 422/82/4
f 419/70/3 418/115/3 424/71/3
f 425/116/6 426/78/6 427/100/6
f 425/116/6 427/100/6 428/45/6
f 429/117/6 428/45/6 427/100/6
f 430/18/7 431/19/7 432/12/7
f 433/17/10 434/18/10 435/12/10
f 436/11/1 437/12/1 438/13/1
f 439/22/3 440/21/3 441/43/3
f 442/13/1 443/12/1 444/17/1
f 439/22/3 441/43/3 445/74/3
f 446/5/5 447/2/5 448/25/5
f 449/15/6 450/14/6 451/75/6
f 452/37/6 449/15/6 451/75/6
f 446/5/5 448/25/5 453/27/5
f 454/74/3 455/43/3 456/114/3
f 454/74/3 456/114/3 457/70/3
f 458/37/6 459/75/6 460/78/6
f 461/116/6 458/37/6 460/78/6
f 462/43/3 463/42/3 464/51/3
f 462/43/3 464/51/3 465/114/8
f 466/21/3 467/44/3 468/42/3
f 466/21/3 468/42/3 469/43/3
f 470/39/6 471/15/6 472/37/6
f 473/38/6 470/39/6 472/37/6
f 474/118/6 475/119/6 476/120/6
f 477/121/10 478/122/10 479/123/10
f 480/124/7 481/121/7 482/123/7
f 474/118/6 476/120/6 483/125/6
f 484/121/1 485/122/1 486/123/1
f 487/126/3 488/127/3 489/128/3
f 490/129/3 491/126/3 492/128/3
f 493/19/4 494/18/4 495/122/4
f 496/121/4 497/19/4 495/122/4
f 484/121/1 486/123/1 498/124/1
f 499/58/9 500/60/6 501/122/6
f 502/57/7 503/60/10 504/122/7
f 505/121/7 502/57/7 504/122/7
f 499/58/9 501/122/6 506/119/9
f 507/57/3 508/61/3 509/126/3
f 510/121/3 511/57/3 509/126/3
f 512/7/4 513/6/4 514/18/4
f 515/19/4 512/7/4 514/18/4
f 516/130/12 517/60/12 518/122/12
f 519/131/6 520/132/6 521/58/6
f 521/58/6 522/133/6 519/131/6
f 521/58/6 520/132/6 523/59/6
f 524/57/5 525/130/5 526/122/5
f 524/57/5 526/122/5 527/121/5
f 522/133/6 521/58/6 528/134/6
f 529/49/1 530/48/1 531/60/1
f 532/135/3 533/62/3 534/136/3
f 534/136/3 535/137/3 532/135/3
f 535/137/3 536/138/3 532/135/3
f 537/61/3 533/62/3 532/135/3
f 529/49/1 531/60/1 538/57/2
f 539/48/5 540/139/5 541/19/5
f 539/48/5 541/19/5 542/18/5
f 540/139/5 543/49/5 541/19/5
f 544/122/5 545/123/5 546/121/5
f 547/140/6 548/134/9 549/118/6
f 550/121/5 551/123/5 552/124/5
f 547/140/6 549/118/6 553/141/6
f 554/57/1 555/60/1 556/122/1
f 557/135/3 558/142/3 559/143/3
f 560/127/3 557/135/3 559/143/3
f 561/121/4 562/122/4 563/123/4
f 564/124/4 565/121/4 566/123/4
f 554/57/1 556/122/1 567/121/1
f 568/134/6 569/58/6 570/119/6
f 568/134/6 570/119/6 571/118/6
f 572/61/3 573/135/3 574/127/3
f 575/126/3 572/61/3 574/127/3
f 576/59/6 577/48/6 578/60/6
f 576/59/6 578/60/6 579/58/6
f 580/49/3 581/62/3 582/61/3
f 583/57/3 580/49/3 582/61/3
f 584/38/6 585/37/6 586/116/6
f 587/45/6 584/38/6 586/116/6
f 588/42/3 589/52/3 590/50/3
f 591/27/4 592/25/4 593/26/4
f 594/31/4 591/27/4 593/26/4
f 588/42/3 590/50/3 595/51/3
f 596/47/6 597/38/6 598/45/6
f 599/46/6 596/47/6 598/45/6
f 600/40/7 601/41/7 602/19/7
f 603/18/7 600/40/7 602/19/7
f 604/49/2 605/41/1 606/144/1
f 605/41/1 607/48/1 606/144/1
f 608/145/3 609/137/3 610/136/3
f 611/48/2 612/41/2 613/40/2
f 608/145/3 610/136/3 614/46/8
f 615/60/5 616/57/5 617/49/5
f 618/131/6 619/146/6 620/50/6
f 621/132/6 622/131/6 623/50/6
f 624/139/7 625/49/7 626/41/7
f 624/139/7 626/41/7 627/48/7
f 628/40/7 627/48/7 626/41/7
f 615/60/5 617/49/5 629/48/5
f 630/48/6 631/40/6 632/68/6
f 633/63/6 630/48/6 632/68/6
f 634/68/6 635/67/6 636/39/6
f 637/65/6 634/68/6 636/39/6
f 638/65/9 639/39/9 640/38/9
f 641/47/9 638/65/9 640/38/9
f 642/64/3 643/59/3 644/147/3
f 645/5/4 646/2/4 647/25/4
f 648/27/4 645/5/4 647/25/4
f 642/64/3 644/147/3 649/52/3
f 650/62/6 651/65/6 652/47/6
f 653/148/6 650/62/6 652/47/6
f 654/48/7 655/49/7 656/41/7
f 657/40/10 654/48/7 656/41/7
f 658/56/3 659/55/3 660/59/3
f 658/56/3 660/59/3 661/64/3
f 662/63/6 663/68/6 664/65/6
f 665/62/6 662/63/6 664/65/6
f 666/2/1 667/25/1 668/5/1
f 669/149/3 670/8/3 671/150/3
f 668/5/1 667/25/1 672/27/2
f 673/3/4 674/1/4 675/2/4
f 676/5/4 673/3/4 675/2/4
f 669/149/3 671/150/3 677/29/8
f 678/3/5 679/1/5 680/2/5
f 681/9/6 682/151/6 683/33/6
f 684/152/6 681/9/6 683/33/6
f 685/5/7 686/2/7 687/25/7
f 688/27/7 685/5/7 687/25/7
f 678/3/5 680/2/5 689/5/5
