# Blender 5.1.1
# www.blender.org
mtllib nemesischarmsymbol.mtl
o 111
v 0.436340 0.045443 -0.582315
v -0.004888 -0.129152 -0.782261
v -0.004888 0.045443 -0.782261
v 0.436340 -0.129152 -0.582315
v -0.446245 0.045443 -0.582315
v -0.004888 0.045443 -0.782261
v -0.004888 -0.129152 -0.782261
v -0.446245 -0.129152 -0.582315
v 0.436340 0.045443 -0.582315
v 0.552737 -0.129152 0.295000
v 0.436340 -0.129152 -0.582315
v 0.552737 -0.129152 0.295000
v 0.436340 0.045443 -0.582315
v 0.552737 0.045443 0.295012
v -0.446245 0.045443 -0.582315
v -0.562641 -0.129152 0.295000
v -0.562641 0.045443 0.295012
v -0.446245 -0.129152 -0.582315
v -0.004888 0.045443 -0.782261
v 0.337304 0.158095 -0.508294
v 0.436340 0.045443 -0.582315
v -0.004888 0.158095 -0.663355
v -0.004888 0.045443 -0.782261
v -0.446245 0.045443 -0.582315
v -0.347084 0.158095 -0.508294
v -0.004888 0.158095 -0.663355
v 0.552737 0.045443 0.295012
v -0.004888 0.045443 0.295012
v 0.552737 -0.129152 0.295000
v -0.004888 -0.129152 0.295000
v -0.562641 -0.129152 0.295000
v -0.562641 0.045443 0.295012
v 0.436340 0.045443 -0.582315
v 0.429475 0.158095 0.186622
v 0.552737 0.045443 0.295012
v 0.337304 0.158095 -0.508294
v -0.446245 0.045443 -0.582315
v -0.439375 0.158095 0.186622
v -0.347084 0.158095 -0.508294
v -0.562641 0.045443 0.295012
v -0.004888 0.045443 0.295012
v 0.552737 0.045443 0.295012
v 0.429475 0.158095 0.186622
v -0.004888 0.158095 0.186622
v -0.439375 0.158095 0.186622
v -0.562641 0.045443 0.295012
v 0.115129 -0.129152 -0.342392
v -0.004888 -0.129152 -0.056323
v -0.004888 -0.129152 -0.396819
v -0.004888 -0.129152 -0.544749
v -0.125029 -0.129152 -0.342392
v 0.153095 -0.129152 -0.056323
v 0.238396 -0.129152 -0.434473
v -0.004888 -0.129152 0.078506
v 0.306456 -0.129152 0.078506
v -0.162999 -0.129152 -0.056323
v -0.248296 -0.129152 -0.434473
v -0.004888 -0.129152 -0.663355
v -0.316361 -0.129152 0.078506
v -0.347084 -0.129152 -0.508294
v 0.337304 -0.129152 -0.508294
v -0.004888 -0.129152 -0.782261
v -0.446245 -0.129152 -0.582315
v 0.436340 -0.129152 -0.582315
v -0.439375 -0.129152 0.186622
v -0.562641 -0.129152 0.295000
v -0.004888 -0.129152 0.295000
v 0.429475 -0.129152 0.186622
v 0.552737 -0.129152 0.295000
v -0.004888 -0.129152 0.186622
v -0.004888 0.057935 -0.544737
v -0.004888 0.057935 0.078506
v 0.238396 0.057935 -0.434473
v 0.306456 0.057935 0.078506
v -0.248296 0.057935 -0.434473
v -0.316361 0.057935 0.078506
v 0.496911 -0.006009 -0.628661
v 0.186315 -0.006009 -0.835539
v 0.114253 -0.006009 -0.800607
v 0.156215 -0.006009 -0.919476
v 0.620425 -0.006009 -0.703582
v 0.561855 -0.006009 -0.663143
v 0.588206 -0.006009 -0.489199
v 0.530755 -0.006009 -0.430901
v 0.657519 -0.006009 -0.430901
v -0.506816 -0.006009 -0.628661
v -0.196091 -0.006009 -0.835539
v -0.571631 -0.006009 -0.663143
v -0.124034 -0.006009 -0.800607
v -0.165996 -0.006009 -0.919476
v -0.630206 -0.006009 -0.703582
v -0.598105 -0.006009 -0.489198
v -0.540660 -0.006009 -0.430901
v -0.667295 -0.006009 -0.430901
v 0.575843 -0.006009 -0.163915
v 0.544995 -0.006009 -0.151713
v 0.547120 -0.006009 -0.136127
v 0.530007 -0.006009 -0.264337
v 0.615680 -0.006009 -0.286130
v 0.575843 -0.006009 -0.164427
v 0.575843 -0.006009 -0.164427
v 0.530007 -0.006009 -0.264337
v 0.575843 -0.006009 -0.163915
v -0.585619 -0.006009 -0.163914
v -0.556896 -0.006009 -0.136127
v -0.554895 -0.006009 -0.151713
v -0.539912 -0.006009 -0.264337
v -0.625585 -0.006009 -0.286130
v -0.585619 -0.006009 -0.164427
v -0.585619 -0.006009 -0.164427
v -0.585619 -0.006009 -0.163914
v -0.539912 -0.006009 -0.264337
v 0.649524 -0.006009 -0.026188
v 0.547120 -0.006009 -0.136127
v 0.565852 -0.006009 0.004123
v 0.836358 -0.006009 -0.097437
v 0.787903 -0.006009 -0.144082
v 0.742191 -0.006009 -0.162129
v 0.691615 -0.006009 -0.171295
v 0.575843 -0.006009 -0.164040
v 0.595323 -0.006009 -0.168273
v 0.641035 -0.006009 -0.172907
v 0.884690 -0.006009 -0.009590
v 0.815130 -0.006009 -0.028111
v 0.679748 -0.006009 -0.032432
v 0.745564 -0.006009 -0.035967
v 0.950383 -0.006009 0.018872
v 1.033059 -0.006009 0.078681
v 0.791023 -0.006009 0.143048
v 0.585957 -0.006009 0.155874
v 0.918535 -0.006009 0.146108
v 0.791023 -0.006009 0.143048
v 0.999586 -0.006009 0.162943
v 1.075769 -0.006009 0.192791
v 1.145335 -0.006009 0.236677
v 0.601817 -0.006009 0.275143
v 1.233628 -0.006009 0.331055
v 0.946386 -0.006009 0.332491
v 1.068028 -0.006009 0.364201
v 0.611559 -0.006009 0.348464
v 0.392882 -0.006009 0.348464
v 1.170061 -0.006009 0.402478
v 0.421357 -0.006009 0.424534
v 1.255981 -0.006009 0.448974
v 1.361887 -0.006009 0.537708
v 1.450062 -0.006009 0.654116
v -0.659429 -0.006009 -0.026188
v -0.575628 -0.006009 0.004123
v -0.556896 -0.006009 -0.136127
v -0.846258 -0.006009 -0.097437
v -0.797679 -0.006009 -0.144082
v -0.752096 -0.006009 -0.162129
v -0.701515 -0.006009 -0.171295
v -0.585619 -0.006009 -0.164040
v -0.605099 -0.006009 -0.168273
v -0.650811 -0.006009 -0.172907
v -0.894590 -0.006009 -0.009590
v -0.825029 -0.006009 -0.028111
v -0.689653 -0.006009 -0.032432
v -0.755340 -0.006009 -0.035967
v -0.960283 -0.006009 0.018872
v -1.042959 -0.006009 0.078681
v -0.800799 -0.006009 0.143048
v -0.595733 -0.006009 0.155875
v -0.928311 -0.006009 0.146108
v -0.800799 -0.006009 0.143048
v -1.009491 -0.006009 0.162943
v -1.085545 -0.006009 0.192791
v -1.155111 -0.006009 0.236677
v -0.611721 -0.006009 0.275143
v -1.243533 -0.006009 0.331055
v -0.956161 -0.006009 0.332491
v -1.077804 -0.006009 0.364201
v -0.621464 -0.006009 0.348464
v -0.402658 -0.006009 0.348464
v -1.179960 -0.006009 0.402479
v -0.431133 -0.006009 0.424534
v -1.265886 -0.006009 0.448975
v -1.371663 -0.006009 0.537708
v -1.459837 -0.006009 0.654116
v 0.306456 0.057935 0.078506
v -0.004888 0.057935 0.078506
v -0.004888 0.158095 0.186622
v 0.429475 0.158095 0.186622
v -0.316361 0.057935 0.078506
v -0.439375 0.158095 0.186622
v 0.337304 0.158095 -0.508294
v 0.306456 0.057935 0.078506
v 0.429475 0.158095 0.186622
v 0.238396 0.057935 -0.434473
v -0.347084 0.158095 -0.508294
v -0.316361 0.057935 0.078506
v -0.248296 0.057935 -0.434473
v -0.439375 0.158095 0.186622
v -0.004888 0.158095 -0.663355
v 0.238396 0.057935 -0.434473
v 0.337304 0.158095 -0.508294
v -0.004888 0.057935 -0.544737
v -0.004888 0.158095 -0.663355
v -0.347084 0.158095 -0.508294
v -0.248296 0.057935 -0.434473
v -0.004888 0.057935 -0.544737
vn 0.4091 -0.0000 -0.9125
vn -0.4091 -0.0000 -0.9125
vn -0.4090 -0.0000 -0.9125
vn 0.9910 -0.0000 -0.1337
vn -0.9910 -0.0000 -0.1337
vn 0.2997 0.6940 -0.6546
vn -0.2997 0.6940 -0.6546
vn -0.0000 -0.0001 1.0000
vn 0.7157 0.6920 -0.0944
vn 0.7156 0.6921 -0.0942
vn 0.7156 0.6921 -0.0943
vn 0.7158 0.6919 -0.0947
vn -0.7156 0.6921 -0.0945
vn -0.7156 0.6921 -0.0943
vn -0.7157 0.6920 -0.0943
vn -0.0000 0.6912 0.7227
vn -0.0000 0.6912 0.7226
vn -0.0000 -1.0000 -0.0000
vn -0.0000 1.0000 -0.0000
vn 0.0003 1.0000 -0.0000
vn -0.0000 0.7342 -0.6790
vn -0.0000 0.7340 -0.6791
vn -0.0000 0.7341 -0.6790
vn -0.6764 0.7314 0.0865
vn 0.6764 0.7314 0.0865
vn -0.2830 0.7310 0.6209
vn -0.2829 0.7311 0.6209
vn -0.2830 0.7310 0.6210
vn 0.2830 0.7310 0.6209
vn 0.2830 0.7310 0.6210
vt 0.388915 0.140436
vt 0.499998 0.090303
vt 0.388915 0.140435
vt 0.611082 0.140436
vt 0.611082 0.140435
vt 0.359613 0.360396
vt 0.359612 0.360397
vt 0.640384 0.360396
vt 0.640384 0.360397
vt 0.413857 0.158993
vt 0.499998 0.120117
vt 0.586140 0.158993
vt 0.499998 0.360397
vt 0.499998 0.360396
vt 0.390647 0.333223
vt 0.609350 0.333223
vt 0.499998 0.333223
vt 0.469765 0.200587
vt 0.499998 0.272311
vt 0.499998 0.186943
vt 0.499998 0.149855
vt 0.530232 0.200587
vt 0.460210 0.272311
vt 0.438736 0.177502
vt 0.499998 0.306116
vt 0.421603 0.306116
vt 0.539787 0.272311
vt 0.561261 0.177502
vt 0.578394 0.306116
vt 0.586140 0.158992
vt 0.413857 0.158992
vt 0.609350 0.333222
vt 0.390647 0.333222
vt 0.499998 0.333222
vt 0.499998 0.149856
vt 0.499998 0.306117
vt 0.438736 0.177504
vt 0.421603 0.306117
vt 0.561261 0.177504
vt 0.578394 0.306117
vt 0.373663 0.128815
vt 0.451863 0.076947
vt 0.470002 0.085706
vt 0.459445 0.055901
vt 0.342585 0.110032
vt 0.357326 0.120168
vt 0.350679 0.163783
vt 0.365150 0.178398
vt 0.333257 0.178398
vt 0.626334 0.128815
vt 0.548133 0.076947
vt 0.642670 0.120168
vt 0.529995 0.085706
vt 0.540552 0.055901
vt 0.657411 0.110032
vt 0.649318 0.163783
vt 0.634847 0.178398
vt 0.666740 0.178398
vt 0.353822 0.245335
vt 0.361562 0.248396
vt 0.361044 0.252305
vt 0.365330 0.220157
vt 0.343774 0.214694
vt 0.353822 0.245209
vt 0.646175 0.245335
vt 0.638953 0.252305
vt 0.638434 0.248396
vt 0.634667 0.220157
vt 0.656223 0.214694
vt 0.646175 0.245209
vt 0.335248 0.279868
vt 0.356334 0.287466
vt 0.288226 0.262005
vt 0.300432 0.250310
vt 0.311921 0.245784
vt 0.324654 0.243486
vt 0.353822 0.245304
vt 0.348910 0.244243
vt 0.337395 0.243083
vt 0.276049 0.284028
vt 0.293567 0.279385
vt 0.327643 0.278301
vt 0.311092 0.277416
vt 0.259517 0.291166
vt 0.238707 0.306161
vt 0.299640 0.322298
vt 0.351263 0.325515
vt 0.267556 0.323065
vt 0.299640 0.322297
vt 0.247135 0.327285
vt 0.227966 0.334769
vt 0.210460 0.345773
vt 0.347259 0.355418
vt 0.188215 0.369436
vt 0.260547 0.369797
vt 0.229918 0.377745
vt 0.344810 0.373799
vt 0.399871 0.373799
vt 0.204213 0.387343
vt 0.392696 0.392871
vt 0.182588 0.399001
vt 0.155953 0.421247
vt 0.133750 0.450432
vt 0.664749 0.279868
vt 0.643663 0.287466
vt 0.711771 0.262005
vt 0.699565 0.250310
vt 0.688076 0.245784
vt 0.675343 0.243486
vt 0.646175 0.245304
vt 0.651087 0.244243
vt 0.662602 0.243083
vt 0.723947 0.284028
vt 0.706429 0.279385
vt 0.672354 0.278301
vt 0.688905 0.277416
vt 0.740480 0.291166
vt 0.761290 0.306161
vt 0.700357 0.322298
vt 0.648734 0.325515
vt 0.732440 0.323065
vt 0.700357 0.322297
vt 0.752861 0.327285
vt 0.772030 0.334769
vt 0.789537 0.345773
vt 0.652738 0.355418
vt 0.811782 0.369436
vt 0.739450 0.369797
vt 0.770078 0.377745
vt 0.655187 0.373799
vt 0.600126 0.373799
vt 0.795783 0.387343
vt 0.607301 0.392871
vt 0.817409 0.399001
vt 0.844044 0.421247
vt 0.866246 0.450432
s 1
usemtl Meshpart1Mtl
f 1/1/1 2/2/1 3/2/1
f 2/2/1 1/1/1 4/3/1
f 5/4/2 6/2/3 7/2/2
f 5/4/2 7/2/2 8/5/2
f 9/1/4 10/6/4 11/3/4
f 12/6/4 13/1/4 14/7/4
f 15/4/5 16/8/5 17/9/5
f 16/8/5 15/4/5 18/5/5
f 19/2/6 20/10/6 21/1/6
f 20/10/6 19/2/6 22/11/6
f 23/2/7 24/4/7 25/12/7
f 23/2/7 25/12/7 26/11/7
f 27/7/8 28/13/8 29/6/8
f 30/14/8 29/6/8 28/13/8
f 31/8/8 30/14/8 28/13/8
f 31/8/8 28/13/8 32/9/8
f 33/1/9 34/15/10 35/7/11
f 34/15/10 33/1/9 36/10/12
f 37/4/13 38/16/14 39/12/13
f 37/4/13 40/9/15 38/16/14
f 41/13/16 42/7/16 43/15/17
f 41/13/16 43/15/17 44/17/17
f 45/16/16 41/13/16 44/17/17
f 41/13/16 45/16/16 46/9/16
f 47/18/18 48/19/18 49/20/18
f 50/21/18 47/18/18 49/20/18
f 48/19/18 51/22/18 49/20/18
f 51/22/18 50/21/18 49/20/18
f 48/19/18 47/18/18 52/23/18
f 50/21/18 53/24/18 47/18/18
f 53/24/18 52/23/18 47/18/18
f 52/23/18 54/25/18 48/19/18
f 53/24/18 55/26/18 52/23/18
f 54/25/18 52/23/18 55/26/18
f 51/22/18 48/19/18 56/27/18
f 48/19/18 54/25/18 56/27/18
f 50/21/18 51/22/18 57/28/18
f 56/27/18 57/28/18 51/22/18
f 58/11/18 53/24/18 50/21/18
f 57/28/18 58/11/18 50/21/18
f 57/28/18 56/27/18 59/29/18
f 56/27/18 54/25/18 59/29/18
f 58/11/18 57/28/18 60/30/18
f 59/29/18 60/30/18 57/28/18
f 58/11/18 61/31/18 53/24/18
f 61/31/18 55/26/18 53/24/18
f 60/30/18 62/2/18 58/11/18
f 62/2/18 61/31/18 58/11/18
f 62/2/18 60/30/18 63/5/18
f 62/2/18 64/3/18 61/31/18
f 65/32/18 63/5/18 60/30/18
f 60/30/18 59/29/18 65/32/18
f 63/5/18 65/32/18 66/8/18
f 65/32/18 67/14/18 66/8/18
f 64/3/18 68/33/18 61/31/18
f 61/31/18 68/33/18 55/26/18
f 64/3/18 69/6/18 68/33/18
f 67/14/18 68/33/18 69/6/18
f 70/34/18 55/26/18 68/33/18
f 68/33/18 67/14/18 70/34/18
f 65/32/18 70/34/18 67/14/18
f 59/29/18 70/34/18 65/32/18
f 55/26/18 70/34/18 54/25/18
f 59/29/18 54/25/18 70/34/18
f 71/35/19 72/36/19 73/37/19
f 73/37/19 72/36/19 74/38/19
f 75/39/19 72/36/19 71/35/19
f 72/36/19 75/39/19 76/40/19
f 77/41/19 78/42/19 79/43/19
f 78/42/19 80/44/19 79/43/19
f 81/45/19 80/44/19 78/42/19
f 78/42/19 77/41/19 82/46/19
f 81/45/19 78/42/19 82/46/19
f 77/41/19 83/47/19 82/46/19
f 83/47/19 81/45/19 82/46/19
f 77/41/19 84/48/19 83/47/19
f 81/45/19 83/47/19 85/49/19
f 83/47/19 84/48/19 85/49/19
f 86/50/19 87/51/19 88/52/19
f 87/51/19 86/50/19 89/53/19
f 87/51/19 89/53/19 90/54/19
f 90/54/19 91/55/19 87/51/19
f 88/52/19 87/51/19 91/55/19
f 92/56/19 86/50/19 88/52/19
f 91/55/19 92/56/19 88/52/19
f 86/50/19 92/56/19 93/57/19
f 92/56/19 91/55/19 94/58/19
f 92/56/19 94/58/19 93/57/19
f 95/59/19 96/60/19 97/61/19
f 95/59/19 98/62/19 96/60/19
f 99/63/19 98/62/19 100/64/19
f 101/64/19 102/62/19 103/59/19
f 104/65/19 105/66/19 106/67/19
f 104/65/19 106/67/19 107/68/19
f 108/69/19 109/70/19 107/68/19
f 110/70/19 111/65/19 112/68/19
f 113/71/19 114/61/19 115/72/19
f 116/73/19 114/61/19 113/71/19
f 117/74/19 114/61/19 116/73/19
f 118/75/19 114/61/19 117/74/19
f 119/76/19 114/61/19 118/75/19
f 119/76/19 120/77/19 114/61/19
f 119/76/19 121/78/19 120/77/19
f 119/76/19 122/79/19 121/78/19
f 123/80/19 113/71/19 115/72/19
f 124/81/19 113/71/19 123/80/19
f 124/81/19 125/82/19 113/71/19
f 126/83/19 125/82/19 124/81/19
f 123/80/19 115/72/19 127/84/19
f 127/84/19 115/72/19 128/85/19
f 128/85/19 115/72/19 129/86/19
f 129/86/19 115/72/19 130/87/19
f 131/88/19 132/89/19 130/87/19
f 131/88/19 130/87/19 133/90/19
f 133/90/19 130/87/19 134/91/19
f 134/91/19 130/87/19 135/92/19
f 135/92/19 130/87/19 136/93/19
f 135/92/19 136/93/19 137/94/19
f 137/94/19 136/93/19 138/95/19
f 138/95/19 136/93/19 139/96/19
f 139/96/19 136/93/19 140/97/19
f 139/96/19 140/97/19 141/98/19
f 139/96/19 141/98/19 142/99/19
f 142/99/19 141/98/19 143/100/19
f 142/99/19 143/100/19 144/101/19
f 144/101/19 143/100/19 145/102/19
f 145/102/19 143/100/19 146/103/19
f 147/104/19 148/105/19 149/66/19
f 150/106/19 147/104/19 149/66/19
f 151/107/19 150/106/19 149/66/19
f 152/108/19 151/107/19 149/66/19
f 153/109/19 152/108/19 149/66/19
f 153/109/19 149/66/19 154/110/19
f 153/109/19 154/110/19 155/111/19
f 153/109/19 155/111/19 156/112/20
f 157/113/19 148/105/19 147/104/19
f 158/114/19 157/113/19 147/104/19
f 158/114/19 147/104/19 159/115/19
f 160/116/19 158/114/19 159/115/19
f 157/113/19 161/117/19 148/105/19
f 161/117/19 162/118/19 148/105/19
f 162/118/19 163/119/19 148/105/19
f 163/119/19 164/120/19 148/105/19
f 165/121/19 164/120/19 166/122/19
f 165/121/19 167/123/19 164/120/19
f 167/123/19 168/124/19 164/120/19
f 168/124/19 169/125/19 164/120/19
f 169/125/19 170/126/19 164/120/19
f 169/125/19 171/127/19 170/126/19
f 171/127/19 172/128/19 170/126/19
f 172/128/19 173/129/19 170/126/19
f 173/129/19 174/130/19 170/126/19
f 173/129/19 175/131/19 174/130/19
f 173/129/19 176/132/19 175/131/19
f 176/132/19 177/133/19 175/131/19
f 176/132/19 178/134/19 177/133/19
f 178/134/19 179/135/19 177/133/19
f 179/135/19 180/136/19 177/133/19
f 181/38/21 182/36/22 183/17/21
f 181/38/21 183/17/21 184/15/21
f 185/40/23 183/17/21 182/36/22
f 183/17/21 185/40/23 186/16/22
f 187/10/24 188/38/24 189/15/24
f 188/38/24 187/10/24 190/37/24
f 191/12/25 192/40/25 193/39/25
f 191/12/25 194/16/25 192/40/25
f 195/11/26 196/37/26 197/10/27
f 196/37/26 195/11/26 198/35/28
f 199/11/29 200/12/29 201/39/29
f 199/11/29 201/39/29 202/35/30
