# Blender 5.1.1
# www.blender.org
mtllib nemesischarmbase.mtl
o 222
v 0.690303 -0.071426 -0.736498
v 0.675952 0.074297 -0.722097
v 0.742806 -0.071426 -0.351892
v 0.725019 0.074297 -0.365312
v 1.430100 -0.071426 0.525303
v 1.421762 0.074297 0.531718
v 1.566629 0.074297 0.742175
v 1.586132 -0.071426 0.753988
v 1.201328 0.074297 0.221264
v 1.209915 -0.071426 0.215915
v 1.295537 -0.071426 0.311447
v 1.284250 0.074297 0.316243
v 1.337978 0.074297 0.394210
v 1.352700 -0.071426 0.401962
v 0.888899 0.074297 -0.106929
v 0.932445 -0.071426 -0.056108
v 0.899203 -0.071426 -0.112473
v 0.915884 0.074297 -0.056795
v 0.522250 0.074297 -0.365312
v 0.545188 -0.071426 -0.315411
v 0.540036 -0.071426 -0.351892
v 0.531085 0.074297 -0.299980
v 0.699625 0.074297 -0.342680
v 0.668961 -0.071426 -0.216040
v 0.711403 -0.071426 -0.355805
v 0.655588 0.074297 -0.208900
v 0.145667 0.074297 0.362072
v 0.118560 0.074297 0.473881
v 0.143337 -0.071426 0.369824
v 0.118560 -0.071426 0.473881
v 0.063849 -0.071426 0.544709
v 0.063971 0.074297 0.545027
v -0.381917 -0.071426 0.488233
v -0.388908 0.074297 0.480481
v -0.338123 -0.071426 0.369824
v -0.345241 0.074297 0.362072
v -0.130450 -0.071426 -0.995531
v -0.134255 0.074297 -0.972728
v -0.067401 -0.071426 -0.821199
v -0.073779 0.074297 -0.802063
v -0.054397 -0.071426 0.512362
v -0.054397 0.074297 0.512362
v -0.076970 0.074297 0.457788
v -0.076970 -0.071426 0.457788
v -0.054397 0.074297 0.403213
v -0.076970 0.074297 0.457788
v -0.054397 -0.071426 0.403213
v 0.000187 0.074297 0.362072
v -0.054397 0.074297 0.403213
v 0.000187 0.074297 0.380606
v -0.145293 0.074297 0.362072
v -0.076970 0.074297 0.457788
v -0.054397 0.074297 0.403213
v -0.118186 0.074297 0.473881
v -0.054397 0.074297 0.512362
v -0.076970 0.074297 0.457788
v -0.063723 0.074297 0.545027
v 0.000187 0.074297 0.534969
v 0.000187 0.074297 0.560667
v 0.145667 0.074297 0.362072
v 0.000187 0.074297 0.362072
v 0.054772 0.074297 0.403213
v 0.000187 0.074297 0.380606
v 0.077345 0.074297 0.457788
v 0.118560 0.074297 0.473881
v 0.054772 0.074297 0.512362
v 0.063971 0.074297 0.545027
v 0.000187 0.074297 0.534969
v 0.000187 0.074297 0.560667
v 0.531085 0.074297 -0.299980
v 0.000187 0.074297 0.362072
v 0.145667 0.074297 0.362072
v 0.345615 0.074297 0.362072
v 0.655588 0.074297 -0.208900
v 0.699625 0.074297 -0.342680
v 0.893559 0.074297 -0.048294
v 0.754579 0.074297 -0.198499
v 0.819715 0.074297 -0.174260
v 0.888899 0.074297 -0.106929
v 0.915884 0.074297 -0.056795
v 1.057443 0.074297 0.140267
v 0.962622 0.074297 -0.021382
v 1.038918 0.074297 0.024225
v 1.139140 0.074297 0.118690
v 0.389283 0.074297 0.480481
v 1.249048 0.074297 0.394651
v 1.128223 0.074297 0.172995
v 1.201328 0.074297 0.221264
v 1.284250 0.074297 0.316243
v 1.337978 0.074297 0.394210
v 1.421762 0.074297 0.531718
v 1.312832 0.074297 0.434003
v 1.566629 0.074297 0.742175
v 0.522250 0.074297 -0.365312
v 0.675952 0.074297 -0.722097
v 0.074032 0.074297 -0.802063
v 0.725019 0.074297 -0.365312
v 0.134507 0.074297 -0.972728
v 0.000187 0.074297 -0.822254
v -0.073779 0.074297 -0.802063
v -0.530710 0.074297 -0.299980
v -0.145293 0.074297 0.362072
v -0.522002 0.074297 -0.365311
v -0.675578 0.074297 -0.722097
v -0.724645 0.074297 -0.365311
v -0.134255 0.074297 -0.972728
v -0.345241 0.074297 0.362072
v -0.655218 0.074297 -0.208900
v -0.699255 0.074297 -0.342680
v -0.893190 0.074297 -0.048294
v -0.754331 0.074297 -0.198499
v -0.819467 0.074297 -0.174260
v -0.888651 0.074297 -0.106928
v -0.915515 0.074297 -0.056795
v -1.057069 0.074297 0.140268
v -0.962247 0.074297 -0.021382
v -1.038670 0.074297 0.024225
v -1.138887 0.074297 0.118691
v -0.388908 0.074297 0.480481
v -1.248795 0.074297 0.394651
v -1.127849 0.074297 0.172995
v -1.200954 0.074297 0.221264
v -1.284002 0.074297 0.316244
v -1.337730 0.074297 0.394210
v -1.421509 0.074297 0.531718
v -1.566254 0.074297 0.742176
v -1.312584 0.074297 0.434003
v 1.139140 0.074297 0.118690
v 1.075351 -0.071426 0.142217
v 1.153856 -0.071426 0.122579
v 1.057443 0.074297 0.140267
v -1.074977 -0.071426 0.142218
v -1.138887 0.074297 0.118691
v -1.153608 -0.071426 0.122579
v -1.057069 0.074297 0.140268
v 1.337978 0.074297 0.394210
v 1.272720 -0.071426 0.401962
v 1.352700 -0.071426 0.401962
v 1.249048 0.074297 0.394651
v -1.272468 -0.071426 0.401962
v -1.337730 0.074297 0.394210
v -1.352447 -0.071426 0.401962
v -1.248795 0.074297 0.394651
v 0.063849 -0.071426 0.544709
v 0.063971 0.074297 0.545027
v 0.000187 0.074297 0.560667
v 0.000187 -0.071426 0.560336
v -0.063601 -0.071426 0.544709
v -0.063723 0.074297 0.545027
v 0.000187 0.074297 0.560667
v 0.000187 -0.071426 0.560336
v 0.382170 -0.071426 0.488233
v 1.566629 0.074297 0.742175
v 0.389283 0.074297 0.480481
v 1.586132 -0.071426 0.753988
v 0.338498 -0.071426 0.369824
v 0.345615 0.074297 0.362072
v 0.145667 0.074297 0.362072
v 0.143337 -0.071426 0.369824
v -0.381917 -0.071426 0.488233
v -1.566254 0.074297 0.742176
v -1.585880 -0.071426 0.753989
v -0.388908 0.074297 0.480481
v -0.338123 -0.071426 0.369824
v -0.345241 0.074297 0.362072
v -0.145293 0.074297 0.362072
v -0.142963 -0.071426 0.369824
v 0.915884 0.074297 -0.056795
v 0.909506 -0.071426 -0.047191
v 0.932445 -0.071426 -0.056108
v 0.893559 0.074297 -0.048294
v -0.909132 -0.071426 -0.047190
v -0.915515 0.074297 -0.056795
v -0.932197 -0.071426 -0.056108
v -0.893190 0.074297 -0.048294
v -0.054397 -0.071426 0.403213
v 0.000187 0.074297 0.380606
v -0.054397 0.074297 0.403213
v 0.000187 -0.071426 0.380606
v 0.054772 0.074297 0.403213
v 0.054772 -0.071426 0.403213
v 0.540036 -0.071426 -0.351892
v 0.725019 0.074297 -0.365312
v 0.522250 0.074297 -0.365312
v 0.742806 -0.071426 -0.351892
v -0.539667 -0.071426 -0.351892
v -0.724645 0.074297 -0.365311
v -0.742431 -0.071426 -0.351892
v -0.522002 0.074297 -0.365311
v -0.675578 0.074297 -0.722097
v -0.690056 -0.071426 -0.736498
v -0.742431 -0.071426 -0.351892
v -0.724645 0.074297 -0.365311
v -1.429726 -0.071426 0.525303
v -1.566254 0.074297 0.742176
v -1.421509 0.074297 0.531718
v -1.585880 -0.071426 0.753989
v -1.200954 0.074297 0.221264
v -1.209540 -0.071426 0.215915
v -1.295162 -0.071426 0.311447
v -1.284002 0.074297 0.316244
v -1.337730 0.074297 0.394210
v -1.352447 -0.071426 0.401962
v -0.888651 0.074297 -0.106928
v -0.932197 -0.071426 -0.056108
v -0.915515 0.074297 -0.056795
v -0.898828 -0.071426 -0.112473
v -0.522002 0.074297 -0.365311
v -0.544819 -0.071426 -0.315411
v -0.530710 0.074297 -0.299980
v -0.539667 -0.071426 -0.351892
v -0.699255 0.074297 -0.342680
v -0.668708 -0.071426 -0.216040
v -0.655218 0.074297 -0.208900
v -0.711150 -0.071426 -0.355805
v -0.142963 -0.071426 0.369824
v -0.118186 0.074297 0.473881
v -0.145293 0.074297 0.362072
v -0.118186 -0.071426 0.473881
v -0.063601 -0.071426 0.544709
v -0.063723 0.074297 0.545027
v 0.382170 -0.071426 0.488233
v 0.389283 0.074297 0.480481
v 0.338498 -0.071426 0.369824
v 0.345615 0.074297 0.362072
v 0.130824 -0.071426 -0.995531
v 0.067654 -0.071426 -0.821199
v 0.134507 0.074297 -0.972728
v 0.074032 0.074297 -0.802063
v 0.054772 0.074297 0.403213
v 0.054772 -0.071426 0.403213
v 0.077345 -0.071426 0.457788
v 0.077345 0.074297 0.457788
v 0.077345 -0.071426 0.457788
v 0.054772 -0.071426 0.512362
v 0.054772 0.074297 0.512362
v 0.143337 -0.071426 0.369824
v 0.077345 -0.071426 0.457788
v 0.054772 -0.071426 0.403213
v 0.118560 -0.071426 0.473881
v 0.054772 -0.071426 0.512362
v 0.077345 -0.071426 0.457788
v 0.063849 -0.071426 0.544709
v 0.000187 -0.071426 0.534969
v 0.000187 -0.071426 0.560336
v -0.063601 -0.071426 0.544709
v -0.054397 -0.071426 0.512362
v -0.118186 -0.071426 0.473881
v -0.076970 -0.071426 0.457788
v -0.142963 -0.071426 0.369824
v -0.054397 -0.071426 0.403213
v 0.143337 -0.071426 0.369824
v 0.054772 -0.071426 0.403213
v 0.000187 -0.071426 0.369824
v 0.000187 -0.071426 0.380606
v -0.054397 -0.071426 0.403213
v -0.142963 -0.071426 0.369824
v 0.000187 -0.071426 0.369824
v -0.054397 -0.071426 0.403213
v 0.000187 -0.071426 -0.315411
v -0.338123 -0.071426 0.369824
v -0.544819 -0.071426 -0.315411
v -0.711150 -0.071426 -0.355805
v -0.668708 -0.071426 -0.216040
v 0.000187 -0.071426 0.369824
v -0.909132 -0.071426 -0.047190
v -0.760709 -0.071426 -0.206717
v -0.825845 -0.071426 -0.182491
v -0.898828 -0.071426 -0.112473
v -0.932197 -0.071426 -0.056108
v -1.074977 -0.071426 0.142218
v -0.969238 -0.071426 -0.025650
v -1.045539 -0.071426 0.018890
v -1.153608 -0.071426 0.122579
v -0.381917 -0.071426 0.488233
v -1.272468 -0.071426 0.401962
v -1.135944 -0.071426 0.167119
v -1.209540 -0.071426 0.215915
v -1.295162 -0.071426 0.311447
v -1.352447 -0.071426 0.401962
v -1.429726 -0.071426 0.525303
v -1.321905 -0.071426 0.430274
v -1.585880 -0.071426 0.753989
v -0.690056 -0.071426 -0.736498
v -0.067401 -0.071426 -0.821199
v -0.539667 -0.071426 -0.351892
v -0.130450 -0.071426 -0.995531
v -0.742431 -0.071426 -0.351892
v 0.000187 -0.071426 -0.351892
v 0.067654 -0.071426 -0.821199
v 0.000187 -0.071426 -0.836642
v 0.540036 -0.071426 -0.351892
v 0.690303 -0.071426 -0.736498
v 0.130824 -0.071426 -0.995531
v 0.742806 -0.071426 -0.351892
v 0.545188 -0.071426 -0.315411
v 0.338498 -0.071426 0.369824
v 0.668961 -0.071426 -0.216040
v 0.711403 -0.071426 -0.355805
v 0.909506 -0.071426 -0.047191
v 0.761083 -0.071426 -0.206718
v 0.826219 -0.071426 -0.182491
v 0.899203 -0.071426 -0.112473
v 0.932445 -0.071426 -0.056108
v 1.075351 -0.071426 0.142217
v 0.969491 -0.071426 -0.025650
v 1.045787 -0.071426 0.018890
v 1.153856 -0.071426 0.122579
v 0.382170 -0.071426 0.488233
v 1.272720 -0.071426 0.401962
v 1.136192 -0.071426 0.167119
v 1.209915 -0.071426 0.215915
v 1.295537 -0.071426 0.311447
v 1.352700 -0.071426 0.401962
v 1.430100 -0.071426 0.525303
v 1.586132 -0.071426 0.753988
v 1.322158 -0.071426 0.430274
v 0.690303 -0.071426 -0.736498
v 0.130824 -0.071426 -0.995531
v 0.675952 0.074297 -0.722097
v 0.134507 0.074297 -0.972728
v -0.675578 0.074297 -0.722097
v -0.134255 0.074297 -0.972728
v -0.130450 -0.071426 -0.995531
v -0.690056 -0.071426 -0.736498
v 0.000187 0.074297 -0.822254
v 0.067654 -0.071426 -0.821199
v 0.000187 -0.071426 -0.836642
v 0.074032 0.074297 -0.802063
v -0.067401 -0.071426 -0.821199
v -0.073779 0.074297 -0.802063
v 1.430100 -0.071426 0.525303
v 1.421762 0.074297 0.531718
v 1.322158 -0.071426 0.430274
v 1.312832 0.074297 0.434003
v 1.272720 -0.071426 0.401962
v 1.249048 0.074297 0.394651
v -1.429726 -0.071426 0.525303
v -1.421509 0.074297 0.531718
v -1.321905 -0.071426 0.430274
v -1.312584 0.074297 0.434003
v -1.272468 -0.071426 0.401962
v -1.248795 0.074297 0.394651
v 1.136192 -0.071426 0.167119
v 1.128223 0.074297 0.172995
v 1.201328 0.074297 0.221264
v 1.075351 -0.071426 0.142217
v 1.057443 0.074297 0.140267
v 1.209915 -0.071426 0.215915
v -1.127849 0.074297 0.172995
v -1.135944 -0.071426 0.167119
v -1.200954 0.074297 0.221264
v -1.074977 -0.071426 0.142218
v -1.057069 0.074297 0.140268
v -1.209540 -0.071426 0.215915
v 1.038918 0.074297 0.024225
v 1.139140 0.074297 0.118690
v 1.045787 -0.071426 0.018890
v 1.153856 -0.071426 0.122579
v 0.969491 -0.071426 -0.025650
v 0.962622 0.074297 -0.021382
v 0.909506 -0.071426 -0.047191
v 0.893559 0.074297 -0.048294
v -1.038670 0.074297 0.024225
v -1.045539 -0.071426 0.018890
v -1.138887 0.074297 0.118691
v -1.153608 -0.071426 0.122579
v -0.969238 -0.071426 -0.025650
v -0.962247 0.074297 -0.021382
v -0.909132 -0.071426 -0.047190
v -0.893190 0.074297 -0.048294
v 0.888899 0.074297 -0.106929
v 0.899203 -0.071426 -0.112473
v 0.826219 -0.071426 -0.182491
v 0.819715 0.074297 -0.174260
v 0.761083 -0.071426 -0.206718
v 0.754579 0.074297 -0.198499
v 0.668961 -0.071426 -0.216040
v 0.655588 0.074297 -0.208900
v -0.888651 0.074297 -0.106928
v -0.898828 -0.071426 -0.112473
v -0.825845 -0.071426 -0.182491
v -0.819467 0.074297 -0.174260
v -0.760709 -0.071426 -0.206717
v -0.754331 0.074297 -0.198499
v -0.668708 -0.071426 -0.216040
v -0.655218 0.074297 -0.208900
v 0.531085 0.074297 -0.299980
v 0.699625 0.074297 -0.342680
v 0.545188 -0.071426 -0.315411
v 0.711403 -0.071426 -0.355805
v -0.530710 0.074297 -0.299980
v -0.544819 -0.071426 -0.315411
v -0.699255 0.074297 -0.342680
v -0.711150 -0.071426 -0.355805
v -0.054397 -0.071426 0.512362
v -0.054397 0.074297 0.512362
v 0.000187 0.074297 0.534969
v 0.000187 -0.071426 0.534969
v 0.054772 -0.071426 0.512362
v 0.054772 0.074297 0.512362
v 0.000187 0.074297 0.534969
v 0.000187 -0.071426 0.534969
v 0.000187 0.074297 0.362072
v -0.142963 -0.071426 0.369824
v -0.145293 0.074297 0.362072
v 0.000187 -0.071426 0.369824
v 0.000187 0.074297 0.362072
v 0.145667 0.074297 0.362072
v 0.143337 -0.071426 0.369824
v 0.000187 -0.071426 0.369824
v -0.449753 -0.060140 -0.347538
v -0.449753 -0.109207 -0.347538
v -0.472200 -0.109207 -0.266161
v -0.472200 -0.060140 -0.266161
v -0.472200 -0.109207 -0.085965
v -0.472200 -0.060140 -0.085965
v -0.451836 -0.109207 -0.020719
v -0.451836 -0.060140 -0.020719
v 0.083231 -0.060140 -0.395450
v 0.083231 -0.109207 -0.395450
v 0.047781 -0.109207 -0.347538
v 0.047781 -0.060140 -0.347538
v -0.414176 -0.060140 -0.395450
v -0.414176 -0.109207 -0.395450
v -0.449753 -0.109207 -0.347538
v -0.449753 -0.060140 -0.347538
v 0.045572 -0.060140 -0.020719
v 0.045572 -0.109207 -0.020719
v 0.079797 -0.109207 0.027635
v 0.079797 -0.060140 0.027635
v -0.451836 -0.060140 -0.020719
v -0.451836 -0.109207 -0.020719
v -0.417737 -0.109207 0.027635
v -0.417737 -0.060140 0.027635
v -0.202212 -0.060140 -0.299796
v -0.202212 -0.109207 -0.299796
v -0.193747 -0.060140 -0.273325
v -0.193747 -0.109207 -0.273325
v -0.220490 -0.109207 -0.045191
v -0.192891 -0.060140 -0.101568
v -0.220490 -0.060140 -0.045191
v -0.192891 -0.109207 -0.101568
v -0.199512 -0.109207 -0.067148
v -0.199512 -0.060140 -0.067148
v 0.047781 -0.060140 -0.347538
v 0.047781 -0.109207 -0.347538
v 0.025334 -0.109207 -0.266161
v 0.025334 -0.060140 -0.266161
v 0.025334 -0.109207 -0.085965
v 0.025334 -0.060140 -0.085965
v 0.045572 -0.109207 -0.020719
v 0.045572 -0.060140 -0.020719
v 0.295322 -0.060140 -0.299796
v 0.295322 -0.109207 -0.299796
v 0.303786 -0.060140 -0.273325
v 0.303786 -0.109207 -0.273325
v 0.277044 -0.109207 -0.045191
v 0.304643 -0.060140 -0.101568
v 0.277044 -0.060140 -0.045191
v 0.304643 -0.109207 -0.101568
v 0.298017 -0.109207 -0.067148
v 0.298017 -0.060140 -0.067148
v 0.025334 -0.109207 -0.266161
v 0.193139 -0.109207 -0.101568
v 0.025334 -0.109207 -0.085965
v 0.045572 -0.109207 -0.020719
v 0.199765 -0.109207 -0.067148
v 0.220738 -0.109207 -0.045191
v 0.194122 -0.109207 -0.273325
v 0.047781 -0.109207 -0.347538
v 0.202460 -0.109207 -0.299796
v 0.047781 -0.109207 -0.347538
v 0.225890 -0.109207 -0.319999
v 0.045572 -0.109207 -0.020719
v 0.248954 -0.109207 -0.037095
v 0.452210 -0.109207 -0.020719
v 0.277044 -0.109207 -0.045191
v 0.047781 -0.109207 -0.347538
v 0.248954 -0.109207 -0.325224
v 0.450001 -0.109207 -0.347538
v 0.271892 -0.109207 -0.319999
v 0.295322 -0.109207 -0.299796
v 0.450001 -0.109207 -0.347538
v 0.298017 -0.109207 -0.067148
v 0.452210 -0.109207 -0.020719
v 0.304643 -0.109207 -0.101568
v 0.472448 -0.109207 -0.085965
v 0.472448 -0.109207 -0.266161
v 0.303786 -0.109207 -0.273325
v 0.450001 -0.109207 -0.347538
v 0.248954 -0.109207 -0.325224
v 0.414551 -0.109207 -0.395450
v 0.373457 -0.109207 -0.425467
v 0.305012 -0.109207 -0.446197
v 0.248954 -0.109207 -0.449927
v 0.192774 -0.109207 -0.446197
v 0.124325 -0.109207 -0.425467
v 0.083231 -0.109207 -0.395450
v 0.248954 -0.109207 -0.037095
v 0.079797 -0.109207 0.027635
v 0.045572 -0.109207 -0.020719
v 0.127147 -0.109207 0.061909
v 0.194365 -0.109207 0.082013
v 0.248954 -0.109207 0.085742
v 0.303539 -0.109207 0.082013
v 0.370762 -0.109207 0.061909
v 0.417985 -0.109207 0.027635
v 0.452210 -0.109207 -0.020719
v -0.472200 -0.109207 -0.266161
v -0.304268 -0.109207 -0.101568
v -0.472200 -0.109207 -0.085965
v -0.451836 -0.109207 -0.020719
v -0.297769 -0.109207 -0.067148
v -0.276791 -0.109207 -0.045191
v -0.303412 -0.109207 -0.273325
v -0.449753 -0.109207 -0.347538
v -0.295069 -0.109207 -0.299796
v -0.449753 -0.109207 -0.347538
v -0.271640 -0.109207 -0.319999
v -0.451836 -0.109207 -0.020719
v -0.248580 -0.109207 -0.037095
v -0.045324 -0.109207 -0.020719
v -0.220490 -0.109207 -0.045191
v -0.449753 -0.109207 -0.347538
v -0.248580 -0.109207 -0.325224
v -0.047406 -0.109207 -0.347538
v -0.225642 -0.109207 -0.319999
v -0.202212 -0.109207 -0.299796
v -0.047406 -0.109207 -0.347538
v -0.199512 -0.109207 -0.067148
v -0.045324 -0.109207 -0.020719
v -0.192891 -0.109207 -0.101568
v -0.025081 -0.109207 -0.085965
v -0.025081 -0.109207 -0.266161
v -0.193747 -0.109207 -0.273325
v -0.047406 -0.109207 -0.347538
v -0.248580 -0.109207 -0.325224
v -0.082979 -0.109207 -0.395450
v -0.124072 -0.109207 -0.425467
v -0.192400 -0.109207 -0.446197
v -0.248580 -0.109207 -0.449927
v -0.304760 -0.109207 -0.446197
v -0.373087 -0.109207 -0.425467
v -0.414176 -0.109207 -0.395450
v -0.248580 -0.109207 -0.037095
v -0.417737 -0.109207 0.027635
v -0.451836 -0.109207 -0.020719
v -0.370387 -0.109207 0.061909
v -0.303164 -0.109207 0.082013
v -0.248580 -0.109207 0.085742
v -0.193991 -0.109207 0.082013
v -0.126772 -0.109207 0.061909
v -0.079422 -0.109207 0.027635
v -0.045324 -0.109207 -0.020719
v 0.079797 -0.109207 0.027635
v 0.079797 -0.060140 0.027635
v 0.127147 -0.109207 0.061909
v 0.127147 -0.060140 0.061909
v 0.194365 -0.109207 0.082013
v 0.194365 -0.060140 0.082013
v 0.248954 -0.109207 0.085742
v 0.248954 -0.060140 0.085742
v 0.303539 -0.060140 0.082013
v 0.303539 -0.109207 0.082013
v 0.370762 -0.060140 0.061909
v 0.370762 -0.109207 0.061909
v 0.417985 -0.060140 0.027635
v 0.417985 -0.109207 0.027635
v -0.417737 -0.109207 0.027635
v -0.417737 -0.060140 0.027635
v -0.370387 -0.109207 0.061909
v -0.370387 -0.060140 0.061909
v -0.303164 -0.109207 0.082013
v -0.303164 -0.060140 0.082013
v -0.248580 -0.109207 0.085742
v -0.248580 -0.060140 0.085742
v -0.193991 -0.060140 0.082013
v -0.193991 -0.109207 0.082013
v -0.126772 -0.060140 0.061909
v -0.126772 -0.109207 0.061909
v -0.079422 -0.060140 0.027635
v -0.079422 -0.109207 0.027635
v -0.295069 -0.109207 -0.299796
v -0.295069 -0.060140 -0.299796
v -0.271640 -0.109207 -0.319999
v -0.271640 -0.060140 -0.319999
v -0.248580 -0.109207 -0.325224
v -0.248580 -0.060140 -0.325224
v -0.225642 -0.060140 -0.319999
v -0.225642 -0.109207 -0.319999
v -0.202212 -0.060140 -0.299796
v -0.202212 -0.109207 -0.299796
v 0.202460 -0.109207 -0.299796
v 0.202460 -0.060140 -0.299796
v 0.225890 -0.109207 -0.319999
v 0.225890 -0.060140 -0.319999
v 0.248954 -0.109207 -0.325224
v 0.248954 -0.060140 -0.325224
v 0.271892 -0.060140 -0.319999
v 0.271892 -0.109207 -0.319999
v 0.295322 -0.060140 -0.299796
v 0.295322 -0.109207 -0.299796
v 0.450001 -0.060140 -0.347538
v 0.472448 -0.109207 -0.266161
v 0.450001 -0.109207 -0.347538
v 0.472448 -0.060140 -0.266161
v 0.472448 -0.109207 -0.085965
v 0.472448 -0.060140 -0.085965
v 0.452210 -0.109207 -0.020719
v 0.452210 -0.060140 -0.020719
v 0.414551 -0.109207 -0.395450
v 0.414551 -0.060140 -0.395450
v 0.450001 -0.109207 -0.347538
v 0.450001 -0.060140 -0.347538
v -0.082979 -0.109207 -0.395450
v -0.082979 -0.060140 -0.395450
v -0.047406 -0.109207 -0.347538
v -0.047406 -0.060140 -0.347538
v 0.417985 -0.060140 0.027635
v 0.417985 -0.109207 0.027635
v 0.452210 -0.060140 -0.020719
v 0.452210 -0.109207 -0.020719
v -0.079422 -0.060140 0.027635
v -0.079422 -0.109207 0.027635
v -0.045324 -0.060140 -0.020719
v -0.045324 -0.109207 -0.020719
v -0.295069 -0.109207 -0.299796
v -0.295069 -0.060140 -0.299796
v -0.303412 -0.060140 -0.273325
v -0.303412 -0.109207 -0.273325
v -0.304268 -0.060140 -0.101568
v -0.304268 -0.109207 -0.101568
v -0.297769 -0.060140 -0.067148
v -0.297769 -0.109207 -0.067148
v -0.276791 -0.060140 -0.045191
v -0.276791 -0.109207 -0.045191
v -0.047406 -0.060140 -0.347538
v -0.025081 -0.109207 -0.266161
v -0.047406 -0.109207 -0.347538
v -0.025081 -0.060140 -0.266161
v -0.025081 -0.109207 -0.085965
v -0.025081 -0.060140 -0.085965
v -0.045324 -0.109207 -0.020719
v -0.045324 -0.060140 -0.020719
v 0.202460 -0.109207 -0.299796
v 0.202460 -0.060140 -0.299796
v 0.194122 -0.060140 -0.273325
v 0.194122 -0.109207 -0.273325
v 0.193139 -0.060140 -0.101568
v 0.193139 -0.109207 -0.101568
v 0.199765 -0.060140 -0.067148
v 0.199765 -0.109207 -0.067148
v 0.220738 -0.060140 -0.045191
v 0.220738 -0.109207 -0.045191
v 0.025334 -0.060140 -0.266161
v 0.025334 -0.060140 -0.085965
v 0.193139 -0.060140 -0.101568
v 0.045572 -0.060140 -0.020719
v 0.199765 -0.060140 -0.067148
v 0.220738 -0.060140 -0.045191
v 0.194122 -0.060140 -0.273325
v 0.047781 -0.060140 -0.347538
v 0.202460 -0.060140 -0.299796
v 0.225890 -0.060140 -0.319999
v 0.047781 -0.060140 -0.347538
v 0.045572 -0.060140 -0.020719
v 0.248954 -0.060140 -0.037095
v 0.452210 -0.060140 -0.020719
v 0.277044 -0.060140 -0.045191
v 0.047781 -0.060140 -0.347538
v 0.248954 -0.060140 -0.325224
v 0.450001 -0.060140 -0.347538
v 0.271892 -0.060140 -0.319999
v 0.295322 -0.060140 -0.299796
v 0.450001 -0.060140 -0.347538
v 0.452210 -0.060140 -0.020719
v 0.298017 -0.060140 -0.067148
v 0.304643 -0.060140 -0.101568
v 0.472448 -0.060140 -0.085965
v 0.472448 -0.060140 -0.266161
v 0.303786 -0.060140 -0.273325
v 0.450001 -0.060140 -0.347538
v 0.414551 -0.060140 -0.395450
v 0.248954 -0.060140 -0.325224
v 0.373457 -0.060140 -0.425467
v 0.305012 -0.060140 -0.446197
v 0.248954 -0.060140 -0.449927
v 0.192774 -0.060140 -0.446197
v 0.124325 -0.060140 -0.425467
v 0.083231 -0.060140 -0.395450
v 0.248954 -0.060140 -0.037095
v 0.127147 -0.060140 0.061909
v 0.194365 -0.060140 0.082013
v 0.079797 -0.060140 0.027635
v 0.045572 -0.060140 -0.020719
v 0.248954 -0.060140 0.085742
v 0.303539 -0.060140 0.082013
v 0.370762 -0.060140 0.061909
v 0.417985 -0.060140 0.027635
v 0.452210 -0.060140 -0.020719
v -0.472200 -0.060140 -0.266161
v -0.472200 -0.060140 -0.085965
v -0.304268 -0.060140 -0.101568
v -0.451836 -0.060140 -0.020719
v -0.297769 -0.060140 -0.067148
v -0.276791 -0.060140 -0.045191
v -0.303412 -0.060140 -0.273325
v -0.449753 -0.060140 -0.347538
v -0.295069 -0.060140 -0.299796
v -0.271640 -0.060140 -0.319999
v -0.449753 -0.060140 -0.347538
v -0.451836 -0.060140 -0.020719
v -0.248580 -0.060140 -0.037095
v -0.045324 -0.060140 -0.020719
v -0.220490 -0.060140 -0.045191
v -0.449753 -0.060140 -0.347538
v -0.248580 -0.060140 -0.325224
v -0.047406 -0.060140 -0.347538
v -0.225642 -0.060140 -0.319999
v -0.202212 -0.060140 -0.299796
v -0.047406 -0.060140 -0.347538
v -0.045324 -0.060140 -0.020719
v -0.199512 -0.060140 -0.067148
v -0.192891 -0.060140 -0.101568
v -0.025081 -0.060140 -0.085965
v -0.025081 -0.060140 -0.266161
v -0.193747 -0.060140 -0.273325
v -0.047406 -0.060140 -0.347538
v -0.082979 -0.060140 -0.395450
v -0.248580 -0.060140 -0.325224
v -0.124072 -0.060140 -0.425467
v -0.192400 -0.060140 -0.446197
v -0.248580 -0.060140 -0.449927
v -0.304760 -0.060140 -0.446197
v -0.373087 -0.060140 -0.425467
v -0.414176 -0.060140 -0.395450
v -0.248580 -0.060140 -0.037095
v -0.370387 -0.060140 0.061909
v -0.303164 -0.060140 0.082013
v -0.417737 -0.060140 0.027635
v -0.451836 -0.060140 -0.020719
v -0.248580 -0.060140 0.085742
v -0.193991 -0.060140 0.082013
v -0.126772 -0.060140 0.061909
v -0.079422 -0.060140 0.027635
v -0.045324 -0.060140 -0.020719
v 0.083231 -0.060140 -0.395450
v 0.083231 -0.109207 -0.395450
v 0.124325 -0.060140 -0.425467
v 0.124325 -0.109207 -0.425467
v 0.192774 -0.060140 -0.446197
v 0.192774 -0.109207 -0.446197
v 0.248954 -0.060140 -0.449927
v 0.248954 -0.109207 -0.449927
v 0.305012 -0.109207 -0.446197
v 0.305012 -0.060140 -0.446197
v 0.373457 -0.109207 -0.425467
v 0.373457 -0.060140 -0.425467
v 0.414551 -0.109207 -0.395450
v 0.414551 -0.060140 -0.395450
v -0.414176 -0.060140 -0.395450
v -0.414176 -0.109207 -0.395450
v -0.373087 -0.060140 -0.425467
v -0.373087 -0.109207 -0.425467
v -0.304760 -0.060140 -0.446197
v -0.304760 -0.109207 -0.446197
v -0.248580 -0.060140 -0.449927
v -0.248580 -0.109207 -0.449927
v -0.192400 -0.109207 -0.446197
v -0.192400 -0.060140 -0.446197
v -0.124072 -0.109207 -0.425467
v -0.124072 -0.060140 -0.425467
v -0.082979 -0.109207 -0.395450
v -0.082979 -0.060140 -0.395450
v -0.276791 -0.060140 -0.045191
v -0.276791 -0.109207 -0.045191
v -0.248580 -0.060140 -0.037095
v -0.248580 -0.109207 -0.037095
v -0.220490 -0.109207 -0.045191
v -0.220490 -0.060140 -0.045191
v 0.220738 -0.060140 -0.045191
v 0.220738 -0.109207 -0.045191
v 0.248954 -0.060140 -0.037095
v 0.248954 -0.109207 -0.037095
v 0.277044 -0.109207 -0.045191
v 0.277044 -0.060140 -0.045191
vn 0.8022 0.1337 -0.5819
vn 0.9848 0.1103 -0.1339
vn 0.7956 0.1339 -0.5908
vn 0.7473 0.0708 -0.6607
vn 0.8227 0.0705 -0.5641
vn 0.6524 0.0708 -0.7545
vn 0.7933 0.0707 -0.6048
vn 0.6524 0.0707 -0.7546
vn 0.7903 0.0711 -0.6086
vn 0.8324 0.0707 -0.5497
vn 0.7861 0.0786 -0.6131
vn 0.8679 0.0868 -0.4892
vn 0.7899 0.0790 -0.6082
vn 0.9848 0.1103 -0.1340
vn 0.9522 0.0630 0.2990
vn 0.9522 0.0629 0.2990
vn 0.9715 -0.0000 0.2370
vn 0.9021 -0.0000 0.4315
vn 0.9715 -0.0000 0.2369
vn 0.9023 -0.0000 0.4311
vn 0.5456 -0.0000 0.8381
vn 0.5677 0.0710 0.8201
vn 0.6563 0.0712 0.7512
vn 0.5730 0.0706 0.8165
vn 0.9376 0.0787 -0.3388
vn 0.9376 0.0788 -0.3388
vn 0.7071 -0.0000 -0.7071
vn 1.0000 -0.0000 -0.0001
vn 1.0000 -0.0000 -0.0000
vn 0.7071 -0.0000 0.7071
vn -0.0000 1.0000 -0.0000
vn -0.0001 1.0000 -0.0000
vn 0.0001 1.0000 -0.0000
vn -0.0002 1.0000 -0.0000
vn 0.0002 1.0000 -0.0000
vn 0.2515 0.0472 0.9667
vn -0.2515 0.0472 0.9667
vn -0.2515 0.0471 0.9667
vn -0.0000 0.0550 0.9985
vn -0.0000 0.0551 0.9985
vn 0.5455 -0.0000 0.8381
vn -0.0000 -0.0000 1.0000
vn 0.0001 -0.0000 1.0000
vn -0.5455 -0.0000 0.8381
vn -0.0001 -0.0000 1.0000
vn -0.6563 0.0712 0.7512
vn -0.2124 0.0551 0.9756
vn -0.6563 0.0711 0.7512
vn -0.2125 0.0550 0.9756
vn -0.5678 0.0710 0.8201
vn -0.5731 0.0706 0.8164
vn 0.2124 0.0551 0.9756
vn 0.6563 0.0712 0.7511
vn 0.5678 0.0710 0.8201
vn 0.5731 0.0707 0.8164
vn 0.3559 0.0474 0.9333
vn 0.3559 0.0475 0.9333
vn -0.3559 0.0475 0.9333
vn -0.3559 0.0474 0.9333
vn -0.7071 -0.0000 0.7071
vn -0.0000 0.0948 0.9955
vn -0.9848 0.1103 -0.1340
vn -0.8022 0.1337 -0.5820
vn -0.7956 0.1339 -0.5908
vn -0.9848 0.1103 -0.1339
vn -0.7473 0.0708 -0.6607
vn -0.8227 0.0705 -0.5641
vn -0.7933 0.0706 -0.6047
vn -0.6524 0.0707 -0.7546
vn -0.6524 0.0707 -0.7545
vn -0.7903 0.0712 -0.6086
vn -0.8324 0.0707 -0.5497
vn -0.7861 0.0786 -0.6131
vn -0.8679 0.0868 -0.4892
vn -0.7899 0.0790 -0.6082
vn -0.9522 0.0629 0.2991
vn -0.9522 0.0630 0.2990
vn -0.9522 0.0629 0.2990
vn -0.9715 -0.0000 0.2369
vn -0.9021 -0.0000 0.4315
vn -0.9715 -0.0000 0.2370
vn -0.9022 -0.0000 0.4314
vn -0.5456 -0.0000 0.8381
vn -0.6563 0.0712 0.7511
vn -0.6563 0.0711 0.7511
vn -0.5731 0.0707 0.8164
vn -0.9376 0.0787 -0.3388
vn -0.9376 0.0788 -0.3388
vn -1.0000 -0.0000 -0.0000
vn -1.0000 -0.0000 -0.0001
vn -0.7071 -0.0000 -0.7071
vn -0.0000 -1.0000 -0.0000
vn -0.0002 -1.0000 -0.0000
vn -0.0003 -1.0000 -0.0000
vn 0.0001 -1.0000 -0.0000
vn -0.0001 -1.0000 -0.0000
vn 0.0002 -1.0000 -0.0000
vn 0.4178 0.1340 -0.8986
vn 0.8022 0.1337 -0.5820
vn -0.8021 0.1337 -0.5820
vn -0.4178 0.1340 -0.8986
vn -0.0000 0.1105 -0.9939
vn 0.2450 0.1027 -0.9641
vn -0.0000 0.1104 -0.9939
vn -0.2450 0.1027 -0.9641
vn 0.7472 0.0708 -0.6608
vn 0.5915 0.0552 -0.8044
vn 0.5116 0.0472 -0.8579
vn -0.7472 0.0708 -0.6608
vn -0.5915 0.0552 -0.8044
vn -0.5116 0.0472 -0.8579
vn 0.4809 0.0552 -0.8750
vn 0.4748 0.0554 -0.8784
vn 0.4020 0.0473 -0.9144
vn -0.4748 0.0554 -0.8783
vn -0.4809 0.0552 -0.8750
vn -0.4020 0.0473 -0.9144
vn 0.6001 0.0554 -0.7980
vn 0.6860 0.0552 -0.7255
vn 0.6053 0.0550 -0.7941
vn 0.4340 0.0474 -0.8997
vn 0.4310 0.0470 -0.9011
vn 0.3534 0.0393 -0.9346
vn -0.6002 0.0553 -0.7979
vn -0.6053 0.0550 -0.7941
vn -0.6860 0.0552 -0.7255
vn -0.4340 0.0473 -0.8996
vn -0.4310 0.0470 -0.9011
vn -0.3534 0.0393 -0.9346
vn 0.7860 0.0786 -0.6132
vn 0.7898 0.0790 -0.6082
vn 0.5350 0.0708 -0.8419
vn 0.5294 0.0711 -0.8454
vn 0.2290 0.0631 -0.9714
vn 0.2198 0.0628 -0.9735
vn 0.1024 0.0630 -0.9927
vn -0.7860 0.0786 -0.6132
vn -0.5350 0.0708 -0.8419
vn -0.7898 0.0790 -0.6082
vn -0.5294 0.0711 -0.8454
vn -0.2290 0.0632 -0.9714
vn -0.2199 0.0628 -0.9735
vn -0.1024 0.0630 -0.9927
vn -0.1024 0.0631 -0.9927
vn -0.2364 0.0709 -0.9691
vn -0.2363 0.0709 -0.9691
vn 0.2364 0.0709 -0.9691
vn -0.0000 -0.0000 -1.0000
vn -0.0000 -0.0550 -0.9985
vn -0.8976 -0.0000 -0.4408
vn -0.8976 -0.0000 -0.4409
vn -0.9910 -0.0000 -0.1338
vn -0.9910 -0.0000 -0.1341
vn -0.9888 -0.0000 0.1491
vn -0.8976 -0.0000 0.4409
vn -0.8976 -0.0001 0.4409
vn -0.7032 -0.0000 -0.7110
vn -0.8975 -0.0000 -0.4410
vn -0.8975 -0.0000 -0.4409
vn -0.8975 -0.0000 0.4409
vn -0.7111 -0.0000 0.7031
vn -0.8975 -0.0000 0.4410
vn -0.8345 -0.0000 0.5510
vn -0.9875 -0.0000 0.1579
vn -0.9955 -0.0000 -0.0948
vn -0.5180 -0.0000 -0.8554
vn -0.8897 -0.0000 -0.4566
vn -0.8896 -0.0000 -0.4567
vn -0.9910 -0.0000 -0.1337
vn -0.4409 -0.0000 0.8975
vn -0.7110 -0.0000 0.7032
vn -0.4409 -0.0000 0.8976
vn -0.1809 -0.0000 0.9835
vn -0.1810 -0.0000 0.9835
vn 0.1810 -0.0000 0.9835
vn 0.4409 -0.0000 0.8975
vn 0.4409 -0.0000 0.8976
vn 0.7110 -0.0000 0.7032
vn 0.1809 -0.0000 0.9835
vn 0.4504 -0.0000 0.8928
vn 0.8344 -0.0000 0.5511
vn -0.4506 -0.0000 0.8927
vn -0.4505 -0.0000 0.8928
vn -0.8344 -0.0000 0.5511
vn 0.4505 -0.0000 0.8928
vn 0.4503 -0.0000 0.8929
vn 0.8976 -0.0000 -0.4409
vn 0.9910 -0.0000 -0.1338
vn 0.9888 -0.0000 0.1491
vn 0.8976 0.0001 0.4409
vn 0.8976 -0.0000 0.4409
vn 0.7032 -0.0000 -0.7110
vn 0.8975 -0.0000 -0.4409
vn 0.8975 -0.0000 -0.4410
vn 0.7111 -0.0000 0.7031
vn 0.8975 -0.0000 0.4409
vn 0.8975 -0.0001 0.4409
vn 0.8345 -0.0000 0.5510
vn 0.9874 -0.0000 0.1580
vn 0.9955 -0.0000 -0.0948
vn 0.8895 -0.0000 -0.4569
vn 0.8896 -0.0000 -0.4567
vn 0.5180 -0.0000 -0.8554
vn 0.8976 -0.0000 -0.4408
vn 0.9910 -0.0000 -0.1335
vn 0.9888 -0.0000 0.1490
vn -0.7031 -0.0000 -0.7111
vn -0.4472 -0.0000 -0.8945
vn -0.4472 -0.0000 -0.8944
vn -0.1809 -0.0000 -0.9835
vn 0.0001 -0.0000 -1.0000
vn 0.1809 -0.0000 -0.9835
vn 0.4472 -0.0000 -0.8944
vn 0.4471 -0.0000 -0.8945
vn 0.7031 -0.0000 -0.7111
vn -0.4471 -0.0000 -0.8945
vn -0.1810 -0.0000 -0.9835
vn 0.1810 -0.0000 -0.9835
vn 0.5179 -0.0000 -0.8554
vn -0.5179 -0.0000 -0.8554
vn -0.0001 -0.0000 -1.0000
vt 54.061298 -4.992570
vt 54.023602 -5.007430
vt 54.062698 -5.007430
vt 54.024899 -4.992570
vt 53.934200 -5.007430
vt 53.933498 -4.992570
vt 53.912102 -4.992570
vt 53.910900 -5.007430
vt 53.965099 -4.992570
vt 53.956001 -5.007430
vt 53.965698 -5.007430
vt 53.955502 -4.992570
vt 53.947498 -4.992570
vt 53.946701 -5.007430
vt 53.998600 -4.992570
vt 53.993401 -5.007430
vt 53.999199 -5.007430
vt 53.993500 -4.992570
vt 54.019798 -5.007430
vt 54.018299 -4.992570
vt 54.022598 -4.992570
vt 54.009701 -5.007430
vt 54.023998 -5.007430
vt 54.008999 -4.992570
vt 53.950802 -4.992570
vt 53.939400 -4.992570
vt 53.950001 -5.007430
vt 53.939400 -5.007430
vt 53.932201 -5.007430
vt 53.932201 -4.992570
vt 53.938702 -4.992570
vt 53.937901 -5.007430
vt 54.089100 -5.007430
vt 54.086800 -4.992570
vt 54.071400 -5.007430
vt 54.069401 -4.992570
vt 53.935501 -5.007430
vt 53.941002 -4.992570
vt 53.935501 -4.992570
vt 53.941002 -5.007430
vt 53.946602 -4.992570
vt 53.946602 -5.007430
vt 54.000000 -4.950800
vt 54.005600 -4.946600
vt 54.000000 -4.948910
vt 54.014801 -4.950800
vt 54.007900 -4.941040
vt 54.012100 -4.939400
vt 54.005600 -4.935480
vt 54.006500 -4.932150
vt 54.000000 -4.933180
vt 54.000000 -4.930560
vt 53.985199 -4.950800
vt 53.994400 -4.946600
vt 53.992100 -4.941040
vt 53.987900 -4.939400
vt 53.994400 -4.935480
vt 53.993500 -4.932150
vt 53.945900 -5.018260
vt 53.964802 -4.950800
vt 53.933201 -5.008980
vt 53.928699 -5.022610
vt 53.909000 -4.992610
vt 53.923100 -5.007920
vt 53.916500 -5.005450
vt 53.909401 -4.998590
vt 53.906700 -4.993480
vt 53.892300 -4.973400
vt 53.901901 -4.989870
vt 53.894100 -4.985220
vt 53.883900 -4.975600
vt 53.960400 -4.938730
vt 53.872700 -4.947480
vt 53.885101 -4.970060
vt 53.877602 -4.965150
vt 53.869099 -4.955470
vt 53.863701 -4.947520
vt 53.855099 -4.933510
vt 53.866199 -4.943470
vt 53.840401 -4.912060
vt 53.946800 -5.024920
vt 53.931099 -5.061280
vt 53.992500 -5.069430
vt 53.926102 -5.024920
vt 53.986301 -5.086820
vt 54.000000 -5.071480
vt 54.007500 -5.069430
vt 54.054100 -5.018260
vt 54.053200 -5.024920
vt 54.068901 -5.061280
vt 54.073898 -5.024920
vt 54.013699 -5.086820
vt 54.035198 -4.950800
vt 54.066799 -5.008980
vt 54.071301 -5.022610
vt 54.091000 -4.992610
vt 54.076900 -5.007920
vt 54.083500 -5.005450
vt 54.090599 -4.998590
vt 54.093300 -4.993480
vt 54.107700 -4.973400
vt 54.098099 -4.989870
vt 54.105900 -4.985220
vt 54.116100 -4.975600
vt 54.039600 -4.938730
vt 54.127300 -4.947480
vt 54.114899 -4.970060
vt 54.122398 -4.965150
vt 54.130901 -4.955470
vt 54.136299 -4.947520
vt 54.144901 -4.933510
vt 54.159599 -4.912060
vt 54.133801 -4.943470
vt 54.116100 -4.992570
vt 54.109600 -5.007430
vt 54.117599 -5.007430
vt 54.107700 -4.992570
vt 53.890400 -5.007430
vt 53.883900 -4.992570
vt 53.882401 -5.007430
vt 53.892300 -4.992570
vt 54.136299 -4.992570
vt 54.129700 -5.007430
vt 54.137798 -5.007430
vt 54.127300 -4.992570
vt 53.870300 -5.007430
vt 53.863701 -4.992570
vt 53.862202 -5.007430
vt 53.872700 -4.992570
vt 54.006500 -5.007430
vt 54.006500 -4.992570
vt 54.000000 -4.992570
vt 54.000000 -5.007430
vt 53.993500 -5.007430
vt 54.038898 -5.007430
vt 54.159599 -4.992570
vt 54.039600 -4.992570
vt 54.161598 -5.007430
vt 54.014801 -4.992570
vt 54.034500 -5.007430
vt 54.035198 -4.992570
vt 54.014599 -5.007430
vt 53.961102 -5.007430
vt 53.840401 -4.992570
vt 53.838402 -5.007430
vt 53.960400 -4.992570
vt 53.965500 -5.007430
vt 53.985199 -4.992570
vt 53.964802 -4.992570
vt 53.985401 -5.007430
vt 54.093300 -4.992570
vt 54.092701 -5.007430
vt 54.095001 -5.007430
vt 54.091000 -4.992570
vt 53.907299 -5.007430
vt 53.906700 -4.992570
vt 53.904999 -5.007430
vt 53.909000 -4.992570
vt 53.994400 -5.007430
vt 53.994400 -4.992570
vt 54.005600 -4.992570
vt 54.005600 -5.007430
vt 54.055000 -5.007430
vt 54.073898 -4.992570
vt 54.053200 -4.992570
vt 54.075699 -5.007430
vt 53.945000 -5.007430
vt 53.926102 -4.992570
vt 53.924301 -5.007430
vt 53.946800 -4.992570
vt 53.976398 -5.007430
vt 53.937302 -5.007430
vt 53.975101 -4.992570
vt 54.065800 -5.007430
vt 54.087898 -4.992570
vt 54.066502 -4.992570
vt 54.043999 -5.007430
vt 54.034901 -4.992570
vt 54.034302 -5.007430
vt 54.044498 -4.992570
vt 54.052502 -4.992570
vt 54.053299 -5.007430
vt 54.001400 -4.992570
vt 54.006599 -5.007430
vt 54.000801 -5.007430
vt 53.980202 -5.007430
vt 53.981701 -4.992570
vt 53.977402 -4.992570
vt 53.990299 -5.007430
vt 53.991001 -4.992570
vt 53.976002 -5.007430
vt 54.049999 -5.007430
vt 54.060600 -4.992570
vt 54.049198 -4.992570
vt 54.060600 -5.007430
vt 54.067799 -5.007430
vt 54.067799 -4.992570
vt 54.062099 -5.007430
vt 53.928600 -5.007430
vt 53.913200 -4.992570
vt 53.930599 -4.992570
vt 54.053398 -4.992570
vt 54.053398 -5.007430
vt 54.058998 -5.007430
vt 54.058998 -4.992570
vt 54.064499 -5.007430
vt 54.064499 -4.992570
vt 54.014599 -4.950010
vt 54.006500 -4.932190
vt 54.000000 -4.930590
vt 53.993500 -4.932190
vt 53.985401 -4.950010
vt 54.000000 -4.950010
vt 54.000000 -5.019830
vt 53.965500 -4.950010
vt 53.944500 -5.019830
vt 53.927502 -5.023950
vt 53.931801 -5.009710
vt 53.907299 -4.992500
vt 53.922501 -5.008760
vt 53.915798 -5.006290
vt 53.908401 -4.999150
vt 53.904999 -4.993410
vt 53.890400 -4.973200
vt 53.901199 -4.990310
vt 53.893398 -4.985770
vt 53.882401 -4.975200
vt 53.961102 -4.937940
vt 53.870300 -4.946730
vt 53.884201 -4.970660
vt 53.876701 -4.965690
vt 53.868000 -4.955960
vt 53.862202 -4.946730
vt 53.854301 -4.934160
vt 53.865299 -4.943850
vt 53.838402 -4.910860
vt 53.929699 -5.062740
vt 53.993099 -5.071380
vt 53.945000 -5.023550
vt 53.986698 -5.089140
vt 53.924301 -5.023550
vt 54.000000 -5.023550
vt 54.006901 -5.071380
vt 54.000000 -5.072950
vt 54.055000 -5.023550
vt 54.070301 -5.062740
vt 54.013302 -5.089140
vt 54.075699 -5.023550
vt 54.055500 -5.019830
vt 54.034500 -4.950010
vt 54.068199 -5.009710
vt 54.072498 -5.023950
vt 54.092701 -4.992500
vt 54.077499 -5.008760
vt 54.084202 -5.006290
vt 54.091599 -4.999150
vt 54.095001 -4.993410
vt 54.109600 -4.973200
vt 54.098801 -4.990310
vt 54.106602 -4.985770
vt 54.117599 -4.975200
vt 54.038898 -4.937940
vt 54.129700 -4.946730
vt 54.115799 -4.970660
vt 54.123299 -4.965690
vt 54.132000 -4.955960
vt 54.137798 -4.946730
vt 54.145699 -4.934160
vt 54.161598 -4.910860
vt 54.134701 -4.943850
vt 53.929699 -5.007430
vt 53.986698 -5.007430
vt 53.931099 -4.992570
vt 53.986301 -4.992570
vt 54.068901 -4.992570
vt 54.013699 -4.992570
vt 54.013302 -5.007430
vt 54.070301 -5.007430
vt 53.993099 -5.007430
vt 53.992500 -4.992570
vt 54.006901 -5.007430
vt 54.007500 -4.992570
vt 53.855099 -4.992570
vt 53.854301 -5.007430
vt 53.865299 -5.007430
vt 53.866199 -4.992570
vt 54.144901 -4.992570
vt 54.134701 -5.007430
vt 54.145699 -5.007430
vt 54.133801 -4.992570
vt 53.884201 -5.007430
vt 53.885101 -4.992570
vt 53.877602 -4.992570
vt 53.876701 -5.007430
vt 54.114899 -4.992570
vt 54.115799 -5.007430
vt 54.122398 -4.992570
vt 54.123299 -5.007430
vt 53.894100 -4.992570
vt 53.893398 -5.007430
vt 53.901199 -5.007430
vt 53.901901 -4.992570
vt 54.105900 -4.992570
vt 54.106602 -5.007430
vt 54.098801 -5.007430
vt 54.098099 -4.992570
vt 53.909401 -4.992570
vt 53.908401 -5.007430
vt 53.915798 -5.007430
vt 53.916500 -4.992570
vt 53.922501 -5.007430
vt 53.923100 -4.992570
vt 53.931801 -5.007430
vt 53.933201 -4.992570
vt 54.090599 -4.992570
vt 54.084202 -5.007430
vt 54.091599 -5.007430
vt 54.083500 -4.992570
vt 54.077499 -5.007430
vt 54.076900 -4.992570
vt 54.068199 -5.007430
vt 54.066799 -4.992570
vt 53.945900 -4.992570
vt 53.928699 -4.992570
vt 53.944500 -5.007430
vt 53.927502 -5.007430
vt 54.054100 -4.992570
vt 54.055500 -5.007430
vt 54.071301 -4.992570
vt 54.072498 -5.007430
vt -0.118096 1.187890
vt -0.118096 1.192890
vt -0.126388 1.192890
vt -0.126388 1.187890
vt -0.144751 1.192890
vt -0.144751 1.187890
vt -0.151399 1.192890
vt -0.151399 1.187890
vt -0.113214 1.187890
vt -0.113214 1.192890
vt -0.156327 1.192890
vt -0.156327 1.187890
vt -0.122961 1.187890
vt -0.122961 1.192890
vt -0.125658 1.187890
vt -0.125658 1.192890
vt -0.143161 1.187890
vt -0.143161 1.192890
vt -0.148906 1.192890
vt -0.148906 1.187890
vt -0.146668 1.192890
vt -0.146668 1.187890
vt -0.132389 1.181820
vt -0.115285 1.198590
vt -0.132389 1.200180
vt -0.130322 1.206830
vt -0.114614 1.202100
vt -0.112476 1.204340
vt -0.115194 1.181090
vt -0.130103 1.173530
vt -0.114337 1.178390
vt -0.111949 1.176330
vt -0.109606 1.205160
vt -0.088891 1.206830
vt -0.106737 1.204340
vt -0.109606 1.175800
vt -0.089110 1.173530
vt -0.107264 1.176330
vt -0.104876 1.178390
vt -0.104599 1.202100
vt -0.103928 1.198590
vt -0.086824 1.200180
vt -0.086824 1.181820
vt -0.104019 1.181090
vt -0.092729 1.168650
vt -0.096916 1.165590
vt -0.103884 1.163470
vt -0.109606 1.163090
vt -0.115329 1.163470
vt -0.122297 1.165590
vt -0.126484 1.168650
vt -0.126840 1.211760
vt -0.122020 1.215250
vt -0.115169 1.217300
vt -0.109606 1.217680
vt -0.104044 1.217300
vt -0.097193 1.215250
vt -0.092373 1.211760
vt -0.183087 1.181820
vt -0.165983 1.198590
vt -0.183087 1.200180
vt -0.181020 1.206830
vt -0.165312 1.202100
vt -0.163174 1.204340
vt -0.165892 1.181090
vt -0.180801 1.173530
vt -0.165035 1.178390
vt -0.162647 1.176330
vt -0.160304 1.205160
vt -0.139589 1.206830
vt -0.157435 1.204340
vt -0.160304 1.175800
vt -0.139808 1.173530
vt -0.157962 1.176330
vt -0.155574 1.178390
vt -0.155297 1.202100
vt -0.154626 1.198590
vt -0.137522 1.200180
vt -0.137522 1.181820
vt -0.154717 1.181090
vt -0.143427 1.168650
vt -0.147614 1.165590
vt -0.154582 1.163470
vt -0.160304 1.163090
vt -0.166027 1.163470
vt -0.172995 1.165590
vt -0.177182 1.168650
vt -0.177538 1.211760
vt -0.172718 1.215250
vt -0.165867 1.217300
vt -0.160304 1.217680
vt -0.154742 1.217300
vt -0.147891 1.215250
vt -0.143071 1.211760
vt -0.147891 1.192890
vt -0.143071 1.187890
vt -0.143071 1.192890
vt -0.147891 1.187890
vt -0.154742 1.192890
vt -0.154742 1.187890
vt -0.160304 1.192890
vt -0.160304 1.187890
vt -0.165867 1.187890
vt -0.165867 1.192890
vt -0.172718 1.187890
vt -0.172718 1.192890
vt -0.177538 1.187890
vt -0.177538 1.192890
vt -0.097193 1.192890
vt -0.092373 1.187890
vt -0.092373 1.192890
vt -0.097193 1.187890
vt -0.104044 1.192890
vt -0.104044 1.187890
vt -0.109606 1.192890
vt -0.109606 1.187890
vt -0.115169 1.187890
vt -0.115169 1.192890
vt -0.122020 1.187890
vt -0.122020 1.192890
vt -0.126840 1.187890
vt -0.126840 1.192890
vt -0.107264 1.192890
vt -0.104876 1.187890
vt -0.104876 1.192890
vt -0.107264 1.187890
vt -0.111949 1.187890
vt -0.111949 1.192890
vt -0.114337 1.187890
vt -0.114337 1.192890
vt -0.157962 1.192890
vt -0.155574 1.187890
vt -0.155574 1.192890
vt -0.157962 1.187890
vt -0.162647 1.187890
vt -0.162647 1.192890
vt -0.165035 1.187890
vt -0.165035 1.192890
vt -0.151814 1.187890
vt -0.143523 1.192890
vt -0.151814 1.192890
vt -0.143523 1.187890
vt -0.125160 1.192890
vt -0.125160 1.187890
vt -0.118512 1.192890
vt -0.118512 1.187890
vt -0.156697 1.187890
vt -0.156697 1.192890
vt -0.113584 1.192890
vt -0.113584 1.187890
vt -0.146950 1.192890
vt -0.146950 1.187890
vt -0.144252 1.187890
vt -0.144252 1.192890
vt -0.126750 1.187890
vt -0.126750 1.192890
vt -0.123243 1.187890
vt -0.123243 1.192890
vt -0.121005 1.187890
vt -0.121005 1.192890
vt -0.126484 1.192890
vt -0.126484 1.187890
vt -0.122297 1.187890
vt -0.122297 1.192890
vt -0.115329 1.187890
vt -0.115329 1.192890
vt -0.103884 1.192890
vt -0.103884 1.187890
vt -0.096916 1.192890
vt -0.096916 1.187890
vt -0.092729 1.192890
vt -0.092729 1.187890
vt -0.177182 1.192890
vt -0.177182 1.187890
vt -0.172995 1.187890
vt -0.172995 1.192890
vt -0.166027 1.187890
vt -0.166027 1.192890
vt -0.154582 1.192890
vt -0.154582 1.187890
vt -0.147614 1.192890
vt -0.147614 1.187890
vt -0.143427 1.192890
vt -0.143427 1.187890
vt -0.163174 1.192890
vt -0.163174 1.187890
vt -0.157435 1.192890
vt -0.157435 1.187890
vt -0.112476 1.192890
vt -0.112476 1.187890
vt -0.106737 1.192890
vt -0.106737 1.187890
s 1
usemtl Meshpart1Mtl.001
f 2/1/1 3/2/2 1/3/3
f 3/2/2 2/1/1 4/4/2
f 5/5/4 6/6/4 7/7/5
f 5/5/4 7/7/5 8/8/5
f 9/9/6 11/10/7 10/11/8
f 11/10/7 9/9/6 12/12/9
f 11/10/7 12/12/9 13/13/10
f 11/10/7 13/13/10 14/14/10
f 15/15/11 16/16/12 17/17/13
f 16/16/12 15/15/11 18/18/12
f 19/4/2 20/19/14 21/2/2
f 20/19/14 19/4/2 22/20/2
f 23/21/15 24/22/16 25/23/16
f 24/22/16 23/21/15 26/24/15
f 27/25/17 28/26/18 29/27/19
f 29/27/19 28/26/18 30/28/20
f 28/26/18 31/29/21 30/28/20
f 31/29/21 28/26/18 32/30/21
f 35/27/22 34/31/23 33/32/23
f 34/31/23 35/27/22 36/25/24
f 37/33/25 38/34/26 39/35/26
f 38/34/26 40/36/26 39/35/26
f 41/37/27 43/38/28 42/39/27
f 43/38/28 41/37/27 44/40/29
f 44/40/29 45/41/30 46/38/29
f 45/41/30 44/40/29 47/42/30
f 48/43/31 49/44/31 50/45/31
f 49/44/31 48/43/31 51/46/31
f 51/46/32 52/47/32 53/44/32
f 52/47/32 51/46/32 54/48/31
f 54/48/31 55/49/32 56/47/31
f 55/49/32 54/48/31 57/50/32
f 57/50/32 58/51/31 55/49/32
f 58/51/31 57/50/32 59/52/33
f 60/53/31 61/43/31 62/54/31
f 62/54/31 61/43/31 63/45/31
f 64/55/31 60/53/31 62/54/31
f 60/53/31 64/55/31 65/56/32
f 66/57/33 65/56/32 64/55/31
f 67/58/33 65/56/32 66/57/33
f 68/51/31 67/58/33 66/57/33
f 69/52/32 67/58/33 68/51/31
f 70/59/31 71/43/31 72/53/31
f 70/59/31 72/53/31 73/60/31
f 70/59/31 73/60/31 74/61/31
f 70/59/31 74/61/31 75/62/31
f 76/63/31 74/61/31 73/60/31
f 74/61/31 76/63/31 77/64/31
f 77/64/31 76/63/31 78/65/31
f 78/65/31 76/63/31 79/66/32
f 79/66/32 76/63/31 80/67/34
f 81/68/31 76/63/31 73/60/31
f 76/63/31 81/68/31 82/69/31
f 81/68/31 83/70/35 82/69/31
f 83/70/35 81/68/31 84/71/31
f 85/72/31 81/68/31 73/60/31
f 86/73/31 81/68/31 85/72/31
f 81/68/31 86/73/31 87/74/31
f 87/74/31 86/73/31 88/75/35
f 86/73/31 89/76/32 88/75/35
f 89/76/32 86/73/31 90/77/31
f 91/78/31 86/73/31 85/72/31
f 86/73/31 91/78/31 92/79/31
f 85/72/31 93/80/31 91/78/31
f 94/81/32 95/82/31 96/83/31
f 95/82/31 94/81/32 97/84/31
f 96/83/31 95/82/31 98/85/31
f 96/83/31 70/59/31 94/81/32
f 96/83/31 71/43/31 70/59/31
f 71/43/31 96/83/31 99/86/31
f 71/43/31 99/86/31 100/87/31
f 101/88/31 71/43/31 100/87/31
f 71/43/31 101/88/31 102/46/31
f 101/88/31 100/87/31 103/89/33
f 100/87/31 104/90/31 103/89/33
f 105/91/31 103/89/33 104/90/31
f 104/90/31 100/87/31 106/92/31
f 102/46/31 101/88/31 107/93/31
f 108/94/31 107/93/31 101/88/31
f 109/95/31 108/94/31 101/88/31
f 110/96/31 107/93/31 108/94/31
f 111/97/31 110/96/31 108/94/31
f 112/98/31 110/96/31 111/97/31
f 110/96/31 112/98/31 113/99/31
f 110/96/31 113/99/31 114/100/31
f 115/101/31 107/93/31 110/96/31
f 115/101/31 110/96/31 116/102/33
f 115/101/31 116/102/33 117/103/34
f 117/103/34 118/104/31 115/101/31
f 107/93/31 115/101/31 119/105/31
f 115/101/31 120/106/31 119/105/31
f 121/107/31 120/106/31 115/101/31
f 122/108/34 120/106/31 121/107/31
f 120/106/31 122/108/34 123/109/33
f 123/109/33 124/110/31 120/106/31
f 120/106/31 125/111/31 119/105/31
f 126/112/31 119/105/31 125/111/31
f 125/111/31 120/106/31 127/113/31
f 128/114/36 129/115/36 130/116/36
f 129/115/36 128/114/36 131/117/36
f 132/118/37 133/119/38 134/120/37
f 133/119/38 132/118/37 135/121/37
f 136/122/39 137/123/40 138/124/39
f 137/123/40 136/122/39 139/125/39
f 140/126/40 141/127/40 142/128/39
f 141/127/40 140/126/40 143/129/39
f 144/130/41 145/131/41 146/132/42
f 146/132/42 147/133/43 144/130/41
f 148/134/44 150/132/45 149/18/44
f 150/132/45 148/134/44 151/133/45
f 152/135/46 153/136/47 154/137/48
f 153/136/47 152/135/46 155/138/49
f 158/139/39 156/140/50 157/141/51
f 156/140/50 158/139/39 159/142/40
f 160/143/23 161/144/52 162/145/52
f 161/144/52 160/143/23 163/146/53
f 164/147/54 166/148/39 165/149/55
f 164/147/54 167/150/40 166/148/39
f 168/151/56 169/152/57 170/153/57
f 169/152/57 168/151/56 171/154/56
f 172/155/58 173/156/59 174/157/58
f 173/156/59 172/155/58 175/158/58
f 176/159/30 177/132/42 178/160/30
f 179/133/43 177/132/42 176/159/30
f 179/133/43 180/161/60 177/132/42
f 181/162/60 180/161/60 179/133/43
f 182/163/61 183/164/61 184/165/61
f 183/164/61 182/163/61 185/166/61
f 186/167/61 187/168/61 188/169/61
f 187/168/61 186/167/61 189/170/61
f 192/171/62 190/31/63 191/172/64
f 190/31/63 192/171/62 193/173/65
f 194/174/66 195/175/67 196/176/66
f 195/175/67 194/174/66 197/33/67
f 200/177/68 198/178/69 199/179/70
f 198/178/69 200/177/68 201/180/71
f 200/177/68 202/181/72 201/180/71
f 202/181/72 200/177/68 203/182/72
f 204/183/73 205/184/74 206/131/74
f 205/184/74 204/183/73 207/185/75
f 208/173/65 209/186/65 210/187/65
f 209/186/65 208/173/65 211/171/65
f 212/188/76 213/189/77 214/190/78
f 213/189/77 212/188/76 215/191/78
f 216/192/79 217/193/80 218/194/81
f 217/193/80 216/192/79 219/195/82
f 217/193/80 219/195/82 220/196/83
f 217/193/80 220/196/83 221/197/83
f 223/1/84 224/192/50 222/198/85
f 224/192/50 223/1/84 225/194/86
f 226/8/87 227/199/88 228/200/88
f 228/200/88 227/199/88 229/201/88
f 230/202/60 231/203/60 232/204/89
f 230/202/60 232/204/89 233/205/89
f 233/205/90 234/204/89 235/206/91
f 233/205/90 235/206/91 236/207/91
f 237/208/92 238/47/92 239/44/92
f 238/47/92 237/208/92 240/48/92
f 240/48/93 241/49/94 242/47/92
f 241/49/94 240/48/93 243/209/93
f 243/209/93 244/51/92 241/49/94
f 244/51/92 243/209/93 245/210/92
f 246/211/95 244/51/92 245/210/92
f 244/51/92 246/211/95 247/57/95
f 246/211/95 248/56/92 247/57/95
f 247/57/95 248/56/92 249/55/92
f 250/212/92 249/55/92 248/56/92
f 250/212/92 251/54/92 249/55/92
f 252/208/92 253/44/96 254/213/92
f 254/213/92 253/44/96 255/45/92
f 254/213/92 255/45/92 256/54/92
f 257/212/92 258/213/92 259/54/92
f 260/214/92 261/215/92 262/216/92
f 263/217/95 262/216/92 264/218/92
f 262/216/92 261/215/92 264/218/92
f 261/215/92 260/214/92 265/213/92
f 266/219/92 264/218/92 261/215/92
f 264/218/92 266/219/92 267/220/95
f 267/220/95 266/219/92 268/221/92
f 268/221/92 266/219/92 269/222/94
f 270/223/92 269/222/94 266/219/92
f 271/224/92 266/219/92 261/215/92
f 266/219/92 271/224/92 272/225/92
f 271/224/92 273/226/95 272/225/92
f 273/226/95 271/224/92 274/227/95
f 275/228/92 271/224/92 261/215/92
f 271/224/92 275/228/92 276/229/92
f 276/229/92 277/230/95 271/224/92
f 277/230/95 276/229/92 278/231/93
f 278/231/93 276/229/92 279/232/92
f 279/232/92 276/229/92 280/233/92
f 275/228/92 281/234/92 276/229/92
f 276/229/92 281/234/92 282/235/92
f 281/234/92 275/228/92 283/236/92
f 284/237/92 285/238/92 286/239/92
f 285/238/92 284/237/92 287/240/92
f 284/237/92 286/239/92 288/241/92
f 285/238/92 289/242/92 286/239/92
f 285/238/92 290/243/92 289/242/92
f 290/243/92 285/238/92 291/244/92
f 260/214/92 286/239/92 289/242/92
f 286/239/92 260/214/92 262/216/92
f 289/242/92 290/243/92 292/245/92
f 289/242/92 292/245/92 260/214/92
f 290/243/92 293/246/92 292/245/92
f 293/246/92 290/243/92 294/247/92
f 292/245/92 293/246/92 295/248/92
f 296/249/92 260/214/92 292/245/92
f 297/250/92 260/214/92 296/249/92
f 260/214/92 297/250/92 265/213/92
f 296/249/92 298/251/92 297/250/92
f 299/252/96 298/251/92 296/249/92
f 297/250/92 298/251/92 300/253/92
f 301/254/96 300/253/92 298/251/92
f 302/255/92 300/253/92 301/254/96
f 300/253/92 302/255/92 303/256/92
f 300/253/92 303/256/92 304/257/92
f 300/253/92 305/258/92 297/250/92
f 300/253/92 306/259/92 305/258/92
f 307/260/92 305/258/92 306/259/92
f 308/261/96 305/258/92 307/260/92
f 305/258/92 309/262/92 297/250/92
f 309/262/92 305/258/92 310/263/92
f 310/263/92 305/258/92 311/264/96
f 311/264/96 312/265/97 310/263/92
f 313/266/92 310/263/92 312/265/97
f 314/267/92 310/263/92 313/266/92
f 315/268/92 309/262/92 310/263/92
f 309/262/92 315/268/92 316/269/92
f 315/268/92 310/263/92 317/270/92
f 318/271/3 319/272/98 320/273/99
f 321/274/98 320/273/99 319/272/98
f 322/275/100 323/276/101 324/277/101
f 322/275/100 324/277/101 325/278/64
f 326/132/102 327/279/103 328/133/104
f 327/279/103 326/132/102 329/280/103
f 330/281/105 326/132/102 328/133/104
f 326/132/102 330/281/105 331/282/105
f 333/283/106 332/284/106 334/285/107
f 335/286/107 333/283/106 334/285/107
f 335/286/107 334/285/107 336/126/108
f 336/126/108 337/129/108 335/286/107
f 339/287/109 340/288/110 338/289/109
f 341/290/110 340/288/110 339/287/109
f 341/290/110 342/123/111 340/288/110
f 343/125/111 342/123/111 341/290/110
f 344/291/112 345/292/113 346/293/8
f 345/292/113 344/291/112 347/118/114
f 347/118/114 348/121/114 345/292/113
f 346/293/8 349/294/8 344/291/112
f 350/295/115 351/296/116 352/297/69
f 350/295/115 353/115/117 351/296/116
f 354/117/117 353/115/117 350/295/115
f 352/297/69 351/296/116 355/298/69
f 356/299/118 357/119/119 358/300/120
f 357/119/119 359/120/119 358/300/120
f 356/299/118 358/300/120 360/301/121
f 360/301/121 361/302/122 356/299/118
f 361/302/122 360/301/121 362/155/123
f 362/155/123 363/158/123 361/302/122
f 364/303/124 365/304/125 366/114/126
f 366/114/126 365/304/125 367/116/126
f 364/303/124 368/305/127 365/304/125
f 369/306/128 368/305/127 364/303/124
f 369/306/128 370/152/129 368/305/127
f 371/154/129 370/152/129 369/306/128
f 372/307/130 373/308/131 374/309/132
f 374/309/132 375/310/133 372/307/130
f 375/310/133 374/309/132 376/311/134
f 376/311/134 377/312/135 375/310/133
f 377/312/135 376/311/134 378/313/136
f 379/314/136 377/312/135 378/313/136
f 380/315/137 382/316/138 381/317/139
f 383/318/140 382/316/138 380/315/137
f 383/318/140 384/319/141 382/316/138
f 385/320/142 384/319/141 383/318/140
f 385/320/142 386/321/143 384/319/141
f 387/322/144 386/321/143 385/320/142
f 388/323/145 389/324/145 390/325/145
f 389/324/145 391/326/146 390/325/145
f 392/327/147 393/328/147 394/329/147
f 394/329/147 393/328/147 395/330/147
f 396/162/27 397/161/27 398/132/148
f 398/132/148 399/133/148 396/162/27
f 400/159/91 402/132/148 401/160/91
f 402/132/148 400/159/91 403/133/148
f 404/132/149 405/142/149 406/139/149
f 405/142/149 404/132/149 407/133/149
f 408/132/149 409/148/149 410/150/149
f 408/132/149 410/150/149 411/133/149
usemtl Meshesszn001Mtl
f 412/331/150 413/332/151 414/333/152
f 412/331/150 414/333/152 415/334/153
f 415/334/153 414/333/152 416/335/154
f 415/334/153 416/335/154 417/336/154
f 417/336/154 416/335/154 418/337/155
f 417/336/154 418/337/155 419/338/156
f 420/339/157 421/340/157 422/332/158
f 420/339/157 422/332/158 423/331/159
f 424/339/157 425/340/157 426/332/158
f 424/339/157 426/332/158 427/331/159
f 428/338/160 429/337/160 430/341/161
f 428/338/160 430/341/161 431/342/161
f 432/338/160 433/337/162 434/341/161
f 432/338/160 434/341/161 435/342/161
f 436/343/163 437/344/163 438/345/164
f 439/346/164 438/345/164 437/344/163
f 438/345/164 439/346/164 441/347/165
f 439/346/164 443/348/165 441/347/165
f 440/349/166 442/350/166 444/351/167
f 441/347/165 443/348/165 445/352/168
f 445/352/168 444/351/167 442/350/166
f 444/351/167 445/352/168 443/348/165
f 446/331/151 447/332/151 448/333/169
f 446/331/151 448/333/169 449/334/152
f 449/334/152 448/333/169 450/335/154
f 449/334/152 450/335/154 451/336/154
f 451/336/154 450/335/154 452/337/155
f 451/336/154 452/337/155 453/338/156
f 454/343/163 455/344/163 456/345/164
f 457/346/164 456/345/164 455/344/163
f 456/345/164 457/346/164 459/347/165
f 457/346/164 461/348/165 459/347/165
f 458/349/166 460/350/166 462/351/167
f 459/347/165 461/348/165 463/352/168
f 463/352/168 462/351/167 460/350/166
f 462/351/167 463/352/168 461/348/165
f 464/353/92 465/354/96 466/355/92
f 465/354/96 467/356/92 466/355/92
f 467/356/92 465/354/96 468/357/96
f 469/358/92 467/356/92 468/357/96
f 464/353/92 470/359/92 465/354/96
f 471/360/92 470/359/92 464/353/92
f 470/359/92 471/360/92 472/361/92
f 472/361/95 473/360/95 474/362/95
f 475/356/92 469/358/92 476/363/92
f 477/364/92 476/363/92 478/365/92
f 479/360/95 480/366/95 474/362/95
f 481/367/96 482/368/96 480/366/96
f 483/369/96 482/368/96 484/367/96
f 478/365/92 485/370/95 486/364/92
f 487/371/95 486/364/92 485/370/95
f 486/364/92 487/371/95 488/372/92
f 489/373/92 488/372/92 487/371/95
f 489/373/92 487/371/95 490/374/92
f 491/367/92 490/374/92 483/369/92
f 490/374/92 491/367/92 489/373/92
f 481/367/92 492/366/92 493/375/92
f 492/366/92 494/376/92 493/375/92
f 494/376/92 492/366/92 495/377/92
f 495/377/92 492/366/92 496/378/92
f 497/379/92 496/378/92 492/366/92
f 492/366/92 498/380/92 497/379/92
f 498/380/92 492/366/92 499/381/92
f 499/381/92 492/366/92 479/360/92
f 500/363/92 501/382/92 502/356/92
f 501/382/92 500/363/92 503/383/96
f 503/383/96 500/363/92 504/384/96
f 504/384/96 500/363/92 505/385/92
f 506/386/95 505/385/92 500/363/92
f 500/363/92 507/387/92 506/386/95
f 507/387/92 500/363/92 508/388/92
f 508/388/92 500/363/92 509/364/92
f 510/389/92 511/390/96 512/391/92
f 511/390/96 513/392/92 512/391/92
f 513/392/92 511/390/96 514/393/96
f 515/394/92 513/392/92 514/393/96
f 510/389/92 516/395/92 511/390/96
f 517/396/92 516/395/92 510/389/92
f 516/395/92 517/396/92 518/397/92
f 518/397/95 519/396/95 520/398/95
f 521/392/92 515/394/92 522/399/92
f 523/400/92 522/399/92 524/401/92
f 525/396/95 526/402/95 520/398/95
f 527/403/96 528/404/96 526/402/96
f 529/405/96 528/404/96 530/403/96
f 524/401/92 531/406/95 532/400/92
f 533/407/95 532/400/92 531/406/95
f 532/400/92 533/407/95 534/408/92
f 535/409/92 534/408/92 533/407/95
f 535/409/92 533/407/95 536/410/92
f 537/403/92 536/410/92 529/405/92
f 536/410/92 537/403/92 535/409/92
f 527/403/92 538/402/92 539/411/92
f 538/402/92 540/412/92 539/411/92
f 540/412/92 538/402/92 541/413/92
f 541/413/92 538/402/92 542/414/92
f 543/415/92 542/414/92 538/402/92
f 538/402/92 544/416/92 543/415/92
f 544/416/92 538/402/92 545/417/92
f 545/417/92 538/402/92 525/396/92
f 546/399/92 547/418/92 548/392/92
f 547/418/92 546/399/92 549/419/96
f 549/419/96 546/399/92 550/420/96
f 550/420/96 546/399/92 551/421/92
f 552/422/95 551/421/92 546/399/92
f 546/399/92 553/423/92 552/422/95
f 553/423/92 546/399/92 554/424/92
f 554/424/92 546/399/92 555/400/92
f 558/425/170 557/426/171 556/427/171
f 557/426/171 558/425/170 559/428/172
f 560/429/173 559/428/172 558/425/170
f 559/428/172 560/429/173 561/430/174
f 562/431/42 561/430/174 560/429/173
f 561/430/174 562/431/42 563/432/42
f 563/432/42 562/431/42 564/433/175
f 564/433/175 562/431/42 565/434/175
f 564/433/175 565/434/175 566/435/176
f 566/435/176 565/434/175 567/436/177
f 566/435/176 567/436/177 568/437/178
f 568/437/178 567/436/177 569/438/178
f 572/439/170 571/440/171 570/441/171
f 571/440/171 572/439/170 573/442/170
f 574/443/174 573/442/170 572/439/170
f 573/442/170 574/443/174 575/444/174
f 576/445/42 575/444/174 574/443/174
f 575/444/174 576/445/42 577/446/42
f 577/446/42 576/445/42 578/447/179
f 578/447/179 576/445/42 579/448/175
f 578/447/179 579/448/175 580/449/176
f 580/449/176 579/448/175 581/450/176
f 580/449/176 581/450/176 582/451/178
f 582/451/178 581/450/176 583/452/178
f 586/453/180 585/454/181 584/455/181
f 585/454/181 586/453/180 587/456/180
f 588/445/42 587/456/180 586/453/180
f 587/456/180 588/445/42 589/446/43
f 589/446/43 588/445/42 590/457/182
f 590/457/182 588/445/42 591/458/183
f 590/457/182 591/458/183 592/459/184
f 592/459/184 591/458/183 593/460/184
f 596/461/185 595/462/181 594/463/181
f 595/462/181 596/461/185 597/464/186
f 598/431/43 597/464/186 596/461/185
f 597/464/186 598/431/43 599/432/42
f 599/432/42 598/431/43 600/465/183
f 600/465/183 598/431/43 601/466/183
f 600/465/183 601/466/183 602/467/184
f 602/467/184 601/466/183 603/468/184
f 604/469/187 605/470/188 606/471/187
f 605/470/188 604/469/187 607/472/188
f 607/472/188 608/473/189 605/470/188
f 608/473/189 607/472/188 609/474/189
f 609/474/189 610/475/190 608/473/189
f 610/475/190 609/474/189 611/476/191
f 613/477/192 614/471/193 612/478/192
f 614/471/193 613/477/192 615/469/193
f 617/477/192 618/471/194 616/478/192
f 618/471/194 617/477/192 619/469/193
f 621/479/195 622/476/196 620/480/195
f 622/476/196 621/479/195 623/475/196
f 625/479/195 626/476/197 624/480/195
f 626/476/197 625/479/195 627/475/196
f 628/481/198 629/482/198 630/483/199
f 628/481/198 630/483/199 631/484/199
f 630/483/199 632/485/200 631/484/199
f 631/484/199 632/485/200 633/486/200
f 634/487/201 633/486/200 632/485/200
f 633/486/200 634/487/201 635/488/202
f 636/489/203 635/488/202 634/487/201
f 635/488/202 636/489/203 637/490/203
f 638/469/187 639/470/188 640/471/204
f 639/470/188 638/469/187 641/472/205
f 641/472/205 642/473/189 639/470/188
f 642/473/189 641/472/205 643/474/206
f 643/474/206 644/475/191 642/473/189
f 644/475/191 643/474/206 645/476/191
f 646/481/198 647/482/198 648/483/199
f 646/481/198 648/483/199 649/484/199
f 648/483/199 650/485/200 649/484/199
f 649/484/199 650/485/200 651/486/200
f 652/487/202 651/486/200 650/485/200
f 651/486/200 652/487/202 653/488/202
f 654/489/203 653/488/202 652/487/202
f 653/488/202 654/489/203 655/490/203
f 656/409/31 657/408/31 658/407/31
f 659/400/31 658/407/31 657/408/31
f 658/407/31 659/400/31 660/406/33
f 661/401/31 660/406/33 659/400/31
f 656/409/31 658/407/31 662/410/31
f 662/410/31 663/403/31 656/409/31
f 663/403/31 662/410/31 664/405/32
f 664/405/32 665/404/32 666/403/32
f 667/400/31 668/399/31 661/401/31
f 669/392/31 670/394/31 668/399/31
f 671/403/34 665/404/34 672/402/34
f 673/396/35 672/402/35 674/398/35
f 675/397/33 676/396/33 674/398/33
f 670/394/31 677/392/31 678/393/32
f 677/392/31 679/390/31 678/393/32
f 679/390/31 677/392/31 680/391/31
f 681/389/31 679/390/31 680/391/31
f 681/389/31 682/395/31 679/390/31
f 682/395/31 683/396/31 675/397/31
f 683/396/31 682/395/31 681/389/31
f 684/417/31 685/402/31 673/396/31
f 686/416/31 685/402/31 684/417/31
f 685/402/31 686/416/31 687/415/31
f 687/415/31 688/414/31 685/402/31
f 689/413/32 685/402/31 688/414/31
f 690/412/31 685/402/31 689/413/32
f 685/402/31 690/412/31 691/411/31
f 671/403/31 685/402/31 691/411/31
f 692/399/31 693/423/31 694/422/31
f 693/423/31 692/399/31 695/424/31
f 695/424/31 692/399/31 696/400/31
f 694/422/31 697/421/31 692/399/31
f 698/420/33 692/399/31 697/421/31
f 699/419/33 692/399/31 698/420/33
f 700/418/31 692/399/31 699/419/33
f 692/399/31 700/418/31 701/392/33
f 702/373/31 703/372/31 704/371/31
f 705/364/31 704/371/31 703/372/31
f 704/371/31 705/364/31 706/370/33
f 707/365/31 706/370/33 705/364/31
f 702/373/31 704/371/31 708/374/31
f 708/374/31 709/367/31 702/373/31
f 709/367/31 708/374/31 710/369/32
f 710/369/32 711/368/32 712/367/32
f 713/364/31 714/363/31 707/365/31
f 715/356/31 716/358/31 714/363/31
f 717/367/34 711/368/34 718/366/34
f 719/360/35 718/366/35 720/362/35
f 721/361/33 722/360/33 720/362/33
f 716/358/31 723/356/31 724/357/32
f 723/356/31 725/354/31 724/357/32
f 725/354/31 723/356/31 726/355/31
f 727/353/31 725/354/31 726/355/31
f 727/353/31 728/359/31 725/354/31
f 728/359/31 729/360/31 721/361/31
f 729/360/31 728/359/31 727/353/31
f 730/381/31 731/366/31 719/360/31
f 732/380/31 731/366/31 730/381/31
f 731/366/31 732/380/31 733/379/31
f 733/379/31 734/378/31 731/366/31
f 735/377/32 731/366/31 734/378/31
f 736/376/31 731/366/31 735/377/32
f 731/366/31 736/376/31 737/375/31
f 717/367/31 731/366/31 737/375/31
f 738/363/31 739/387/31 740/386/31
f 739/387/31 738/363/31 741/388/31
f 741/388/31 738/363/31 742/364/31
f 740/386/31 743/385/31 738/363/31
f 744/384/33 738/363/31 743/385/31
f 745/383/33 738/363/31 744/384/33
f 746/382/31 738/363/31 745/383/33
f 738/363/31 746/382/31 747/356/33
f 749/491/207 748/492/207 750/493/208
f 750/493/208 751/494/209 749/491/207
f 751/494/209 750/493/208 752/495/210
f 752/495/210 753/496/210 751/494/209
f 753/496/210 752/495/210 754/446/211
f 754/446/211 755/445/211 753/496/210
f 754/446/211 756/497/212 755/445/211
f 756/497/212 754/446/211 757/498/212
f 756/497/212 757/498/212 758/499/213
f 758/499/213 757/498/212 759/500/214
f 758/499/213 759/500/214 760/501/215
f 760/501/215 759/500/214 761/502/215
f 763/503/207 762/504/207 764/505/209
f 764/505/209 765/506/216 763/503/207
f 765/506/216 764/505/209 766/507/210
f 766/507/210 767/508/217 765/506/216
f 767/508/217 766/507/210 768/432/148
f 768/432/148 769/431/148 767/508/217
f 768/432/148 770/509/218 769/431/148
f 770/509/218 768/432/148 771/510/212
f 770/509/218 771/510/212 772/511/214
f 772/511/214 771/510/212 773/512/214
f 772/511/214 773/512/214 774/513/215
f 774/513/215 773/512/214 775/514/215
f 777/515/219 776/516/219 778/432/148
f 778/432/148 779/431/148 777/515/219
f 779/431/148 778/432/148 780/517/220
f 780/517/220 778/432/148 781/518/220
f 783/519/219 782/520/219 784/446/148
f 784/446/148 785/445/221 783/519/219
f 785/445/221 784/446/148 786/521/220
f 786/521/220 784/446/148 787/522/220
