# Blender 5.1.1
# www.blender.org
mtllib number00.mtl
o number
v 0.467401 0.074061 -0.514956
v 0.467401 0.023020 -0.514956
v 0.490567 0.023020 -0.598943
v 0.490567 0.074061 -0.598943
v 0.490567 0.023020 -0.784918
v 0.490567 0.074061 -0.784918
v 0.469550 0.023020 -0.852244
v 0.469550 0.074061 -0.852244
v -0.082678 0.074061 -0.465506
v -0.082678 0.023020 -0.465506
v -0.046091 0.023020 -0.514956
v -0.046091 0.074061 -0.514956
v 0.430683 0.074061 -0.465506
v 0.430683 0.023020 -0.465506
v 0.467401 0.023020 -0.514956
v 0.467401 0.074061 -0.514956
v -0.043811 0.074061 -0.852244
v -0.043811 0.023020 -0.852244
v -0.079134 0.023020 -0.902162
v -0.079134 0.074061 -0.902162
v 0.469550 0.074061 -0.852244
v 0.469550 0.023020 -0.852244
v 0.434358 0.023020 -0.902162
v 0.434358 0.074061 -0.902162
v 0.211920 0.074061 -0.564229
v 0.211920 0.023020 -0.564229
v 0.203184 0.074061 -0.591549
v 0.203184 0.023020 -0.591549
v 0.230784 0.023020 -0.827000
v 0.202300 0.074061 -0.768815
v 0.230784 0.074061 -0.827000
v 0.202300 0.023020 -0.768815
v 0.209134 0.023020 -0.804338
v 0.209134 0.074061 -0.804338
v -0.046091 0.074061 -0.514956
v -0.046091 0.023020 -0.514956
v -0.022924 0.023020 -0.598943
v -0.022924 0.074061 -0.598943
v -0.022924 0.023020 -0.784918
v -0.022924 0.074061 -0.784918
v -0.043811 0.023020 -0.852244
v -0.043811 0.074061 -0.852244
v -0.301571 0.074061 -0.564229
v -0.301571 0.023020 -0.564229
v -0.310308 0.074061 -0.591549
v -0.310308 0.023020 -0.591549
v -0.282708 0.023020 -0.827000
v -0.311191 0.074061 -0.768815
v -0.282708 0.074061 -0.827000
v -0.311191 0.023020 -0.768815
v -0.304353 0.023020 -0.804338
v -0.304353 0.074061 -0.804338
v -0.022924 0.023020 -0.598943
v -0.196111 0.023020 -0.768815
v -0.022924 0.023020 -0.784918
v -0.043811 0.023020 -0.852244
v -0.202950 0.023020 -0.804338
v -0.224595 0.023020 -0.827000
v -0.197126 0.023020 -0.591549
v -0.046091 0.023020 -0.514956
v -0.205732 0.023020 -0.564229
v -0.046091 0.023020 -0.514956
v -0.229912 0.023020 -0.543378
v -0.043811 0.023020 -0.852244
v -0.253717 0.023020 -0.835355
v -0.463492 0.023020 -0.852244
v -0.282708 0.023020 -0.827000
v -0.046091 0.023020 -0.514956
v -0.253717 0.023020 -0.537985
v -0.461212 0.023020 -0.514956
v -0.277390 0.023020 -0.543378
v -0.301571 0.023020 -0.564229
v -0.461212 0.023020 -0.514956
v -0.304353 0.023020 -0.804338
v -0.463492 0.023020 -0.852244
v -0.311191 0.023020 -0.768815
v -0.484379 0.023020 -0.784918
v -0.484379 0.023020 -0.598943
v -0.310308 0.023020 -0.591549
v -0.461212 0.023020 -0.514956
v -0.253717 0.023020 -0.537985
v -0.424625 0.023020 -0.465506
v -0.382213 0.023020 -0.434515
v -0.311573 0.023020 -0.413132
v -0.253717 0.023020 -0.409283
v -0.195735 0.023020 -0.413132
v -0.125090 0.023020 -0.434515
v -0.082678 0.023020 -0.465506
v -0.253717 0.023020 -0.835355
v -0.079134 0.023020 -0.902162
v -0.043811 0.023020 -0.852244
v -0.128002 0.023020 -0.937534
v -0.197377 0.023020 -0.958284
v -0.253717 0.023020 -0.962133
v -0.310052 0.023020 -0.958284
v -0.379431 0.023020 -0.937534
v -0.428169 0.023020 -0.902162
v -0.463492 0.023020 -0.852244
v 0.490567 0.023020 -0.598943
v 0.317250 0.023020 -0.768815
v 0.490567 0.023020 -0.784918
v 0.469550 0.023020 -0.852244
v 0.310542 0.023020 -0.804338
v 0.288891 0.023020 -0.827000
v 0.316366 0.023020 -0.591549
v 0.467401 0.023020 -0.514956
v 0.307755 0.023020 -0.564229
v 0.467401 0.023020 -0.514956
v 0.283574 0.023020 -0.543378
v 0.469550 0.023020 -0.852244
v 0.259775 0.023020 -0.835355
v 0.050000 0.023020 -0.852244
v 0.230784 0.023020 -0.827000
v 0.467401 0.023020 -0.514956
v 0.259775 0.023020 -0.537985
v 0.052149 0.023020 -0.514956
v 0.236101 0.023020 -0.543378
v 0.211920 0.023020 -0.564229
v 0.052149 0.023020 -0.514956
v 0.209134 0.023020 -0.804338
v 0.050000 0.023020 -0.852244
v 0.202300 0.023020 -0.768815
v 0.029108 0.023020 -0.784918
v 0.029108 0.023020 -0.598943
v 0.203184 0.023020 -0.591549
v 0.052149 0.023020 -0.514956
v 0.259775 0.023020 -0.537985
v 0.088862 0.023020 -0.465506
v 0.131274 0.023020 -0.434515
v 0.201793 0.023020 -0.413132
v 0.259775 0.023020 -0.409283
v 0.317757 0.023020 -0.413132
v 0.388276 0.023020 -0.434515
v 0.430683 0.023020 -0.465506
v 0.259775 0.023020 -0.835355
v 0.434358 0.023020 -0.902162
v 0.469550 0.023020 -0.852244
v 0.385489 0.023020 -0.937534
v 0.316110 0.023020 -0.958284
v 0.259775 0.023020 -0.962133
v 0.203435 0.023020 -0.958284
v 0.134061 0.023020 -0.937534
v 0.085192 0.023020 -0.902162
v 0.050000 0.023020 -0.852244
v -0.079134 0.023020 -0.902162
v -0.079134 0.074061 -0.902162
v -0.128002 0.023020 -0.937534
v -0.128002 0.074061 -0.937534
v -0.197377 0.023020 -0.958284
v -0.197377 0.074061 -0.958284
v -0.253717 0.023020 -0.962133
v -0.253717 0.074061 -0.962133
v -0.310052 0.074061 -0.958284
v -0.310052 0.023020 -0.958284
v -0.379431 0.074061 -0.937534
v -0.379431 0.023020 -0.937534
v -0.428169 0.074061 -0.902162
v -0.428169 0.023020 -0.902162
v 0.434358 0.023020 -0.902162
v 0.434358 0.074061 -0.902162
v 0.385489 0.023020 -0.937534
v 0.385489 0.074061 -0.937534
v 0.316110 0.023020 -0.958284
v 0.316110 0.074061 -0.958284
v 0.259775 0.023020 -0.962133
v 0.259775 0.074061 -0.962133
v 0.203435 0.074061 -0.958284
v 0.203435 0.023020 -0.958284
v 0.134061 0.074061 -0.937534
v 0.134061 0.023020 -0.937534
v 0.085192 0.074061 -0.902162
v 0.085192 0.023020 -0.902162
v 0.307755 0.023020 -0.564229
v 0.307755 0.074061 -0.564229
v 0.283574 0.023020 -0.543378
v 0.283574 0.074061 -0.543378
v 0.259775 0.023020 -0.537985
v 0.259775 0.074061 -0.537985
v 0.236101 0.074061 -0.543378
v 0.236101 0.023020 -0.543378
v 0.211920 0.074061 -0.564229
v 0.211920 0.023020 -0.564229
v -0.205732 0.023020 -0.564229
v -0.205732 0.074061 -0.564229
v -0.229912 0.023020 -0.543378
v -0.229912 0.074061 -0.543378
v -0.253717 0.023020 -0.537985
v -0.253717 0.074061 -0.537985
v -0.277390 0.074061 -0.543378
v -0.277390 0.023020 -0.543378
v -0.301571 0.074061 -0.564229
v -0.301571 0.023020 -0.564229
v -0.461212 0.074061 -0.514956
v -0.484379 0.023020 -0.598943
v -0.461212 0.023020 -0.514956
v -0.484379 0.074061 -0.598943
v -0.484379 0.023020 -0.784918
v -0.484379 0.074061 -0.784918
v -0.463492 0.023020 -0.852244
v -0.463492 0.074061 -0.852244
v -0.424625 0.023020 -0.465506
v -0.424625 0.074061 -0.465506
v -0.461212 0.023020 -0.514956
v -0.461212 0.074061 -0.514956
v 0.088862 0.023020 -0.465506
v 0.088862 0.074061 -0.465506
v 0.052149 0.023020 -0.514956
v 0.052149 0.074061 -0.514956
v -0.428169 0.074061 -0.902162
v -0.428169 0.023020 -0.902162
v -0.463492 0.074061 -0.852244
v -0.463492 0.023020 -0.852244
v 0.085192 0.074061 -0.902162
v 0.085192 0.023020 -0.902162
v 0.050000 0.074061 -0.852244
v 0.050000 0.023020 -0.852244
v 0.307755 0.023020 -0.564229
v 0.307755 0.074061 -0.564229
v 0.316366 0.074061 -0.591549
v 0.316366 0.023020 -0.591549
v 0.317250 0.074061 -0.768815
v 0.317250 0.023020 -0.768815
v 0.310542 0.074061 -0.804338
v 0.310542 0.023020 -0.804338
v 0.288891 0.074061 -0.827000
v 0.288891 0.023020 -0.827000
v 0.052149 0.074061 -0.514956
v 0.029108 0.023020 -0.598943
v 0.052149 0.023020 -0.514956
v 0.029108 0.074061 -0.598943
v 0.029108 0.023020 -0.784918
v 0.029108 0.074061 -0.784918
v 0.050000 0.023020 -0.852244
v 0.050000 0.074061 -0.852244
v -0.205732 0.023020 -0.564229
v -0.205732 0.074061 -0.564229
v -0.197126 0.074061 -0.591549
v -0.197126 0.023020 -0.591549
v -0.196111 0.074061 -0.768815
v -0.196111 0.023020 -0.768815
v -0.202950 0.074061 -0.804338
v -0.202950 0.023020 -0.804338
v -0.224595 0.074061 -0.827000
v -0.224595 0.023020 -0.827000
v -0.022924 0.074061 -0.598943
v -0.022924 0.074061 -0.784918
v -0.196111 0.074061 -0.768815
v -0.043811 0.074061 -0.852244
v -0.202950 0.074061 -0.804338
v -0.224595 0.074061 -0.827000
v -0.197126 0.074061 -0.591549
v -0.046091 0.074061 -0.514956
v -0.205732 0.074061 -0.564229
v -0.229912 0.074061 -0.543378
v -0.046091 0.074061 -0.514956
v -0.043811 0.074061 -0.852244
v -0.253717 0.074061 -0.835355
v -0.463492 0.074061 -0.852244
v -0.282708 0.074061 -0.827000
v -0.046091 0.074061 -0.514956
v -0.253717 0.074061 -0.537985
v -0.461212 0.074061 -0.514956
v -0.277390 0.074061 -0.543378
v -0.301571 0.074061 -0.564229
v -0.461212 0.074061 -0.514956
v -0.463492 0.074061 -0.852244
v -0.304353 0.074061 -0.804338
v -0.311191 0.074061 -0.768815
v -0.484379 0.074061 -0.784918
v -0.484379 0.074061 -0.598943
v -0.310308 0.074061 -0.591549
v -0.461212 0.074061 -0.514956
v -0.424625 0.074061 -0.465506
v -0.253717 0.074061 -0.537985
v -0.382213 0.074061 -0.434515
v -0.311573 0.074061 -0.413132
v -0.253717 0.074061 -0.409283
v -0.195735 0.074061 -0.413132
v -0.125090 0.074061 -0.434515
v -0.082678 0.074061 -0.465506
v -0.253717 0.074061 -0.835355
v -0.128002 0.074061 -0.937534
v -0.197377 0.074061 -0.958284
v -0.079134 0.074061 -0.902162
v -0.043811 0.074061 -0.852244
v -0.253717 0.074061 -0.962133
v -0.310052 0.074061 -0.958284
v -0.379431 0.074061 -0.937534
v -0.428169 0.074061 -0.902162
v -0.463492 0.074061 -0.852244
v 0.490567 0.074061 -0.598943
v 0.490567 0.074061 -0.784918
v 0.317250 0.074061 -0.768815
v 0.469550 0.074061 -0.852244
v 0.310542 0.074061 -0.804338
v 0.288891 0.074061 -0.827000
v 0.316366 0.074061 -0.591549
v 0.467401 0.074061 -0.514956
v 0.307755 0.074061 -0.564229
v 0.283574 0.074061 -0.543378
v 0.467401 0.074061 -0.514956
v 0.469550 0.074061 -0.852244
v 0.259775 0.074061 -0.835355
v 0.050000 0.074061 -0.852244
v 0.230784 0.074061 -0.827000
v 0.467401 0.074061 -0.514956
v 0.259775 0.074061 -0.537985
v 0.052149 0.074061 -0.514956
v 0.236101 0.074061 -0.543378
v 0.211920 0.074061 -0.564229
v 0.052149 0.074061 -0.514956
v 0.050000 0.074061 -0.852244
v 0.209134 0.074061 -0.804338
v 0.202300 0.074061 -0.768815
v 0.029108 0.074061 -0.784918
v 0.029108 0.074061 -0.598943
v 0.203184 0.074061 -0.591549
v 0.052149 0.074061 -0.514956
v 0.088862 0.074061 -0.465506
v 0.259775 0.074061 -0.537985
v 0.131274 0.074061 -0.434515
v 0.201793 0.074061 -0.413132
v 0.259775 0.074061 -0.409283
v 0.317757 0.074061 -0.413132
v 0.388276 0.074061 -0.434515
v 0.430683 0.074061 -0.465506
v 0.259775 0.074061 -0.835355
v 0.385489 0.074061 -0.937534
v 0.316110 0.074061 -0.958284
v 0.434358 0.074061 -0.902162
v 0.469550 0.074061 -0.852244
v 0.259775 0.074061 -0.962133
v 0.203435 0.074061 -0.958284
v 0.134061 0.074061 -0.937534
v 0.085192 0.074061 -0.902162
v 0.050000 0.074061 -0.852244
v -0.082678 0.074061 -0.465506
v -0.082678 0.023020 -0.465506
v -0.125090 0.074061 -0.434515
v -0.125090 0.023020 -0.434515
v -0.195735 0.074061 -0.413132
v -0.195735 0.023020 -0.413132
v -0.253717 0.074061 -0.409283
v -0.253717 0.023020 -0.409283
v -0.311573 0.023020 -0.413132
v -0.311573 0.074061 -0.413132
v -0.382213 0.023020 -0.434515
v -0.382213 0.074061 -0.434515
v -0.424625 0.023020 -0.465506
v -0.424625 0.074061 -0.465506
v 0.430683 0.074061 -0.465506
v 0.430683 0.023020 -0.465506
v 0.388276 0.074061 -0.434515
v 0.388276 0.023020 -0.434515
v 0.317757 0.074061 -0.413132
v 0.317757 0.023020 -0.413132
v 0.259775 0.074061 -0.409283
v 0.259775 0.023020 -0.409283
v 0.201793 0.023020 -0.413132
v 0.201793 0.074061 -0.413132
v 0.131274 0.023020 -0.434515
v 0.131274 0.074061 -0.434515
v 0.088862 0.023020 -0.465506
v 0.088862 0.074061 -0.465506
v 0.288891 0.074061 -0.827000
v 0.288891 0.023020 -0.827000
v 0.259775 0.074061 -0.835355
v 0.259775 0.023020 -0.835355
v 0.230784 0.023020 -0.827000
v 0.230784 0.074061 -0.827000
v -0.224595 0.074061 -0.827000
v -0.224595 0.023020 -0.827000
v -0.253717 0.074061 -0.835355
v -0.253717 0.023020 -0.835355
v -0.282708 0.023020 -0.827000
v -0.282708 0.074061 -0.827000
vn 0.8976 -0.0000 0.4408
vn 0.8976 -0.0000 0.4409
vn 0.9910 -0.0000 0.1338
vn 0.9910 -0.0000 0.1341
vn 0.9888 -0.0000 -0.1491
vn 0.8976 -0.0000 -0.4409
vn 0.7032 -0.0000 0.7110
vn 0.8975 -0.0000 0.4410
vn 0.8975 -0.0000 0.4409
vn 0.8975 -0.0000 -0.4409
vn 0.7111 -0.0000 -0.7031
vn 0.8975 -0.0000 -0.4410
vn 0.8345 -0.0000 -0.5510
vn 0.9875 -0.0000 -0.1579
vn 0.9955 -0.0000 0.0948
vn 0.5180 -0.0000 0.8554
vn 0.8897 -0.0000 0.4566
vn 0.8896 -0.0000 0.4567
vn 0.9910 -0.0000 0.1337
vn 0.9888 -0.0000 -0.1492
vn 0.8976 -0.0001 -0.4409
vn 0.9874 -0.0000 -0.1580
vn -0.0000 -1.0000 -0.0000
vn -0.0001 -1.0000 -0.0000
vn 0.0002 -1.0000 -0.0000
vn 0.0001 -1.0000 -0.0000
vn -0.0002 -1.0000 -0.0000
vn 0.4409 -0.0000 -0.8976
vn 0.7110 -0.0000 -0.7032
vn 0.1810 -0.0000 -0.9835
vn -0.0000 -0.0000 -1.0000
vn -0.1810 -0.0000 -0.9835
vn -0.4409 -0.0000 -0.8976
vn -0.7110 -0.0000 -0.7032
vn -0.1809 -0.0000 -0.9835
vn -0.4409 -0.0000 -0.8975
vn -0.4504 -0.0000 -0.8928
vn -0.8344 -0.0000 -0.5511
vn -0.0001 -0.0000 -1.0000
vn 0.4506 -0.0000 -0.8927
vn 0.4505 -0.0000 -0.8928
vn 0.8344 -0.0000 -0.5511
vn -0.4505 -0.0000 -0.8928
vn -0.4503 -0.0000 -0.8929
vn -0.8976 -0.0000 0.4409
vn -0.9910 -0.0000 0.1337
vn -0.9910 -0.0000 0.1338
vn -0.9888 -0.0000 -0.1492
vn -0.9888 -0.0000 -0.1491
vn -0.8976 -0.0000 -0.4409
vn -0.7032 -0.0001 0.7110
vn -0.8975 -0.0000 0.4409
vn -0.7032 -0.0000 0.7110
vn -0.8975 -0.0000 0.4410
vn -0.7111 -0.0000 -0.7031
vn -0.8975 -0.0000 -0.4409
vn -0.8975 -0.0001 -0.4409
vn -0.8345 -0.0000 -0.5510
vn -0.9874 -0.0000 -0.1580
vn -0.9955 -0.0000 0.0948
vn -0.8895 -0.0000 0.4569
vn -0.8896 -0.0000 0.4567
vn -0.5180 -0.0000 0.8554
vn -0.8976 -0.0000 0.4408
vn -0.9910 -0.0000 0.1335
vn -0.0000 1.0000 -0.0000
vn 0.0001 1.0000 -0.0000
vn 0.0002 1.0000 -0.0000
vn -0.0001 1.0000 -0.0000
vn -0.0002 1.0000 -0.0000
vn 0.7031 -0.0000 0.7111
vn 0.7031 -0.0001 0.7111
vn 0.4472 -0.0000 0.8945
vn 0.1810 -0.0000 0.9835
vn -0.0001 -0.0000 1.0000
vn -0.1810 -0.0000 0.9835
vn -0.4472 -0.0000 0.8944
vn -0.4471 -0.0000 0.8945
vn -0.7031 0.0001 0.7111
vn -0.7031 -0.0000 0.7111
vn 0.4471 -0.0000 0.8945
vn 0.1809 -0.0000 0.9835
vn -0.0000 -0.0000 1.0000
vn -0.1809 -0.0000 0.9835
vn -0.5179 -0.0000 0.8554
vn 0.5179 -0.0000 0.8554
vn 0.0001 -0.0000 1.0000
vt 0.517686 0.478918
vt 0.517686 0.483918
vt 0.509394 0.483918
vt 0.509394 0.478918
vt 0.491032 0.483918
vt 0.491032 0.478918
vt 0.484383 0.483918
vt 0.484383 0.478918
vt 0.522569 0.478918
vt 0.522569 0.483918
vt 0.479456 0.483918
vt 0.479456 0.478918
vt 0.512822 0.478918
vt 0.512822 0.483918
vt 0.510124 0.478918
vt 0.510124 0.483918
vt 0.492622 0.478918
vt 0.492622 0.483918
vt 0.486877 0.483918
vt 0.486877 0.478918
vt 0.489114 0.483918
vt 0.489114 0.478918
vt 0.503394 0.472851
vt 0.520497 0.489624
vt 0.503394 0.491214
vt 0.505461 0.497862
vt 0.521169 0.493131
vt 0.523306 0.495369
vt 0.520589 0.472121
vt 0.505680 0.464559
vt 0.521446 0.469424
vt 0.523833 0.467365
vt 0.526176 0.496194
vt 0.546891 0.497862
vt 0.529046 0.495369
vt 0.526176 0.466832
vt 0.546672 0.464559
vt 0.528519 0.467365
vt 0.530906 0.469424
vt 0.531183 0.493131
vt 0.531855 0.489624
vt 0.548958 0.491214
vt 0.548958 0.472851
vt 0.531763 0.472121
vt 0.543054 0.459677
vt 0.538867 0.456617
vt 0.531898 0.454506
vt 0.526176 0.454125
vt 0.520454 0.454506
vt 0.513486 0.456617
vt 0.509298 0.459677
vt 0.508942 0.502790
vt 0.513762 0.506283
vt 0.520613 0.508332
vt 0.526176 0.508712
vt 0.531739 0.508332
vt 0.538590 0.506283
vt 0.543410 0.502790
vt 0.452696 0.472851
vt 0.469799 0.489624
vt 0.452696 0.491214
vt 0.454763 0.497862
vt 0.470471 0.493131
vt 0.472608 0.495369
vt 0.469891 0.472121
vt 0.454982 0.464559
vt 0.470748 0.469424
vt 0.473135 0.467365
vt 0.475478 0.496194
vt 0.496193 0.497862
vt 0.478348 0.495369
vt 0.475478 0.466832
vt 0.495974 0.464559
vt 0.477821 0.467365
vt 0.480209 0.469424
vt 0.480485 0.493131
vt 0.481157 0.489624
vt 0.498260 0.491214
vt 0.498260 0.472851
vt 0.481065 0.472121
vt 0.492356 0.459677
vt 0.488169 0.456617
vt 0.481200 0.454506
vt 0.475478 0.454125
vt 0.469756 0.454506
vt 0.462788 0.456617
vt 0.458600 0.459677
vt 0.458244 0.502790
vt 0.463064 0.506283
vt 0.469916 0.508332
vt 0.475478 0.508712
vt 0.481041 0.508332
vt 0.487892 0.506283
vt 0.492712 0.502790
vt 0.487892 0.483918
vt 0.492712 0.478918
vt 0.492712 0.483918
vt 0.487892 0.478918
vt 0.481041 0.483918
vt 0.481041 0.478918
vt 0.475478 0.483918
vt 0.475478 0.478918
vt 0.469916 0.478918
vt 0.469916 0.483918
vt 0.463064 0.478918
vt 0.463064 0.483918
vt 0.458244 0.478918
vt 0.458244 0.483918
vt 0.538590 0.483918
vt 0.543410 0.478918
vt 0.543410 0.483918
vt 0.538590 0.478918
vt 0.531739 0.483918
vt 0.531739 0.478918
vt 0.526176 0.483918
vt 0.526176 0.478918
vt 0.520613 0.478918
vt 0.520613 0.483918
vt 0.513762 0.478918
vt 0.513762 0.483918
vt 0.508942 0.478918
vt 0.508942 0.483918
vt 0.528519 0.483918
vt 0.530906 0.478918
vt 0.530906 0.483918
vt 0.528519 0.478918
vt 0.523833 0.478918
vt 0.523833 0.483918
vt 0.521446 0.478918
vt 0.521446 0.483918
vt 0.477821 0.483918
vt 0.480209 0.478918
vt 0.480209 0.483918
vt 0.477821 0.478918
vt 0.473135 0.478918
vt 0.473135 0.483918
vt 0.470748 0.478918
vt 0.470748 0.483918
vt 0.483968 0.478918
vt 0.492260 0.483918
vt 0.483968 0.483918
vt 0.492260 0.478918
vt 0.510623 0.483918
vt 0.510623 0.478918
vt 0.517271 0.483918
vt 0.517271 0.478918
vt 0.479086 0.478918
vt 0.479086 0.483918
vt 0.522199 0.483918
vt 0.522199 0.478918
vt 0.488833 0.483918
vt 0.488833 0.478918
vt 0.491530 0.478918
vt 0.491530 0.483918
vt 0.509033 0.478918
vt 0.509033 0.483918
vt 0.512540 0.478918
vt 0.512540 0.483918
vt 0.514778 0.478918
vt 0.514778 0.483918
vt 0.509298 0.483918
vt 0.509298 0.478918
vt 0.513486 0.478918
vt 0.513486 0.483918
vt 0.520454 0.478918
vt 0.520454 0.483918
vt 0.531898 0.483918
vt 0.531898 0.478918
vt 0.538867 0.483918
vt 0.538867 0.478918
vt 0.543054 0.483918
vt 0.543054 0.478918
vt 0.458600 0.483918
vt 0.458600 0.478918
vt 0.462788 0.478918
vt 0.462788 0.483918
vt 0.469756 0.478918
vt 0.469756 0.483918
vt 0.481200 0.483918
vt 0.481200 0.478918
vt 0.488169 0.483918
vt 0.488169 0.478918
vt 0.492356 0.483918
vt 0.492356 0.478918
vt 0.472608 0.483918
vt 0.472608 0.478918
vt 0.478348 0.483918
vt 0.478348 0.478918
vt 0.523306 0.483918
vt 0.523306 0.478918
vt 0.529046 0.483918
vt 0.529046 0.478918
s 1
usemtl Meshesszn001Mtl.002
f 1/1/1 2/2/2 3/3/3
f 1/1/1 3/3/3 4/4/4
f 4/4/4 3/3/3 5/5/5
f 4/4/4 5/5/5 6/6/5
f 6/6/5 5/5/5 7/7/6
f 6/6/5 7/7/6 8/8/6
f 9/9/7 10/10/7 11/2/8
f 9/9/7 11/2/8 12/1/9
f 13/9/7 14/10/7 15/2/8
f 13/9/7 15/2/8 16/1/9
f 17/8/10 18/7/10 19/11/11
f 17/8/10 19/11/11 20/12/11
f 21/8/10 22/7/12 23/11/11
f 21/8/10 23/11/11 24/12/11
f 25/13/13 26/14/13 27/15/14
f 28/16/14 27/15/14 26/14/13
f 27/15/14 28/16/14 30/17/15
f 28/16/14 32/18/15 30/17/15
f 29/19/16 31/20/16 33/21/17
f 30/17/15 32/18/15 34/22/18
f 34/22/18 33/21/17 31/20/16
f 33/21/17 34/22/18 32/18/15
f 35/1/2 36/2/2 37/3/19
f 35/1/2 37/3/19 38/4/3
f 38/4/3 37/3/19 39/5/20
f 38/4/3 39/5/20 40/6/5
f 40/6/5 39/5/20 41/7/6
f 40/6/5 41/7/6 42/8/21
f 43/13/13 44/14/13 45/15/22
f 46/16/14 45/15/22 44/14/13
f 45/15/22 46/16/14 48/17/15
f 46/16/14 50/18/15 48/17/15
f 47/19/16 49/20/16 51/21/17
f 48/17/15 50/18/15 52/22/18
f 52/22/18 51/21/17 49/20/16
f 51/21/17 52/22/18 50/18/15
f 53/23/23 54/24/23 55/25/23
f 54/24/23 56/26/23 55/25/23
f 56/26/23 54/24/23 57/27/23
f 58/28/23 56/26/23 57/27/23
f 53/23/23 59/29/24 54/24/23
f 60/30/23 59/29/24 53/23/23
f 59/29/24 60/30/23 61/31/25
f 61/31/26 62/30/26 63/32/26
f 64/26/26 58/28/26 65/33/26
f 66/34/24 65/33/24 67/35/24
f 68/30/24 69/36/24 63/32/24
f 70/37/26 71/38/26 69/36/26
f 72/39/24 71/38/24 73/37/24
f 67/35/23 74/40/23 75/34/23
f 76/41/23 75/34/23 74/40/23
f 75/34/23 76/41/23 77/42/23
f 78/43/23 77/42/23 76/41/23
f 78/43/23 76/41/23 79/44/23
f 80/37/23 79/44/23 72/39/26
f 79/44/23 80/37/23 78/43/23
f 70/37/23 81/36/23 82/45/23
f 81/36/23 83/46/26 82/45/23
f 83/46/26 81/36/23 84/47/24
f 84/47/24 81/36/23 85/48/23
f 86/49/26 85/48/23 81/36/23
f 81/36/23 87/50/24 86/49/26
f 87/50/24 81/36/23 88/51/23
f 88/51/23 81/36/23 68/30/23
f 89/33/23 90/52/23 91/26/26
f 90/52/23 89/33/23 92/53/23
f 92/53/23 89/33/23 93/54/23
f 93/54/23 89/33/23 94/55/23
f 95/56/23 94/55/23 89/33/23
f 89/33/23 96/57/23 95/56/23
f 96/57/23 89/33/23 97/58/23
f 97/58/23 89/33/23 98/34/23
f 99/59/23 100/60/23 101/61/23
f 100/60/23 102/62/23 101/61/23
f 102/62/23 100/60/23 103/63/23
f 104/64/23 102/62/23 103/63/23
f 99/59/23 105/65/24 100/60/23
f 106/66/23 105/65/24 99/59/23
f 105/65/24 106/66/23 107/67/27
f 107/67/26 108/66/26 109/68/26
f 110/62/26 104/64/26 111/69/26
f 112/70/24 111/69/24 113/71/24
f 114/66/24 115/72/24 109/68/24
f 116/73/26 117/74/26 115/72/26
f 118/75/24 117/74/24 119/73/24
f 113/71/23 120/76/23 121/70/23
f 122/77/23 121/70/23 120/76/23
f 121/70/23 122/77/23 123/78/23
f 124/79/23 123/78/23 122/77/23
f 124/79/23 122/77/23 125/80/23
f 126/73/23 125/80/23 118/75/26
f 125/80/23 126/73/23 124/79/23
f 116/73/23 127/72/23 128/81/23
f 127/72/23 129/82/26 128/81/23
f 129/82/26 127/72/23 130/83/24
f 130/83/24 127/72/23 131/84/23
f 132/85/26 131/84/23 127/72/23
f 127/72/23 133/86/24 132/85/26
f 133/86/24 127/72/23 134/87/23
f 134/87/23 127/72/23 114/66/23
f 135/69/23 136/88/23 137/62/26
f 136/88/23 135/69/23 138/89/23
f 138/89/23 135/69/23 139/90/23
f 139/90/23 135/69/23 140/91/23
f 141/92/23 140/91/23 135/69/23
f 135/69/23 142/93/23 141/92/23
f 142/93/23 135/69/23 143/94/23
f 143/94/23 135/69/23 144/70/23
f 147/95/28 146/96/29 145/97/29
f 146/96/29 147/95/28 148/98/28
f 149/99/30 148/98/28 147/95/28
f 148/98/28 149/99/30 150/100/30
f 151/101/31 150/100/30 149/99/30
f 150/100/30 151/101/31 152/102/31
f 152/102/31 151/101/31 153/103/32
f 153/103/32 151/101/31 154/104/32
f 153/103/32 154/104/32 155/105/33
f 155/105/33 154/104/32 156/106/33
f 155/105/33 156/106/33 157/107/34
f 157/107/34 156/106/33 158/108/34
f 161/109/28 160/110/29 159/111/29
f 160/110/29 161/109/28 162/112/28
f 163/113/30 162/112/28 161/109/28
f 162/112/28 163/113/30 164/114/30
f 165/115/31 164/114/30 163/113/30
f 164/114/30 165/115/31 166/116/31
f 166/116/31 165/115/31 167/117/35
f 167/117/35 165/115/31 168/118/35
f 167/117/35 168/118/35 169/119/36
f 169/119/36 168/118/35 170/120/33
f 169/119/36 170/120/33 171/121/34
f 171/121/34 170/120/33 172/122/34
f 175/123/37 174/124/38 173/125/38
f 174/124/38 175/123/37 176/126/37
f 177/115/31 176/126/37 175/123/37
f 176/126/37 177/115/31 178/116/39
f 178/116/39 177/115/31 179/127/40
f 179/127/40 177/115/31 180/128/41
f 179/127/40 180/128/41 181/129/42
f 181/129/42 180/128/41 182/130/42
f 185/131/43 184/132/38 183/133/38
f 184/132/38 185/131/43 186/134/44
f 187/101/39 186/134/44 185/131/43
f 186/134/44 187/101/39 188/102/31
f 188/102/31 187/101/39 189/135/41
f 189/135/41 187/101/39 190/136/41
f 189/135/41 190/136/41 191/137/42
f 191/137/42 190/136/41 192/138/42
f 193/139/45 194/140/46 195/141/45
f 194/140/46 193/139/45 196/142/47
f 196/142/47 197/143/48 194/140/46
f 197/143/48 196/142/47 198/144/49
f 198/144/49 199/145/50 197/143/48
f 199/145/50 198/144/49 200/146/50
f 202/147/51 203/141/52 201/148/53
f 203/141/52 202/147/51 204/139/52
f 206/147/53 207/141/54 205/148/53
f 207/141/54 206/147/53 208/139/52
f 210/149/55 211/146/56 209/150/55
f 211/146/56 210/149/55 212/145/56
f 214/149/55 215/146/57 213/150/55
f 215/146/57 214/149/55 216/145/56
f 217/151/58 218/152/58 219/153/59
f 217/151/58 219/153/59 220/154/59
f 219/153/59 221/155/60 220/154/59
f 220/154/59 221/155/60 222/156/60
f 223/157/61 222/156/60 221/155/60
f 222/156/60 223/157/61 224/158/62
f 225/159/63 224/158/62 223/157/61
f 224/158/62 225/159/63 226/160/63
f 227/139/45 228/140/47 229/141/64
f 228/140/47 227/139/45 230/142/65
f 230/142/65 231/143/48 228/140/47
f 231/143/48 230/142/65 232/144/48
f 232/144/48 233/145/50 231/143/48
f 233/145/50 232/144/48 234/146/50
f 235/151/58 236/152/58 237/153/59
f 235/151/58 237/153/59 238/154/59
f 237/153/59 239/155/60 238/154/59
f 238/154/59 239/155/60 240/156/60
f 241/157/62 240/156/60 239/155/60
f 240/156/60 241/157/62 242/158/62
f 243/159/63 242/158/62 241/157/62
f 242/158/62 243/159/63 244/160/63
f 245/79/66 246/78/66 247/77/66
f 248/70/66 247/77/66 246/78/66
f 247/77/66 248/70/66 249/76/67
f 250/71/66 249/76/67 248/70/66
f 245/79/66 247/77/66 251/80/67
f 251/80/67 252/73/66 245/79/66
f 252/73/66 251/80/67 253/75/68
f 253/75/69 254/74/69 255/73/69
f 256/70/66 257/69/66 250/71/66
f 258/62/66 259/64/66 257/69/66
f 260/73/68 254/74/68 261/72/68
f 262/66/70 261/72/70 263/68/70
f 264/67/67 265/66/67 263/68/67
f 259/64/66 266/62/66 267/63/69
f 266/62/66 268/60/66 267/63/69
f 268/60/66 266/62/66 269/61/66
f 270/59/66 268/60/66 269/61/66
f 270/59/66 271/65/69 268/60/66
f 271/65/69 272/66/66 264/67/70
f 272/66/66 271/65/69 270/59/66
f 273/87/66 274/72/66 262/66/66
f 275/86/66 274/72/66 273/87/66
f 274/72/66 275/86/66 276/85/67
f 276/85/67 277/84/66 274/72/66
f 278/83/69 274/72/66 277/84/66
f 279/82/66 274/72/66 278/83/69
f 274/72/66 279/82/66 280/81/66
f 260/73/66 274/72/66 280/81/66
f 281/69/66 282/93/66 283/92/66
f 282/93/66 281/69/66 284/94/66
f 284/94/66 281/69/66 285/70/66
f 283/92/66 286/91/66 281/69/66
f 287/90/66 281/69/66 286/91/66
f 288/89/66 281/69/66 287/90/66
f 289/88/66 281/69/66 288/89/66
f 281/69/66 289/88/66 290/62/66
f 291/43/66 292/42/66 293/41/66
f 294/34/66 293/41/66 292/42/66
f 293/41/66 294/34/66 295/40/67
f 296/35/66 295/40/67 294/34/66
f 291/43/66 293/41/66 297/44/67
f 297/44/67 298/37/66 291/43/66
f 298/37/66 297/44/67 299/39/70
f 299/39/69 300/38/69 301/37/69
f 302/34/66 303/33/66 296/35/66
f 304/26/66 305/28/66 303/33/66
f 306/37/68 300/38/68 307/36/68
f 308/30/70 307/36/70 309/32/70
f 310/31/67 311/30/67 309/32/67
f 305/28/66 312/26/66 313/27/69
f 312/26/66 314/24/66 313/27/69
f 314/24/66 312/26/66 315/25/66
f 316/23/66 314/24/66 315/25/66
f 316/23/66 317/29/69 314/24/66
f 317/29/69 318/30/66 310/31/68
f 318/30/66 317/29/69 316/23/66
f 319/51/66 320/36/66 308/30/66
f 321/50/66 320/36/66 319/51/66
f 320/36/66 321/50/66 322/49/67
f 322/49/67 323/48/66 320/36/66
f 324/47/69 320/36/66 323/48/66
f 325/46/66 320/36/66 324/47/69
f 320/36/66 325/46/66 326/45/66
f 306/37/66 320/36/66 326/45/66
f 327/33/66 328/57/66 329/56/66
f 328/57/66 327/33/66 330/58/66
f 330/58/66 327/33/66 331/34/66
f 329/56/66 332/55/66 327/33/66
f 333/54/66 327/33/66 332/55/66
f 334/53/66 327/33/66 333/54/66
f 335/52/66 327/33/66 334/53/66
f 327/33/66 335/52/66 336/26/66
f 338/161/71 337/162/72 339/163/73
f 339/163/73 340/164/73 338/161/71
f 340/164/73 339/163/73 341/165/74
f 341/165/74 342/166/74 340/164/73
f 342/166/74 341/165/74 343/116/75
f 343/116/75 344/115/75 342/166/74
f 343/116/75 345/167/76 344/115/75
f 345/167/76 343/116/75 346/168/76
f 345/167/76 346/168/76 347/169/77
f 347/169/77 346/168/76 348/170/78
f 347/169/77 348/170/78 349/171/79
f 349/171/79 348/170/78 350/172/80
f 352/173/71 351/174/71 353/175/81
f 353/175/81 354/176/73 352/173/71
f 354/176/73 353/175/81 355/177/82
f 355/177/82 356/178/74 354/176/73
f 356/178/74 355/177/82 357/102/83
f 357/102/83 358/101/83 356/178/74
f 357/102/83 359/179/84 358/101/83
f 359/179/84 357/102/83 360/180/84
f 359/179/84 360/180/84 361/181/78
f 361/181/78 360/180/84 362/182/77
f 361/181/78 362/182/77 363/183/80
f 363/183/80 362/182/77 364/184/80
f 366/185/85 365/186/85 367/102/83
f 367/102/83 368/101/83 366/185/85
f 368/101/83 367/102/83 369/187/86
f 369/187/86 367/102/83 370/188/86
f 372/189/85 371/190/85 373/116/83
f 373/116/83 374/115/87 372/189/85
f 374/115/87 373/116/83 375/191/86
f 375/191/86 373/116/83 376/192/86
