# Blender 5.1.1
# www.blender.org
mtllib numberpournirra.mtl
o number
v 0.467401 0.074061 0.048669
v 0.467401 0.023020 0.048669
v 0.490567 0.023020 -0.035318
v 0.490567 0.074061 -0.035318
v 0.490567 0.023020 -0.221294
v 0.490567 0.074061 -0.221294
v 0.469550 0.023020 -0.288620
v 0.469550 0.074061 -0.288620
v -0.082678 0.074061 0.098119
v -0.082678 0.023020 0.098119
v -0.046091 0.023020 0.048669
v -0.046091 0.074061 0.048669
v 0.430683 0.074061 0.098119
v 0.430683 0.023020 0.098119
v 0.467401 0.023020 0.048669
v 0.467401 0.074061 0.048669
v -0.043811 0.074061 -0.288620
v -0.043811 0.023020 -0.288620
v -0.079134 0.023020 -0.338538
v -0.079134 0.074061 -0.338538
v 0.469550 0.074061 -0.288620
v 0.469550 0.023020 -0.288620
v 0.434358 0.023020 -0.338538
v 0.434358 0.074061 -0.338538
v 0.211920 0.074061 -0.000605
v 0.211920 0.023020 -0.000605
v 0.203184 0.074061 -0.027924
v 0.203184 0.023020 -0.027924
v 0.230784 0.023020 -0.263376
v 0.202300 0.074061 -0.205190
v 0.230784 0.074061 -0.263376
v 0.202300 0.023020 -0.205190
v 0.209134 0.023020 -0.240713
v 0.209134 0.074061 -0.240713
v -0.046091 0.074061 0.048669
v -0.046091 0.023020 0.048669
v -0.022924 0.023020 -0.035318
v -0.022924 0.074061 -0.035318
v -0.022924 0.023020 -0.221294
v -0.022924 0.074061 -0.221294
v -0.043811 0.023020 -0.288620
v -0.043811 0.074061 -0.288620
v -0.301571 0.074061 -0.000605
v -0.301571 0.023020 -0.000605
v -0.310308 0.074061 -0.027924
v -0.310308 0.023020 -0.027924
v -0.282708 0.023020 -0.263376
v -0.311191 0.074061 -0.205190
v -0.282708 0.074061 -0.263376
v -0.311191 0.023020 -0.205190
v -0.304353 0.023020 -0.240713
v -0.304353 0.074061 -0.240713
v -0.022924 0.023020 -0.035318
v -0.196111 0.023020 -0.205190
v -0.022924 0.023020 -0.221294
v -0.043811 0.023020 -0.288620
v -0.202950 0.023020 -0.240713
v -0.224595 0.023020 -0.263376
v -0.197126 0.023020 -0.027924
v -0.046091 0.023020 0.048669
v -0.205732 0.023020 -0.000605
v -0.046091 0.023020 0.048669
v -0.229912 0.023020 0.020247
v -0.043811 0.023020 -0.288620
v -0.253717 0.023020 -0.271730
v -0.463492 0.023020 -0.288620
v -0.282708 0.023020 -0.263376
v -0.046091 0.023020 0.048669
v -0.253717 0.023020 0.025639
v -0.461212 0.023020 0.048669
v -0.277390 0.023020 0.020247
v -0.301571 0.023020 -0.000605
v -0.461212 0.023020 0.048669
v -0.304353 0.023020 -0.240713
v -0.463492 0.023020 -0.288620
v -0.311191 0.023020 -0.205190
v -0.484379 0.023020 -0.221294
v -0.484379 0.023020 -0.035318
v -0.310308 0.023020 -0.027924
v -0.461212 0.023020 0.048669
v -0.253717 0.023020 0.025639
v -0.424625 0.023020 0.098119
v -0.382213 0.023020 0.129110
v -0.311573 0.023020 0.150492
v -0.253717 0.023020 0.154341
v -0.195735 0.023020 0.150492
v -0.125090 0.023020 0.129110
v -0.082678 0.023020 0.098119
v -0.253717 0.023020 -0.271730
v -0.079134 0.023020 -0.338538
v -0.043811 0.023020 -0.288620
v -0.128002 0.023020 -0.373909
v -0.197377 0.023020 -0.394660
v -0.253717 0.023020 -0.398508
v -0.310052 0.023020 -0.394660
v -0.379431 0.023020 -0.373909
v -0.428169 0.023020 -0.338538
v -0.463492 0.023020 -0.288620
v 0.490567 0.023020 -0.035318
v 0.317250 0.023020 -0.205190
v 0.490567 0.023020 -0.221294
v 0.469550 0.023020 -0.288620
v 0.310542 0.023020 -0.240713
v 0.288891 0.023020 -0.263376
v 0.316366 0.023020 -0.027924
v 0.467401 0.023020 0.048669
v 0.307755 0.023020 -0.000605
v 0.467401 0.023020 0.048669
v 0.283574 0.023020 0.020247
v 0.469550 0.023020 -0.288620
v 0.259775 0.023020 -0.271730
v 0.050000 0.023020 -0.288620
v 0.230784 0.023020 -0.263376
v 0.467401 0.023020 0.048669
v 0.259775 0.023020 0.025639
v 0.052149 0.023020 0.048669
v 0.236101 0.023020 0.020247
v 0.211920 0.023020 -0.000605
v 0.052149 0.023020 0.048669
v 0.209134 0.023020 -0.240713
v 0.050000 0.023020 -0.288620
v 0.202300 0.023020 -0.205190
v 0.029108 0.023020 -0.221294
v 0.029108 0.023020 -0.035318
v 0.203184 0.023020 -0.027924
v 0.052149 0.023020 0.048669
v 0.259775 0.023020 0.025639
v 0.088862 0.023020 0.098119
v 0.131274 0.023020 0.129110
v 0.201793 0.023020 0.150492
v 0.259775 0.023020 0.154341
v 0.317757 0.023020 0.150492
v 0.388276 0.023020 0.129110
v 0.430683 0.023020 0.098119
v 0.259775 0.023020 -0.271730
v 0.434358 0.023020 -0.338538
v 0.469550 0.023020 -0.288620
v 0.385489 0.023020 -0.373909
v 0.316110 0.023020 -0.394660
v 0.259775 0.023020 -0.398508
v 0.203435 0.023020 -0.394660
v 0.134061 0.023020 -0.373909
v 0.085192 0.023020 -0.338538
v 0.050000 0.023020 -0.288620
v -0.079134 0.023020 -0.338538
v -0.079134 0.074061 -0.338538
v -0.128002 0.023020 -0.373909
v -0.128002 0.074061 -0.373909
v -0.197377 0.023020 -0.394660
v -0.197377 0.074061 -0.394660
v -0.253717 0.023020 -0.398508
v -0.253717 0.074061 -0.398508
v -0.310052 0.074061 -0.394660
v -0.310052 0.023020 -0.394660
v -0.379431 0.074061 -0.373909
v -0.379431 0.023020 -0.373909
v -0.428169 0.074061 -0.338538
v -0.428169 0.023020 -0.338538
v 0.434358 0.023020 -0.338538
v 0.434358 0.074061 -0.338538
v 0.385489 0.023020 -0.373909
v 0.385489 0.074061 -0.373909
v 0.316110 0.023020 -0.394660
v 0.316110 0.074061 -0.394660
v 0.259775 0.023020 -0.398508
v 0.259775 0.074061 -0.398508
v 0.203435 0.074061 -0.394660
v 0.203435 0.023020 -0.394660
v 0.134061 0.074061 -0.373909
v 0.134061 0.023020 -0.373909
v 0.085192 0.074061 -0.338538
v 0.085192 0.023020 -0.338538
v 0.307755 0.023020 -0.000605
v 0.307755 0.074061 -0.000605
v 0.283574 0.023020 0.020247
v 0.283574 0.074061 0.020247
v 0.259775 0.023020 0.025639
v 0.259775 0.074061 0.025639
v 0.236101 0.074061 0.020247
v 0.236101 0.023020 0.020247
v 0.211920 0.074061 -0.000605
v 0.211920 0.023020 -0.000605
v -0.205732 0.023020 -0.000605
v -0.205732 0.074061 -0.000605
v -0.229912 0.023020 0.020247
v -0.229912 0.074061 0.020247
v -0.253717 0.023020 0.025639
v -0.253717 0.074061 0.025639
v -0.277390 0.074061 0.020247
v -0.277390 0.023020 0.020247
v -0.301571 0.074061 -0.000605
v -0.301571 0.023020 -0.000605
v -0.461212 0.074061 0.048669
v -0.484379 0.023020 -0.035318
v -0.461212 0.023020 0.048669
v -0.484379 0.074061 -0.035318
v -0.484379 0.023020 -0.221294
v -0.484379 0.074061 -0.221294
v -0.463492 0.023020 -0.288620
v -0.463492 0.074061 -0.288620
v -0.424625 0.023020 0.098119
v -0.424625 0.074061 0.098119
v -0.461212 0.023020 0.048669
v -0.461212 0.074061 0.048669
v 0.088862 0.023020 0.098119
v 0.088862 0.074061 0.098119
v 0.052149 0.023020 0.048669
v 0.052149 0.074061 0.048669
v -0.428169 0.074061 -0.338538
v -0.428169 0.023020 -0.338538
v -0.463492 0.074061 -0.288620
v -0.463492 0.023020 -0.288620
v 0.085192 0.074061 -0.338538
v 0.085192 0.023020 -0.338538
v 0.050000 0.074061 -0.288620
v 0.050000 0.023020 -0.288620
v 0.307755 0.023020 -0.000605
v 0.307755 0.074061 -0.000605
v 0.316366 0.074061 -0.027924
v 0.316366 0.023020 -0.027924
v 0.317250 0.074061 -0.205190
v 0.317250 0.023020 -0.205190
v 0.310542 0.074061 -0.240713
v 0.310542 0.023020 -0.240713
v 0.288891 0.074061 -0.263376
v 0.288891 0.023020 -0.263376
v 0.052149 0.074061 0.048669
v 0.029108 0.023020 -0.035318
v 0.052149 0.023020 0.048669
v 0.029108 0.074061 -0.035318
v 0.029108 0.023020 -0.221294
v 0.029108 0.074061 -0.221294
v 0.050000 0.023020 -0.288620
v 0.050000 0.074061 -0.288620
v -0.205732 0.023020 -0.000605
v -0.205732 0.074061 -0.000605
v -0.197126 0.074061 -0.027924
v -0.197126 0.023020 -0.027924
v -0.196111 0.074061 -0.205190
v -0.196111 0.023020 -0.205190
v -0.202950 0.074061 -0.240713
v -0.202950 0.023020 -0.240713
v -0.224595 0.074061 -0.263376
v -0.224595 0.023020 -0.263376
v -0.022924 0.074061 -0.035318
v -0.022924 0.074061 -0.221294
v -0.196111 0.074061 -0.205190
v -0.043811 0.074061 -0.288620
v -0.202950 0.074061 -0.240713
v -0.224595 0.074061 -0.263376
v -0.197126 0.074061 -0.027924
v -0.046091 0.074061 0.048669
v -0.205732 0.074061 -0.000605
v -0.229912 0.074061 0.020247
v -0.046091 0.074061 0.048669
v -0.043811 0.074061 -0.288620
v -0.253717 0.074061 -0.271730
v -0.463492 0.074061 -0.288620
v -0.282708 0.074061 -0.263376
v -0.046091 0.074061 0.048669
v -0.253717 0.074061 0.025639
v -0.461212 0.074061 0.048669
v -0.277390 0.074061 0.020247
v -0.301571 0.074061 -0.000605
v -0.461212 0.074061 0.048669
v -0.463492 0.074061 -0.288620
v -0.304353 0.074061 -0.240713
v -0.311191 0.074061 -0.205190
v -0.484379 0.074061 -0.221294
v -0.484379 0.074061 -0.035318
v -0.310308 0.074061 -0.027924
v -0.461212 0.074061 0.048669
v -0.424625 0.074061 0.098119
v -0.253717 0.074061 0.025639
v -0.382213 0.074061 0.129110
v -0.311573 0.074061 0.150492
v -0.253717 0.074061 0.154341
v -0.195735 0.074061 0.150492
v -0.125090 0.074061 0.129110
v -0.082678 0.074061 0.098119
v -0.253717 0.074061 -0.271730
v -0.128002 0.074061 -0.373909
v -0.197377 0.074061 -0.394660
v -0.079134 0.074061 -0.338538
v -0.043811 0.074061 -0.288620
v -0.253717 0.074061 -0.398508
v -0.310052 0.074061 -0.394660
v -0.379431 0.074061 -0.373909
v -0.428169 0.074061 -0.338538
v -0.463492 0.074061 -0.288620
v 0.490567 0.074061 -0.035318
v 0.490567 0.074061 -0.221294
v 0.317250 0.074061 -0.205190
v 0.469550 0.074061 -0.288620
v 0.310542 0.074061 -0.240713
v 0.288891 0.074061 -0.263376
v 0.316366 0.074061 -0.027924
v 0.467401 0.074061 0.048669
v 0.307755 0.074061 -0.000605
v 0.283574 0.074061 0.020247
v 0.467401 0.074061 0.048669
v 0.469550 0.074061 -0.288620
v 0.259775 0.074061 -0.271730
v 0.050000 0.074061 -0.288620
v 0.230784 0.074061 -0.263376
v 0.467401 0.074061 0.048669
v 0.259775 0.074061 0.025639
v 0.052149 0.074061 0.048669
v 0.236101 0.074061 0.020247
v 0.211920 0.074061 -0.000605
v 0.052149 0.074061 0.048669
v 0.050000 0.074061 -0.288620
v 0.209134 0.074061 -0.240713
v 0.202300 0.074061 -0.205190
v 0.029108 0.074061 -0.221294
v 0.029108 0.074061 -0.035318
v 0.203184 0.074061 -0.027924
v 0.052149 0.074061 0.048669
v 0.088862 0.074061 0.098119
v 0.259775 0.074061 0.025639
v 0.131274 0.074061 0.129110
v 0.201793 0.074061 0.150492
v 0.259775 0.074061 0.154341
v 0.317757 0.074061 0.150492
v 0.388276 0.074061 0.129110
v 0.430683 0.074061 0.098119
v 0.259775 0.074061 -0.271730
v 0.385489 0.074061 -0.373909
v 0.316110 0.074061 -0.394660
v 0.434358 0.074061 -0.338538
v 0.469550 0.074061 -0.288620
v 0.259775 0.074061 -0.398508
v 0.203435 0.074061 -0.394660
v 0.134061 0.074061 -0.373909
v 0.085192 0.074061 -0.338538
v 0.050000 0.074061 -0.288620
v -0.082678 0.074061 0.098119
v -0.082678 0.023020 0.098119
v -0.125090 0.074061 0.129110
v -0.125090 0.023020 0.129110
v -0.195735 0.074061 0.150492
v -0.195735 0.023020 0.150492
v -0.253717 0.074061 0.154341
v -0.253717 0.023020 0.154341
v -0.311573 0.023020 0.150492
v -0.311573 0.074061 0.150492
v -0.382213 0.023020 0.129110
v -0.382213 0.074061 0.129110
v -0.424625 0.023020 0.098119
v -0.424625 0.074061 0.098119
v 0.430683 0.074061 0.098119
v 0.430683 0.023020 0.098119
v 0.388276 0.074061 0.129110
v 0.388276 0.023020 0.129110
v 0.317757 0.074061 0.150492
v 0.317757 0.023020 0.150492
v 0.259775 0.074061 0.154341
v 0.259775 0.023020 0.154341
v 0.201793 0.023020 0.150492
v 0.201793 0.074061 0.150492
v 0.131274 0.023020 0.129110
v 0.131274 0.074061 0.129110
v 0.088862 0.023020 0.098119
v 0.088862 0.074061 0.098119
v 0.288891 0.074061 -0.263376
v 0.288891 0.023020 -0.263376
v 0.259775 0.074061 -0.271730
v 0.259775 0.023020 -0.271730
v 0.230784 0.023020 -0.263376
v 0.230784 0.074061 -0.263376
v -0.224595 0.074061 -0.263376
v -0.224595 0.023020 -0.263376
v -0.253717 0.074061 -0.271730
v -0.253717 0.023020 -0.271730
v -0.282708 0.023020 -0.263376
v -0.282708 0.074061 -0.263376
vn 0.8976 -0.0000 0.4407
vn 0.8976 -0.0000 0.4408
vn 0.9910 -0.0000 0.1342
vn 0.9888 -0.0000 -0.1491
vn 0.8976 -0.0000 -0.4409
vn 0.7032 -0.0000 0.7110
vn 0.8975 -0.0000 0.4410
vn 0.8975 -0.0000 0.4409
vn 0.8975 -0.0000 0.4411
vn 0.8975 -0.0000 -0.4410
vn 0.8975 0.0001 -0.4410
vn 0.7111 -0.0000 -0.7031
vn 0.8975 -0.0000 -0.4409
vn 0.8345 -0.0000 -0.5510
vn 0.9875 -0.0000 -0.1579
vn 0.9955 -0.0000 0.0948
vn 0.9955 -0.0000 0.0947
vn 0.5180 -0.0000 0.8554
vn 0.8897 -0.0000 0.4566
vn 0.8896 -0.0000 0.4567
vn 0.9910 -0.0000 0.1338
vn 0.9888 -0.0000 -0.1492
vn 0.8976 -0.0000 -0.4408
vn 0.8976 -0.0001 -0.4408
vn 0.9874 -0.0000 -0.1580
vn -0.0000 -1.0000 -0.0000
vn 0.4409 -0.0000 -0.8975
vn 0.7110 -0.0000 -0.7032
vn 0.1810 -0.0000 -0.9835
vn -0.0000 -0.0000 -1.0000
vn -0.1810 -0.0000 -0.9835
vn -0.4409 -0.0000 -0.8976
vn -0.7110 -0.0000 -0.7032
vn 0.4409 -0.0000 -0.8976
vn -0.1809 -0.0000 -0.9835
vn -0.4410 -0.0000 -0.8975
vn -0.4409 -0.0000 -0.8975
vn -0.4504 -0.0000 -0.8928
vn -0.8344 -0.0000 -0.5512
vn -0.0001 -0.0000 -1.0000
vn 0.4509 -0.0000 -0.8926
vn 0.4506 -0.0000 -0.8927
vn 0.8344 -0.0000 -0.5512
vn -0.8344 -0.0000 -0.5511
vn -0.0002 -0.0000 -1.0000
vn 0.4505 -0.0000 -0.8928
vn -0.8976 -0.0000 0.4408
vn -0.9910 -0.0000 0.1338
vn -0.9910 -0.0000 0.1342
vn -0.9888 -0.0000 -0.1493
vn -0.9888 -0.0000 -0.1491
vn -0.8976 -0.0000 -0.4408
vn -0.7032 -0.0001 0.7110
vn -0.8975 0.0001 0.4409
vn -0.7032 -0.0000 0.7110
vn -0.8975 -0.0000 0.4409
vn -0.8975 -0.0000 0.4410
vn -0.7111 -0.0000 -0.7031
vn -0.8975 -0.0000 -0.4410
vn -0.8975 -0.0001 -0.4409
vn -0.8975 -0.0000 -0.4409
vn -0.8345 -0.0000 -0.5510
vn -0.9874 -0.0000 -0.1580
vn -0.9955 -0.0000 0.0948
vn -0.8895 -0.0000 0.4570
vn -0.8897 -0.0000 0.4565
vn -0.5180 -0.0000 0.8554
vn -0.9911 -0.0000 0.1335
vn -0.8345 -0.0000 -0.5509
vn -0.9955 -0.0000 0.0947
vn -0.8896 -0.0000 0.4567
vn -0.0000 1.0000 -0.0000
vn -0.0003 1.0000 -0.0000
vn 0.7031 -0.0000 0.7111
vn 0.7031 -0.0001 0.7111
vn 0.4472 -0.0000 0.8944
vn 0.4471 -0.0000 0.8945
vn 0.1810 -0.0000 0.9835
vn -0.0001 -0.0000 1.0000
vn -0.1810 -0.0000 0.9835
vn -0.4472 -0.0000 0.8944
vn -0.4470 -0.0000 0.8945
vn -0.7031 0.0001 0.7111
vn -0.7031 -0.0000 0.7111
vn 0.4470 -0.0000 0.8945
vn 0.4472 -0.0000 0.8945
vn 0.1809 -0.0000 0.9835
vn -0.0000 -0.0000 1.0000
vn -0.1809 -0.0000 0.9835
vn -0.4471 -0.0000 0.8945
vn -0.5179 -0.0000 0.8555
vn 0.5179 -0.0000 0.8554
vn -0.5179 -0.0000 0.8554
vn 0.0001 -0.0000 1.0000
vt 0.517686 0.478918
vt 0.517686 0.483918
vt 0.509394 0.483918
vt 0.509394 0.478918
vt 0.491032 0.483918
vt 0.491032 0.478918
vt 0.484383 0.483918
vt 0.484383 0.478918
vt 0.522569 0.478918
vt 0.522569 0.483918
vt 0.479456 0.483918
vt 0.479456 0.478918
vt 0.512822 0.478918
vt 0.512822 0.483918
vt 0.510124 0.478918
vt 0.510124 0.483918
vt 0.492622 0.478918
vt 0.492622 0.483918
vt 0.486877 0.483918
vt 0.486877 0.478918
vt 0.489114 0.483918
vt 0.489114 0.478918
vt 0.503394 0.472851
vt 0.520497 0.489624
vt 0.503394 0.491214
vt 0.505461 0.497862
vt 0.521169 0.493131
vt 0.523306 0.495369
vt 0.520589 0.472121
vt 0.505680 0.464559
vt 0.521446 0.469424
vt 0.523833 0.467365
vt 0.526176 0.496194
vt 0.546891 0.497862
vt 0.529046 0.495369
vt 0.526176 0.466832
vt 0.546672 0.464559
vt 0.528519 0.467365
vt 0.530906 0.469424
vt 0.531183 0.493131
vt 0.531855 0.489624
vt 0.548958 0.491214
vt 0.548958 0.472851
vt 0.531763 0.472121
vt 0.543054 0.459677
vt 0.538867 0.456617
vt 0.531898 0.454506
vt 0.526176 0.454125
vt 0.520454 0.454506
vt 0.513486 0.456617
vt 0.509298 0.459677
vt 0.508942 0.502790
vt 0.513762 0.506283
vt 0.520613 0.508332
vt 0.526176 0.508712
vt 0.531739 0.508332
vt 0.538590 0.506283
vt 0.543410 0.502790
vt 0.452696 0.472851
vt 0.469799 0.489624
vt 0.452696 0.491214
vt 0.454763 0.497862
vt 0.470471 0.493131
vt 0.472608 0.495369
vt 0.469891 0.472121
vt 0.454982 0.464559
vt 0.470748 0.469424
vt 0.473135 0.467365
vt 0.475478 0.496194
vt 0.496193 0.497862
vt 0.478348 0.495369
vt 0.475478 0.466832
vt 0.495974 0.464559
vt 0.477821 0.467365
vt 0.480209 0.469424
vt 0.480485 0.493131
vt 0.481157 0.489624
vt 0.498260 0.491214
vt 0.498260 0.472851
vt 0.481065 0.472121
vt 0.492356 0.459677
vt 0.488169 0.456617
vt 0.481200 0.454506
vt 0.475478 0.454125
vt 0.469756 0.454506
vt 0.462788 0.456617
vt 0.458600 0.459677
vt 0.458244 0.502790
vt 0.463064 0.506283
vt 0.469916 0.508332
vt 0.475478 0.508712
vt 0.481041 0.508332
vt 0.487892 0.506283
vt 0.492712 0.502790
vt 0.487892 0.483918
vt 0.492712 0.478918
vt 0.492712 0.483918
vt 0.487892 0.478918
vt 0.481041 0.483918
vt 0.481041 0.478918
vt 0.475478 0.483918
vt 0.475478 0.478918
vt 0.469916 0.478918
vt 0.469916 0.483918
vt 0.463064 0.478918
vt 0.463064 0.483918
vt 0.458244 0.478918
vt 0.458244 0.483918
vt 0.538590 0.483918
vt 0.543410 0.478918
vt 0.543410 0.483918
vt 0.538590 0.478918
vt 0.531739 0.483918
vt 0.531739 0.478918
vt 0.526176 0.483918
vt 0.526176 0.478918
vt 0.520613 0.478918
vt 0.520613 0.483918
vt 0.513762 0.478918
vt 0.513762 0.483918
vt 0.508942 0.478918
vt 0.508942 0.483918
vt 0.528519 0.483918
vt 0.530906 0.478918
vt 0.530906 0.483918
vt 0.528519 0.478918
vt 0.523833 0.478918
vt 0.523833 0.483918
vt 0.521446 0.478918
vt 0.521446 0.483918
vt 0.477821 0.483918
vt 0.480209 0.478918
vt 0.480209 0.483918
vt 0.477821 0.478918
vt 0.473135 0.478918
vt 0.473135 0.483918
vt 0.470748 0.478918
vt 0.470748 0.483918
vt 0.483968 0.478918
vt 0.492260 0.483918
vt 0.483968 0.483918
vt 0.492260 0.478918
vt 0.510623 0.483918
vt 0.510623 0.478918
vt 0.517271 0.483918
vt 0.517271 0.478918
vt 0.479086 0.478918
vt 0.479086 0.483918
vt 0.522199 0.483918
vt 0.522199 0.478918
vt 0.488833 0.483918
vt 0.488833 0.478918
vt 0.491530 0.478918
vt 0.491530 0.483918
vt 0.509033 0.478918
vt 0.509033 0.483918
vt 0.512540 0.478918
vt 0.512540 0.483918
vt 0.514778 0.478918
vt 0.514778 0.483918
vt 0.509298 0.483918
vt 0.509298 0.478918
vt 0.513486 0.478918
vt 0.513486 0.483918
vt 0.520454 0.478918
vt 0.520454 0.483918
vt 0.531898 0.483918
vt 0.531898 0.478918
vt 0.538867 0.483918
vt 0.538867 0.478918
vt 0.543054 0.483918
vt 0.543054 0.478918
vt 0.458600 0.483918
vt 0.458600 0.478918
vt 0.462788 0.478918
vt 0.462788 0.483918
vt 0.469756 0.478918
vt 0.469756 0.483918
vt 0.481200 0.483918
vt 0.481200 0.478918
vt 0.488169 0.483918
vt 0.488169 0.478918
vt 0.492356 0.483918
vt 0.492356 0.478918
vt 0.472608 0.483918
vt 0.472608 0.478918
vt 0.478348 0.483918
vt 0.478348 0.478918
vt 0.523306 0.483918
vt 0.523306 0.478918
vt 0.529046 0.483918
vt 0.529046 0.478918
s 1
usemtl Meshesszn001Mtl.002
f 1/1/1 2/2/2 3/3/3
f 1/1/1 3/3/3 4/4/3
f 4/4/3 3/3/3 5/5/4
f 4/4/3 5/5/4 6/6/4
f 6/6/4 5/5/4 7/7/5
f 6/6/4 7/7/5 8/8/5
f 9/9/6 10/10/6 11/2/7
f 9/9/6 11/2/7 12/1/8
f 13/9/6 14/10/6 15/2/9
f 13/9/6 15/2/9 16/1/7
f 17/8/10 18/7/11 19/11/12
f 17/8/10 19/11/12 20/12/12
f 21/8/13 22/7/11 23/11/12
f 21/8/13 23/11/12 24/12/12
f 25/13/14 26/14/14 27/15/15
f 28/16/15 27/15/15 26/14/14
f 27/15/15 28/16/15 30/17/16
f 28/16/15 32/18/17 30/17/16
f 29/19/18 31/20/18 33/21/19
f 30/17/16 32/18/17 34/22/20
f 34/22/20 33/21/19 31/20/18
f 33/21/19 34/22/20 32/18/17
f 35/1/2 36/2/2 37/3/21
f 35/1/2 37/3/21 38/4/3
f 38/4/3 37/3/21 39/5/22
f 38/4/3 39/5/22 40/6/22
f 40/6/22 39/5/22 41/7/23
f 40/6/22 41/7/23 42/8/24
f 43/13/14 44/14/14 45/15/25
f 46/16/15 45/15/25 44/14/14
f 45/15/25 46/16/15 48/17/16
f 46/16/15 50/18/16 48/17/16
f 47/19/18 49/20/18 51/21/19
f 48/17/16 50/18/16 52/22/20
f 52/22/20 51/21/19 49/20/18
f 51/21/19 52/22/20 50/18/16
f 53/23/26 54/24/26 55/25/26
f 54/24/26 56/26/26 55/25/26
f 56/26/26 54/24/26 57/27/26
f 58/28/26 56/26/26 57/27/26
f 53/23/26 59/29/26 54/24/26
f 60/30/26 59/29/26 53/23/26
f 59/29/26 60/30/26 61/31/26
f 61/31/26 62/30/26 63/32/26
f 64/26/26 58/28/26 65/33/26
f 66/34/26 65/33/26 67/35/26
f 68/30/26 69/36/26 63/32/26
f 70/37/26 71/38/26 69/36/26
f 72/39/26 71/38/26 73/37/26
f 67/35/26 74/40/26 75/34/26
f 76/41/26 75/34/26 74/40/26
f 75/34/26 76/41/26 77/42/26
f 78/43/26 77/42/26 76/41/26
f 78/43/26 76/41/26 79/44/26
f 80/37/26 79/44/26 72/39/26
f 79/44/26 80/37/26 78/43/26
f 70/37/26 81/36/26 82/45/26
f 81/36/26 83/46/26 82/45/26
f 83/46/26 81/36/26 84/47/26
f 84/47/26 81/36/26 85/48/26
f 86/49/26 85/48/26 81/36/26
f 81/36/26 87/50/26 86/49/26
f 87/50/26 81/36/26 88/51/26
f 88/51/26 81/36/26 68/30/26
f 89/33/26 90/52/26 91/26/26
f 90/52/26 89/33/26 92/53/26
f 92/53/26 89/33/26 93/54/26
f 93/54/26 89/33/26 94/55/26
f 95/56/26 94/55/26 89/33/26
f 89/33/26 96/57/26 95/56/26
f 96/57/26 89/33/26 97/58/26
f 97/58/26 89/33/26 98/34/26
f 99/59/26 100/60/26 101/61/26
f 100/60/26 102/62/26 101/61/26
f 102/62/26 100/60/26 103/63/26
f 104/64/26 102/62/26 103/63/26
f 99/59/26 105/65/26 100/60/26
f 106/66/26 105/65/26 99/59/26
f 105/65/26 106/66/26 107/67/26
f 107/67/26 108/66/26 109/68/26
f 110/62/26 104/64/26 111/69/26
f 112/70/26 111/69/26 113/71/26
f 114/66/26 115/72/26 109/68/26
f 116/73/26 117/74/26 115/72/26
f 118/75/26 117/74/26 119/73/26
f 113/71/26 120/76/26 121/70/26
f 122/77/26 121/70/26 120/76/26
f 121/70/26 122/77/26 123/78/26
f 124/79/26 123/78/26 122/77/26
f 124/79/26 122/77/26 125/80/26
f 126/73/26 125/80/26 118/75/26
f 125/80/26 126/73/26 124/79/26
f 116/73/26 127/72/26 128/81/26
f 127/72/26 129/82/26 128/81/26
f 129/82/26 127/72/26 130/83/26
f 130/83/26 127/72/26 131/84/26
f 132/85/26 131/84/26 127/72/26
f 127/72/26 133/86/26 132/85/26
f 133/86/26 127/72/26 134/87/26
f 134/87/26 127/72/26 114/66/26
f 135/69/26 136/88/26 137/62/26
f 136/88/26 135/69/26 138/89/26
f 138/89/26 135/69/26 139/90/26
f 139/90/26 135/69/26 140/91/26
f 141/92/26 140/91/26 135/69/26
f 135/69/26 142/93/26 141/92/26
f 142/93/26 135/69/26 143/94/26
f 143/94/26 135/69/26 144/70/26
f 147/95/27 146/96/28 145/97/28
f 146/96/28 147/95/27 148/98/27
f 149/99/29 148/98/27 147/95/27
f 148/98/27 149/99/29 150/100/29
f 151/101/30 150/100/29 149/99/29
f 150/100/29 151/101/30 152/102/30
f 152/102/30 151/101/30 153/103/31
f 153/103/31 151/101/30 154/104/31
f 153/103/31 154/104/31 155/105/32
f 155/105/32 154/104/31 156/106/32
f 155/105/32 156/106/32 157/107/33
f 157/107/33 156/106/32 158/108/33
f 161/109/27 160/110/28 159/111/28
f 160/110/28 161/109/27 162/112/34
f 163/113/29 162/112/34 161/109/27
f 162/112/34 163/113/29 164/114/29
f 165/115/30 164/114/29 163/113/29
f 164/114/29 165/115/30 166/116/30
f 166/116/30 165/115/30 167/117/35
f 167/117/35 165/115/30 168/118/35
f 167/117/35 168/118/35 169/119/36
f 169/119/36 168/118/35 170/120/37
f 169/119/36 170/120/37 171/121/33
f 171/121/33 170/120/37 172/122/33
f 175/123/38 174/124/39 173/125/39
f 174/124/39 175/123/38 176/126/38
f 177/115/30 176/126/38 175/123/38
f 176/126/38 177/115/30 178/116/40
f 178/116/40 177/115/30 179/127/41
f 179/127/41 177/115/30 180/128/42
f 179/127/41 180/128/42 181/129/43
f 181/129/43 180/128/42 182/130/43
f 185/131/38 184/132/44 183/133/44
f 184/132/44 185/131/38 186/134/38
f 187/101/45 186/134/38 185/131/38
f 186/134/38 187/101/45 188/102/40
f 188/102/40 187/101/45 189/135/46
f 189/135/46 187/101/45 190/136/41
f 189/135/46 190/136/41 191/137/43
f 191/137/43 190/136/41 192/138/43
f 193/139/47 194/140/48 195/141/47
f 194/140/48 193/139/47 196/142/49
f 196/142/49 197/143/50 194/140/48
f 197/143/50 196/142/49 198/144/51
f 198/144/51 199/145/52 197/143/50
f 199/145/52 198/144/51 200/146/52
f 202/147/53 203/141/54 201/148/55
f 203/141/54 202/147/53 204/139/56
f 206/147/55 207/141/57 205/148/55
f 207/141/57 206/147/55 208/139/57
f 210/149/58 211/146/59 209/150/58
f 211/146/59 210/149/58 212/145/59
f 214/149/58 215/146/60 213/150/58
f 215/146/60 214/149/58 216/145/61
f 217/151/62 218/152/62 219/153/63
f 217/151/62 219/153/63 220/154/63
f 219/153/63 221/155/64 220/154/63
f 220/154/63 221/155/64 222/156/64
f 223/157/65 222/156/64 221/155/64
f 222/156/64 223/157/65 224/158/66
f 225/159/67 224/158/66 223/157/65
f 224/158/66 225/159/67 226/160/67
f 227/139/47 228/140/68 229/141/47
f 228/140/68 227/139/47 230/142/68
f 230/142/68 231/143/50 228/140/68
f 231/143/50 230/142/68 232/144/50
f 232/144/50 233/145/52 231/143/50
f 233/145/52 232/144/50 234/146/52
f 235/151/69 236/152/69 237/153/63
f 235/151/69 237/153/63 238/154/63
f 237/153/63 239/155/70 238/154/63
f 238/154/63 239/155/70 240/156/64
f 241/157/71 240/156/64 239/155/70
f 240/156/64 241/157/71 242/158/71
f 243/159/67 242/158/71 241/157/71
f 242/158/71 243/159/67 244/160/67
f 245/79/72 246/78/72 247/77/72
f 248/70/72 247/77/72 246/78/72
f 247/77/72 248/70/72 249/76/72
f 250/71/72 249/76/72 248/70/72
f 245/79/72 247/77/72 251/80/72
f 251/80/72 252/73/72 245/79/72
f 252/73/72 251/80/72 253/75/72
f 253/75/72 254/74/72 255/73/72
f 256/70/72 257/69/72 250/71/72
f 258/62/72 259/64/72 257/69/72
f 260/73/72 254/74/72 261/72/72
f 262/66/72 261/72/72 263/68/72
f 264/67/72 265/66/72 263/68/72
f 259/64/72 266/62/72 267/63/72
f 266/62/72 268/60/72 267/63/72
f 268/60/72 266/62/72 269/61/72
f 270/59/72 268/60/72 269/61/72
f 270/59/72 271/65/72 268/60/72
f 271/65/72 272/66/72 264/67/72
f 272/66/72 271/65/72 270/59/72
f 273/87/72 274/72/72 262/66/72
f 275/86/72 274/72/72 273/87/72
f 274/72/72 275/86/72 276/85/72
f 276/85/72 277/84/72 274/72/72
f 278/83/72 274/72/72 277/84/72
f 279/82/72 274/72/72 278/83/72
f 274/72/72 279/82/72 280/81/72
f 260/73/72 274/72/72 280/81/72
f 281/69/72 282/93/72 283/92/72
f 282/93/72 281/69/72 284/94/72
f 284/94/72 281/69/72 285/70/72
f 283/92/72 286/91/72 281/69/72
f 287/90/72 281/69/72 286/91/72
f 288/89/72 281/69/72 287/90/72
f 289/88/72 281/69/72 288/89/72
f 281/69/72 289/88/72 290/62/72
f 291/43/72 292/42/72 293/41/72
f 294/34/72 293/41/72 292/42/72
f 293/41/72 294/34/72 295/40/72
f 296/35/72 295/40/72 294/34/72
f 291/43/72 293/41/72 297/44/72
f 297/44/72 298/37/72 291/43/72
f 298/37/72 297/44/72 299/39/72
f 299/39/72 300/38/72 301/37/72
f 302/34/72 303/33/72 296/35/72
f 304/26/72 305/28/72 303/33/72
f 306/37/72 300/38/72 307/36/72
f 308/30/73 307/36/73 309/32/73
f 310/31/72 311/30/72 309/32/72
f 305/28/72 312/26/72 313/27/72
f 312/26/72 314/24/72 313/27/72
f 314/24/72 312/26/72 315/25/72
f 316/23/72 314/24/72 315/25/72
f 316/23/72 317/29/72 314/24/72
f 317/29/72 318/30/72 310/31/72
f 318/30/72 317/29/72 316/23/72
f 319/51/72 320/36/72 308/30/72
f 321/50/72 320/36/72 319/51/72
f 320/36/72 321/50/72 322/49/72
f 322/49/72 323/48/72 320/36/72
f 324/47/72 320/36/72 323/48/72
f 325/46/72 320/36/72 324/47/72
f 320/36/72 325/46/72 326/45/72
f 306/37/72 320/36/72 326/45/72
f 327/33/72 328/57/72 329/56/72
f 328/57/72 327/33/72 330/58/72
f 330/58/72 327/33/72 331/34/72
f 329/56/72 332/55/72 327/33/72
f 333/54/72 327/33/72 332/55/72
f 334/53/72 327/33/72 333/54/72
f 335/52/72 327/33/72 334/53/72
f 327/33/72 335/52/72 336/26/72
f 338/161/74 337/162/75 339/163/76
f 339/163/76 340/164/77 338/161/74
f 340/164/77 339/163/76 341/165/78
f 341/165/78 342/166/78 340/164/77
f 342/166/78 341/165/78 343/116/79
f 343/116/79 344/115/79 342/166/78
f 343/116/79 345/167/80 344/115/79
f 345/167/80 343/116/79 346/168/80
f 345/167/80 346/168/80 347/169/81
f 347/169/81 346/168/80 348/170/82
f 347/169/81 348/170/82 349/171/83
f 349/171/83 348/170/82 350/172/84
f 352/173/74 351/174/74 353/175/85
f 353/175/85 354/176/86 352/173/74
f 354/176/86 353/175/85 355/177/87
f 355/177/87 356/178/78 354/176/86
f 356/178/78 355/177/87 357/102/88
f 357/102/88 358/101/88 356/178/78
f 357/102/88 359/179/80 358/101/88
f 359/179/80 357/102/88 360/180/89
f 359/179/80 360/180/89 361/181/82
f 361/181/82 360/180/89 362/182/90
f 361/181/82 362/182/90 363/183/84
f 363/183/84 362/182/90 364/184/84
f 366/185/91 365/186/91 367/102/88
f 367/102/88 368/101/88 366/185/91
f 368/101/88 367/102/88 369/187/92
f 369/187/92 367/102/88 370/188/92
f 372/189/91 371/190/93 373/116/88
f 373/116/88 374/115/94 372/189/91
f 374/115/94 373/116/88 375/191/92
f 375/191/92 373/116/88 376/192/92
