# Blender 5.1.1
# www.blender.org
mtllib pumpkinclawright.mtl
o rightarm
v 0.094703 -0.010219 -0.178636
v -0.262634 -0.010144 0.016345
v -0.262886 -0.122810 0.015993
v 0.094499 -0.122892 -0.178993
v -0.286736 -0.010361 0.098262
v -0.286941 -0.123035 0.097901
v 0.176412 -0.123139 -0.154937
v 0.176616 -0.010466 -0.154580
v 0.094703 -0.010219 -0.178636
v 0.094499 -0.122892 -0.178993
v 0.286293 -0.124663 0.257505
v 0.286546 -0.011993 0.257855
v 0.000397 -0.124595 0.413503
v 0.000650 -0.011925 0.413852
v -0.091967 -0.124536 0.455281
v -0.091715 -0.011872 0.455629
v -0.286736 -0.010361 0.098262
v -0.286941 -0.123035 0.097901
v 0.149774 -0.010602 -0.093555
v 0.305780 -0.011815 0.192332
v 0.305575 -0.124489 0.191971
v 0.286293 -0.124663 0.257505
v 0.149569 -0.123281 -0.093914
v 0.084254 -0.010407 -0.112802
v 0.084048 -0.123082 -0.113163
v 0.286546 -0.011993 0.257855
v 0.305575 -0.124489 0.191971
v 0.286293 -0.124663 0.257505
v 0.347332 -0.124866 0.284349
v 0.371387 -0.124642 0.202439
v -0.010054 -0.124783 0.479336
v 0.176412 -0.123139 -0.154937
v 0.000397 -0.124595 0.413503
v 0.149569 -0.123281 -0.093914
v 0.094499 -0.122892 -0.178993
v 0.084048 -0.123082 -0.113163
v -0.065123 -0.124394 0.394257
v -0.091967 -0.124536 0.455281
v -0.221130 -0.123187 0.108369
v -0.286941 -0.123035 0.097901
v -0.201848 -0.123018 0.042836
v 0.084048 -0.123082 -0.113163
v 0.094499 -0.122892 -0.178993
v -0.262886 -0.122810 0.015993
v -0.221130 -0.123187 0.108369
v -0.286941 -0.123035 0.097901
v -0.009801 -0.012118 0.479687
v 0.347537 -0.012188 0.284704
v 0.347332 -0.124866 0.284349
v 0.371639 -0.011976 0.202790
v -0.010054 -0.124783 0.479336
v 0.371387 -0.124642 0.202439
v -0.091967 -0.124536 0.455281
v -0.091715 -0.011872 0.455629
v -0.201848 -0.123018 0.042836
v -0.201642 -0.010339 0.043194
v 0.084048 -0.123082 -0.113163
v 0.084254 -0.010407 -0.112802
v 0.371639 -0.011976 0.202790
v 0.371387 -0.124642 0.202439
v 0.176412 -0.123139 -0.154937
v 0.176616 -0.010466 -0.154580
v 0.000397 -0.124595 0.413503
v 0.000650 -0.011925 0.413852
v -0.065123 -0.124394 0.394257
v -0.064918 -0.011721 0.394615
v -0.221130 -0.123187 0.108369
v -0.220878 -0.010522 0.108720
v -0.201848 -0.123018 0.042836
v -0.220878 -0.010522 0.108720
v -0.201642 -0.010339 0.043194
v -0.221130 -0.123187 0.108369
v 0.371639 -0.011976 0.202790
v 0.149774 -0.010602 -0.093555
v 0.176616 -0.010466 -0.154580
v 0.094703 -0.010219 -0.178636
v 0.084254 -0.010407 -0.112802
v 0.305780 -0.011815 0.192332
v 0.347537 -0.012188 0.284704
v 0.286546 -0.011993 0.257855
v 0.000650 -0.011925 0.413852
v -0.009801 -0.012118 0.479687
v -0.064918 -0.011721 0.394615
v -0.091715 -0.011872 0.455629
v -0.286736 -0.010361 0.098262
v -0.220878 -0.010522 0.108720
v 0.084254 -0.010407 -0.112802
v -0.201642 -0.010339 0.043194
v -0.262634 -0.010144 0.016345
v 0.094703 -0.010219 -0.178636
v -0.220878 -0.010522 0.108720
v -0.286736 -0.010361 0.098262
v -0.268925 0.145349 0.352844
v -0.310999 0.070420 0.312471
v -0.283394 0.111641 0.301972
v -0.293777 0.108663 0.392481
v -0.278277 0.016125 0.393513
v -0.200045 0.177212 0.473022
v -0.216832 0.104600 0.416560
v -0.210165 0.177495 0.388612
v -0.124345 0.841426 0.340581
v -0.207988 0.146107 0.511895
v -0.168641 0.028163 0.500946
v -0.106157 -0.451265 0.330481
v -0.091464 -0.487701 0.371074
v -0.095493 -0.489315 0.333525
v -0.099983 -0.518589 0.332083
v -0.101130 -0.447081 0.376757
v -0.126850 -0.426472 0.324468
v -0.119951 -0.420975 0.384146
v -0.096127 -0.518679 0.383477
v -0.123522 -0.578006 0.325019
v -0.123056 -0.585995 0.367292
v -0.113781 -0.598414 0.363477
v -0.113480 -0.592107 0.327964
v -0.019622 0.176766 0.498102
v 0.020843 0.098249 0.446013
v 0.034434 0.176881 0.432543
v 0.034341 0.844274 0.421739
v -0.035594 0.135749 0.525367
v 0.014875 0.025262 0.546851
v 0.159359 0.092244 0.428752
v 0.096921 0.091723 0.494617
v 0.154492 0.053254 0.436558
v 0.157261 0.014872 0.521519
v 0.119846 0.126109 0.463763
v 0.165547 0.147854 0.410018
v -0.114363 0.138874 0.503142
v -0.200045 0.177212 0.473022
v -0.110589 0.177038 0.472655
v -0.124345 0.841426 0.340581
v -0.207988 0.146107 0.511895
v -0.168641 0.028163 0.500946
v -0.019622 0.176766 0.498102
v 0.045253 0.176510 0.542003
v 0.040800 0.142700 0.580325
v 0.034341 0.844274 0.421739
v -0.035594 0.135749 0.525367
v 0.014875 0.025262 0.546851
v -0.212593 0.092597 0.403615
v -0.293777 0.108663 0.392481
v -0.278277 0.016125 0.393513
v 0.096921 0.091723 0.494617
v 0.171321 0.107338 0.529201
v 0.157261 0.014872 0.521519
v -0.061500 -0.445293 0.411909
v -0.016609 -0.489783 0.397260
v -0.059438 -0.487901 0.399627
v -0.056043 -0.524719 0.420302
v -0.008474 -0.446956 0.408859
v -0.067922 -0.418619 0.430307
v 0.001601 -0.420796 0.426302
v -0.002154 -0.533155 0.417480
v -0.056310 -0.570588 0.389201
v -0.094957 -0.584574 0.393027
v -0.061111 -0.586259 0.380776
v -0.091615 -0.597291 0.383775
v -0.101130 -0.447081 0.376757
v -0.061500 -0.445293 0.411909
v -0.091464 -0.487701 0.371074
v -0.067922 -0.418619 0.430307
v -0.119951 -0.420975 0.384146
v -0.059438 -0.487901 0.399627
v -0.096127 -0.518679 0.383477
v -0.056043 -0.524719 0.420302
v -0.094957 -0.584574 0.393027
v -0.123056 -0.585995 0.367292
v -0.113781 -0.598414 0.363477
v -0.091615 -0.597291 0.383775
v -0.113480 -0.592107 0.327964
v -0.061111 -0.586259 0.380776
v -0.038376 -0.590241 0.350032
v -0.113781 -0.598414 0.363477
v -0.091615 -0.597291 0.383775
v 0.035329 -0.539048 0.371826
v -0.002154 -0.533155 0.417480
v -0.028282 -0.575612 0.353060
v -0.056310 -0.570588 0.389201
v 0.097284 0.105192 0.500961
v 0.020843 0.098249 0.446013
v 0.014875 0.025262 0.546851
v 0.228891 0.068869 0.471141
v 0.154492 0.053254 0.436558
v 0.157261 0.014872 0.521519
v -0.310999 0.070420 0.312471
v -0.229815 0.054352 0.323601
v -0.278277 0.016125 0.393513
v -0.216832 0.104600 0.416560
v -0.123162 0.097354 0.407800
v -0.168641 0.028163 0.500946
v 0.211630 0.110227 0.447467
v 0.228891 0.068869 0.471141
v 0.172058 0.144082 0.482444
v 0.171321 0.107338 0.529201
v 0.157261 0.014872 0.521519
v 0.045253 0.176510 0.542003
v 0.099296 0.176606 0.476397
v 0.097284 0.105192 0.500961
v 0.034341 0.844274 0.421739
v 0.040800 0.142700 0.580325
v 0.014875 0.025262 0.546851
v -0.008474 -0.446956 0.408859
v 0.026728 -0.451079 0.369522
v -0.016609 -0.489783 0.397260
v 0.047550 -0.426211 0.375733
v 0.001601 -0.420796 0.426302
v 0.011996 -0.492283 0.365094
v 0.035329 -0.539048 0.371826
v -0.002154 -0.533155 0.417480
v -0.028282 -0.575612 0.353060
v -0.056310 -0.570588 0.389201
v -0.061111 -0.586259 0.380776
v -0.038376 -0.590241 0.350032
v -0.123162 0.097354 0.407800
v -0.110589 0.177038 0.472655
v -0.120710 0.177321 0.388245
v -0.124345 0.841426 0.340581
v -0.114363 0.138874 0.503142
v -0.168641 0.028163 0.500946
v -0.229470 0.093368 0.314489
v -0.229815 0.054352 0.323601
v -0.212593 0.092597 0.403615
v -0.278277 0.016125 0.393513
v -0.214953 0.127064 0.365356
v -0.224204 0.148973 0.295469
v 0.011996 -0.492283 0.365094
v -0.099983 -0.518589 0.332083
v -0.028282 -0.575612 0.353060
v 0.035329 -0.539048 0.371826
v -0.038376 -0.590241 0.350032
v -0.113480 -0.592107 0.327964
v -0.123522 -0.578006 0.325019
v -0.095493 -0.489315 0.333525
v -0.106157 -0.451265 0.330481
v 0.026728 -0.451079 0.369522
v -0.126850 -0.426472 0.324468
v 0.047550 -0.426211 0.375733
v 0.034434 0.176881 0.432543
v 0.097284 0.105192 0.500961
v 0.099296 0.176606 0.476397
v 0.034341 0.844274 0.421739
v 0.020843 0.098249 0.446013
v 0.159359 0.092244 0.428752
v 0.228891 0.068869 0.471141
v 0.211630 0.110227 0.447467
v 0.165547 0.147854 0.410018
v 0.154492 0.053254 0.436558
v -0.229470 0.093368 0.314489
v -0.310999 0.070420 0.312471
v -0.229815 0.054352 0.323601
v -0.283394 0.111641 0.301972
v -0.224204 0.148973 0.295469
v -0.120710 0.177321 0.388245
v -0.216832 0.104600 0.416560
v -0.123162 0.097354 0.407800
v -0.210165 0.177495 0.388612
v -0.124345 0.841426 0.340581
v 0.211630 0.110227 0.447467
v 0.172058 0.144082 0.482444
v 0.165547 0.147854 0.410018
v -0.268925 0.145349 0.352844
v -0.283394 0.111641 0.301972
v -0.224204 0.148973 0.295469
v -0.114363 0.138874 0.503142
v -0.200045 0.177212 0.473022
v -0.207988 0.146107 0.511895
v -0.019622 0.176766 0.498102
v 0.045253 0.176510 0.542003
v 0.040800 0.142700 0.580325
v -0.212593 0.092597 0.403615
v -0.268925 0.145349 0.352844
v -0.214953 0.127064 0.365356
v -0.224204 0.148973 0.295469
v -0.293777 0.108663 0.392481
v 0.096921 0.091723 0.494617
v 0.172058 0.144082 0.482444
v 0.171321 0.107338 0.529201
v 0.119846 0.126109 0.463763
v 0.165547 0.147854 0.410018
v -0.069550 0.093436 0.488975
v -0.079557 -0.010695 0.522142
v -0.101892 0.058527 0.468579
v -0.032256 0.058578 0.492097
v -0.110586 -0.016003 0.494558
v -0.128605 -0.000109 0.468840
v -0.107061 -0.018770 0.496715
v -0.075963 -0.069355 0.509188
v -0.042769 -0.018959 0.515651
v -0.038593 -0.016213 0.515705
v -0.009860 -0.000315 0.505313
v -0.208472 -0.180206 0.422463
v -0.289041 -0.239512 0.365602
v -0.292464 -0.182498 0.363059
v -0.248761 -0.271722 0.393547
v -0.283130 -0.090592 0.351124
v -0.293481 -0.101589 0.346015
v -0.209403 -0.267964 0.421121
v -0.216441 -0.295894 0.402527
v -0.204618 -0.255566 0.424523
v -0.200902 -0.245272 0.428084
v -0.148447 -0.177200 0.476617
v -0.199434 -0.094054 0.410868
v -0.243748 -0.040730 0.393020
v -0.209109 -0.053695 0.415013
v -0.162594 -0.071187 0.449349
v -0.139253 -0.166246 0.482566
v -0.137427 -0.086136 0.466262
v -0.116233 -0.099343 0.488942
v -0.105720 -0.133199 0.506004
v -0.008762 -0.166621 0.520826
v -0.001094 -0.086531 0.506327
v 0.080991 -0.094872 0.493253
v -0.031233 -0.099611 0.513721
v -0.049455 -0.133370 0.522378
v 0.029434 -0.071775 0.505251
v 0.087073 -0.054546 0.502056
v 0.128116 -0.041768 0.502620
v 0.002071 -0.177632 0.520853
v 0.183738 -0.091933 0.488331
v 0.081839 -0.181028 0.507810
v 0.072154 -0.246052 0.508375
v 0.077120 -0.256364 0.507353
v 0.184610 -0.183852 0.503308
v 0.195093 -0.102983 0.489710
v 0.180184 -0.240877 0.503194
v 0.130902 -0.272811 0.505125
v 0.082894 -0.268806 0.507015
v 0.098488 -0.296710 0.496143
v -0.375635 -0.016640 0.354319
v -0.271992 0.039458 0.237644
v -0.314511 0.074626 0.340787
v -0.324400 -0.044597 0.229695
v -0.349134 -0.084773 0.356856
v -0.301822 -0.105262 0.241692
v -0.352895 -0.222551 0.237114
v -0.408569 -0.209590 0.372803
v -0.354281 -0.276939 0.372378
v -0.306413 -0.278664 0.255699
v -0.299672 -0.357841 0.372981
v -0.259894 -0.350012 0.275721
v 0.184914 -0.184140 0.503069
v 0.195397 -0.103270 0.489473
v 0.182477 -0.099362 0.533551
v 0.171994 -0.180232 0.547147
v 0.167520 -0.237242 0.547042
v 0.180488 -0.241159 0.502955
v -0.048360 0.063231 0.547694
v -0.031953 0.058296 0.491857
v -0.009556 -0.000597 0.505075
v -0.025964 0.004338 0.560911
v -0.042466 -0.019247 0.515410
v -0.058860 -0.014289 0.571288
v -0.092055 -0.064685 0.564825
v -0.075659 -0.069638 0.508946
v -0.115929 -0.099627 0.488700
v -0.128862 -0.095737 0.532735
v -0.105418 -0.133486 0.505764
v -0.118337 -0.129578 0.549842
v -0.151914 -0.162612 0.526415
v -0.229072 -0.292292 0.446322
v -0.138948 -0.166530 0.482325
v -0.216138 -0.296182 0.402287
v -0.161076 -0.173592 0.520413
v -0.209098 -0.268251 0.420884
v -0.148144 -0.177482 0.476378
v -0.222018 -0.264343 0.464962
v -0.213580 -0.241662 0.471889
v -0.204360 -0.255843 0.424296
v -0.200647 -0.245552 0.427854
v -0.217281 -0.251935 0.468373
v -0.096499 -0.267173 0.578074
v -0.185647 -0.337755 0.451899
v -0.216690 -0.263823 0.468719
v -0.086466 -0.349786 0.543084
v -0.065385 -0.430945 0.470549
v -0.213580 -0.241662 0.471889
v -0.217281 -0.251935 0.468373
v -0.161076 -0.173592 0.520413
v -0.096445 -0.170341 0.578755
v -0.151914 -0.162612 0.526415
v -0.118337 -0.129578 0.549842
v -0.091413 -0.075021 0.562522
v -0.128862 -0.095737 0.532735
v -0.150091 -0.082507 0.510110
v -0.092055 -0.064685 0.564825
v -0.123165 -0.014118 0.552313
v -0.126691 -0.011350 0.550156
v -0.175257 -0.067552 0.493198
v -0.226885 -0.028501 0.461055
v -0.221724 -0.050072 0.458853
v -0.144697 0.004562 0.524482
v -0.188964 0.113073 0.426059
v -0.118033 0.063206 0.524227
v -0.085641 0.098107 0.544616
v -0.078158 0.175541 0.519992
v 0.065468 0.112330 0.500807
v -0.025964 0.004338 0.560911
v -0.048360 0.063231 0.547694
v -0.085641 0.098107 0.544616
v -0.078158 0.175541 0.519992
v 0.077717 -0.029365 0.550596
v -0.054685 -0.011541 0.571347
v 0.016817 -0.068155 0.549090
v 0.074456 -0.050926 0.545894
v -0.013710 -0.082905 0.550166
v -0.058860 -0.014289 0.571288
v -0.092055 -0.064685 0.564825
v -0.091413 -0.075021 0.562522
v -0.043850 -0.095989 0.557562
v -0.062084 -0.129763 0.566171
v -0.096445 -0.170341 0.578755
v -0.021427 -0.162987 0.564672
v -0.010546 -0.174007 0.564688
v -0.096499 -0.267173 0.578074
v 0.059477 -0.242440 0.552183
v 0.063736 -0.264641 0.551105
v 0.064456 -0.252729 0.551202
v 0.046299 -0.338427 0.520048
v -0.086466 -0.349786 0.543084
v -0.065385 -0.430945 0.470549
v -0.314511 0.074626 0.340787
v -0.188964 0.113073 0.426059
v -0.226885 -0.028501 0.461055
v -0.375635 -0.016640 0.354319
v -0.256366 -0.037105 0.436855
v -0.221724 -0.050072 0.458853
v -0.295807 -0.086978 0.394927
v -0.349134 -0.084773 0.356856
v -0.306110 -0.097983 0.389808
v -0.305126 -0.178867 0.406910
v -0.408569 -0.209590 0.372803
v -0.301706 -0.235879 0.409448
v -0.354281 -0.276939 0.372378
v -0.261379 -0.268101 0.437384
v -0.299672 -0.357841 0.372981
v -0.229072 -0.292292 0.446322
v -0.185647 -0.337755 0.451899
v -0.193943 -0.435818 0.367958
v -0.124774 -0.409872 0.414395
v -0.216690 -0.263823 0.468719
v -0.222018 -0.264343 0.464962
v -0.217281 -0.251935 0.468373
v 0.216969 0.073105 0.496999
v 0.077717 -0.029365 0.550596
v 0.065468 0.112330 0.500807
v 0.260589 -0.018447 0.541355
v 0.115441 -0.038151 0.546425
v 0.074456 -0.050926 0.545894
v 0.171122 -0.088311 0.532172
v 0.236602 -0.086447 0.529022
v 0.182477 -0.099362 0.533551
v 0.171994 -0.180232 0.547147
v 0.277268 -0.211539 0.574412
v 0.167520 -0.237242 0.547042
v 0.231457 -0.278609 0.544541
v 0.118240 -0.269180 0.548976
v 0.184828 -0.359237 0.515362
v 0.085810 -0.293099 0.539948
v 0.046299 -0.338427 0.520048
v 0.098200 -0.436649 0.453832
v 0.015068 -0.410275 0.455503
v 0.063736 -0.264641 0.551105
v 0.070277 -0.265186 0.550853
v 0.064456 -0.252729 0.551202
v 0.184828 -0.359237 0.515362
v 0.204012 -0.351340 0.412067
v 0.098200 -0.436649 0.453832
v 0.110151 -0.418044 0.390428
v -0.030896 -0.461941 0.352861
v -0.299672 -0.357841 0.372981
v -0.259894 -0.350012 0.275721
v -0.193943 -0.435818 0.367958
v -0.169545 -0.417260 0.308176
v -0.030896 -0.461941 0.352861
v 0.195397 -0.103270 0.489473
v 0.182477 -0.099362 0.533551
v 0.184042 -0.092219 0.488095
v 0.171122 -0.088311 0.532172
v 0.128420 -0.042055 0.502383
v 0.115441 -0.038151 0.546425
v 0.087375 -0.054834 0.501816
v 0.074456 -0.050926 0.545894
v 0.029738 -0.072063 0.505012
v 0.016817 -0.068155 0.549090
v -0.000789 -0.086813 0.506088
v -0.013710 -0.082905 0.550166
v -0.030929 -0.099898 0.513484
v -0.043850 -0.095989 0.557562
v -0.185647 -0.337755 0.451899
v -0.065385 -0.430945 0.470549
v -0.124774 -0.409872 0.414395
v -0.030896 -0.461941 0.352861
v 0.046299 -0.338427 0.520048
v -0.065385 -0.430945 0.470549
v 0.015068 -0.410275 0.455503
v -0.030896 -0.461941 0.352861
v -0.193943 -0.435818 0.367958
v -0.124774 -0.409872 0.414395
v -0.030896 -0.461941 0.352861
v 0.098200 -0.436649 0.453832
v 0.015068 -0.410275 0.455503
v -0.030896 -0.461941 0.352861
v -0.118033 0.063206 0.524227
v -0.101589 0.058243 0.468337
v -0.069246 0.093150 0.488738
v -0.085641 0.098107 0.544616
v -0.048360 0.063231 0.547694
v -0.031953 0.058296 0.491857
v -0.208805 -0.053981 0.414776
v -0.243446 -0.041018 0.392780
v -0.256366 -0.037105 0.436855
v -0.295807 -0.086978 0.394927
v -0.221724 -0.050072 0.458853
v -0.282828 -0.090880 0.350884
v -0.162289 -0.071469 0.449111
v -0.306110 -0.097983 0.389808
v -0.175257 -0.067552 0.493198
v -0.293177 -0.101873 0.345773
v -0.137124 -0.086424 0.466023
v -0.150091 -0.082507 0.510110
v -0.115929 -0.099627 0.488700
v -0.128862 -0.095737 0.532735
v 0.254357 -0.280262 0.420535
v 0.231457 -0.278609 0.544541
v 0.303807 -0.224437 0.430113
v 0.277268 -0.211539 0.574412
v 0.184828 -0.359237 0.515362
v 0.236602 -0.086447 0.529022
v 0.204012 -0.351340 0.412067
v 0.258996 -0.106867 0.406522
v 0.284804 -0.046327 0.408777
v 0.260589 -0.018447 0.541355
v 0.236851 0.038016 0.387243
v 0.216969 0.073105 0.496999
v 0.098790 -0.296998 0.495903
v 0.085810 -0.293099 0.539948
v 0.083196 -0.269094 0.506775
v 0.070277 -0.265186 0.550853
v 0.077424 -0.256646 0.507115
v -0.030929 -0.099898 0.513484
v 0.064456 -0.252729 0.551202
v -0.043850 -0.095989 0.557562
v 0.072410 -0.246330 0.508148
v -0.049152 -0.133653 0.522137
v 0.059477 -0.242440 0.552183
v -0.062084 -0.129763 0.566171
v 0.002373 -0.177915 0.520610
v -0.021427 -0.162987 0.564672
v -0.010546 -0.174007 0.564688
v -0.008460 -0.166909 0.520586
v -0.106756 -0.019057 0.496478
v -0.092055 -0.064685 0.564825
v -0.123165 -0.014118 0.552313
v -0.075659 -0.069638 0.508946
v -0.144697 0.004562 0.524482
v -0.128301 -0.000396 0.468604
v -0.118033 0.063206 0.524227
v -0.101589 0.058243 0.468337
v -0.306110 -0.097983 0.389808
v -0.293177 -0.101873 0.345773
v -0.292207 -0.182775 0.362832
v -0.305126 -0.178867 0.406910
v -0.301706 -0.235879 0.409448
v -0.288786 -0.239791 0.365372
v -0.188964 0.113073 0.426059
v 0.065468 0.112330 0.500807
v -0.078158 0.175541 0.519992
v 0.258996 -0.106867 0.406522
v -0.301822 -0.105262 0.241692
v 0.110151 -0.418044 0.390428
v 0.204012 -0.351340 0.412067
v 0.254357 -0.280262 0.420535
v 0.303807 -0.224437 0.430113
v -0.169545 -0.417260 0.308176
v -0.030896 -0.461941 0.352861
v -0.259894 -0.350012 0.275721
v -0.306413 -0.278664 0.255699
v -0.352895 -0.222551 0.237114
v 0.236851 0.038016 0.387243
v 0.284804 -0.046327 0.408777
v -0.271992 0.039458 0.237644
v -0.324400 -0.044597 0.229695
v 0.236851 0.038016 0.387243
v -0.188964 0.113073 0.426059
v -0.271992 0.039458 0.237644
v -0.314511 0.074626 0.340787
v 0.065468 0.112330 0.500807
v 0.216969 0.073105 0.496999
v 0.167520 -0.237242 0.547042
v 0.180488 -0.241159 0.502955
v 0.131207 -0.273097 0.504888
v 0.118240 -0.269180 0.548976
v 0.098790 -0.296998 0.495903
v 0.085810 -0.293099 0.539948
v -0.049152 -0.133653 0.522137
v -0.062084 -0.129763 0.566171
v -0.021427 -0.162987 0.564672
v -0.008460 -0.166909 0.520586
v -0.106756 -0.019057 0.496478
v -0.123165 -0.014118 0.552313
v -0.126691 -0.011350 0.550156
v -0.110283 -0.016289 0.494321
v -0.144697 0.004562 0.524482
v -0.128301 -0.000396 0.468604
v -0.009556 -0.000597 0.505075
v -0.025964 0.004338 0.560911
v -0.038288 -0.016499 0.515469
v -0.054685 -0.011541 0.571347
v -0.042466 -0.019247 0.515410
v -0.058860 -0.014289 0.571288
v -0.301706 -0.235879 0.409448
v -0.288786 -0.239791 0.365372
v -0.105418 -0.133486 0.505764
v -0.248459 -0.272010 0.393307
v -0.118337 -0.129578 0.549842
v -0.261379 -0.268101 0.437384
v -0.151914 -0.162612 0.526415
v -0.229072 -0.292292 0.446322
v -0.138948 -0.166530 0.482325
v -0.216138 -0.296182 0.402287
vn -0.1057 0.0006 -0.9944
vn -0.7788 0.0047 -0.6273
vn -0.7788 0.0049 -0.6272
vn -0.9945 0.0016 0.1045
vn -0.9945 0.0013 0.1045
vn -0.1055 0.0006 -0.9944
vn 0.6248 0.0037 -0.7808
vn -0.7787 0.0036 -0.6274
vn -0.1056 0.0034 -0.9944
vn -0.1057 0.0034 -0.9944
vn -0.9945 0.0014 0.1047
vn -0.6251 -0.0038 0.7806
vn -0.6250 -0.0037 0.7806
vn -0.9945 0.0015 0.1047
vn -0.7788 0.0035 -0.6272
vn 0.1055 -0.0034 0.9944
vn 0.1055 -0.0035 0.9944
vn -0.7789 0.0038 -0.6272
vn -0.0001 -1.0000 -0.0064
vn -0.0002 -1.0000 -0.0064
vn -0.0002 -1.0000 -0.0065
vn -0.0001 -1.0000 -0.0065
vn 0.1055 -0.0006 0.9944
vn 0.7787 -0.0048 0.6273
vn 0.7788 -0.0049 0.6272
vn 0.9945 -0.0015 -0.1044
vn -0.6248 -0.0038 0.7808
vn -0.6248 -0.0037 0.7807
vn 0.7788 -0.0035 0.6273
vn 0.1056 -0.0033 0.9944
vn 0.1057 -0.0033 0.9944
vn 0.9945 -0.0015 -0.1047
vn 0.6251 0.0037 -0.7806
vn 0.6250 0.0038 -0.7806
vn -0.1055 0.0034 -0.9944
vn -0.1055 0.0033 -0.9944
vn 0.6250 0.0037 -0.7806
vn 0.9945 -0.0018 -0.1047
vn 0.9945 -0.0019 -0.1047
vn 0.7788 -0.0036 0.6272
vn 0.7789 -0.0035 0.6271
vn 0.9945 -0.0016 -0.1045
vn 0.9945 -0.0019 -0.1044
vn 0.0002 1.0000 0.0064
vn 0.0001 1.0000 0.0064
vn 0.0002 1.0000 0.0065
vn 0.0001 1.0000 0.0065
vn -0.7998 0.5845 -0.1369
vn -0.6783 0.6900 -0.2528
vn -0.9292 0.3696 0.0088
vn -0.9829 0.0587 0.1746
vn -0.9479 -0.1601 0.2756
vn -0.9837 0.1622 0.0776
vn -0.9839 0.1471 0.1016
vn -0.9926 0.0479 0.1115
vn -0.9840 0.1359 0.1152
vn -0.9696 -0.1674 0.1785
vn -0.9147 -0.3305 0.2326
vn -0.8839 -0.4486 0.1322
vn -0.9929 -0.0489 0.1082
vn -0.9940 -0.0230 0.1068
vn -0.9624 0.2583 0.0838
vn -0.8617 -0.4889 0.1360
vn -0.7799 -0.6090 0.1446
vn -0.9541 0.2896 0.0767
vn -0.9978 -0.0665 -0.0076
vn -0.9997 0.0201 0.0100
vn -0.8078 -0.5797 -0.1067
vn -0.7906 -0.0121 -0.6122
vn -0.7824 -0.0094 -0.6227
vn -0.8175 -0.1099 -0.5653
vn -0.7705 -0.0082 -0.6374
vn -0.8305 -0.3065 -0.4651
vn -0.8125 -0.4480 -0.3729
vn -0.7239 -0.1190 -0.6796
vn -0.7506 -0.2282 -0.6201
vn -0.7525 -0.4976 -0.4314
vn -0.7070 -0.6534 -0.2704
vn -0.7225 -0.0949 -0.6848
vn -0.7203 -0.1447 -0.6784
vn 0.0826 0.4124 0.9072
vn 0.0221 0.3603 0.9326
vn 0.0400 0.4874 0.8723
vn 0.0070 0.1919 0.9814
vn 0.0829 0.4123 0.9073
vn 0.0886 0.2471 0.9649
vn 0.0858 -0.0612 0.9944
vn -0.5227 0.4269 0.7379
vn -0.5545 0.1390 0.8205
vn -0.5409 0.3172 0.7790
vn -0.5591 0.3210 0.7644
vn -0.5748 0.1975 0.7941
vn -0.5740 -0.1081 0.8117
vn -0.0426 0.3868 0.9212
vn -0.0719 0.2759 0.9585
vn -0.1348 -0.0150 0.9908
vn -0.4622 0.3588 0.8109
vn -0.4188 -0.0078 0.9080
vn -0.4603 0.2929 0.8381
vn 0.0331 -0.4506 0.8921
vn 0.0774 0.0698 0.9946
vn 0.0765 0.0625 0.9951
vn 0.1103 -0.1375 0.9843
vn 0.0406 -0.3947 0.9179
vn 0.0306 -0.5649 0.8246
vn 0.0306 -0.5650 0.8246
vn 0.1139 0.0484 0.9923
vn 0.1648 -0.5445 0.8224
vn 0.1722 -0.5456 0.8202
vn 0.2662 -0.5192 0.8122
vn 0.2663 -0.5192 0.8121
vn -0.6063 -0.3814 0.6978
vn -0.6557 -0.0042 0.7550
vn -0.5844 -0.4477 0.6768
vn -0.5313 -0.5654 0.6309
vn -0.6575 0.0645 0.7507
vn -0.6421 0.2272 0.7322
vn -0.6501 0.2104 0.7301
vn -0.6678 -0.0812 0.7399
vn -0.6296 -0.3026 0.7155
vn -0.5317 -0.5844 0.6131
vn -0.5316 -0.5842 0.6132
vn 0.1332 -0.9903 -0.0387
vn 0.1330 -0.9904 -0.0386
vn 0.1331 -0.9904 -0.0386
vn 0.1333 -0.9903 -0.0388
vn 0.4959 -0.7204 0.4849
vn 0.7302 -0.2178 0.6476
vn 0.6779 -0.3910 0.6226
vn 0.4798 -0.7404 0.4708
vn 0.5231 -0.5135 -0.6801
vn 0.4333 -0.7409 -0.5132
vn 0.5429 -0.4095 -0.7332
vn 0.4326 -0.5482 -0.7158
vn 0.3576 -0.8461 -0.3953
vn 0.4368 -0.5007 -0.7473
vn 0.0104 -0.5786 -0.8155
vn 0.0413 -0.4793 -0.8767
vn -0.0936 -0.8460 -0.5249
vn -0.0940 -0.5695 -0.8166
vn -0.0758 -0.4203 -0.9042
vn -0.1172 -0.7685 -0.6290
vn 0.7145 0.6811 0.1600
vn 0.7525 0.5766 0.3183
vn 0.7781 0.3731 0.5053
vn 0.7291 0.0503 0.6826
vn 0.6479 -0.1585 0.7451
vn 0.7882 0.2285 0.5714
vn 0.7984 0.1228 0.5895
vn 0.7764 0.1756 0.6053
vn 0.7656 0.1272 0.6306
vn 0.7603 -0.1300 0.6365
vn 0.6838 -0.3348 0.6483
vn 0.6175 -0.5030 0.6048
vn 0.7552 0.0930 0.6488
vn 0.6326 -0.4783 0.6091
vn 0.5600 -0.6033 0.5679
vn 0.7578 0.0672 0.6490
vn 0.7301 -0.2182 0.6476
vn 0.6778 -0.3911 0.6226
vn 0.4959 -0.7203 0.4850
vn 0.4799 -0.7403 0.4709
vn 0.6431 -0.5278 0.5549
vn 0.6431 -0.5278 0.5548
vn 0.9845 -0.1708 -0.0385
vn 0.9936 -0.0375 -0.1070
vn 0.9935 -0.0590 -0.0974
vn 0.9924 -0.0017 -0.1227
vn 0.9439 -0.3268 0.0477
vn 0.8904 -0.4412 0.1124
vn 0.9755 -0.1289 -0.1781
vn 0.8638 -0.5015 0.0480
vn 0.9652 -0.2368 -0.1112
vn 0.7395 -0.6545 0.1571
vn 0.9780 -0.1044 -0.1805
vn 0.9724 -0.1535 -0.1755
vn 0.2798 0.0006 -0.9601
vn 0.2798 0.0005 -0.9601
vn 0.5629 -0.1196 -0.8178
vn 0.5644 -0.1522 -0.8114
vn 0.5232 -0.5133 -0.6803
vn 0.5629 -0.0117 -0.8264
vn 0.5430 -0.4093 -0.7332
vn 0.4253 -0.2970 -0.8550
vn 0.4255 -0.2896 -0.8574
vn 0.4326 -0.5481 -0.7158
vn 0.4193 -0.3278 -0.8466
vn 0.4369 -0.5006 -0.7473
vn 0.1029 -0.2929 -0.9506
vn 0.0414 -0.4792 -0.8767
vn 0.0105 -0.5785 -0.8156
vn 0.1047 -0.3311 -0.9378
vn -0.0273 -0.1585 -0.9870
vn -0.0758 -0.4200 -0.9043
vn -0.0940 -0.5693 -0.8168
vn -0.0326 -0.1976 -0.9797
vn -0.0043 -0.0694 -0.9976
vn 0.7145 0.6812 0.1597
vn 0.6399 0.7683 -0.0134
vn 0.7524 0.5767 0.3183
vn -0.6781 0.6901 -0.2529
vn -0.7997 0.5846 -0.1370
vn -0.5253 0.7723 -0.3572
vn 0.0401 0.4875 0.8722
vn 0.0828 0.4123 0.9073
vn -0.5408 0.3172 0.7790
vn -0.5749 0.1975 0.7941
vn -0.5225 0.4272 0.7379
vn -0.0425 0.3869 0.9211
vn 0.1489 0.8435 0.5161
vn 0.1422 0.8313 0.5374
vn 0.2586 0.9320 0.2539
vn -0.0719 0.2760 0.9585
vn -0.4623 0.3589 0.8108
vn -0.4605 0.2929 0.8380
vn -0.4061 0.8411 0.3572
vn -0.4074 0.8338 0.3725
vn -0.3474 0.9343 0.0797
vn -0.2875 0.3228 0.9017
vn -0.6866 0.2959 0.6641
vn -0.2897 0.0698 0.9546
vn 0.1876 0.2793 0.9417
vn -0.6865 0.2959 0.6641
vn -0.6885 0.1832 0.7017
vn -0.6306 -0.2100 0.7472
vn -0.2752 -0.2261 0.9344
vn 0.1277 -0.2048 0.9704
vn 0.1737 0.1727 0.9695
vn 0.1877 0.2793 0.9417
vn -0.6237 0.0822 0.7773
vn -0.5743 0.0859 0.8141
vn -0.5755 -0.0001 0.8178
vn -0.5666 -0.0945 0.8186
vn -0.5783 0.0760 0.8123
vn -0.5696 0.1675 0.8047
vn -0.5603 -0.1321 0.8177
vn -0.5054 -0.3873 0.7711
vn -0.5891 -0.0047 0.8081
vn -0.6672 -0.0159 0.7447
vn -0.6702 0.1249 0.7316
vn -0.6271 -0.0209 0.7787
vn -0.5759 -0.2155 0.7886
vn -0.5932 -0.2179 0.7750
vn -0.6344 -0.2298 0.7381
vn -0.6666 0.1671 0.7264
vn -0.6724 0.0929 0.7344
vn -0.6667 0.1671 0.7263
vn -0.6667 0.1671 0.7264
vn 0.1720 0.1636 0.9714
vn 0.1023 -0.0179 0.9946
vn 0.1625 0.1001 0.9816
vn 0.1720 0.1635 0.9714
vn 0.1240 -0.2214 0.9673
vn 0.0770 -0.2167 0.9732
vn 0.0515 -0.2225 0.9736
vn 0.1661 0.1244 0.9782
vn 0.0443 0.0654 0.9969
vn 0.1026 0.0755 0.9919
vn 0.1581 -0.0176 0.9873
vn 0.0634 -0.0066 0.9980
vn 0.0399 0.0837 0.9957
vn 0.0448 0.1653 0.9852
vn 0.0405 -0.0024 0.9992
vn 0.0314 -0.0903 0.9954
vn 0.0323 -0.1262 0.9915
vn 0.0086 -0.3611 0.9325
vn -0.9061 0.0874 -0.4139
vn -0.7594 0.4746 -0.4450
vn -0.9160 0.0347 -0.3997
vn -0.9302 -0.0180 -0.3666
vn -0.9291 0.0150 -0.3694
vn -0.9103 -0.1650 -0.3797
vn -0.9133 -0.1249 -0.3876
vn -0.7438 -0.6008 -0.2928
vn -0.7503 -0.5919 -0.2944
vn -0.6738 -0.6550 -0.3420
vn -0.6592 -0.6716 -0.3382
vn -0.9558 0.0740 -0.2846
vn -0.9002 -0.3680 -0.2327
vn -0.9090 -0.3440 -0.2352
vn -0.9558 0.0740 -0.2844
vn -0.8117 0.5089 -0.2867
vn -0.8359 0.4670 -0.2884
vn -0.8049 -0.5636 -0.1854
vn -0.9503 0.1135 -0.2898
vn -0.7925 -0.5820 -0.1824
vn -0.8765 0.3819 -0.2932
vn -0.7850 0.5536 -0.2780
vn -0.6753 0.6897 -0.2615
vn -0.6660 0.6994 -0.2595
vn -0.6762 -0.7244 -0.1342
vn -0.9251 0.2415 -0.2931
vn -0.7771 -0.6045 -0.1752
vn -0.9279 0.2308 -0.2928
vn -0.6658 0.6995 -0.2595
vn -0.6215 0.7435 -0.2467
vn -0.6371 0.7279 -0.2537
vn -0.8650 0.4087 -0.2911
vn -0.0040 0.9962 -0.0870
vn -0.3661 0.9115 -0.1876
vn -0.6659 0.6995 -0.2595
vn -0.7542 0.5948 -0.2782
vn -0.8006 0.5290 -0.2814
vn -0.8650 0.4088 -0.2910
vn -0.6646 -0.1918 0.7222
vn -0.6703 -0.1829 0.7192
vn -0.6208 -0.5076 0.5975
vn -0.6206 -0.5153 0.5910
vn -0.5335 -0.7773 0.3333
vn -0.6718 -0.0074 0.7407
vn -0.6719 0.0355 0.7398
vn -0.6721 0.0747 0.7367
vn -0.6629 0.1594 0.7315
vn -0.6629 0.1594 0.7316
vn -0.6596 -0.0387 0.7506
vn -0.6417 -0.1535 0.7514
vn -0.6305 -0.2101 0.7472
vn -0.6306 -0.2101 0.7472
vn -0.6593 -0.1036 0.7447
vn -0.6765 0.0327 0.7357
vn -0.6809 0.3122 0.6625
vn -0.6811 0.3121 0.6624
vn -0.6810 0.3121 0.6625
vn 0.2228 0.3114 0.9238
vn 0.2227 0.3114 0.9238
vn 0.1818 0.0285 0.9829
vn 0.1565 -0.1067 0.9819
vn 0.1253 -0.2154 0.9685
vn 0.1252 -0.2154 0.9685
vn 0.1374 -0.1605 0.9774
vn 0.1253 -0.2153 0.9685
vn 0.1526 -0.0452 0.9873
vn 0.1709 0.1563 0.9728
vn 0.1661 0.0743 0.9833
vn 0.1710 0.1562 0.9728
vn 0.1665 0.0313 0.9855
vn 0.1695 -0.1951 0.9660
vn 0.1667 -0.0120 0.9859
vn 0.1717 -0.1847 0.9677
vn 0.1668 -0.0119 0.9859
vn 0.1990 -0.5105 0.8366
vn 0.1972 -0.5144 0.8345
vn 0.2567 -0.7807 0.5698
vn -0.5544 0.3863 0.7372
vn -0.5969 0.0800 0.7983
vn -0.5943 0.1047 0.7974
vn -0.5782 -0.2030 0.7903
vn -0.5576 -0.0930 0.8249
vn -0.5259 0.0180 0.8503
vn -0.4363 0.2584 0.8619
vn -0.4296 0.0988 0.8976
vn -0.4256 0.0510 0.9035
vn -0.4069 -0.1140 0.9063
vn -0.4485 -0.2056 0.8698
vn -0.4872 -0.3049 0.8184
vn -0.4538 -0.4382 0.7759
vn -0.5002 -0.3571 0.7888
vn -0.4244 -0.4891 0.7620
vn -0.2774 -0.6674 0.6911
vn -0.2070 -0.7281 0.6535
vn -0.5434 -0.1915 0.8174
vn -0.5322 -0.2413 0.8115
vn -0.5744 -0.0071 0.8185
vn 0.0724 0.3845 0.9203
vn 0.0628 0.0798 0.9948
vn 0.0669 0.1043 0.9923
vn 0.0550 -0.2058 0.9770
vn 0.0551 -0.2059 0.9770
vn 0.0162 -0.0872 0.9961
vn -0.0210 0.0203 0.9996
vn -0.0981 0.2547 0.9620
vn -0.1240 0.0945 0.9878
vn -0.1317 0.0453 0.9903
vn -0.1465 -0.1128 0.9828
vn -0.1004 -0.2071 0.9731
vn -0.0358 -0.3128 0.9491
vn -0.0395 -0.4450 0.8946
vn -0.0065 -0.3577 0.9338
vn -0.0601 -0.4902 0.8695
vn -0.1457 -0.6663 0.7313
vn -0.1875 -0.7241 0.6637
vn 0.0177 -0.1916 0.9813
vn 0.0056 -0.2457 0.9693
vn 0.0396 -0.0095 0.9992
vn 0.7379 -0.6715 0.0679
vn 0.7486 -0.6585 0.0770
vn 0.5184 -0.8509 -0.0852
vn 0.4990 -0.8604 -0.1034
vn 0.3412 -0.9162 -0.2100
vn -0.6592 -0.6716 -0.3383
vn -0.3947 -0.8459 -0.3587
vn -0.6736 -0.6552 -0.3419
vn -0.3647 -0.8581 -0.3615
vn -0.1784 -0.9176 -0.3552
vn -0.6839 -0.7168 -0.1361
vn -0.9090 -0.3441 -0.2351
vn -0.6838 -0.7169 -0.1359
vn -0.3422 -0.9395 -0.0157
vn -0.0914 -0.9939 0.0615
vn 0.2922 -0.9415 0.1681
vn 0.3483 -0.9186 0.1869
vn 0.3778 -0.9061 0.1904
vn 0.4347 -0.8766 0.2062
vn 0.6370 -0.7280 0.2537
vn 0.7412 -0.6137 0.2721
vn -0.6208 -0.5076 0.5974
vn -0.5305 -0.7730 0.3479
vn -0.5335 -0.7774 0.3332
vn -0.4226 -0.8991 0.1140
vn 0.2568 -0.7807 0.5697
vn 0.2582 -0.7760 0.5754
vn 0.1990 -0.5107 0.8364
vn 0.2910 -0.9017 0.3199
vn -0.2772 -0.6675 0.6910
vn -0.0759 -0.8161 0.5729
vn -0.2069 -0.7282 0.6534
vn -0.1876 -0.7243 0.6635
vn -0.2488 -0.8143 0.5243
vn -0.0133 -0.9965 0.0830
vn 0.7612 -0.5883 0.2730
vn 0.7776 -0.5646 0.2767
vn -0.0477 -0.9960 0.0751
vn -0.7925 -0.5820 -0.1823
vn -0.8048 -0.5638 -0.1853
vn -0.3421 -0.9395 -0.0158
vn 0.0404 -0.9940 0.1018
vn 0.6454 -0.7222 0.2489
vn 0.6453 -0.7222 0.2490
vn -0.3994 -0.9161 -0.0360
vn 0.8832 -0.3699 0.2884
vn -0.4221 -0.9056 -0.0412
vn 0.8904 -0.3488 0.2925
vn -0.4782 -0.8759 -0.0639
vn -0.4782 -0.8759 -0.0640
vn -0.6761 -0.7245 -0.1342
vn -0.7770 -0.6046 -0.1751
vn 0.7844 -0.6001 0.1567
vn 0.9700 -0.1674 0.1765
vn 0.7820 -0.6026 0.1592
vn 0.9759 -0.1359 0.1709
vn 0.7487 -0.6585 0.0771
vn 0.9814 -0.0230 0.1905
vn 0.7379 -0.6714 0.0681
vn 0.9811 0.0129 0.1932
vn 0.9866 0.0240 0.1613
vn 0.9860 0.0785 0.1472
vn 0.8808 0.4722 0.0355
vn 0.4219 0.9057 0.0411
vn 0.0573 0.9959 -0.0696
vn 0.8848 0.4097 0.2221
vn 0.8848 0.4097 0.2222
vn 0.8273 0.5258 0.1977
vn 0.9384 0.2353 0.2531
vn 0.6371 -0.7278 0.2538
vn 0.7413 -0.6136 0.2722
vn 0.7862 0.5910 0.1807
vn 0.9413 0.2188 0.2571
vn 0.7055 0.6931 0.1478
vn 0.6762 0.7244 0.1341
vn 0.6642 0.7365 0.1280
vn 0.7009 0.6973 0.1500
vn 0.7130 0.6850 0.1496
vn 0.8134 0.5495 0.1908
vn 0.8134 0.5496 0.1908
vn 0.7613 -0.5882 0.2730
vn 0.8931 0.3901 0.2241
vn 0.9575 0.0946 0.2726
vn 0.7777 -0.5644 0.2768
vn 0.9595 0.0686 0.2733
vn 0.8904 -0.3487 0.2925
vn 0.8832 -0.3698 0.2884
vn 0.8384 0.5068 0.2004
vn 0.8584 0.4672 0.2121
vn 0.1285 0.8949 -0.4274
vn 0.1285 0.8949 -0.4273
vn 0.2797 -0.0858 -0.9562
vn 0.2796 -0.0859 -0.9563
vn 0.2796 -0.0858 -0.9563
vn 0.2797 -0.0859 -0.9562
vn 0.2797 -0.0858 -0.9563
vn 0.1286 0.8949 -0.4272
vn 0.1284 0.8950 -0.4272
vn 0.1286 0.8949 -0.4273
vn 0.1286 0.8950 -0.4271
vn -0.8116 0.5090 -0.2866
vn -0.8359 0.4671 -0.2882
vn -0.5333 0.8138 -0.2311
vn -0.5333 0.8137 -0.2310
vn 0.0573 0.9959 -0.0695
vn 0.9413 0.2187 0.2572
vn 0.6642 0.7366 0.1279
vn 0.9384 0.2352 0.2530
vn 0.6761 0.7245 0.1341
vn 0.5777 0.8104 0.0976
vn 0.7129 0.6851 0.1497
vn 0.7008 0.6974 0.1500
vn 0.5779 0.8103 0.0976
vn 0.8931 0.3901 0.2242
vn 0.9575 0.0944 0.2725
vn -0.9504 0.1133 -0.2898
vn -0.5333 0.8138 -0.2310
vn -0.8765 0.3819 -0.2931
vn -0.6658 0.6995 -0.2596
vn -0.6751 0.6898 -0.2614
vn 0.5805 0.8079 0.1014
vn 0.8583 0.4672 0.2121
vn 0.8383 0.5070 0.2003
vn 0.5805 0.8080 0.1013
vn -0.6214 0.7436 -0.2467
vn -0.9280 0.2307 -0.2928
vn -0.9251 0.2413 -0.2931
vn -0.3661 0.9115 -0.1875
vn -0.6370 0.7279 -0.2537
vn -0.0041 0.9962 -0.0868
vt 28.014400 -5.052060
vt 27.985600 -4.947940
vt 28.014400 -4.947940
vt 27.985600 -5.052060
vt 28.014400 -4.932500
vt 27.985600 -4.932500
vt 28.014400 -5.067500
vt 27.985600 -5.067500
vt 28.014400 -5.041650
vt 27.985600 -5.041650
vt 27.985600 -4.958350
vt 28.014400 -4.958350
vt 27.947901 -5.014410
vt 28.052099 -4.985590
vt 28.052099 -5.014410
vt 27.947901 -4.985590
vt 27.958401 -5.014410
vt 28.041599 -4.985590
vt 28.041599 -5.014410
vt 28.054001 -4.985590
vt 27.958401 -4.985590
vt 27.945999 -5.014410
vt 27.945999 -4.985590
vt 28.054001 -5.014410
vt 27.958401 -5.054000
vt 27.932501 -5.052060
vt 27.945999 -5.041650
vt 27.947901 -5.067500
vt 27.932501 -4.947940
vt 28.052099 -5.067500
vt 27.945999 -4.958350
vt 28.041599 -5.054000
vt 28.067499 -5.052060
vt 28.054001 -5.041650
vt 27.958401 -4.946000
vt 27.947901 -4.932500
vt 28.041599 -4.946000
vt 28.052099 -4.932500
vt 28.054001 -4.958350
vt 28.067499 -4.947940
vt 52.005600 -29.008699
vt 51.996899 -29.020100
vt 51.986401 -29.015499
vt 51.996201 -28.997101
vt 51.972599 -28.997900
vt 52.013901 -28.984200
vt 52.013901 -29.004101
vt 51.995201 -28.996799
vt 52.183701 -29.022499
vt 52.005901 -28.974001
vt 51.975800 -28.979500
vt 51.853100 -29.025499
vt 51.843300 -29.025499
vt 51.843800 -29.016600
vt 51.835899 -29.025499
vt 51.854198 -29.014500
vt 51.859402 -29.025499
vt 51.860901 -29.011400
vt 51.835899 -29.013201
vt 51.820599 -29.025499
vt 51.818600 -29.015200
vt 51.815498 -29.016800
vt 51.817001 -29.025499
vt 52.013901 -28.990999
vt 52.013901 -29.011000
vt 51.993801 -29.006701
vt 52.184502 -29.014099
vt 52.003399 -28.983200
vt 51.975201 -28.981501
vt 51.992298 -29.020901
vt 51.982300 -29.018600
vt 51.992199 -29.000200
vt 52.000900 -29.009501
vt 52.006500 -29.025999
vt 51.990002 -29.004101
vt 51.988701 -29.013901
vt 51.966801 -29.013901
vt 51.975300 -29.183701
vt 51.967602 -29.005899
vt 51.976601 -28.975800
vt 52.031898 -29.013901
vt 52.020100 -29.184500
vt 52.012798 -29.013901
vt 52.010899 -29.003401
vt 52.033600 -29.005199
vt 52.024899 -28.975201
vt 51.958698 -28.992201
vt 51.938000 -28.996201
vt 51.941898 -28.972601
vt 52.041302 -28.992201
vt 52.058102 -28.972601
vt 52.062000 -28.996201
vt 51.996799 -28.854700
vt 51.996399 -28.843800
vt 52.006802 -28.843300
vt 51.998798 -28.834400
vt 52.009602 -28.854300
vt 51.996498 -28.861500
vt 52.013302 -28.861000
vt 52.011799 -28.832199
vt 51.996498 -28.822599
vt 51.987301 -28.819000
vt 51.994701 -28.818600
vt 51.987499 -28.815800
vt 51.984501 -28.854200
vt 51.986500 -28.843800
vt 51.980400 -28.860901
vt 51.986301 -28.835899
vt 51.978600 -28.818600
vt 51.980598 -28.815500
vt 52.021900 -29.025499
vt 52.001900 -29.025499
vt 52.005299 -29.016300
vt 52.019402 -29.016800
vt 52.012501 -29.013399
vt 51.999199 -29.025499
vt 51.982300 -29.025499
vt 51.988201 -29.011600
vt 52.003502 -29.014601
vt 51.958199 -28.998699
vt 51.975101 -28.981501
vt 51.980900 -29.006701
vt 51.928001 -29.015499
vt 51.941898 -28.997900
vt 51.948799 -29.018600
vt 52.071999 -29.015499
vt 52.051201 -29.018600
vt 52.058102 -28.997900
vt 52.041401 -28.996799
vt 52.019001 -29.005699
vt 52.023399 -28.979500
vt 52.003101 -29.020100
vt 51.994400 -29.008699
vt 52.013599 -29.015499
vt 52.003799 -28.997101
vt 52.027401 -28.997900
vt 51.986099 -28.984900
vt 52.004398 -28.998699
vt 51.986099 -29.004900
vt 51.815498 -29.014099
vt 51.994801 -28.975201
vt 52.024799 -28.981501
vt 52.145699 -29.013300
vt 52.156700 -29.015600
vt 52.146801 -29.025499
vt 52.140400 -29.025499
vt 52.139000 -29.009800
vt 52.157299 -29.025499
vt 52.169300 -29.025499
vt 52.167801 -29.011600
vt 52.178699 -29.025499
vt 52.177399 -29.014601
vt 52.181400 -29.016300
vt 52.182400 -29.025499
vt 52.006599 -29.005699
vt 51.986099 -29.010700
vt 51.986099 -28.990700
vt 51.816299 -29.022499
vt 51.995899 -28.982901
vt 52.024200 -28.979500
vt 52.007702 -29.020901
vt 52.007801 -29.000200
vt 52.017700 -29.018600
vt 51.999100 -29.009501
vt 51.993500 -29.025999
vt 51.988499 -28.842699
vt 51.999199 -28.821301
vt 52.018398 -28.835899
vt 51.982300 -28.830700
vt 52.001900 -28.817600
vt 52.021900 -28.816999
vt 52.024601 -28.820601
vt 52.017200 -28.843300
vt 52.020000 -28.853100
vt 51.984600 -28.853201
vt 52.025600 -28.859400
vt 51.979099 -28.859600
vt 51.978600 -29.013901
vt 51.959499 -29.013901
vt 51.958199 -28.995600
vt 51.979900 -29.184500
vt 51.980900 -28.993799
vt 51.948200 -28.992300
vt 51.933998 -28.996901
vt 51.928001 -28.986401
vt 51.948002 -29.006500
vt 51.948799 -28.982300
vt 52.051800 -28.992300
vt 52.051201 -28.982300
vt 52.071999 -28.986401
vt 52.066002 -28.996901
vt 52.051998 -29.006500
vt 52.019901 -29.013901
vt 52.019001 -28.993401
vt 52.041401 -28.995199
vt 52.041801 -29.013901
vt 52.024700 -29.183701
vt 52.066002 -29.020100
vt 52.051998 -29.025999
vt 52.058800 -29.008699
vt 51.933998 -29.020100
vt 51.941200 -29.008699
vt 51.948002 -29.025999
vt 51.966801 -28.984200
vt 51.967602 -28.974001
vt 51.990002 -28.982901
vt 52.012798 -28.990999
vt 52.033600 -28.975201
vt 52.031898 -28.984900
vt 51.958698 -29.000200
vt 51.955399 -29.009501
vt 51.938000 -28.997101
vt 52.041302 -29.000200
vt 52.062000 -28.997101
vt 52.044601 -29.009501
vt 0.687870 1.565840
vt 0.678478 1.574800
vt 0.687870 1.592450
vt 0.697262 1.574730
vt 0.671986 1.589810
vt 0.678273 1.593850
vt 0.679297 1.594550
vt 0.687870 1.607460
vt 0.696443 1.594550
vt 0.697467 1.593850
vt 0.703753 1.589770
vt 0.649178 1.635940
vt 0.624277 1.636620
vt 0.625340 1.651200
vt 0.637269 1.659390
vt 0.625640 1.613120
vt 0.622748 1.615940
vt 0.648911 1.658390
vt 0.645858 1.665550
vt 0.650317 1.655210
vt 0.651474 1.652580
vt 0.667807 1.635100
vt 0.650496 1.613920
vt 0.638299 1.600320
vt 0.648395 1.603600
vt 0.662292 1.608020
vt 0.670480 1.632290
vt 0.669696 1.611820
vt 0.676547 1.615170
vt 0.680376 1.623810
vt 0.705260 1.632290
vt 0.725243 1.613920
vt 0.706044 1.611820
vt 0.699193 1.615170
vt 0.695364 1.623810
vt 0.713448 1.608030
vt 0.727344 1.603600
vt 0.737441 1.600310
vt 0.707933 1.635100
vt 0.750099 1.613120
vt 0.726562 1.635940
vt 0.724266 1.652580
vt 0.725423 1.655210
vt 0.751462 1.636620
vt 0.752992 1.615940
vt 0.750400 1.651200
vt 0.738471 1.659390
vt 0.726829 1.658390
vt 0.729882 1.665530
vt 24.032101 -6.999440
vt 24.055500 -7.007230
vt 24.046400 -7.035580
vt 24.024900 -7.033700
vt 24.014700 -7.000690
vt 24.009399 -7.032340
vt 23.979401 -7.029720
vt 23.982800 -6.992410
vt 23.965599 -6.996390
vt 23.965099 -7.028460
vt 23.944901 -7.000130
vt 23.946899 -7.026870
vt 23.989700 -7.003270
vt 24.011400 -6.995670
vt 24.010401 -7.007410
vt 23.990700 -6.991530
vt 23.976101 -6.991200
vt 23.975100 -7.002940
vt 24.051600 -6.990530
vt 24.036501 -6.988870
vt 24.052900 -6.975650
vt 24.037800 -6.973980
vt 24.020201 -6.968220
vt 24.033100 -6.969060
vt 24.031799 -6.983940
vt 24.018900 -6.983100
vt 24.011200 -6.985150
vt 24.002501 -6.981700
vt 24.012199 -6.973410
vt 24.003500 -6.969960
vt 23.992201 -6.974060
vt 23.995100 -6.973260
vt 23.993999 -6.985000
vt 23.967899 -6.994970
vt 23.960800 -6.999000
vt 23.961800 -6.987260
vt 23.991199 -6.985800
vt 23.969000 -6.983220
vt 23.974800 -6.982140
vt 23.971100 -6.994480
vt 23.973700 -6.993880
vt 23.972099 -6.982730
vt 24.000000 -6.968380
vt 23.962601 -6.969090
vt 23.969101 -6.950190
vt 24.000000 -6.947240
vt 24.000000 -6.926430
vt 23.963600 -6.974770
vt 23.962400 -6.972140
vt 23.979900 -6.992240
vt 24.000000 -6.993150
vt 23.982599 -6.995060
vt 23.992500 -7.003540
vt 24.000000 -7.017520
vt 23.988701 -7.012180
vt 23.981800 -7.015530
vt 24.000000 -7.020160
vt 23.991400 -7.033070
vt 23.990400 -7.033780
vt 23.974400 -7.019330
vt 23.959400 -7.029270
vt 23.960501 -7.023750
vt 23.984100 -7.037820
vt 23.966101 -7.065460
vt 23.990601 -7.052820
vt 24.000000 -7.061790
vt 24.000000 -7.081570
vt 24.033899 -7.065460
vt 24.009399 -7.052890
vt 24.015900 -7.037850
vt 24.040600 -7.029270
vt 24.009600 -7.033780
vt 24.025600 -7.019320
vt 24.039499 -7.023750
vt 24.018200 -7.015530
vt 24.008600 -7.033070
vt 24.011299 -7.012180
vt 24.007500 -7.003540
vt 24.017401 -6.995060
vt 24.020100 -6.992240
vt 24.036400 -6.974770
vt 24.037399 -6.969090
vt 24.037600 -6.972140
vt 24.030899 -6.950190
vt 23.929199 -7.055500
vt 23.915199 -7.032140
vt 23.950399 -7.027030
vt 23.937799 -7.014230
vt 23.921900 -7.014730
vt 23.934900 -7.011400
vt 23.936399 -6.990730
vt 23.908600 -6.982800
vt 23.937500 -6.976150
vt 23.921900 -6.965600
vt 23.949400 -6.967960
vt 23.935400 -6.944930
vt 23.958000 -6.961790
vt 23.961100 -6.925040
vt 23.981400 -6.931750
vt 23.961000 -6.968960
vt 24.070801 -7.055500
vt 24.084801 -7.032140
vt 24.049601 -7.027040
vt 24.062201 -7.014230
vt 24.078100 -7.014730
vt 24.065100 -7.011410
vt 24.063601 -6.990730
vt 24.091400 -6.982800
vt 24.062500 -6.976140
vt 24.078100 -6.965600
vt 24.050600 -6.967960
vt 24.064600 -6.944930
vt 24.042000 -6.961820
vt 24.038900 -6.925040
vt 24.018600 -6.931750
vt 24.039000 -6.968960
vt 23.938200 -7.026870
vt 23.935400 -7.000130
vt 23.961100 -7.008940
vt 23.962700 -7.025370
vt 24.000000 -7.024380
vt 24.061800 -7.026870
vt 24.038900 -7.008940
vt 24.064600 -7.000130
vt 24.037300 -7.025370
vt 23.937799 -7.006940
vt 23.934900 -7.007410
vt 23.934900 -6.995670
vt 23.937799 -6.995190
vt 23.950399 -6.999450
vt 23.950399 -6.987710
vt 23.960501 -6.996620
vt 23.960501 -6.984880
vt 23.974400 -6.991670
vt 23.974400 -6.979920
vt 23.981800 -6.989190
vt 23.981800 -6.977450
vt 23.988701 -6.985200
vt 23.988701 -6.973450
vt 24.030899 -6.989000
vt 24.018600 -7.002540
vt 24.000000 -6.993040
vt 23.981400 -7.002540
vt 23.969101 -6.989000
vt 24.000000 -6.988620
vt 24.009399 -6.976390
vt 24.009399 -6.991280
vt 24.000000 -6.973740
vt 23.990601 -6.975650
vt 23.990601 -6.990530
vt 24.039499 -6.996620
vt 24.049601 -6.987790
vt 24.049601 -6.999530
vt 24.062201 -6.995190
vt 24.039499 -6.984880
vt 24.062201 -7.006940
vt 24.025600 -6.991530
vt 24.065100 -6.995700
vt 24.025600 -6.979790
vt 24.065100 -7.007440
vt 24.018200 -6.989190
vt 24.018200 -6.977450
vt 24.011299 -6.985150
vt 24.011299 -6.973410
vt 24.034901 -7.028460
vt 24.020599 -7.029720
vt 24.034401 -6.996390
vt 24.017200 -6.992410
vt 24.055099 -7.000130
vt 23.985300 -7.000690
vt 24.053101 -7.026870
vt 23.990601 -7.032340
vt 23.975100 -7.033700
vt 23.967899 -6.999440
vt 23.953600 -7.035580
vt 23.944500 -7.007230
vt 24.038200 -6.987000
vt 24.039200 -6.998740
vt 24.032101 -6.994970
vt 24.031000 -6.983220
vt 24.028900 -6.994480
vt 24.027901 -6.982730
vt 24.026300 -6.993880
vt 23.997499 -6.981740
vt 23.988899 -6.985200
vt 23.987801 -6.973450
vt 24.025200 -6.982130
vt 23.996500 -6.970000
vt 24.008801 -6.985800
vt 24.007799 -6.974060
vt 24.006001 -6.985030
vt 24.004900 -6.973290
vt 23.968201 -6.983950
vt 23.966900 -6.969070
vt 23.979799 -6.968220
vt 23.981100 -6.983100
vt 23.947201 -6.976390
vt 23.962200 -6.974360
vt 23.963499 -6.989250
vt 23.948500 -6.991280
vt 24.010300 -7.003270
vt 23.989599 -7.007440
vt 23.988600 -6.995700
vt 24.009300 -6.991530
vt 24.023800 -6.991110
vt 24.024900 -7.002860
vt 23.925301 -7.009430
vt 23.962700 -6.929750
vt 24.074699 -7.009430
vt 23.938200 -6.946880
vt 23.925301 -6.965090
vt 23.912500 -6.979400
vt 24.000000 -6.918430
vt 24.037300 -6.929750
vt 24.061800 -6.946880
vt 24.074699 -6.965090
vt 24.087500 -6.979400
vt 23.932199 -7.046450
vt 23.918800 -7.024920
vt 24.067801 -7.046450
vt 24.081200 -7.024920
vt 24.067801 -7.035580
vt 23.932199 -7.035580
vt 23.966101 -6.995390
vt 23.929199 -7.007230
vt 24.033899 -6.995390
vt 24.070801 -7.007230
vt 24.062500 -6.991200
vt 24.062500 -7.002940
vt 24.050600 -6.998880
vt 24.050600 -6.987140
vt 24.042000 -6.998740
vt 24.042000 -6.987000
vt 24.007500 -6.970000
vt 24.017401 -6.973290
vt 24.007500 -6.981740
vt 24.017401 -6.985030
vt 23.990400 -6.969350
vt 23.991400 -6.969070
vt 23.991400 -6.983950
vt 23.990400 -6.984230
vt 23.984100 -6.974360
vt 23.984100 -6.989250
vt 24.015900 -6.988870
vt 24.009600 -6.984230
vt 24.015900 -6.973980
vt 24.009600 -6.969350
vt 24.008600 -6.983940
vt 24.008600 -6.969060
vt 23.949400 -6.998880
vt 23.937500 -7.002860
vt 23.937500 -6.991110
vt 23.949400 -6.987140
vt 23.982599 -6.973260
vt 23.992500 -6.969960
vt 23.992500 -6.981700
vt 23.958000 -6.987260
vt 23.982599 -6.985000
vt 23.958000 -6.999000
s 1
usemtl Meshpart1Mtl
f 1/1/1 3/2/2 2/3/3
f 1/1/1 4/4/1 3/2/2
f 3/2/2 5/5/4 2/3/3
f 5/5/4 3/2/2 6/6/5
f 9/1/6 8/7/7 7/8/7
f 7/8/7 10/4/6 9/1/6
f 12/9/8 11/10/8 13/11/9
f 13/11/9 14/12/10 12/9/8
f 17/13/11 15/14/12 16/15/13
f 17/13/11 18/16/14 15/14/12
f 19/17/13 21/18/14 20/19/14
f 20/19/14 21/18/14 22/20/15
f 19/17/13 23/21/13 21/18/14
f 19/17/13 24/22/16 23/21/13
f 24/22/16 25/23/17 23/21/13
f 26/24/18 20/19/14 22/20/15
f 27/25/19 29/26/20 28/27/20
f 29/26/20 27/25/19 30/28/19
f 28/27/20 29/26/20 31/29/19
f 32/30/20 30/28/19 27/25/19
f 31/29/19 33/31/21 28/27/20
f 27/25/19 34/32/20 32/30/20
f 35/33/19 32/30/20 34/32/20
f 34/32/20 36/34/22 35/33/19
f 37/35/19 33/31/21 31/29/19
f 31/29/19 38/36/20 37/35/19
f 39/37/19 37/35/19 38/36/20
f 38/36/20 40/38/19 39/37/19
f 41/39/20 43/33/20 42/34/19
f 43/33/20 41/39/20 44/40/19
f 44/40/19 41/39/20 45/37/19
f 45/37/19 46/38/20 44/40/19
f 47/2/23 49/1/24 48/4/25
f 49/1/24 50/8/26 48/4/25
f 47/2/23 51/3/23 49/1/24
f 50/8/26 49/1/24 52/7/26
f 53/5/27 51/3/23 47/2/23
f 47/2/23 54/6/28 53/5/27
f 56/11/29 55/12/29 57/9/30
f 57/9/30 58/10/31 56/11/29
f 59/13/32 60/16/32 61/14/33
f 59/13/32 61/14/33 62/15/34
f 64/22/35 63/23/36 65/21/37
f 66/17/37 64/22/35 65/21/37
f 66/17/37 65/21/37 67/18/38
f 66/17/37 67/18/38 68/19/39
f 69/20/40 71/24/41 70/19/42
f 70/19/42 72/18/43 69/20/40
f 73/30/44 75/28/44 74/25/45
f 74/25/45 75/28/44 76/26/45
f 76/26/45 77/27/44 74/25/45
f 74/25/45 78/32/46 73/30/44
f 79/33/46 73/30/44 78/32/46
f 78/32/46 80/34/46 79/33/46
f 79/33/46 80/34/46 81/39/44
f 81/39/44 82/40/45 79/33/46
f 83/37/45 82/40/45 81/39/44
f 82/40/45 83/37/45 84/38/44
f 85/36/46 84/38/44 83/37/45
f 83/37/45 86/35/46 85/36/46
f 87/27/46 89/29/46 88/31/45
f 89/29/46 87/27/46 90/26/45
f 91/35/45 88/31/45 89/29/46
f 89/29/46 92/36/47 91/35/45
usemtl Meshpart2Mtl
f 93/41/48 95/42/49 94/43/50
f 94/43/50 96/44/51 93/41/48
f 96/44/51 94/43/50 97/45/52
f 98/46/53 100/47/54 99/48/55
f 100/47/54 98/46/53 101/49/56
f 102/50/57 98/46/53 99/48/55
f 102/50/57 99/48/55 103/51/58
f 104/52/59 106/53/60 105/54/61
f 105/54/61 106/53/60 107/55/62
f 105/54/61 108/56/63 104/52/59
f 109/57/64 104/52/59 108/56/63
f 109/57/64 108/56/63 110/58/64
f 107/55/62 111/59/65 105/54/61
f 111/59/65 107/55/62 112/60/66
f 112/60/66 113/61/67 111/59/65
f 114/62/68 113/61/67 112/60/66
f 112/60/66 115/63/68 114/62/68
f 116/64/69 118/65/70 117/66/71
f 116/64/69 119/67/72 118/65/70
f 117/66/71 120/68/73 116/64/69
f 117/66/71 121/69/74 120/68/73
f 122/70/75 124/71/76 123/72/77
f 124/71/76 125/45/78 123/72/77
f 123/72/77 126/73/79 122/70/75
f 126/73/79 127/74/80 122/70/75
f 128/75/81 130/76/82 129/77/83
f 129/77/83 130/76/82 131/78/84
f 128/75/85 132/79/86 133/80/87
f 135/81/88 137/82/89 134/83/90
f 134/83/90 138/84/91 136/85/92
f 138/84/91 139/86/93 136/85/92
f 140/87/94 141/88/95 142/89/96
f 143/90/97 145/91/98 144/92/99
f 146/93/100 148/94/101 147/95/102
f 147/95/102 148/94/101 149/96/103
f 147/95/102 150/97/104 146/93/100
f 151/98/105 146/93/100 150/97/104
f 151/98/105 150/97/104 152/99/106
f 149/96/103 153/100/107 147/95/102
f 154/101/108 153/100/107 149/96/103
f 149/96/103 155/102/109 154/101/108
f 155/102/109 156/103/110 154/101/108
f 155/102/109 157/104/111 156/103/110
f 158/105/112 160/106/113 159/93/114
f 158/105/112 159/93/114 161/98/115
f 161/98/115 162/107/115 158/105/112
f 159/93/114 160/106/113 163/94/116
f 163/94/116 160/106/113 164/108/117
f 164/108/117 165/96/118 163/94/116
f 166/102/119 165/96/118 164/108/117
f 164/108/117 167/109/120 166/102/119
f 166/102/119 167/109/120 168/110/121
f 168/110/121 169/104/122 166/102/119
f 170/111/123 172/112/124 171/113/125
f 171/113/125 173/114/126 170/111/123
f 171/113/125 174/115/123 173/114/126
f 177/116/127 175/117/128 176/118/129
f 176/118/129 178/119/130 177/116/127
f 179/120/131 181/121/132 180/122/133
f 182/123/134 184/124/135 183/125/136
f 185/126/137 186/127/138 187/128/139
f 188/129/140 189/130/141 190/131/142
f 191/132/143 193/133/144 192/134/145
f 192/134/145 193/133/144 194/135/146
f 194/135/146 195/136/147 192/134/145
f 196/137/148 198/138/149 197/139/150
f 197/139/150 199/140/151 196/137/148
f 198/138/149 196/137/148 200/141/152
f 200/141/152 201/142/153 198/138/149
f 202/143/154 204/144/155 203/145/156
f 202/143/154 203/145/156 205/146/157
f 205/146/157 206/147/157 202/143/154
f 203/145/156 204/144/155 207/148/158
f 208/149/159 207/148/158 204/144/155
f 204/144/155 209/150/160 208/149/159
f 210/151/161 211/152/162 212/153/163
f 212/153/163 213/154/164 210/151/161
f 214/155/165 216/156/166 215/157/167
f 215/157/167 216/156/166 217/158/168
f 215/157/167 218/159/169 214/155/165
f 214/155/165 218/159/169 219/160/170
f 220/161/171 222/162/172 221/163/173
f 221/163/173 222/162/172 223/136/174
f 222/162/172 220/161/171 224/164/175
f 224/164/175 220/161/171 225/165/176
f 226/166/177 228/167/177 227/168/177
f 226/166/177 229/169/177 228/167/177
f 227/168/177 228/167/177 230/170/177
f 230/170/177 231/171/178 227/168/177
f 231/171/178 232/172/178 227/168/177
f 227/168/177 233/173/177 226/166/177
f 226/166/177 233/173/177 234/174/177
f 234/174/177 235/175/177 226/166/177
f 235/175/177 234/174/177 236/176/177
f 237/177/177 235/175/177 236/176/177
f 238/178/179 240/179/180 239/180/181
f 238/178/179 241/181/182 240/179/180
f 239/180/181 242/182/183 238/178/179
f 243/183/184 245/184/185 244/185/186
f 243/183/184 246/186/187 245/184/185
f 244/185/186 247/187/188 243/183/184
f 248/188/189 250/189/190 249/190/191
f 249/190/191 251/191/189 248/188/189
f 248/188/189 251/191/189 252/192/192
f 253/193/193 255/194/194 254/195/195
f 254/195/195 256/196/196 253/193/193
f 253/193/193 256/196/196 257/197/197
f 258/198/198 260/199/199 259/200/200
f 262/201/201 261/202/202 263/203/203
f 265/204/204 266/205/86 264/206/205
f 267/207/206 269/208/207 268/209/208
f 270/210/209 272/211/210 271/202/211
f 271/202/211 272/211/210 273/203/212
f 271/202/211 274/212/213 270/210/209
f 275/213/214 277/214/215 276/200/216
f 276/200/216 278/215/217 275/213/214
f 276/200/216 279/199/218 278/215/217
usemtl Meshpart3Mtl
f 280/216/219 282/217/220 281/218/221
f 283/219/222 280/216/219 281/218/221
f 282/217/220 285/220/223 284/221/224
f 284/221/224 281/218/221 282/217/220
f 284/221/224 286/222/225 281/218/221
f 286/222/225 287/223/226 281/218/221
f 281/218/221 287/223/226 288/224/227
f 281/218/221 288/224/227 289/225/228
f 281/218/221 289/225/228 283/219/222
f 289/225/228 290/226/229 283/219/222
f 291/227/230 293/228/231 292/229/232
f 292/229/232 294/230/233 291/227/230
f 295/231/234 296/232/235 293/228/231
f 293/228/231 291/227/230 295/231/234
f 297/233/236 294/230/233 298/234/237
f 294/230/233 297/233/236 299/235/238
f 294/230/233 299/235/238 291/227/230
f 299/235/238 300/236/239 291/227/230
f 291/227/230 300/236/239 301/237/240
f 291/227/230 302/238/241 295/231/234
f 302/238/241 291/227/230 301/237/240
f 302/238/241 303/239/242 295/231/234
f 302/238/241 304/240/243 303/239/242
f 304/240/243 302/238/241 305/241/244
f 301/237/240 306/242/245 302/238/241
f 307/243/246 305/241/244 302/238/241
f 306/242/245 307/243/246 302/238/241
f 308/244/247 307/243/246 306/242/245
f 306/242/245 309/245/248 308/244/247
f 310/246/249 312/247/250 311/248/251
f 311/248/251 313/249/249 310/246/249
f 313/249/249 314/250/252 310/246/249
f 312/247/250 315/251/253 311/248/251
f 315/251/253 312/247/250 316/252/254
f 317/253/255 316/252/254 312/247/250
f 310/246/249 318/254/256 312/247/250
f 312/247/250 319/255/257 317/253/255
f 318/254/256 320/256/258 312/247/250
f 312/247/250 320/256/258 319/255/257
f 321/257/259 320/256/258 318/254/256
f 320/256/258 321/257/259 322/258/260
f 319/255/257 320/256/258 323/259/261
f 323/259/261 324/260/262 319/255/257
f 325/261/263 323/259/261 320/256/258
f 326/262/264 325/261/263 320/256/258
f 326/262/264 320/256/258 322/258/260
f 322/258/260 327/263/265 326/262/264
f 326/262/264 327/263/265 328/264/266
usemtl Meshpart4Mtl
f 329/265/267 331/266/268 330/267/268
f 330/267/268 332/268/269 329/265/267
f 332/268/269 333/269/270 329/265/267
f 332/268/269 334/270/271 333/269/270
f 334/270/271 335/271/272 333/269/270
f 333/269/270 335/271/272 336/272/273
f 337/273/274 336/272/273 335/271/272
f 335/271/272 338/274/275 337/273/274
f 337/273/274 338/274/275 339/275/276
f 338/274/275 340/276/277 339/275/276
f 341/277/278 343/278/279 342/279/280
f 343/278/279 341/277/278 344/280/281
f 345/281/282 344/280/281 341/277/278
f 341/277/278 346/282/283 345/281/282
f 348/283/284 349/284/285 347/285/286
f 347/285/286 349/284/285 350/286/287
f 353/287/288 352/288/289 351/289/290
f 351/289/290 354/290/288 353/287/288
f 355/291/291 357/292/292 356/293/293
f 356/293/293 357/292/292 358/294/294
f 363/295/295 359/296/296 361/297/297
f 364/298/298 362/299/299 360/300/300
f 361/297/297 365/301/301 363/295/295
f 360/300/300 366/302/298 364/298/298
f 367/303/302 363/295/295 365/301/301
f 368/304/298 364/298/298 366/302/298
f 365/301/301 369/305/303 367/303/302
f 366/302/298 370/306/304 368/304/298
f 370/306/304 367/303/302 369/305/303
f 369/305/303 368/304/298 370/306/304
f 371/307/305 373/308/306 372/309/307
f 372/309/307 374/310/308 371/307/305
f 375/311/309 374/310/308 372/309/307
f 373/308/306 371/307/305 376/312/310
f 376/312/310 377/313/310 373/308/306
f 371/307/305 378/314/311 376/312/310
f 379/315/312 378/314/311 371/307/305
f 379/315/312 380/316/313 378/314/311
f 379/315/312 381/317/314 380/316/313
f 381/317/314 379/315/312 382/318/315
f 382/318/315 383/319/313 381/317/314
f 384/320/316 383/319/313 382/318/315
f 384/320/316 382/318/315 385/321/317
f 385/321/317 386/322/318 384/320/316
f 386/322/318 387/323/319 384/320/316
f 387/323/319 388/324/317 384/320/316
f 388/324/317 387/323/319 389/325/320
f 389/325/320 390/326/318 388/324/317
f 387/323/319 391/327/321 389/325/320
f 392/328/321 389/325/320 391/327/321
f 391/327/321 393/329/321 392/328/321
f 393/329/321 394/330/322 392/328/321
f 392/328/321 394/330/322 395/331/323
f 396/332/324 398/333/324 397/334/325
f 399/330/324 398/333/324 396/332/324
f 396/332/324 400/331/324 399/330/324
f 397/334/325 401/335/326 396/332/324
f 401/335/326 397/334/325 402/336/327
f 401/335/326 402/336/327 403/337/328
f 403/337/328 404/338/329 401/335/326
f 405/339/330 403/337/328 402/336/327
f 402/336/327 406/340/331 405/339/330
f 405/339/330 406/340/331 407/321/331
f 407/321/331 408/318/332 405/339/330
f 408/318/332 409/341/333 405/339/330
f 410/342/333 409/341/333 408/318/332
f 408/318/332 411/315/334 410/342/333
f 411/315/334 412/343/335 410/342/333
f 411/315/334 413/344/336 412/343/335
f 413/344/336 411/315/334 414/307/337
f 415/345/338 413/344/336 414/307/337
f 414/307/337 416/346/339 415/345/338
f 416/346/339 417/347/340 415/345/338
f 416/346/339 414/307/337 418/348/341
f 414/307/337 419/310/342 418/348/341
f 418/348/341 419/310/342 420/311/343
f 421/349/344 423/325/345 422/328/344
f 423/325/345 421/349/344 424/350/346
f 424/350/346 425/351/347 423/325/345
f 426/326/347 423/325/345 425/351/347
f 427/352/348 425/351/347 424/350/346
f 424/350/346 428/353/349 427/352/348
f 428/353/349 429/354/350 427/352/348
f 430/355/351 429/354/350 428/353/349
f 428/353/349 431/356/352 430/355/351
f 432/357/353 430/355/351 431/356/352
f 431/356/352 433/358/354 432/357/353
f 432/357/353 433/358/354 434/359/355
f 434/359/355 433/358/354 435/360/356
f 435/360/356 436/361/357 434/359/355
f 435/360/356 437/309/358 436/361/357
f 437/309/358 435/360/356 438/362/359
f 438/362/359 439/363/360 437/309/358
f 436/361/357 437/309/358 440/308/361
f 440/308/361 441/364/362 436/361/357
f 441/364/362 440/308/361 442/313/363
f 443/365/364 445/332/364 444/335/365
f 444/335/365 446/366/366 443/365/364
f 444/335/365 447/367/367 446/366/366
f 444/335/365 448/338/368 447/367/367
f 447/367/367 449/368/369 446/366/366
f 446/366/366 449/368/369 450/369/370
f 449/368/369 451/370/371 450/369/370
f 451/370/371 452/371/372 450/369/370
f 450/369/370 452/371/372 453/372/373
f 452/371/372 454/373/374 453/372/373
f 455/374/375 453/372/373 454/373/374
f 454/373/374 456/375/376 455/374/375
f 456/375/376 457/376/377 455/374/375
f 458/377/378 457/376/377 456/375/376
f 458/377/378 459/348/379 457/376/377
f 460/378/380 457/376/377 459/348/379
f 459/348/379 461/379/381 460/378/380
f 459/348/379 458/377/378 462/346/382
f 463/380/383 462/346/382 458/377/378
f 464/347/384 462/346/382 463/380/383
f 466/381/385 465/382/386 467/383/387
f 467/383/387 468/384/388 466/381/385
f 467/383/387 469/385/389 468/384/388
f 471/386/390 472/387/391 470/388/392
f 473/389/393 472/387/391 471/386/390
f 473/389/393 474/385/394 472/387/391
f 477/390/395 475/391/396 476/392/279
f 476/392/279 478/393/397 477/390/395
f 479/394/398 477/390/395 478/393/397
f 478/393/397 480/395/399 479/394/398
f 481/396/400 479/394/398 480/395/399
f 480/395/399 482/397/400 481/396/400
f 483/398/401 481/396/400 482/397/400
f 482/397/400 484/399/402 483/398/401
f 485/400/403 483/398/401 484/399/402
f 484/399/402 486/401/403 485/400/403
f 487/402/404 485/400/403 486/401/403
f 486/401/403 488/403/405 487/402/404
f 489/404/406 491/405/407 490/406/408
f 491/405/407 492/385/409 490/406/408
f 494/406/410 495/407/411 493/408/412
f 494/406/410 496/385/413 495/407/411
f 497/387/414 499/385/415 498/405/416
f 501/407/417 502/385/418 500/383/380
f 505/409/419 503/410/420 504/411/421
f 505/409/419 506/412/422 503/410/420
f 507/413/423 506/412/422 505/409/419
f 505/409/419 508/414/424 507/413/423
f 509/415/425 511/416/426 510/417/400
f 510/417/400 511/416/426 512/418/427
f 509/415/425 513/419/425 511/416/426
f 510/417/400 512/418/427 514/420/428
f 515/421/429 513/419/425 509/415/425
f 514/420/428 512/418/427 516/422/430
f 515/421/429 517/423/431 513/419/425
f 518/424/432 514/420/428 516/422/430
f 519/425/433 517/423/431 515/421/429
f 519/425/433 520/426/434 517/423/431
f 521/427/435 520/426/434 519/425/433
f 521/427/435 522/428/436 520/426/434
f 523/429/437 525/430/438 524/431/439
f 526/432/440 524/431/439 525/430/438
f 523/429/437 524/431/439 527/433/441
f 528/434/442 526/432/440 525/430/438
f 527/433/441 529/435/443 523/429/437
f 525/430/438 530/436/444 528/434/442
f 528/434/442 530/436/444 531/437/445
f 531/437/445 532/438/446 528/434/442
f 532/438/446 531/437/445 533/439/447
f 533/439/447 534/440/447 532/438/446
f 536/441/448 535/442/449 537/443/450
f 538/444/451 536/441/448 537/443/450
f 538/444/451 537/443/450 539/445/451
f 539/445/451 541/446/451 538/444/451
f 541/446/451 539/445/451 543/447/452
f 544/448/453 540/449/454 542/450/455
f 543/447/452 545/451/456 541/446/451
f 542/450/455 546/452/457 544/448/453
f 545/451/456 543/447/452 547/453/458
f 547/453/458 549/454/458 545/451/456
f 549/454/458 547/453/458 550/455/459
f 550/455/459 548/456/460 549/454/458
f 551/457/461 553/458/462 552/459/463
f 552/459/463 554/460/464 551/457/461
f 557/461/465 555/462/466 556/463/467
f 556/463/467 558/464/468 557/461/465
f 561/465/469 560/466/470 559/467/471
f 559/467/471 562/468/469 561/465/469
f 561/465/469 562/468/469 563/469/472
f 563/469/472 564/470/473 561/465/469
f 565/332/474 567/331/474 566/328/475
f 568/471/476 570/472/477 569/473/478
f 571/474/478 570/472/477 568/471/476
f 568/471/476 572/475/477 571/474/478
f 572/475/477 568/471/476 573/476/477
f 570/472/477 575/477/477 574/478/479
f 570/472/477 574/478/479 569/473/478
f 574/478/479 576/479/477 569/473/478
f 576/479/477 577/480/477 569/473/478
f 569/473/478 577/480/477 578/481/478
f 569/473/478 579/482/477 568/471/476
f 568/471/476 579/482/477 580/483/478
f 569/473/478 581/484/480 579/482/477
f 581/484/480 569/473/478 582/485/477
f 583/486/481 585/487/475 584/488/475
f 585/487/475 586/489/482 584/488/475
f 587/490/483 583/486/481 584/488/475
f 583/486/481 587/490/483 588/491/484
f 589/492/485 590/493/486 591/494/487
f 592/495/488 589/492/485 591/494/487
f 592/495/488 591/494/487 593/496/489
f 594/497/448 592/495/488 593/496/489
f 596/498/490 597/499/491 595/500/492
f 597/499/491 598/501/493 595/500/492
f 601/502/494 600/503/495 599/504/496
f 599/504/496 602/505/497 601/502/494
f 603/506/498 601/502/494 602/505/497
f 602/505/497 604/507/499 603/506/498
f 605/508/500 607/509/501 606/510/502
f 608/511/487 606/510/502 607/509/501
f 608/511/487 607/509/501 609/512/503
f 610/513/504 608/511/487 609/512/503
f 614/514/505 612/515/506 611/516/507
f 611/516/507 616/517/508 614/514/505
f 617/518/509 615/519/510 613/520/511
f 616/517/508 618/521/512 614/514/505
f 613/520/511 619/522/513 617/518/509
f 618/521/512 620/523/514 614/514/505
