# Blender 5.1.1
# www.blender.org
mtllib pumpkinclawleft.mtl
o leftarm
v 0.296251 -0.011931 0.097747
v 0.083395 -0.010183 0.455703
v 0.083040 -0.125460 0.456033
v 0.295895 -0.127208 0.098077
v -0.001298 -0.009864 0.477220
v -0.001605 -0.125129 0.477554
v 0.274350 -0.127413 0.013405
v 0.274704 -0.012133 0.013072
v 0.296251 -0.011931 0.097747
v 0.295895 -0.127208 0.098077
v -0.143105 -0.126486 -0.114531
v -0.142751 -0.011209 -0.114860
v -0.313427 -0.125096 0.171841
v -0.313072 -0.009819 0.171512
v -0.359587 -0.124672 0.264685
v -0.359232 -0.009395 0.264356
v -0.001298 -0.009864 0.477220
v -0.001605 -0.125129 0.477554
v 0.211334 -0.011846 0.038216
v -0.075031 -0.011485 -0.132095
v -0.075397 -0.126735 -0.131724
v -0.143105 -0.126486 -0.114531
v 0.210978 -0.127122 0.038546
v 0.228549 -0.011712 0.105919
v 0.228183 -0.126961 0.106290
v -0.142751 -0.011209 -0.114860
v -0.075397 -0.126735 -0.131724
v -0.143105 -0.126486 -0.114531
v -0.168241 -0.126583 -0.177900
v -0.083596 -0.126914 -0.199422
v -0.381094 -0.124833 0.180057
v 0.274350 -0.127413 0.013405
v -0.313427 -0.125096 0.171841
v 0.210978 -0.127122 0.038546
v 0.295895 -0.127208 0.098077
v 0.228183 -0.126961 0.106290
v -0.296176 -0.124919 0.239588
v -0.359587 -0.124672 0.264685
v -0.009804 -0.125308 0.409857
v -0.001605 -0.125129 0.477554
v 0.057916 -0.125584 0.392623
v 0.228183 -0.126961 0.106290
v 0.295895 -0.127208 0.098077
v 0.083040 -0.125460 0.456033
v -0.009804 -0.125308 0.409857
v -0.001605 -0.125129 0.477554
v -0.380728 -0.009584 0.179686
v -0.167872 -0.011332 -0.178270
v -0.168241 -0.126583 -0.177900
v -0.083230 -0.011664 -0.199792
v -0.381094 -0.124833 0.180057
v -0.083596 -0.126914 -0.199422
v -0.359587 -0.124672 0.264685
v -0.359232 -0.009395 0.264356
v 0.057916 -0.125584 0.392623
v 0.058274 -0.010306 0.392294
v 0.228183 -0.126961 0.106290
v 0.228549 -0.011712 0.105919
v -0.083230 -0.011664 -0.199792
v -0.083596 -0.126914 -0.199422
v 0.274350 -0.127413 0.013405
v 0.274704 -0.012133 0.013072
v -0.313427 -0.125096 0.171841
v -0.313072 -0.009819 0.171512
v -0.296176 -0.124919 0.239588
v -0.295809 -0.009670 0.239217
v -0.009804 -0.125308 0.409857
v -0.009450 -0.010027 0.409525
v 0.057916 -0.125584 0.392623
v -0.009450 -0.010027 0.409525
v 0.058274 -0.010306 0.392294
v -0.009804 -0.125308 0.409857
v -0.083230 -0.011664 -0.199792
v 0.211334 -0.011846 0.038216
v 0.274704 -0.012133 0.013072
v 0.296251 -0.011931 0.097747
v 0.228549 -0.011712 0.105919
v -0.075031 -0.011485 -0.132095
v -0.167872 -0.011332 -0.178270
v -0.142751 -0.011209 -0.114860
v -0.313072 -0.009819 0.171512
v -0.380728 -0.009584 0.179686
v -0.295809 -0.009670 0.239217
v -0.359232 -0.009395 0.264356
v -0.001298 -0.009864 0.477220
v -0.009450 -0.010027 0.409525
v 0.228549 -0.011712 0.105919
v 0.058274 -0.010306 0.392294
v 0.083395 -0.010183 0.455703
v 0.296251 -0.011931 0.097747
v -0.009450 -0.010027 0.409525
v -0.001298 -0.009864 0.477220
v 0.378121 -0.017049 0.362714
v 0.276882 0.040101 0.239158
v 0.316611 0.076506 0.345954
v 0.330286 -0.046203 0.233547
v 0.350585 -0.086614 0.364706
v 0.306419 -0.108085 0.245330
v 0.358165 -0.228360 0.243310
v 0.410072 -0.214481 0.384077
v 0.354202 -0.283105 0.382002
v 0.309703 -0.285379 0.260946
v 0.297974 -0.365601 0.381031
v 0.260988 -0.358023 0.280057
v -0.201475 -0.184627 0.494599
v -0.211210 -0.101930 0.479794
v -0.199632 -0.097724 0.525291
v -0.189852 -0.180411 0.540102
v -0.185639 -0.238764 0.540532
v -0.197214 -0.242968 0.495035
v 0.036642 0.067545 0.547499
v 0.021958 0.062221 0.489835
v -0.001749 0.002144 0.502818
v 0.012970 0.007507 0.560530
v 0.031394 -0.017012 0.514784
v 0.046066 -0.011661 0.572490
v 0.079965 -0.063442 0.567433
v 0.065281 -0.068763 0.509766
v 0.107107 -0.099791 0.490734
v 0.118674 -0.095560 0.536272
v 0.095525 -0.134245 0.508033
v 0.107100 -0.130041 0.553531
v 0.142119 -0.164147 0.531072
v 0.223351 -0.297714 0.452944
v 0.130541 -0.168353 0.485574
v 0.211772 -0.301915 0.407444
v 0.151664 -0.175461 0.525366
v 0.204016 -0.273178 0.426029
v 0.140090 -0.179665 0.479869
v 0.215591 -0.268973 0.471525
v 0.206784 -0.245672 0.478182
v 0.199082 -0.260438 0.429270
v 0.195209 -0.249877 0.432685
v 0.210657 -0.256234 0.474768
v 0.083007 -0.270508 0.582422
v 0.178489 -0.343960 0.457281
v 0.209958 -0.268399 0.475164
v 0.073603 -0.355163 0.546853
v 0.054377 -0.438585 0.472350
v 0.206784 -0.245672 0.478182
v 0.210657 -0.256234 0.474768
v 0.151664 -0.175461 0.525366
v 0.083376 -0.171457 0.582498
v 0.142119 -0.164147 0.531072
v 0.107100 -0.130041 0.553531
v 0.079379 -0.073991 0.565167
v 0.118674 -0.095560 0.536272
v 0.141276 -0.082300 0.513824
v 0.079965 -0.063442 0.567433
v 0.112543 -0.011906 0.555565
v 0.116247 -0.009124 0.553444
v 0.167718 -0.067251 0.497386
v 0.221970 -0.027742 0.466261
v 0.216628 -0.049831 0.463910
v 0.135744 0.006886 0.527752
v 0.185228 0.117015 0.428123
v 0.108752 0.066991 0.526093
v 0.075080 0.103024 0.545542
v 0.068767 0.182107 0.519594
v -0.077680 0.118055 0.494956
v 0.012970 0.007507 0.560530
v 0.036642 0.067545 0.547499
v 0.075080 0.103024 0.545542
v 0.068767 0.182107 0.519594
v -0.092793 -0.026518 0.546261
v 0.041814 -0.008837 0.572366
v -0.030707 -0.066519 0.547276
v -0.089435 -0.048622 0.541731
v 0.000374 -0.081770 0.549613
v 0.046066 -0.011661 0.572490
v 0.079965 -0.063442 0.567433
v 0.079379 -0.073991 0.565167
v 0.030827 -0.095253 0.558396
v 0.048966 -0.129830 0.568129
v 0.083376 -0.171457 0.582498
v 0.007241 -0.163641 0.565234
v -0.003912 -0.174865 0.564895
v 0.083007 -0.270508 0.582422
v -0.075414 -0.244578 0.549935
v -0.079811 -0.267285 0.548795
v -0.080519 -0.255094 0.548788
v -0.061240 -0.343054 0.518177
v 0.073603 -0.355163 0.546853
v 0.054377 -0.438585 0.472350
v 0.316611 0.076506 0.345954
v 0.185228 0.117015 0.428123
v 0.221970 -0.027742 0.466261
v 0.378121 -0.017049 0.362714
v 0.252935 -0.036874 0.442679
v 0.216628 -0.049831 0.463910
v 0.294603 -0.088350 0.401621
v 0.350585 -0.086614 0.364706
v 0.305277 -0.099694 0.396858
v 0.303179 -0.182338 0.414789
v 0.410072 -0.214481 0.384077
v 0.299288 -0.240606 0.417638
v 0.354202 -0.283105 0.382002
v 0.256839 -0.273202 0.444855
v 0.297974 -0.365601 0.381031
v 0.223351 -0.297714 0.452944
v 0.178489 -0.343960 0.457281
v 0.189618 -0.444881 0.372376
v 0.117307 -0.417664 0.417130
v 0.209958 -0.268399 0.475164
v 0.215591 -0.268973 0.471525
v 0.210657 -0.256234 0.474768
v -0.232636 0.078669 0.485582
v -0.092793 -0.026518 0.546261
v -0.077680 0.118055 0.494956
v -0.279396 -0.014508 0.529798
v -0.131290 -0.035345 0.540637
v -0.089435 -0.048622 0.541731
v -0.187889 -0.086478 0.524251
v -0.254752 -0.084272 0.518539
v -0.199632 -0.097724 0.525291
v -0.189852 -0.180411 0.540102
v -0.298720 -0.211722 0.564221
v -0.185639 -0.238764 0.540532
v -0.251134 -0.280766 0.535838
v -0.135486 -0.271651 0.544603
v -0.202741 -0.363641 0.508302
v -0.102097 -0.296336 0.536748
v -0.061240 -0.343054 0.518177
v -0.112251 -0.443698 0.449108
v -0.027204 -0.417099 0.453860
v -0.079811 -0.267285 0.548795
v -0.086495 -0.267792 0.548320
v -0.080519 -0.255094 0.548788
v -0.202741 -0.363641 0.508302
v -0.218434 -0.356172 0.401893
v -0.112251 -0.443698 0.449108
v -0.121989 -0.425027 0.383717
v 0.023362 -0.470864 0.350989
v 0.297974 -0.365601 0.381031
v 0.260988 -0.358023 0.280057
v 0.189618 -0.444881 0.372376
v 0.167084 -0.426139 0.310261
v 0.023362 -0.470864 0.350989
v -0.211210 -0.101930 0.479794
v -0.199632 -0.097724 0.525291
v -0.199511 -0.090694 0.478748
v -0.187889 -0.086478 0.524251
v -0.142911 -0.039566 0.495138
v -0.131290 -0.035345 0.540637
v -0.101003 -0.052850 0.496190
v -0.089435 -0.048622 0.541731
v -0.042285 -0.070725 0.501780
v -0.030707 -0.066519 0.547276
v -0.011201 -0.085974 0.504116
v 0.000374 -0.081770 0.549613
v 0.019252 -0.099458 0.512899
v 0.030827 -0.095253 0.558396
v 0.178489 -0.343960 0.457281
v 0.054377 -0.438585 0.472350
v 0.117307 -0.417664 0.417130
v 0.023362 -0.470864 0.350989
v -0.061240 -0.343054 0.518177
v 0.054377 -0.438585 0.472350
v -0.027204 -0.417099 0.453860
v 0.023362 -0.470864 0.350989
v 0.189618 -0.444881 0.372376
v 0.117307 -0.417664 0.417130
v 0.023362 -0.470864 0.350989
v -0.112251 -0.443698 0.449108
v -0.027204 -0.417099 0.453860
v 0.023362 -0.470864 0.350989
v 0.108752 0.066991 0.526093
v 0.094067 0.061670 0.468427
v 0.060360 0.097660 0.487831
v 0.075080 0.103024 0.545542
v 0.036642 0.067545 0.547499
v 0.021958 0.062221 0.489835
v 0.205054 -0.054035 0.418413
v 0.241371 -0.041100 0.397138
v 0.252935 -0.036874 0.442679
v 0.294603 -0.088350 0.401621
v 0.216628 -0.049831 0.463910
v 0.282978 -0.092571 0.356122
v 0.156140 -0.071457 0.451889
v 0.305277 -0.099694 0.396858
v 0.167718 -0.067251 0.497386
v 0.293702 -0.103898 0.351361
v 0.129701 -0.086505 0.468327
v 0.141276 -0.082300 0.513824
v 0.107107 -0.099791 0.490734
v 0.118674 -0.095560 0.536272
v -0.269847 -0.283120 0.408245
v -0.251134 -0.280766 0.535838
v -0.320430 -0.225723 0.415773
v -0.298720 -0.211722 0.564221
v -0.202741 -0.363641 0.508302
v -0.254752 -0.084272 0.518539
v -0.218434 -0.356172 0.401893
v -0.273129 -0.105831 0.392631
v -0.299239 -0.043754 0.393546
v -0.279396 -0.014508 0.529798
v -0.249031 0.042145 0.372822
v -0.232636 0.078669 0.485582
v -0.113724 -0.300553 0.491246
v -0.102097 -0.296336 0.536748
v -0.098060 -0.272018 0.502780
v -0.086495 -0.267792 0.548320
v -0.092084 -0.259321 0.503247
v 0.019252 -0.099458 0.512899
v -0.080519 -0.255094 0.548788
v 0.030827 -0.095253 0.558396
v -0.086990 -0.248778 0.504435
v 0.037390 -0.134031 0.522629
v -0.075414 -0.244578 0.549935
v 0.048966 -0.129830 0.568129
v -0.015487 -0.179069 0.519398
v 0.007241 -0.163641 0.565234
v -0.003912 -0.174865 0.564895
v -0.004338 -0.167846 0.519737
v 0.097870 -0.017258 0.497860
v 0.079965 -0.063442 0.567433
v 0.112543 -0.011906 0.555565
v 0.065281 -0.068763 0.509766
v 0.135744 0.006886 0.527752
v 0.121061 0.001561 0.470089
v 0.108752 0.066991 0.526093
v 0.094067 0.061670 0.468427
v 0.305277 -0.099694 0.396858
v 0.293702 -0.103898 0.351361
v 0.291600 -0.186540 0.369289
v 0.303179 -0.182338 0.414789
v 0.299288 -0.240606 0.417638
v 0.287725 -0.244836 0.372100
v 0.185228 0.117015 0.428123
v -0.077680 0.118055 0.494956
v 0.068767 0.182107 0.519594
v -0.273129 -0.105831 0.392631
v 0.306419 -0.108085 0.245330
v -0.121989 -0.425027 0.383717
v -0.218434 -0.356172 0.401893
v -0.269847 -0.283120 0.408245
v -0.320430 -0.225723 0.415773
v 0.167084 -0.426139 0.310261
v 0.023362 -0.470864 0.350989
v 0.260988 -0.358023 0.280057
v 0.309703 -0.285379 0.260946
v 0.358165 -0.228360 0.243310
v -0.249031 0.042145 0.372822
v -0.299239 -0.043754 0.393546
v 0.276882 0.040101 0.239158
v 0.330286 -0.046203 0.233547
v -0.249031 0.042145 0.372822
v 0.185228 0.117015 0.428123
v 0.276882 0.040101 0.239158
v 0.316611 0.076506 0.345954
v -0.077680 0.118055 0.494956
v -0.232636 0.078669 0.485582
v -0.185639 -0.238764 0.540532
v -0.197214 -0.242968 0.495035
v -0.147051 -0.275877 0.499063
v -0.135486 -0.271651 0.544603
v -0.113724 -0.300553 0.491246
v -0.102097 -0.296336 0.536748
v 0.037390 -0.134031 0.522629
v 0.048966 -0.129830 0.568129
v 0.007241 -0.163641 0.565234
v -0.004338 -0.167846 0.519737
v 0.097870 -0.017258 0.497860
v 0.112543 -0.011906 0.555565
v 0.116247 -0.009124 0.553444
v 0.101564 -0.014449 0.495779
v 0.135744 0.006886 0.527752
v 0.121061 0.001561 0.470089
v -0.001749 0.002144 0.502818
v 0.012970 0.007507 0.560530
v 0.027145 -0.014184 0.514658
v 0.041814 -0.008837 0.572366
v 0.031394 -0.017012 0.514784
v 0.046066 -0.011661 0.572490
v 0.299288 -0.240606 0.417638
v 0.287725 -0.244836 0.372100
v 0.095525 -0.134245 0.508033
v 0.245260 -0.277407 0.399359
v 0.107100 -0.130041 0.553531
v 0.256839 -0.273202 0.444855
v 0.142119 -0.164147 0.531072
v 0.223351 -0.297714 0.452944
v 0.130541 -0.168353 0.485574
v 0.211772 -0.301915 0.407444
v 0.269987 0.149150 0.356574
v 0.314098 0.072016 0.317370
v 0.286547 0.114275 0.305337
v 0.293722 0.111750 0.398266
v 0.277299 0.017164 0.399319
v 0.195201 0.182859 0.476611
v 0.214134 0.108140 0.419999
v 0.208705 0.182551 0.390714
v 0.126346 0.861862 0.334179
v 0.201700 0.151280 0.516887
v 0.161229 0.030741 0.504935
v 0.101255 -0.460495 0.331327
v 0.084555 -0.497413 0.372517
v 0.090040 -0.499372 0.334235
v 0.094539 -0.529307 0.333184
v 0.094444 -0.455889 0.378409
v 0.122770 -0.435288 0.325789
v 0.113523 -0.429221 0.386530
v 0.088644 -0.529074 0.385544
v 0.118576 -0.590273 0.327194
v 0.116477 -0.598132 0.370489
v 0.107046 -0.610845 0.366272
v 0.108127 -0.604613 0.329917
v 0.009809 0.183522 0.495491
v -0.030032 0.103060 0.441201
v -0.042946 0.183470 0.426388
v -0.038966 0.866102 0.411139
v 0.024866 0.141630 0.524195
v -0.028096 0.028998 0.544937
v -0.171003 0.097496 0.418347
v -0.109691 0.097071 0.488035
v -0.166538 0.057632 0.426756
v -0.172788 0.018916 0.513713
v -0.131729 0.132155 0.455395
v -0.176310 0.154286 0.398586
v 0.106220 0.144275 0.504426
v 0.195201 0.182859 0.476611
v 0.103796 0.183137 0.472848
v 0.126346 0.861862 0.334179
v 0.201700 0.151280 0.516887
v 0.161229 0.030741 0.504935
v 0.009809 0.183522 0.495491
v -0.058192 0.183859 0.537903
v -0.055289 0.149467 0.577417
v -0.038966 0.866102 0.411139
v 0.024866 0.141630 0.524195
v -0.028096 0.028998 0.544937
v 0.210185 0.095811 0.406716
v 0.293722 0.111750 0.398266
v 0.277299 0.017164 0.399319
v -0.109691 0.097071 0.488035
v -0.186953 0.113645 0.520463
v -0.172788 0.018916 0.513713
v 0.052572 -0.453633 0.412840
v 0.007012 -0.499005 0.396442
v 0.050733 -0.497267 0.400507
v 0.046246 -0.534782 0.421738
v -0.001522 -0.455078 0.407748
v 0.058565 -0.426276 0.431702
v -0.012349 -0.428153 0.425008
v -0.008798 -0.543180 0.416844
v 0.047461 -0.581899 0.390256
v 0.086751 -0.596391 0.395705
v 0.052619 -0.598035 0.381877
v 0.083603 -0.609458 0.386174
v 0.094444 -0.455889 0.378409
v 0.052572 -0.453633 0.412840
v 0.084555 -0.497413 0.372517
v 0.058565 -0.426276 0.431702
v 0.113523 -0.429221 0.386530
v 0.050733 -0.497267 0.400507
v 0.088644 -0.529074 0.385544
v 0.046246 -0.534782 0.421738
v 0.086751 -0.596391 0.395705
v 0.116477 -0.598132 0.370489
v 0.107046 -0.610845 0.366272
v 0.083603 -0.609458 0.386174
v 0.108127 -0.604613 0.329917
v 0.052619 -0.598035 0.381877
v 0.030531 -0.602176 0.349637
v 0.107046 -0.610845 0.366272
v 0.083603 -0.609458 0.386174
v -0.045418 -0.549304 0.368811
v -0.008798 -0.543180 0.416844
v 0.020134 -0.587169 0.352232
v 0.047461 -0.581899 0.390256
v -0.110187 0.110897 0.494424
v -0.030032 0.103060 0.441201
v -0.028096 0.028998 0.544937
v -0.243801 0.074207 0.459183
v -0.166538 0.057632 0.426756
v -0.172788 0.018916 0.513713
v 0.314098 0.072016 0.317370
v 0.230607 0.056094 0.325822
v 0.277299 0.017164 0.399319
v 0.214134 0.108140 0.419999
v 0.118643 0.101158 0.407581
v 0.161229 0.030741 0.504935
v -0.225016 0.116263 0.435348
v -0.243801 0.074207 0.459183
v -0.185741 0.150923 0.472397
v -0.186953 0.113645 0.520463
v -0.172788 0.018916 0.513713
v -0.058192 0.183859 0.537903
v -0.110947 0.183806 0.468799
v -0.110187 0.110897 0.494424
v -0.038966 0.866102 0.411139
v -0.055289 0.149467 0.577417
v -0.028096 0.028998 0.544937
v -0.001522 -0.455078 0.407748
v -0.036045 -0.459380 0.366203
v 0.007012 -0.499005 0.396442
v -0.057429 -0.433800 0.371591
v -0.012349 -0.428153 0.425008
v -0.021018 -0.501625 0.362499
v -0.045418 -0.549304 0.368811
v -0.008798 -0.543180 0.416844
v 0.020134 -0.587169 0.352232
v 0.047461 -0.581899 0.390256
v 0.052619 -0.598035 0.381877
v 0.030531 -0.602176 0.349637
v 0.118643 0.101158 0.407581
v 0.103796 0.183137 0.472848
v 0.117300 0.182829 0.386949
v 0.126346 0.861862 0.334179
v 0.106220 0.144275 0.504426
v 0.161229 0.030741 0.504935
v 0.230825 0.095929 0.316214
v 0.230607 0.056094 0.325822
v 0.210185 0.095811 0.406716
v 0.277299 0.017164 0.399319
v 0.214261 0.130802 0.367451
v 0.226482 0.152726 0.296225
v -0.021018 -0.501625 0.362499
v 0.094539 -0.529307 0.333184
v 0.020134 -0.587169 0.352232
v -0.045418 -0.549304 0.368811
v 0.030531 -0.602176 0.349637
v 0.108127 -0.604613 0.329917
v 0.118576 -0.590273 0.327194
v 0.090040 -0.499372 0.334235
v 0.101255 -0.460495 0.331327
v -0.036045 -0.459380 0.366203
v 0.122770 -0.435288 0.325789
v -0.057429 -0.433800 0.371591
v -0.042946 0.183470 0.426388
v -0.110187 0.110897 0.494424
v -0.110947 0.183806 0.468799
v -0.038966 0.866102 0.411139
v -0.030032 0.103060 0.441201
v -0.171003 0.097496 0.418347
v -0.243801 0.074207 0.459183
v -0.225016 0.116263 0.435348
v -0.176310 0.154286 0.398586
v -0.166538 0.057632 0.426756
v 0.230825 0.095929 0.316214
v 0.314098 0.072016 0.317370
v 0.230607 0.056094 0.325822
v 0.286547 0.114275 0.305337
v 0.226482 0.152726 0.296225
v 0.117300 0.182829 0.386949
v 0.214134 0.108140 0.419999
v 0.118643 0.101158 0.407581
v 0.208705 0.182551 0.390714
v 0.126346 0.861862 0.334179
v -0.225016 0.116263 0.435348
v -0.185741 0.150923 0.472397
v -0.176310 0.154286 0.398586
v 0.269987 0.149150 0.356574
v 0.286547 0.114275 0.305337
v 0.226482 0.152726 0.296225
v 0.106220 0.144275 0.504426
v 0.195201 0.182859 0.476611
v 0.201700 0.151280 0.516887
v 0.009809 0.183522 0.495491
v -0.058192 0.183859 0.537903
v -0.055289 0.149467 0.577417
v 0.210185 0.095811 0.406716
v 0.269987 0.149150 0.356574
v 0.214261 0.130802 0.367451
v 0.226482 0.152726 0.296225
v 0.293722 0.111750 0.398266
v -0.109691 0.097071 0.488035
v -0.185741 0.150923 0.472397
v -0.186953 0.113645 0.520463
v -0.131729 0.132155 0.455395
v -0.176310 0.154286 0.398586
v 0.060230 0.097524 0.488189
v 0.068660 -0.008866 0.523074
v 0.093901 0.061495 0.468737
v 0.021792 0.062046 0.490146
v 0.101398 -0.014624 0.496090
v 0.120894 0.001386 0.470399
v 0.097704 -0.017432 0.498171
v 0.065115 -0.068941 0.510080
v 0.031216 -0.017160 0.515135
v 0.026964 -0.014336 0.515014
v -0.001925 0.001992 0.503174
v 0.203295 -0.183564 0.427136
v 0.287547 -0.244984 0.372452
v 0.291434 -0.186718 0.369604
v 0.245095 -0.277581 0.399669
v 0.282813 -0.092749 0.356436
v 0.293532 -0.104074 0.351672
v 0.203846 -0.273353 0.426339
v 0.211606 -0.302094 0.407758
v 0.198916 -0.260613 0.429582
v 0.195039 -0.250052 0.432996
v 0.139923 -0.179839 0.480181
v 0.194982 -0.095472 0.414369
v 0.241194 -0.041252 0.397492
v 0.204889 -0.054214 0.418727
v 0.155974 -0.071631 0.452200
v 0.130376 -0.168532 0.485888
v 0.129535 -0.086679 0.468638
v 0.106929 -0.099939 0.491085
v 0.095355 -0.134421 0.508345
v -0.004504 -0.168021 0.520049
v -0.011367 -0.086148 0.504428
v -0.094800 -0.094327 0.488037
v 0.019088 -0.099636 0.513212
v 0.037221 -0.134210 0.522944
v -0.042452 -0.070900 0.502090
v -0.101180 -0.053002 0.496545
v -0.143034 -0.039725 0.495451
v -0.015653 -0.179248 0.519713
v -0.199680 -0.090874 0.479062
v -0.096697 -0.182379 0.503406
v -0.087155 -0.248956 0.504750
v -0.092260 -0.259473 0.503602
v -0.201643 -0.184806 0.494914
v -0.211375 -0.102108 0.480108
v -0.197384 -0.243144 0.495346
v -0.147231 -0.276030 0.499417
v -0.098236 -0.272170 0.503135
v -0.113841 -0.300716 0.491561
vn 0.9899 -0.0063 0.1415
vn 0.5996 -0.0031 0.8003
vn -0.1450 0.0037 0.9894
vn 0.9899 -0.0063 0.1413
vn 0.8008 -0.0007 -0.5990
vn 0.5996 0.0005 0.8003
vn 0.9899 -0.0027 0.1415
vn -0.1452 0.0037 0.9894
vn -0.8007 0.0007 0.5991
vn -0.8007 0.0008 0.5991
vn -0.1451 0.0037 0.9894
vn -0.8008 0.0008 0.5990
vn 0.5995 0.0007 0.8003
vn -0.9900 0.0027 -0.1414
vn -0.9899 0.0063 -0.1413
vn -0.0042 -1.0000 0.0027
vn -0.0043 -1.0000 0.0027
vn -0.0039 -1.0000 0.0029
vn -0.0041 -1.0000 0.0028
vn -0.0041 -1.0000 0.0027
vn -0.9899 0.0063 -0.1414
vn -0.6005 -0.0031 -0.7996
vn 0.1451 -0.0037 -0.9894
vn 0.1451 -0.0036 -0.9894
vn -0.8008 0.0007 0.5989
vn -0.8008 0.0008 0.5989
vn -0.6006 -0.0005 -0.7996
vn -0.9899 0.0026 -0.1414
vn -0.6006 -0.0031 -0.7996
vn -0.9899 0.0063 -0.1415
vn 0.1451 -0.0038 -0.9894
vn 0.8007 -0.0008 -0.5991
vn 0.1452 -0.0037 -0.9894
vn 0.8007 -0.0007 -0.5991
vn 0.9900 -0.0027 0.1413
vn 0.8008 -0.0008 -0.5990
vn 0.1451 -0.0034 -0.9894
vn -0.6004 -0.0003 -0.7997
vn 0.1450 -0.0034 -0.9894
vn -0.6004 -0.0031 -0.7997
vn 0.1450 -0.0037 -0.9894
vn 0.0043 1.0000 -0.0027
vn 0.0042 1.0000 -0.0027
vn 0.9230 0.0783 -0.3768
vn 0.7749 0.4731 -0.4191
vn 0.9293 0.0259 -0.3683
vn 0.9431 -0.0235 -0.3316
vn 0.9414 0.0121 -0.3371
vn 0.9231 -0.1693 -0.3453
vn 0.9260 -0.1348 -0.3526
vn 0.7551 -0.6018 -0.2601
vn 0.6803 -0.6637 -0.3109
vn 0.6667 -0.6767 -0.3125
vn 0.9650 0.0713 -0.2523
vn 0.9164 -0.3476 -0.1986
vn 0.9080 -0.3697 -0.1970
vn 0.8228 0.5077 -0.2556
vn 0.8477 0.4631 -0.2587
vn 0.8110 -0.5649 -0.1520
vn 0.7941 -0.5889 -0.1505
vn 0.9615 0.1113 -0.2512
vn 0.8903 0.3759 -0.2569
vn 0.7959 0.5506 -0.2519
vn 0.6778 0.6967 -0.2349
vn 0.6936 0.6797 -0.2387
vn 0.7959 0.5506 -0.2518
vn 0.6744 -0.7313 -0.1018
vn 0.7784 -0.6112 -0.1433
vn 0.9356 0.2365 -0.2619
vn 0.9405 0.2198 -0.2592
vn 0.6778 0.6968 -0.2349
vn 0.6489 0.7247 -0.2318
vn 0.6342 0.7369 -0.2342
vn 0.8745 0.4074 -0.2632
vn 0.3803 0.9066 -0.1829
vn 0.0107 0.9955 -0.0939
vn 0.7710 0.5848 -0.2522
vn 0.8109 0.5276 -0.2530
vn 0.6379 -0.1955 0.7449
vn 0.5950 -0.5118 0.6197
vn 0.6405 -0.1824 0.7460
vn 0.5950 -0.5119 0.6197
vn 0.5170 -0.7784 0.3562
vn 0.6435 -0.0049 0.7654
vn 0.6435 -0.0049 0.7655
vn 0.6433 0.0307 0.7650
vn 0.6424 0.0790 0.7623
vn 0.6378 0.1631 0.7528
vn 0.6313 -0.0353 0.7747
vn 0.6377 0.1631 0.7528
vn 0.6123 -0.1504 0.7762
vn 0.5999 -0.2086 0.7724
vn 0.6289 -0.1068 0.7701
vn 0.5999 -0.2085 0.7724
vn 0.6567 0.0378 0.7532
vn 0.6594 0.3099 0.6850
vn 0.6594 0.3099 0.6849
vn -0.2572 0.3159 0.9133
vn -0.2573 0.3159 0.9132
vn -0.2161 0.0416 0.9755
vn -0.1920 -0.1007 0.9762
vn -0.1621 -0.2082 0.9646
vn -0.1727 -0.1537 0.9729
vn -0.1621 -0.2081 0.9646
vn -0.1895 -0.0349 0.9813
vn -0.2083 0.1667 0.9638
vn -0.2083 0.1667 0.9637
vn -0.2033 0.0799 0.9758
vn -0.2061 0.0379 0.9778
vn -0.2106 -0.1883 0.9593
vn -0.2014 -0.0019 0.9795
vn -0.2042 -0.1808 0.9621
vn -0.2013 -0.0019 0.9795
vn -0.2274 -0.5062 0.8319
vn -0.2342 -0.5074 0.8292
vn -0.2892 -0.7731 0.5645
vn 0.5246 0.3919 0.7558
vn 0.5247 0.3919 0.7557
vn 0.5620 0.0811 0.8231
vn 0.5637 0.1067 0.8190
vn 0.5458 -0.2049 0.8125
vn 0.5222 -0.0882 0.8483
vn 0.4894 0.0223 0.8718
vn 0.4059 0.2618 0.8756
vn 0.4010 0.0972 0.9109
vn 0.3914 0.0504 0.9188
vn 0.3722 -0.1067 0.9220
vn 0.4144 -0.1995 0.8879
vn 0.4521 -0.3026 0.8391
vn 0.4191 -0.4392 0.7946
vn 0.4699 -0.3547 0.8083
vn 0.3942 -0.4868 0.7795
vn 0.2420 -0.6642 0.7073
vn 0.1727 -0.7233 0.6686
vn 0.5124 -0.1855 0.8385
vn 0.4983 -0.2428 0.8323
vn 0.5397 -0.0022 0.8418
vn -0.1003 0.3947 0.9133
vn -0.1073 0.0882 0.9903
vn -0.1004 0.3947 0.9133
vn -0.1054 0.1073 0.9886
vn -0.0987 -0.1996 0.9749
vn -0.0560 -0.0859 0.9947
vn -0.0183 0.0220 0.9996
vn 0.0670 0.2625 0.9626
vn 0.0894 0.0982 0.9911
vn 0.0968 0.0522 0.9939
vn 0.1112 -0.1095 0.9877
vn 0.0607 -0.2036 0.9772
vn 0.0045 -0.3023 0.9532
vn 0.0035 -0.4372 0.8994
vn -0.0275 -0.3534 0.9351
vn 0.0217 -0.4846 0.8745
vn 0.1146 -0.6631 0.7397
vn 0.1558 -0.7229 0.6732
vn -0.0544 -0.1851 0.9812
vn -0.0434 -0.2391 0.9700
vn -0.0778 0.0015 0.9970
vn -0.7422 -0.6687 0.0444
vn -0.5191 -0.8483 -0.1047
vn -0.7534 -0.6554 0.0523
vn -0.4961 -0.8601 -0.1185
vn -0.3377 -0.9176 -0.2098
vn 0.6665 -0.6768 -0.3125
vn 0.4025 -0.8517 -0.3354
vn 0.3738 -0.8639 -0.3377
vn 0.1851 -0.9197 -0.3462
vn 0.6814 -0.7241 -0.1062
vn 0.9080 -0.3698 -0.1970
vn 0.9163 -0.3477 -0.1986
vn 0.3409 -0.9401 -0.0008
vn 0.0891 -0.9935 0.0711
vn -0.3035 -0.9383 0.1658
vn -0.3036 -0.9383 0.1659
vn -0.3602 -0.9162 0.1755
vn -0.3858 -0.9045 0.1816
vn -0.4412 -0.8760 0.1947
vn -0.6488 -0.7248 0.2317
vn -0.7573 -0.6037 0.2491
vn 0.5950 -0.5119 0.6196
vn 0.5169 -0.7785 0.3561
vn 0.5152 -0.7729 0.3703
vn 0.4191 -0.8976 0.1367
vn -0.2893 -0.7732 0.5643
vn -0.2274 -0.5063 0.8318
vn -0.2806 -0.7696 0.5736
vn -0.3086 -0.8956 0.3204
vn 0.1726 -0.7233 0.6686
vn 0.0509 -0.8141 0.5784
vn 0.1558 -0.7230 0.6730
vn 0.1147 -0.6632 0.7396
vn 0.2266 -0.8115 0.5386
vn 0.0059 -0.9961 0.0884
vn -0.7886 -0.5612 0.2515
vn -0.7710 -0.5847 0.2522
vn 0.0375 -0.9958 0.0839
vn 0.7940 -0.5890 -0.1506
vn 0.8109 -0.5650 -0.1520
vn 0.3335 -0.9428 -0.0011
vn -0.3035 -0.9383 0.1660
vn -0.0477 -0.9930 0.1077
vn -0.6586 -0.7155 0.2329
vn 0.3335 -0.9427 -0.0011
vn 0.3931 -0.9193 -0.0200
vn -0.8941 -0.3655 0.2589
vn 0.4217 -0.9065 -0.0183
vn -0.9011 -0.3449 0.2627
vn 0.4726 -0.8803 -0.0420
vn 0.4725 -0.8803 -0.0420
vn 0.6743 -0.7314 -0.1018
vn -0.7948 -0.5936 0.1263
vn -0.7907 -0.5981 0.1305
vn -0.9776 -0.1572 0.1401
vn -0.9832 -0.1219 0.1356
vn -0.7536 -0.6552 0.0524
vn -0.9869 -0.0144 0.1608
vn -0.9886 0.0170 0.1496
vn -0.9924 0.0333 0.1187
vn -0.9909 0.0837 0.1052
vn -0.8807 0.4737 0.0001
vn -0.4146 0.9098 0.0188
vn -0.8912 0.4134 0.1869
vn -0.0469 0.9959 -0.0778
vn -0.8912 0.4132 0.1870
vn -0.8912 0.4133 0.1870
vn -0.8338 0.5275 0.1626
vn -0.9454 0.2417 0.2187
vn -0.7574 -0.6035 0.2491
vn -0.6489 -0.7247 0.2318
vn -0.7883 0.5976 0.1464
vn -0.9491 0.2288 0.2163
vn -0.7055 0.6996 0.1134
vn -0.6744 0.7313 0.1018
vn -0.6618 0.7432 0.0982
vn -0.8163 0.5561 0.1561
vn -0.7171 0.6871 0.1169
vn -0.7711 -0.5847 0.2522
vn -0.9660 0.0996 0.2387
vn -0.8980 0.3967 0.1901
vn -0.7887 -0.5610 0.2515
vn -0.9673 0.0805 0.2407
vn -0.9012 -0.3448 0.2628
vn -0.8436 0.5092 0.1705
vn -0.8640 0.4700 0.1806
vn -0.1104 0.8938 -0.4348
vn -0.1103 0.8938 -0.4348
vn -0.2453 -0.0864 -0.9656
vn -0.2453 -0.0863 -0.9656
vn -0.2453 -0.0865 -0.9656
vn -0.1104 0.8938 -0.4346
vn -0.1103 0.8938 -0.4347
vn -0.1104 0.8938 -0.4347
vn 0.8227 0.5077 -0.2555
vn 0.5512 0.8062 -0.2150
vn 0.8477 0.4632 -0.2586
vn 0.5513 0.8061 -0.2151
vn -0.4146 0.9098 0.0187
vn -0.9491 0.2286 0.2165
vn -0.9454 0.2416 0.2187
vn -0.6743 0.7314 0.1018
vn -0.5749 0.8151 0.0713
vn -0.7054 0.6997 0.1134
vn -0.7171 0.6871 0.1168
vn -0.5752 0.8149 0.0713
vn -0.8981 0.3966 0.1901
vn -0.9660 0.0995 0.2386
vn 0.9615 0.1113 -0.2511
vn 0.8904 0.3758 -0.2569
vn 0.5444 0.8117 -0.2119
vn 0.5444 0.8116 -0.2119
vn 0.6777 0.6968 -0.2349
vn 0.6934 0.6798 -0.2387
vn -0.5765 0.8135 0.0762
vn -0.5765 0.8135 0.0761
vn 0.9357 0.2365 -0.2619
vn 0.9405 0.2197 -0.2592
vn 0.6488 0.7248 -0.2318
vn 0.8083 0.5779 -0.1124
vn 0.9304 0.3644 0.0398
vn 0.6917 0.6838 -0.2322
vn 0.9754 0.0549 0.2137
vn 0.9371 -0.1573 0.3115
vn 0.9797 0.1638 0.1156
vn 0.9880 0.0400 0.1493
vn 0.9797 0.1474 0.1357
vn 0.9790 0.1324 0.1549
vn 0.9614 -0.1669 0.2188
vn 0.9064 -0.3313 0.2622
vn 0.8747 -0.4546 0.1680
vn 0.9901 -0.0296 0.1371
vn 0.9881 -0.0548 0.1436
vn 0.9609 0.2540 0.1100
vn 0.8518 -0.4953 0.1708
vn 0.7704 -0.6133 0.1742
vn 0.7706 -0.6131 0.1741
vn 0.9533 0.2817 0.1091
vn 0.9969 -0.0717 0.0326
vn 0.9988 0.0107 0.0475
vn 0.8060 -0.5876 -0.0712
vn 0.8060 -0.5876 -0.0713
vn 0.8118 -0.0167 -0.5836
vn 0.8388 -0.1205 -0.5309
vn 0.8038 -0.0172 -0.5946
vn 0.7956 -0.0178 -0.6055
vn 0.8470 -0.3143 -0.4287
vn 0.8250 -0.4546 -0.3358
vn 0.7454 -0.1288 -0.6540
vn 0.7688 -0.4989 -0.4001
vn 0.7738 -0.2410 -0.5857
vn 0.7131 -0.6582 -0.2413
vn 0.7469 -0.1097 -0.6558
vn 0.7460 -0.1541 -0.6478
vn -0.1149 0.4137 0.9031
vn -0.0651 0.4930 0.8676
vn -0.0590 0.3686 0.9277
vn -0.0368 0.2004 0.9790
vn -0.1150 0.4136 0.9032
vn -0.1242 -0.0560 0.9907
vn -0.1205 0.2520 0.9602
vn 0.4962 0.4310 0.7536
vn 0.5125 0.3191 0.7972
vn 0.5233 0.1420 0.8402
vn 0.5125 0.3193 0.7971
vn 0.5438 0.2015 0.8147
vn 0.5309 0.3233 0.7834
vn 0.5433 -0.1020 0.8333
vn 0.0076 0.3932 0.9194
vn 0.1004 -0.0066 0.9949
vn 0.0356 0.2811 0.9590
vn 0.4311 0.3638 0.8257
vn 0.4303 0.2929 0.8539
vn 0.3886 -0.0108 0.9213
vn -0.0690 -0.4438 0.8935
vn -0.1091 0.0691 0.9916
vn -0.1113 0.0755 0.9909
vn -0.1507 -0.1232 0.9809
vn -0.0800 -0.3924 0.9163
vn -0.0589 -0.5597 0.8266
vn -0.1451 0.0524 0.9880
vn -0.1998 -0.5361 0.8202
vn -0.2067 -0.5373 0.8177
vn -0.3008 -0.5101 0.8058
vn 0.5773 -0.3807 0.7224
vn 0.5590 -0.4436 0.7005
vn 0.6265 -0.0017 0.7794
vn 0.5082 -0.5593 0.6549
vn 0.5082 -0.5594 0.6549
vn 0.6286 0.0658 0.7749
vn 0.6203 0.2354 0.7482
vn 0.6253 0.2072 0.7524
vn 0.6380 -0.0793 0.7659
vn 0.6067 -0.3004 0.7360
vn 0.5029 -0.5879 0.6336
vn -0.1400 -0.9896 -0.0331
vn -0.1399 -0.9896 -0.0331
vn -0.1398 -0.9896 -0.0330
vn -0.5222 -0.7116 0.4701
vn -0.7027 -0.3799 0.6016
vn -0.7544 -0.2096 0.6221
vn -0.4980 -0.7379 0.4555
vn -0.4992 -0.5195 -0.6934
vn -0.5182 -0.4077 -0.7519
vn -0.4189 -0.7422 -0.5232
vn -0.4056 -0.5545 -0.7267
vn -0.4123 -0.5013 -0.7607
vn -0.3466 -0.8454 -0.4064
vn 0.0172 -0.5797 -0.8146
vn 0.1109 -0.8475 -0.5191
vn -0.0128 -0.4828 -0.8757
vn 0.1233 -0.5738 -0.8096
vn 0.1400 -0.7722 -0.6197
vn 0.1115 -0.4294 -0.8962
vn -0.7171 0.6851 0.1279
vn -0.7904 0.3800 0.4805
vn -0.7577 0.5869 0.2852
vn -0.7551 0.0648 0.6523
vn -0.6766 -0.1530 0.7203
vn -0.8092 0.2355 0.5383
vn -0.7993 0.1831 0.5724
vn -0.8210 0.1251 0.5571
vn -0.7881 0.1365 0.6002
vn -0.7825 -0.1268 0.6095
vn -0.7120 -0.3269 0.6214
vn -0.6441 -0.4938 0.5842
vn -0.6532 -0.4689 0.5945
vn -0.7793 0.1018 0.6184
vn -0.5811 -0.5973 0.5528
vn -0.5811 -0.5972 0.5528
vn -0.7811 0.0733 0.6201
vn -0.7543 -0.2098 0.6221
vn -0.7026 -0.3799 0.6016
vn -0.5222 -0.7115 0.4701
vn -0.6628 -0.5210 0.5377
vn -0.4981 -0.7378 0.4557
vn -0.6628 -0.5211 0.5377
vn -0.9832 -0.1660 -0.0765
vn -0.9899 -0.0570 -0.1298
vn -0.9887 -0.0298 -0.1472
vn -0.9873 0.0041 -0.1587
vn -0.9450 -0.3265 0.0181
vn -0.8965 -0.4353 0.0827
vn -0.9687 -0.1238 -0.2154
vn -0.9623 -0.2303 -0.1449
vn -0.8683 -0.4958 0.0143
vn -0.7456 -0.6535 0.1308
vn -0.9700 -0.0987 -0.2223
vn -0.9667 -0.1472 -0.2095
vn -0.2478 -0.0022 -0.9688
vn -0.2479 -0.0022 -0.9688
vn -0.2477 -0.0023 -0.9688
vn -0.2479 -0.0023 -0.9688
vn -0.2477 -0.0022 -0.9688
vn -0.5367 -0.1236 -0.8347
vn -0.4993 -0.5194 -0.6935
vn -0.5379 -0.1491 -0.8297
vn -0.5275 -0.0159 -0.8494
vn -0.5182 -0.4076 -0.7519
vn -0.3938 -0.3018 -0.8682
vn -0.4055 -0.5544 -0.7268
vn -0.3946 -0.2947 -0.8703
vn -0.3878 -0.3355 -0.8585
vn -0.0710 -0.3035 -0.9502
vn 0.0172 -0.5796 -0.8147
vn -0.0130 -0.4827 -0.8757
vn -0.0653 -0.2945 -0.9534
vn -0.0763 -0.3372 -0.9383
vn 0.0591 -0.1673 -0.9841
vn 0.1232 -0.5736 -0.8098
vn 0.1116 -0.4292 -0.8963
vn 0.0701 -0.2001 -0.9773
vn 0.0388 -0.0820 -0.9959
vn -0.7170 0.6852 0.1277
vn -0.7577 0.5870 0.2852
vn -0.6387 0.7682 -0.0451
vn 0.6916 0.6839 -0.2323
vn 0.5434 0.7653 -0.3449
vn 0.8083 0.5779 -0.1125
vn -0.0652 0.4930 0.8676
vn -0.1149 0.4136 0.9032
vn -0.1205 0.2519 0.9602
vn 0.5125 0.3192 0.7971
vn 0.4962 0.4311 0.7536
vn 0.0077 0.3933 0.9194
vn -0.1574 0.8372 0.5237
vn -0.1686 0.8479 0.5027
vn -0.2596 0.9348 0.2425
vn 0.0356 0.2812 0.9590
vn 0.4312 0.3639 0.8256
vn 0.3942 0.8428 0.3665
vn 0.4303 0.2930 0.8538
vn 0.3925 0.8346 0.3866
vn 0.3480 0.9333 0.0883
vn 0.2566 0.3296 0.9086
vn 0.2570 0.0720 0.9637
vn 0.6599 0.2961 0.6906
vn -0.2164 0.2932 0.9312
vn 0.6636 0.1897 0.7236
vn 0.6047 -0.2051 0.7696
vn 0.2416 -0.2172 0.9458
vn -0.1657 -0.1978 0.9661
vn -0.2135 0.1830 0.9596
vn 0.5943 0.0849 0.7997
vn 0.5436 0.0843 0.8351
vn 0.5357 -0.0926 0.8393
vn 0.5476 0.0740 0.8335
vn 0.5430 0.1645 0.8235
vn 0.5338 -0.1290 0.8357
vn 0.4748 -0.3828 0.7925
vn 0.5581 -0.0054 0.8298
vn 0.6381 -0.0136 0.7698
vn 0.6409 0.1274 0.7570
vn 0.5982 -0.0160 0.8012
vn 0.5445 -0.2099 0.8121
vn 0.5657 -0.2176 0.7954
vn 0.6036 -0.2279 0.7640
vn 0.6439 0.0982 0.7587
vn -0.2010 0.1694 0.9648
vn -0.1944 0.1016 0.9757
vn -0.1393 -0.0128 0.9902
vn -0.2011 0.1694 0.9648
vn -0.1612 -0.2135 0.9636
vn -0.1195 -0.2120 0.9699
vn -0.0937 -0.2153 0.9720
vn -0.2024 0.1246 0.9713
vn -0.0868 0.0768 0.9933
vn -0.1393 0.0844 0.9867
vn -0.1987 -0.0081 0.9800
vn -0.1023 -0.0000 0.9947
vn -0.0817 0.0858 0.9930
vn -0.0775 0.1720 0.9820
vn -0.0778 0.0016 0.9970
vn -0.0743 -0.0805 0.9940
vn -0.0688 -0.1200 0.9904
vn -0.0424 -0.3580 0.9328
vt 38.014400 -15.052100
vt 38.014400 -14.947900
vt 37.985600 -14.947900
vt 37.985600 -15.052100
vt 38.014400 -14.932500
vt 37.985600 -14.932500
vt 37.985600 -15.067500
vt 38.014400 -15.067500
vt 38.014400 -15.041600
vt 37.985600 -14.958400
vt 37.985600 -15.041600
vt 38.014400 -14.958400
vt 37.947899 -15.014400
vt 38.052101 -15.014400
vt 38.052101 -14.985600
vt 37.947899 -14.985600
vt 37.958401 -15.014400
vt 38.041599 -15.014400
vt 38.041599 -14.985600
vt 38.054001 -14.985600
vt 37.958401 -14.985600
vt 37.945999 -15.014400
vt 37.945999 -14.985600
vt 38.054001 -15.014400
vt 37.958401 -15.054000
vt 37.945999 -15.041600
vt 37.932499 -15.052100
vt 37.947899 -15.067500
vt 37.932499 -14.947900
vt 38.052101 -15.067500
vt 37.945999 -14.958400
vt 38.041599 -15.054000
vt 38.067501 -15.052100
vt 38.054001 -15.041600
vt 37.958401 -14.946000
vt 37.947899 -14.932500
vt 38.041599 -14.946000
vt 38.052101 -14.932500
vt 38.054001 -14.958400
vt 38.067501 -14.947900
vt 10.032100 -8.999440
vt 10.046400 -9.035580
vt 10.055500 -9.007230
vt 10.024900 -9.033700
vt 10.014700 -9.000690
vt 10.009400 -9.032340
vt 9.979400 -9.029720
vt 9.982800 -8.992410
vt 9.965600 -8.996390
vt 9.965090 -9.028460
vt 9.944930 -9.000130
vt 9.946880 -9.026870
vt 9.989700 -9.003270
vt 10.010400 -9.007410
vt 10.011400 -8.995670
vt 9.990730 -8.991530
vt 9.976140 -8.991190
vt 9.975120 -9.002940
vt 10.051600 -8.990530
vt 10.052900 -8.975650
vt 10.036500 -8.988870
vt 10.037800 -8.973980
vt 10.020200 -8.968220
vt 10.031800 -8.983940
vt 10.033100 -8.969060
vt 10.018900 -8.983100
vt 10.011200 -8.985150
vt 10.012200 -8.973410
vt 10.002500 -8.981700
vt 10.003500 -8.969960
vt 9.992240 -8.974060
vt 9.994030 -8.985000
vt 9.995060 -8.973260
vt 9.967930 -8.994960
vt 9.961790 -8.987260
vt 9.960770 -8.999000
vt 9.991220 -8.985800
vt 9.968960 -8.983220
vt 9.974770 -8.982140
vt 9.971110 -8.994480
vt 9.973740 -8.993880
vt 9.972140 -8.982730
vt 10.000000 -8.968380
vt 9.969080 -8.950190
vt 9.962630 -8.969090
vt 10.000000 -8.947240
vt 10.000000 -8.926430
vt 9.963600 -8.974770
vt 9.962450 -8.972140
vt 9.979940 -8.992240
vt 10.000000 -8.993150
vt 9.982610 -8.995060
vt 9.992510 -9.003540
vt 10.000000 -9.017520
vt 9.988680 -9.012180
vt 9.981830 -9.015530
vt 10.000000 -9.020160
vt 9.991430 -9.033070
vt 9.990400 -9.033780
vt 9.974420 -9.019330
vt 9.959400 -9.029270
vt 9.960530 -9.023750
vt 9.984120 -9.037820
vt 9.966090 -9.065460
vt 9.990610 -9.052820
vt 10.000000 -9.061790
vt 10.000000 -9.081570
vt 10.033900 -9.065460
vt 10.015900 -9.037850
vt 10.009400 -9.052890
vt 10.040600 -9.029270
vt 10.009600 -9.033780
vt 10.025600 -9.019320
vt 10.039500 -9.023750
vt 10.018200 -9.015530
vt 10.008600 -9.033070
vt 10.011300 -9.012180
vt 10.007500 -9.003540
vt 10.017400 -8.995060
vt 10.020100 -8.992240
vt 10.036400 -8.974770
vt 10.037400 -8.969090
vt 10.037600 -8.972140
vt 10.030900 -8.950190
vt 9.929160 -9.055500
vt 9.915190 -9.032140
vt 9.950430 -9.027030
vt 9.937770 -9.014230
vt 9.921930 -9.014730
vt 9.934880 -9.011400
vt 9.936410 -8.990730
vt 9.908580 -8.982800
vt 9.937470 -8.976150
vt 9.921930 -8.965600
vt 9.949400 -8.967960
vt 9.935420 -8.944930
vt 9.957990 -8.961790
vt 9.961060 -8.925040
vt 9.981360 -8.931750
vt 9.961040 -8.968960
vt 10.070800 -9.055500
vt 10.084800 -9.032140
vt 10.049600 -9.027040
vt 10.062200 -9.014230
vt 10.078100 -9.014730
vt 10.065100 -9.011410
vt 10.063600 -8.990730
vt 10.091400 -8.982800
vt 10.062500 -8.976140
vt 10.078100 -8.965600
vt 10.050600 -8.967960
vt 10.064600 -8.944930
vt 10.042000 -8.961820
vt 10.038900 -8.925040
vt 10.018600 -8.931750
vt 10.039000 -8.968960
vt 9.938170 -9.026870
vt 9.961060 -9.008940
vt 9.935420 -9.000130
vt 9.962720 -9.025370
vt 10.000000 -9.024380
vt 10.061800 -9.026870
vt 10.064600 -9.000130
vt 10.038900 -9.008940
vt 10.037300 -9.025370
vt 9.937770 -9.006940
vt 9.934880 -8.995670
vt 9.934880 -9.007410
vt 9.937770 -8.995190
vt 9.950430 -8.999450
vt 9.950430 -8.987710
vt 9.960530 -8.996620
vt 9.960530 -8.984880
vt 9.974420 -8.991670
vt 9.974420 -8.979920
vt 9.981830 -8.989190
vt 9.981830 -8.977450
vt 9.988680 -8.985200
vt 9.988680 -8.973450
vt 10.030900 -8.989010
vt 10.000000 -8.993040
vt 10.018600 -9.002540
vt 9.969080 -8.989010
vt 9.981360 -9.002540
vt 10.000000 -8.988620
vt 10.009400 -8.991280
vt 10.009400 -8.976390
vt 10.000000 -8.973740
vt 9.990610 -8.975650
vt 9.990610 -8.990530
vt 10.039500 -8.996620
vt 10.049600 -8.999530
vt 10.049600 -8.987790
vt 10.062200 -8.995190
vt 10.039500 -8.984880
vt 10.062200 -9.006940
vt 10.025600 -8.991530
vt 10.065100 -8.995700
vt 10.025600 -8.979790
vt 10.065100 -9.007440
vt 10.018200 -8.989190
vt 10.018200 -8.977450
vt 10.011300 -8.985150
vt 10.011300 -8.973410
vt 10.034900 -9.028460
vt 10.034400 -8.996390
vt 10.020600 -9.029720
vt 10.017200 -8.992410
vt 10.055100 -9.000130
vt 9.985270 -9.000690
vt 10.053100 -9.026870
vt 9.990570 -9.032340
vt 9.975080 -9.033700
vt 9.967860 -8.999440
vt 9.953550 -9.035580
vt 9.944500 -9.007230
vt 10.038200 -8.987000
vt 10.032100 -8.994960
vt 10.039200 -8.998740
vt 10.031000 -8.983220
vt 10.028900 -8.994480
vt 10.027900 -8.982730
vt 10.026300 -8.993880
vt 9.997490 -8.981740
vt 9.987820 -8.973450
vt 9.988850 -8.985200
vt 10.025200 -8.982130
vt 9.996460 -8.970000
vt 10.008800 -8.985800
vt 10.007800 -8.974060
vt 10.006000 -8.985030
vt 10.004900 -8.973290
vt 9.968230 -8.983950
vt 9.979840 -8.968220
vt 9.966930 -8.969070
vt 9.981140 -8.983100
vt 9.947180 -8.976390
vt 9.963490 -8.989250
vt 9.962180 -8.974360
vt 9.948480 -8.991280
vt 10.010300 -9.003270
vt 9.988600 -8.995700
vt 9.989620 -9.007440
vt 10.009300 -8.991530
vt 10.023800 -8.991110
vt 10.024900 -9.002860
vt 9.925250 -9.009430
vt 10.074700 -9.009430
vt 9.962720 -8.929750
vt 9.938170 -8.946880
vt 9.925250 -8.965090
vt 9.912480 -8.979400
vt 10.037300 -8.929750
vt 10.000000 -8.918430
vt 10.061800 -8.946880
vt 10.074700 -8.965090
vt 10.087500 -8.979400
vt 9.932180 -9.046450
vt 9.918800 -9.024920
vt 10.067800 -9.046450
vt 10.081200 -9.024920
vt 10.067800 -9.035580
vt 9.966090 -8.995390
vt 9.932180 -9.035580
vt 9.929160 -9.007230
vt 10.033900 -8.995390
vt 10.070800 -9.007230
vt 10.062500 -8.991190
vt 10.050600 -8.998890
vt 10.062500 -9.002940
vt 10.050600 -8.987140
vt 10.042000 -8.998740
vt 10.042000 -8.987000
vt 10.007500 -8.970000
vt 10.007500 -8.981740
vt 10.017400 -8.973290
vt 10.017400 -8.985030
vt 9.990400 -8.969350
vt 9.991430 -8.983950
vt 9.991430 -8.969070
vt 9.990400 -8.984230
vt 9.984120 -8.974360
vt 9.984120 -8.989250
vt 10.015900 -8.988870
vt 10.015900 -8.973980
vt 10.009600 -8.984230
vt 10.009600 -8.969350
vt 10.008600 -8.983940
vt 10.008600 -8.969060
vt 9.949400 -8.998890
vt 9.937470 -8.991110
vt 9.937470 -9.002860
vt 9.949400 -8.987140
vt 9.982610 -8.973260
vt 9.992510 -8.981700
vt 9.992510 -8.969960
vt 9.957990 -8.987260
vt 9.982610 -8.985000
vt 9.957990 -8.999000
vt 54.005600 -57.008701
vt 53.986401 -57.015499
vt 53.996899 -57.020100
vt 53.996201 -56.997101
vt 53.972599 -56.997898
vt 54.013901 -56.984200
vt 53.995201 -56.996799
vt 54.013901 -57.004101
vt 54.183701 -57.022499
vt 54.005901 -56.973999
vt 53.975800 -56.979500
vt 53.853100 -57.025501
vt 53.843800 -57.016602
vt 53.843300 -57.025501
vt 53.835899 -57.025501
vt 53.854198 -57.014500
vt 53.859402 -57.025501
vt 53.860901 -57.011398
vt 53.835899 -57.013199
vt 53.820599 -57.025501
vt 53.818600 -57.015202
vt 53.815498 -57.016800
vt 53.817001 -57.025501
vt 54.013901 -56.991001
vt 53.993801 -57.006699
vt 54.013901 -57.011002
vt 54.184502 -57.014099
vt 54.003399 -56.983200
vt 53.975201 -56.981400
vt 53.992298 -57.020901
vt 53.992199 -57.000198
vt 53.982300 -57.018600
vt 54.000900 -57.009499
vt 54.006500 -57.026001
vt 53.990002 -57.004101
vt 53.966801 -57.013901
vt 53.988701 -57.013901
vt 53.975300 -57.183701
vt 53.976601 -56.975800
vt 53.967602 -57.005901
vt 54.031898 -57.013901
vt 54.012798 -57.013901
vt 54.020100 -57.184502
vt 54.033600 -57.005199
vt 54.010899 -57.003399
vt 54.024899 -56.975201
vt 53.958698 -56.992199
vt 53.941898 -56.972599
vt 53.938000 -56.996201
vt 54.041302 -56.992199
vt 54.062000 -56.996201
vt 54.058102 -56.972599
vt 53.996799 -56.854698
vt 54.006802 -56.843300
vt 53.996399 -56.843800
vt 53.998798 -56.834400
vt 54.009602 -56.854301
vt 53.996498 -56.861500
vt 54.013302 -56.861000
vt 54.011799 -56.832199
vt 53.996498 -56.822601
vt 53.987301 -56.819000
vt 53.994701 -56.818600
vt 53.987499 -56.815800
vt 53.984501 -56.854198
vt 53.986500 -56.843800
vt 53.980400 -56.860901
vt 53.986301 -56.835899
vt 53.978600 -56.818600
vt 53.980598 -56.815498
vt 54.021900 -57.025501
vt 54.005299 -57.016300
vt 54.001900 -57.025501
vt 54.019402 -57.016800
vt 54.012501 -57.013401
vt 53.999199 -57.025501
vt 53.988201 -57.011600
vt 53.982300 -57.025501
vt 54.003502 -57.014599
vt 53.958199 -56.998699
vt 53.980900 -57.006699
vt 53.975101 -56.981400
vt 53.928001 -57.015499
vt 53.948799 -57.018600
vt 53.941898 -56.997898
vt 54.071999 -57.015499
vt 54.058102 -56.997898
vt 54.051201 -57.018600
vt 54.041401 -56.996799
vt 54.023399 -56.979500
vt 54.019001 -57.005699
vt 54.003101 -57.020100
vt 54.013599 -57.015499
vt 53.994400 -57.008701
vt 54.003799 -56.997101
vt 54.027401 -56.997898
vt 53.986099 -56.984901
vt 53.986099 -57.004902
vt 54.004398 -56.998699
vt 53.815498 -57.014099
vt 53.994801 -56.975201
vt 54.024799 -56.981400
vt 54.145699 -57.013302
vt 54.146801 -57.025501
vt 54.156700 -57.015598
vt 54.140400 -57.025501
vt 54.139000 -57.009800
vt 54.157299 -57.025501
vt 54.169300 -57.025501
vt 54.167801 -57.011600
vt 54.178699 -57.025501
vt 54.181400 -57.016300
vt 54.177399 -57.014599
vt 54.182400 -57.025501
vt 54.006599 -57.005699
vt 53.986099 -56.990700
vt 53.986099 -57.010700
vt 53.816299 -57.022499
vt 53.995899 -56.982899
vt 54.024200 -56.979500
vt 54.007702 -57.020901
vt 54.017700 -57.018600
vt 54.007801 -57.000198
vt 53.999100 -57.009499
vt 53.993500 -57.026001
vt 53.988499 -56.842701
vt 54.018398 -56.835899
vt 53.999199 -56.821301
vt 53.982300 -56.830700
vt 54.001900 -56.817600
vt 54.021900 -56.817001
vt 54.024601 -56.820599
vt 54.017200 -56.843300
vt 54.020000 -56.853100
vt 53.984600 -56.853199
vt 54.025600 -56.859402
vt 53.979099 -56.859600
vt 53.978600 -57.013901
vt 53.958199 -56.995602
vt 53.959499 -57.013901
vt 53.979900 -57.184502
vt 53.980900 -56.993801
vt 53.948200 -56.992298
vt 53.928001 -56.986401
vt 53.933998 -56.996899
vt 53.948002 -57.006500
vt 53.948799 -56.982300
vt 54.051800 -56.992298
vt 54.071999 -56.986401
vt 54.051201 -56.982300
vt 54.066002 -56.996899
vt 54.051998 -57.006500
vt 54.019901 -57.013901
vt 54.041401 -56.995201
vt 54.019001 -56.993401
vt 54.041801 -57.013901
vt 54.024700 -57.183701
vt 54.066002 -57.020100
vt 54.058800 -57.008701
vt 54.051998 -57.026001
vt 53.933998 -57.020100
vt 53.948002 -57.026001
vt 53.941200 -57.008701
vt 53.966801 -56.984200
vt 53.990002 -56.982899
vt 53.967602 -56.973999
vt 54.012798 -56.991001
vt 54.031898 -56.984901
vt 54.033600 -56.975201
vt 53.958698 -57.000198
vt 53.955399 -57.009499
vt 53.938000 -56.997101
vt 54.041302 -57.000198
vt 54.062000 -56.997101
vt 54.044601 -57.009499
vt -0.367899 0.643074
vt -0.367899 0.669687
vt -0.377291 0.652036
vt -0.358507 0.651971
vt -0.377496 0.671083
vt -0.383783 0.667045
vt -0.376472 0.671787
vt -0.367899 0.684697
vt -0.359326 0.671786
vt -0.358303 0.671083
vt -0.352016 0.667012
vt -0.406591 0.713182
vt -0.430429 0.728433
vt -0.431492 0.713856
vt -0.418501 0.736629
vt -0.430129 0.690359
vt -0.433021 0.693181
vt -0.406859 0.735629
vt -0.409911 0.742791
vt -0.405453 0.732450
vt -0.404295 0.729816
vt -0.387962 0.712341
vt -0.405273 0.691155
vt -0.417470 0.677554
vt -0.407374 0.680834
vt -0.393477 0.685254
vt -0.385289 0.709527
vt -0.386074 0.689053
vt -0.379222 0.692405
vt -0.375394 0.701043
vt -0.350510 0.709529
vt -0.349725 0.689053
vt -0.330526 0.691155
vt -0.356576 0.692409
vt -0.360405 0.701047
vt -0.342322 0.685266
vt -0.328425 0.680834
vt -0.318328 0.677547
vt -0.347836 0.712341
vt -0.305670 0.690359
vt -0.329207 0.713182
vt -0.331503 0.729816
vt -0.330346 0.732449
vt -0.304307 0.713856
vt -0.302777 0.693179
vt -0.305369 0.728440
vt -0.317298 0.736629
vt -0.328940 0.735629
vt -0.325888 0.742768
s 1
usemtl Meshpart1Mtl
f 1/1/1 2/2/2 3/3/2
f 1/1/1 3/3/2 4/4/1
f 3/3/2 2/2/2 5/5/3
f 5/5/3 6/6/3 3/3/2
f 9/1/4 7/7/5 8/8/5
f 7/7/5 9/1/4 10/4/4
f 12/9/6 13/10/7 11/11/2
f 13/10/7 12/9/6 14/12/1
f 17/13/8 16/14/9 15/15/10
f 17/13/8 15/15/10 18/16/11
f 19/17/12 20/18/3 21/19/3
f 20/18/3 22/20/13 21/19/3
f 19/17/12 21/19/3 23/21/12
f 19/17/12 23/21/12 24/22/14
f 24/22/14 23/21/12 25/23/15
f 26/24/2 22/20/13 20/18/3
f 27/25/16 28/26/17 29/27/16
f 29/27/16 30/28/16 27/25/16
f 28/26/17 31/29/16 29/27/16
f 32/30/16 27/25/16 30/28/16
f 31/29/16 28/26/17 33/31/18
f 27/25/16 32/30/16 34/32/16
f 35/33/19 34/32/16 32/30/16
f 34/32/16 35/33/19 36/34/19
f 37/35/16 31/29/16 33/31/18
f 31/29/16 37/35/16 38/36/16
f 39/37/16 38/36/16 37/35/16
f 38/36/16 39/37/16 40/38/20
f 41/39/16 42/34/16 43/33/17
f 43/33/17 44/40/16 41/39/16
f 44/40/16 45/37/19 41/39/16
f 45/37/19 44/40/16 46/38/16
f 47/3/21 48/4/22 49/1/22
f 49/1/22 48/4/22 50/7/23
f 47/3/21 49/1/22 51/2/21
f 50/7/23 52/8/24 49/1/22
f 53/5/25 47/3/21 51/2/21
f 47/3/21 53/5/25 54/6/26
f 56/10/27 57/9/28 55/12/29
f 57/9/28 56/10/27 58/11/30
f 59/13/31 61/15/32 60/16/33
f 59/13/31 62/14/34 61/15/32
f 64/22/35 65/21/36 63/23/4
f 66/17/5 65/21/36 64/22/35
f 66/17/5 67/19/37 65/21/36
f 66/17/5 68/18/23 67/19/37
f 69/20/38 70/18/39 71/24/40
f 70/18/39 69/20/38 72/19/41
f 73/30/42 74/25/42 75/28/42
f 74/25/42 76/27/42 75/28/42
f 76/27/42 74/25/42 77/26/42
f 74/25/42 73/30/42 78/32/43
f 79/33/43 78/32/43 73/30/42
f 78/32/43 79/33/43 80/34/42
f 79/33/43 81/39/43 80/34/42
f 81/39/43 79/33/43 82/40/43
f 83/37/43 81/39/43 82/40/43
f 82/40/43 84/38/43 83/37/43
f 85/36/43 83/37/43 84/38/43
f 83/37/43 85/36/43 86/35/43
f 87/26/42 88/31/43 89/29/43
f 89/29/43 90/27/42 87/26/42
f 91/35/42 89/29/43 88/31/43
f 89/29/43 91/35/42 92/36/43
usemtl Meshpart2Mtl
f 93/41/44 94/42/45 95/43/45
f 94/42/45 93/41/44 96/44/46
f 96/44/46 93/41/44 97/45/47
f 96/44/46 97/45/47 98/46/48
f 98/46/48 97/45/47 99/47/49
f 97/45/47 100/48/50 99/47/49
f 101/49/51 99/47/49 100/48/50
f 99/47/49 101/49/51 102/50/51
f 101/49/51 103/51/52 102/50/51
f 102/50/51 103/51/52 104/52/53
f 105/53/54 106/54/55 107/55/56
f 107/55/56 108/56/54 105/53/54
f 109/57/57 105/53/54 108/56/54
f 105/53/54 109/57/57 110/58/58
f 112/59/59 111/60/60 113/61/61
f 111/60/60 114/62/62 113/61/61
f 117/63/63 115/64/64 116/65/65
f 115/64/64 117/63/63 118/66/66
f 119/67/67 120/68/68 121/69/69
f 120/68/68 122/70/70 121/69/69
f 127/71/71 125/72/72 123/73/73
f 128/74/74 124/75/75 126/76/76
f 125/72/72 127/71/71 129/77/64
f 124/75/75 128/74/74 130/78/74
f 131/79/77 129/77/64 127/71/71
f 132/80/74 130/78/74 128/74/74
f 129/77/64 131/79/77 133/81/78
f 130/78/74 132/80/74 134/82/74
f 134/82/74 133/81/78 131/79/77
f 133/81/78 134/82/74 132/80/74
f 135/83/79 136/84/80 137/85/81
f 136/84/80 135/83/79 138/86/82
f 139/87/83 136/84/80 138/86/82
f 137/85/81 140/88/84 135/83/79
f 140/88/84 137/85/81 141/89/85
f 135/83/79 140/88/84 142/90/86
f 143/91/87 135/83/79 142/90/86
f 143/91/87 142/90/86 144/92/88
f 143/91/87 144/92/88 145/93/88
f 145/93/88 146/94/89 143/91/87
f 146/94/89 145/93/88 147/95/90
f 148/96/91 146/94/89 147/95/90
f 148/96/91 149/97/92 146/94/89
f 149/97/92 148/96/91 150/98/92
f 150/98/92 148/96/91 151/99/93
f 151/99/93 148/96/91 152/100/94
f 152/100/94 153/101/95 151/99/93
f 153/101/95 152/100/94 154/102/92
f 151/99/93 153/101/95 155/103/96
f 156/104/97 155/103/96 153/101/95
f 155/103/96 156/104/97 157/105/97
f 157/105/97 156/104/97 158/106/97
f 156/104/97 159/107/96 158/106/97
f 160/108/98 161/109/98 162/110/98
f 163/106/98 160/108/98 162/110/98
f 160/108/98 163/106/98 164/107/99
f 161/109/98 160/108/98 165/111/100
f 165/111/100 166/112/101 161/109/98
f 165/111/100 167/113/102 166/112/101
f 167/113/102 165/111/100 168/114/102
f 169/115/103 166/112/101 167/113/102
f 166/112/101 169/115/103 170/116/102
f 169/115/103 171/97/104 170/116/102
f 171/97/104 169/115/103 172/94/105
f 172/94/105 169/115/103 173/117/106
f 174/118/107 172/94/105 173/117/106
f 172/94/105 174/118/107 175/91/108
f 175/91/108 174/118/107 176/119/106
f 175/91/108 176/119/106 177/120/109
f 177/120/109 178/83/110 175/91/108
f 179/121/111 178/83/110 177/120/109
f 178/83/110 179/121/111 180/122/112
f 180/122/112 179/121/111 181/123/113
f 180/122/112 182/124/114 178/83/110
f 178/83/110 182/124/114 183/86/115
f 182/124/114 184/87/116 183/86/115
f 185/125/117 186/104/118 187/101/119
f 187/101/119 188/126/120 185/125/117
f 188/126/120 187/101/119 189/127/121
f 190/102/121 189/127/121 187/101/119
f 191/128/122 188/126/120 189/127/121
f 188/126/120 191/128/122 192/129/123
f 192/129/123 191/128/122 193/130/124
f 194/131/125 192/129/123 193/130/124
f 192/129/123 194/131/125 195/132/126
f 196/133/127 195/132/126 194/131/125
f 195/132/126 196/133/127 197/134/128
f 196/133/127 198/135/129 197/134/128
f 198/135/129 199/136/130 197/134/128
f 199/136/130 198/135/129 200/137/131
f 199/136/130 200/137/131 201/84/132
f 201/84/132 202/138/133 199/136/130
f 202/138/133 201/84/132 203/139/134
f 200/137/131 204/85/135 201/84/132
f 204/85/135 200/137/131 205/140/136
f 205/140/136 206/89/137 204/85/135
f 207/141/138 208/111/139 209/108/140
f 208/111/139 207/141/138 210/142/141
f 208/111/139 210/142/141 211/143/142
f 208/111/139 211/143/142 212/114/142
f 211/143/142 210/142/141 213/144/143
f 210/142/141 214/145/144 213/144/143
f 213/144/143 214/145/144 215/146/145
f 215/146/145 214/145/144 216/147/146
f 214/145/144 217/148/147 216/147/146
f 216/147/146 217/148/147 218/149/148
f 219/150/149 218/149/148 217/148/147
f 218/149/148 219/150/149 220/151/150
f 220/151/150 219/150/149 221/152/151
f 222/153/152 220/151/150 221/152/151
f 222/153/152 221/152/151 223/124/153
f 224/154/154 223/124/153 221/152/151
f 223/124/153 224/154/154 225/155/155
f 223/124/153 226/122/156 222/153/152
f 227/156/157 222/153/152 226/122/156
f 228/123/158 227/156/157 226/122/156
f 230/157/159 231/158/160 229/159/161
f 231/158/160 230/157/159 232/160/162
f 231/158/160 232/160/162 233/161/163
f 235/162/164 234/163/52 236/164/165
f 237/165/166 235/162/164 236/164/165
f 237/165/166 236/164/165 238/161/167
f 241/166/168 240/167/169 239/168/170
f 240/167/169 241/166/168 242/169/168
f 243/170/171 242/169/168 241/166/168
f 242/169/168 243/170/171 244/171/172
f 245/172/173 244/171/172 243/170/171
f 244/171/172 245/172/173 246/173/174
f 247/174/175 246/173/174 245/172/173
f 246/173/174 247/174/175 248/175/176
f 249/176/177 248/175/176 247/174/175
f 248/175/176 249/176/177 250/177/177
f 251/178/178 250/177/177 249/176/177
f 250/177/177 251/178/178 252/179/179
f 253/180/180 254/181/181 255/182/182
f 255/182/182 254/181/181 256/161/183
f 258/181/184 257/183/185 259/184/186
f 258/181/184 259/184/186 260/161/187
f 261/164/133 262/182/188 263/161/189
f 265/184/190 264/158/191 266/161/192
f 269/185/193 268/186/194 267/187/195
f 269/185/193 267/187/195 270/188/196
f 271/189/197 269/185/193 270/188/196
f 269/185/193 271/189/197 272/190/198
f 273/191/199 274/192/200 275/193/201
f 274/192/200 276/194/202 275/193/201
f 273/191/199 275/193/201 277/195/203
f 274/192/200 278/196/202 276/194/202
f 279/197/204 273/191/199 277/195/203
f 278/196/202 280/198/205 276/194/202
f 279/197/204 277/195/203 281/199/206
f 282/200/207 280/198/205 278/196/202
f 283/201/208 279/197/204 281/199/206
f 283/201/208 281/199/206 284/202/209
f 285/203/210 283/201/208 284/202/209
f 285/203/210 284/202/209 286/204/68
f 287/205/211 288/206/212 289/207/213
f 290/208/214 289/207/213 288/206/212
f 287/205/211 291/209/215 288/206/212
f 292/210/216 289/207/213 290/208/214
f 291/209/215 287/205/211 293/211/159
f 289/207/213 292/210/216 294/212/217
f 292/210/216 295/213/218 294/212/217
f 295/213/218 292/210/216 296/214/219
f 296/214/219 297/215/220 295/213/218
f 297/215/220 296/214/219 298/216/220
f 300/217/221 301/218/222 299/219/223
f 302/220/224 301/218/222 300/217/221
f 302/220/224 303/221/225 301/218/222
f 303/221/225 302/220/224 305/222/222
f 305/222/222 307/223/226 303/221/225
f 308/224/227 306/225/228 304/226/229
f 307/223/226 305/222/222 309/227/230
f 306/225/228 308/224/227 310/228/231
f 309/227/230 311/229/232 307/223/226
f 311/229/232 309/227/230 313/230/232
f 313/230/232 314/231/233 311/229/232
f 314/231/233 313/230/232 312/232/234
f 315/233/232 316/234/235 317/235/236
f 316/234/235 315/233/232 318/236/235
f 321/237/237 320/238/238 319/239/239
f 320/238/238 321/237/237 322/240/240
f 325/241/241 323/242/205 324/243/242
f 323/242/205 325/241/241 326/244/241
f 325/241/241 327/245/243 326/244/241
f 327/245/243 325/241/241 328/246/244
f 329/108/245 330/104/246 331/107/245
f 332/247/247 333/248/247 334/249/247
f 335/250/247 332/247/247 334/249/247
f 332/247/247 335/250/247 336/251/247
f 336/251/247 337/252/247 332/247/247
f 334/249/247 338/253/247 339/254/247
f 334/249/247 333/248/247 338/253/247
f 338/253/247 333/248/247 340/255/247
f 340/255/247 333/248/247 341/256/247
f 333/248/247 342/257/248 341/256/247
f 333/248/247 332/247/247 343/258/249
f 332/247/247 344/259/247 343/258/249
f 333/248/247 343/258/249 345/260/247
f 345/260/247 346/261/247 333/248/247
f 347/262/250 348/263/251 349/264/252
f 349/264/252 348/263/251 350/265/251
f 351/266/250 348/263/251 347/262/250
f 347/262/250 352/267/250 351/266/250
f 353/268/253 355/269/254 354/270/255
f 356/271/256 355/269/254 353/268/253
f 356/271/256 357/272/223 355/269/254
f 358/273/257 357/272/223 356/271/256
f 360/274/258 359/275/259 361/276/234
f 361/276/234 359/275/259 362/277/260
f 365/278/261 363/279/262 364/280/263
f 363/279/262 365/278/261 366/281/264
f 367/282/265 366/281/264 365/278/261
f 366/281/264 367/282/265 368/283/266
f 369/284/267 370/285/268 371/286/269
f 372/287/270 371/286/269 370/285/268
f 372/287/270 373/288/271 371/286/269
f 374/289/272 373/288/271 372/287/270
f 378/290/273 375/291/243 376/292/244
f 375/291/243 378/290/273 380/293/274
f 381/294/73 377/295/275 379/296/276
f 380/293/274 378/290/273 382/297/75
f 377/295/275 381/294/73 383/298/277
f 382/297/75 378/290/273 384/299/76
usemtl Meshpart3Mtl
f 385/300/278 386/301/279 387/302/280
f 386/301/279 385/300/278 388/303/281
f 388/303/281 389/304/282 386/301/279
f 390/305/283 391/306/284 392/307/285
f 392/307/285 393/308/286 390/305/283
f 394/309/287 391/306/284 390/305/283
f 394/309/287 395/310/288 391/306/284
f 396/311/289 397/312/290 398/313/291
f 397/312/290 399/314/292 398/313/291
f 397/312/290 396/311/289 400/315/293
f 401/316/294 400/315/293 396/311/289
f 401/316/294 402/317/295 400/315/293
f 399/314/292 397/312/290 403/318/296
f 403/318/296 404/319/297 399/314/292
f 404/319/297 403/318/296 405/320/298
f 406/321/299 404/319/297 405/320/298
f 404/319/297 406/321/299 407/322/300
f 408/323/301 409/324/302 410/325/303
f 408/323/301 410/325/303 411/326/304
f 409/324/302 408/323/301 412/327/305
f 409/324/302 412/327/305 413/328/306
f 414/329/307 415/330/308 416/331/309
f 416/331/309 415/330/308 417/304/310
f 415/330/308 414/329/307 418/332/311
f 418/332/311 414/329/307 419/333/312
f 420/334/313 421/335/314 422/336/315
f 421/335/314 423/337/316 422/336/315
f 420/334/317 425/338/318 424/339/319
f 427/340/320 426/341/321 429/342/322
f 426/341/323 428/343/324 430/344/325
f 430/344/325 428/343/324 431/345/326
f 432/346/327 434/347/328 433/348/329
f 435/349/330 436/350/331 437/351/332
f 438/352/333 439/353/334 440/354/335
f 439/353/334 441/355/336 440/354/335
f 439/353/334 438/352/333 442/356/337
f 443/357/338 442/356/337 438/352/333
f 443/357/338 444/358/338 442/356/337
f 441/355/336 439/353/334 445/359/339
f 446/360/340 441/355/336 445/359/339
f 441/355/336 446/360/340 447/361/341
f 447/361/341 446/360/340 448/362/342
f 447/361/341 448/362/342 449/363/342
f 450/364/343 451/352/344 452/365/345
f 450/364/343 453/357/346 451/352/344
f 453/357/346 450/364/343 454/366/347
f 451/352/344 455/354/348 452/365/345
f 455/354/348 456/367/349 452/365/345
f 456/367/349 455/354/348 457/355/350
f 458/361/351 456/367/349 457/355/350
f 456/367/349 458/361/351 459/368/352
f 458/361/351 460/369/353 459/368/352
f 460/369/353 458/361/351 461/363/353
f 462/370/354 463/371/355 464/372/356
f 463/371/355 462/370/354 465/373/354
f 463/371/355 465/373/354 466/374/354
f 469/375/357 468/376/358 467/377/359
f 468/376/358 469/375/357 470/378/360
f 471/379/361 472/380/362 473/381/363
f 474/382/364 475/383/365 476/384/366
f 477/385/367 479/386/368 478/387/369
f 480/388/370 482/389/371 481/390/372
f 483/391/373 484/392/374 485/393/375
f 484/392/374 486/394/376 485/393/375
f 486/394/376 484/392/374 487/395/377
f 488/396/378 489/397/379 490/398/380
f 489/397/379 488/396/378 491/399/381
f 490/398/380 492/400/382 488/396/378
f 492/400/382 490/398/380 493/401/383
f 494/402/384 495/403/385 496/404/386
f 494/402/384 497/405/387 495/403/385
f 497/405/387 494/402/384 498/406/388
f 495/403/385 499/407/389 496/404/386
f 500/408/390 496/404/386 499/407/389
f 496/404/386 500/408/390 501/409/391
f 502/410/392 504/411/393 503/412/394
f 504/411/393 502/410/392 505/413/395
f 506/414/396 507/415/397 508/416/398
f 507/415/397 509/417/399 508/416/398
f 507/415/397 506/414/396 510/418/400
f 506/414/396 511/419/401 510/418/400
f 512/420/402 513/421/403 514/422/404
f 513/421/403 515/395/405 514/422/404
f 514/422/404 516/423/406 512/420/402
f 516/423/406 517/424/407 512/420/402
f 518/425/408 519/426/408 520/427/409
f 518/425/408 520/427/409 521/428/409
f 519/426/408 522/429/408 520/427/409
f 522/429/408 519/426/408 523/430/410
f 523/430/410 519/426/408 524/431/411
f 519/426/408 518/425/408 525/432/408
f 518/425/408 526/433/408 525/432/408
f 526/433/408 518/425/408 527/434/409
f 527/434/409 528/435/408 526/433/408
f 529/436/412 528/435/408 527/434/409
f 530/437/413 531/438/414 532/439/415
f 530/437/413 532/439/415 533/440/416
f 531/438/414 530/437/413 534/441/417
f 535/442/418 536/443/419 537/444/420
f 535/442/418 537/444/420 538/445/421
f 536/443/419 535/442/418 539/446/365
f 540/447/422 541/448/423 542/449/424
f 541/448/423 540/447/422 543/450/425
f 540/447/422 544/451/426 543/450/425
f 545/452/427 546/453/428 547/454/429
f 546/453/428 545/452/427 548/455/430
f 545/452/427 549/456/431 548/455/430
f 550/457/432 551/458/433 552/459/434
f 554/460/435 555/461/436 553/462/437
f 557/463/438 556/464/439 558/465/440
f 559/466/441 560/467/442 561/468/324
f 562/469/443 563/462/444 564/470/445
f 563/462/444 565/461/446 564/470/445
f 563/462/444 562/469/443 566/471/447
f 567/472/448 568/458/449 569/473/450
f 568/458/449 567/472/448 570/474/451
f 568/458/449 570/474/451 571/459/452
usemtl Meshpart4Mtl
f 572/475/453 573/476/454 574/477/455
f 575/478/456 573/476/454 572/475/453
f 574/477/455 576/479/457 577/480/455
f 576/479/457 574/477/455 573/476/454
f 576/479/457 573/476/454 578/481/458
f 578/481/458 573/476/454 579/482/459
f 573/476/454 580/483/460 579/482/459
f 573/476/454 581/484/461 580/483/460
f 573/476/454 575/478/456 581/484/461
f 581/484/461 575/478/456 582/485/456
f 583/486/462 584/487/137 585/488/463
f 584/487/137 583/486/462 586/489/464
f 587/490/465 585/488/463 588/491/466
f 585/488/463 587/490/465 583/486/462
f 589/492/467 590/493/468 586/489/464
f 586/489/464 591/494/469 589/492/467
f 586/489/464 583/486/462 591/494/469
f 591/494/469 583/486/462 592/495/470
f 583/486/462 593/496/471 592/495/470
f 583/486/462 587/490/465 594/497/472
f 594/497/472 593/496/471 583/486/462
f 594/497/472 587/490/465 595/498/473
f 594/497/472 595/498/473 596/499/474
f 596/499/474 597/500/475 594/497/472
f 593/496/471 594/497/472 598/501/88
f 599/502/476 594/497/472 597/500/475
f 598/501/88 594/497/472 599/502/476
f 600/503/90 598/501/88 599/502/476
f 598/501/88 600/503/90 601/504/88
f 602/505/477 603/506/478 604/507/479
f 603/506/478 602/505/477 605/508/480
f 605/508/480 602/505/477 606/509/480
f 604/507/479 603/506/478 607/510/481
f 607/510/481 608/511/482 604/507/479
f 609/512/483 604/507/479 608/511/482
f 602/505/477 604/507/479 610/513/484
f 604/507/479 609/512/483 611/514/485
f 610/513/484 604/507/479 612/515/486
f 604/507/479 611/514/485 612/515/486
f 613/516/487 610/513/484 612/515/486
f 612/515/486 614/517/488 613/516/487
f 611/514/485 615/518/489 612/515/486
f 615/518/489 611/514/485 616/519/490
f 617/520/491 612/515/486 615/518/489
f 618/521/492 612/515/486 617/520/491
f 618/521/492 614/517/488 612/515/486
f 614/517/488 618/521/492 619/522/493
f 618/521/492 620/523/494 619/522/493
