# Blender 5.1.1
# www.blender.org
mtllib xxx00.mtl
o 124886795660849
v 0.335162 -0.064002 -0.580738
v 0.335162 0.038952 -0.580738
v 0.353990 0.038952 -0.512443
v 0.353990 -0.064002 -0.512443
v 0.353990 0.038952 -0.361203
v 0.353990 -0.064002 -0.361203
v 0.336965 0.038952 -0.306445
v 0.336965 -0.064002 -0.306445
v 0.305359 -0.064002 -0.620952
v 0.305359 0.038952 -0.620952
v 0.335162 0.038952 -0.580738
v 0.335162 -0.064002 -0.580738
v 0.270871 -0.064002 -0.646155
v 0.270871 0.038952 -0.646155
v 0.213477 -0.064002 -0.663547
v 0.213477 0.038952 -0.663547
v 0.166348 -0.064002 -0.666681
v 0.166348 0.038952 -0.666681
v 0.119218 0.038952 -0.663547
v 0.119218 -0.064002 -0.663547
v 0.061824 0.038952 -0.646155
v 0.061824 -0.064002 -0.646155
v 0.027336 0.038952 -0.620952
v 0.027336 -0.064002 -0.620952
v -0.002467 0.038952 -0.580738
v -0.002467 -0.064002 -0.580738
v 0.336965 -0.064002 -0.306445
v 0.336965 0.038952 -0.306445
v 0.308292 0.038952 -0.265858
v 0.308292 -0.064002 -0.265858
v 0.268593 0.038952 -0.237093
v 0.268593 -0.064002 -0.237093
v 0.212164 0.038952 -0.220216
v 0.212164 -0.064002 -0.220216
v 0.166348 0.038952 -0.217082
v 0.166348 -0.064002 -0.217082
v 0.120533 -0.064002 -0.220216
v 0.120533 0.038952 -0.220216
v 0.064103 -0.064002 -0.237093
v 0.064103 0.038952 -0.237093
v 0.024403 -0.064002 -0.265858
v 0.024403 0.038952 -0.265858
v -0.004270 -0.064002 -0.306445
v -0.004270 0.038952 -0.306445
v -0.002467 -0.064002 -0.580738
v -0.021294 0.038952 -0.512443
v -0.002467 0.038952 -0.580738
v -0.021294 -0.064002 -0.512443
v -0.021294 0.038952 -0.361203
v -0.021294 -0.064002 -0.361203
v -0.004270 0.038952 -0.306445
v -0.004270 -0.064002 -0.306445
v -0.069436 0.038952 -0.345353
v -0.345657 0.038952 -0.221966
v -0.229986 0.038952 -0.221395
v -0.353991 0.038952 -0.232519
v -0.218490 0.038952 -0.368608
v -0.067673 0.038952 -0.359258
v -0.119230 0.038952 -0.427780
v -0.131117 0.038952 -0.432898
v -0.353991 0.038952 -0.651323
v -0.219735 0.038952 -0.654917
v -0.345657 0.038952 -0.661876
v -0.230279 0.038952 -0.662764
v -0.069436 -0.064002 -0.345353
v -0.229986 -0.064002 -0.221395
v -0.345657 -0.064002 -0.221966
v -0.353991 -0.064002 -0.232519
v -0.218490 -0.064002 -0.368608
v -0.067673 -0.064002 -0.359258
v -0.119230 -0.064002 -0.427780
v -0.131117 -0.064002 -0.432898
v -0.353991 -0.064002 -0.651323
v -0.219735 -0.064002 -0.654917
v -0.345657 -0.064002 -0.661876
v -0.230279 -0.064002 -0.662764
v 0.353990 0.038952 -0.512443
v 0.213121 0.038952 -0.374297
v 0.353990 0.038952 -0.361203
v 0.336965 0.038952 -0.306445
v 0.207589 0.038952 -0.345412
v 0.189984 0.038952 -0.326979
v 0.212365 0.038952 -0.518455
v 0.335162 0.038952 -0.580738
v 0.205309 0.038952 -0.540674
v 0.335162 0.038952 -0.580738
v 0.185644 0.038952 -0.557630
v 0.336965 0.038952 -0.306445
v 0.166348 0.038952 -0.320182
v -0.004270 0.038952 -0.306445
v 0.142711 0.038952 -0.326979
v 0.335162 0.038952 -0.580738
v 0.166348 0.038952 -0.562018
v -0.002467 0.038952 -0.580738
v 0.147052 0.038952 -0.557630
v 0.127387 0.038952 -0.540674
v -0.002467 0.038952 -0.580738
v 0.125106 0.038952 -0.345412
v -0.004270 0.038952 -0.306445
v 0.119575 0.038952 -0.374297
v -0.021294 0.038952 -0.361203
v -0.021294 0.038952 -0.512443
v 0.120330 0.038952 -0.518455
v -0.002467 0.038952 -0.580738
v 0.166348 0.038952 -0.562018
v 0.027336 0.038952 -0.620952
v 0.061824 0.038952 -0.646155
v 0.119218 0.038952 -0.663547
v 0.166348 0.038952 -0.666681
v 0.213477 0.038952 -0.663547
v 0.270871 0.038952 -0.646155
v 0.305359 0.038952 -0.620952
v 0.166348 0.038952 -0.320182
v 0.308292 0.038952 -0.265858
v 0.336965 0.038952 -0.306445
v 0.268593 0.038952 -0.237093
v 0.212164 0.038952 -0.220216
v 0.166348 0.038952 -0.217082
v 0.120533 0.038952 -0.220216
v 0.064103 0.038952 -0.237093
v 0.024403 0.038952 -0.265858
v -0.004270 0.038952 -0.306445
v 0.353990 -0.064002 -0.512443
v 0.353990 -0.064002 -0.361203
v 0.213121 -0.064002 -0.374297
v 0.336965 -0.064002 -0.306445
v 0.207589 -0.064002 -0.345412
v 0.189984 -0.064002 -0.326979
v 0.212365 -0.064002 -0.518455
v 0.335162 -0.064002 -0.580738
v 0.205309 -0.064002 -0.540674
v 0.185644 -0.064002 -0.557630
v 0.335162 -0.064002 -0.580738
v 0.336965 -0.064002 -0.306445
v 0.166348 -0.064002 -0.320182
v -0.004270 -0.064002 -0.306445
v 0.142711 -0.064002 -0.326979
v 0.335162 -0.064002 -0.580738
v 0.166348 -0.064002 -0.562018
v -0.002467 -0.064002 -0.580738
v 0.147052 -0.064002 -0.557630
v 0.127387 -0.064002 -0.540674
v -0.002467 -0.064002 -0.580738
v -0.004270 -0.064002 -0.306445
v 0.125106 -0.064002 -0.345412
v 0.119575 -0.064002 -0.374297
v -0.021294 -0.064002 -0.361203
v -0.021294 -0.064002 -0.512443
v 0.120330 -0.064002 -0.518455
v -0.002467 -0.064002 -0.580738
v 0.027336 -0.064002 -0.620952
v 0.166348 -0.064002 -0.562018
v 0.061824 -0.064002 -0.646155
v 0.119218 -0.064002 -0.663547
v 0.166348 -0.064002 -0.666681
v 0.213477 -0.064002 -0.663547
v 0.270871 -0.064002 -0.646155
v 0.305359 -0.064002 -0.620952
v 0.166348 -0.064002 -0.320182
v 0.268593 -0.064002 -0.237093
v 0.212164 -0.064002 -0.220216
v 0.308292 -0.064002 -0.265858
v 0.336965 -0.064002 -0.306445
v 0.166348 -0.064002 -0.217082
v 0.120533 -0.064002 -0.220216
v 0.064103 -0.064002 -0.237093
v 0.024403 -0.064002 -0.265858
v -0.004270 -0.064002 -0.306445
v 0.212365 -0.064002 -0.518455
v 0.205309 0.038952 -0.540674
v 0.205309 -0.064002 -0.540674
v 0.185644 0.038952 -0.557630
v 0.212365 0.038952 -0.518455
v 0.185644 -0.064002 -0.557630
v 0.213121 -0.064002 -0.374297
v 0.166348 0.038952 -0.562018
v 0.213121 0.038952 -0.374297
v 0.166348 -0.064002 -0.562018
v 0.207589 -0.064002 -0.345412
v 0.147052 -0.064002 -0.557630
v 0.207589 0.038952 -0.345412
v 0.147052 0.038952 -0.557630
v 0.189984 -0.064002 -0.326979
v 0.127387 -0.064002 -0.540674
v 0.189984 0.038952 -0.326979
v 0.127387 0.038952 -0.540674
v 0.166348 -0.064002 -0.320182
v 0.120330 -0.064002 -0.518455
v 0.166348 0.038952 -0.320182
v 0.120330 0.038952 -0.518455
v 0.142711 0.038952 -0.326979
v 0.119575 -0.064002 -0.374297
v 0.142711 -0.064002 -0.326979
v 0.119575 0.038952 -0.374297
v 0.125106 0.038952 -0.345412
v 0.125106 -0.064002 -0.345412
v -0.345657 0.038952 -0.661876
v -0.230279 0.038952 -0.662764
v -0.345657 -0.064002 -0.661876
v -0.230279 -0.064002 -0.662764
v -0.353991 -0.064002 -0.651323
v -0.219735 0.038952 -0.654917
v -0.353991 0.038952 -0.651323
v -0.219735 -0.064002 -0.654917
v -0.218490 0.038952 -0.368608
v -0.218490 -0.064002 -0.368608
v -0.353991 -0.064002 -0.232519
v -0.353991 0.038952 -0.232519
v -0.345657 -0.064002 -0.221966
v -0.345657 0.038952 -0.221966
v -0.229986 -0.064002 -0.221395
v -0.229986 0.038952 -0.221395
v -0.069436 -0.064002 -0.345353
v -0.069436 0.038952 -0.345353
v -0.067673 -0.064002 -0.359258
v -0.067673 0.038952 -0.359258
v -0.119230 -0.064002 -0.427780
v -0.119230 0.038952 -0.427780
v -0.131117 -0.064002 -0.432898
v -0.131117 0.038952 -0.432898
v -0.218490 -0.064002 -0.368608
v -0.218490 0.038952 -0.368608
vn 0.8989 0.0005 -0.4383
vn 0.9909 0.0004 -0.1344
vn 0.9909 0.0003 -0.1343
vn 0.9887 0.0003 0.1500
vn 0.9887 0.0005 0.1500
vn 0.8969 0.0005 0.4422
vn 0.7043 0.0005 -0.7099
vn 0.7044 0.0004 -0.7098
vn 0.8988 0.0005 -0.4383
vn 0.4465 0.0006 -0.8948
vn 0.1796 0.0004 -0.9837
vn 0.1795 0.0003 -0.9838
vn -0.0002 0.0005 -1.0000
vn -0.1792 0.0003 -0.9838
vn -0.1791 0.0004 -0.9838
vn -0.4467 0.0005 -0.8947
vn -0.4468 0.0005 -0.8946
vn -0.7047 -0.0000 -0.7095
vn -0.7046 0.0003 -0.7096
vn -0.8989 0.0005 -0.4382
vn 0.7112 0.0005 0.7030
vn 0.4429 -0.0000 0.8966
vn 0.4426 0.0004 0.8967
vn 0.1786 0.0005 0.9839
vn -0.0002 0.0005 1.0000
vn -0.1788 0.0004 0.9839
vn -0.1787 0.0003 0.9839
vn -0.4429 0.0004 0.8966
vn -0.4428 0.0005 0.8966
vn -0.7113 0.0004 0.7029
vn -0.7113 -0.0000 0.7029
vn -0.8970 0.0005 0.4421
vn -0.8989 0.0005 -0.4381
vn -0.9909 0.0004 -0.1343
vn -0.9909 0.0003 -0.1343
vn -0.9887 0.0005 0.1499
vn -0.8970 0.0005 0.4420
vn -0.0002 1.0000 0.0005
vn -0.0001 1.0000 0.0003
vn -0.0002 -1.0000 0.0005
vn -0.0001 -1.0000 0.0003
vn -0.9878 0.0005 0.1558
vn -0.8347 0.0004 0.5507
vn -0.4507 -0.0000 0.8927
vn -0.4507 0.0003 0.8927
vn -0.9957 0.0004 -0.0923
vn -0.8891 0.0003 -0.4578
vn 0.4505 0.0004 0.8928
vn 0.4504 0.0005 0.8928
vn -0.5179 0.0004 -0.8554
vn 0.8346 0.0003 0.5508
vn -0.5180 0.0005 -0.8554
vn 0.9878 0.0005 0.1559
vn 0.5177 -0.0000 -0.8555
vn 0.9957 0.0005 -0.0923
vn 0.5177 -0.0000 -0.8556
vn 0.9957 0.0005 -0.0924
vn 0.8890 0.0003 -0.4579
vn -0.4396 0.0003 -0.8982
vn 0.3107 0.0005 -0.9505
vn 0.3108 -0.0000 -0.9505
vn -0.9448 0.0005 -0.3277
vn 0.8926 0.0006 -0.4508
vn 0.8926 0.0005 -0.4508
vn 1.0000 0.0005 -0.0044
vn 1.0000 0.0003 -0.0044
vn -0.9448 0.0005 0.3277
vn -0.4382 -0.0000 0.8989
vn -0.4382 0.0003 0.8989
vn 0.3203 0.0005 0.9473
vn 0.3203 0.0006 0.9473
vn 0.8680 0.0005 0.4966
vn 0.9665 0.0005 -0.2566
vn 0.6183 0.0006 -0.7859
vn 0.6183 0.0005 -0.7860
vn -0.1136 0.0003 -0.9935
vn -0.1136 0.0005 -0.9935
vn -0.5924 0.0004 -0.8056
vt 0.921038 0.000000
vt 0.111095 0.000000
vt 0.199601 0.000000
vt 0.785283 0.000000
vt 0.000000 0.000000
vt 0.078500 0.000000
vt 0.225330 0.000000
vt 0.457993 0.000000
vt 0.723516 0.000000
vt 0.581669 0.000000
vt 0.805314 0.000000
vt 0.166667 0.000000
vt 0.373576 0.000000
vt 0.307964 0.000000
vt 0.228596 0.000000
vt 0.868032 0.000000
vt 0.109732 0.000000
vt 0.949817 0.000000
vt 0.028190 0.000000
vt 0.860339 0.000000
vt 0.838611 0.000000
vt 0.823920 0.000000
vt 0.955917 0.000000
vt 0.974101 0.000000
vt 0.909464 0.000000
vt 0.917157 0.000000
vt 0.781751 0.000000
vt 0.809683 0.000000
vt 0.816017 0.000000
s 1
f 1/1/1 2/1/1 3/2/2
f 1/1/1 3/2/2 4/2/3
f 4/2/3 3/2/2 5/3/4
f 4/2/3 5/3/4 6/3/5
f 6/3/5 5/3/4 7/4/6
f 6/3/5 7/4/6 8/4/6
f 9/5/7 10/5/8 11/6/9
f 9/5/7 11/6/9 12/6/9
f 10/5/8 9/5/7 13/5/10
f 13/5/10 14/5/10 10/5/8
f 14/5/10 13/5/10 15/5/11
f 15/5/11 16/5/12 14/5/10
f 16/5/12 15/5/11 17/5/13
f 17/5/13 18/5/13 16/5/12
f 18/5/13 17/5/13 19/5/14
f 19/5/14 17/5/13 20/5/15
f 19/5/14 20/5/15 21/5/16
f 21/5/16 20/5/15 22/5/17
f 21/5/16 22/5/17 23/5/18
f 23/5/18 22/5/17 24/5/19
f 24/5/19 25/6/20 23/5/18
f 25/6/20 24/5/19 26/6/20
f 27/7/6 28/7/6 29/5/21
f 27/7/6 29/5/21 30/5/21
f 31/5/22 30/5/21 29/5/21
f 30/5/21 31/5/22 32/5/23
f 33/5/24 32/5/23 31/5/22
f 32/5/23 33/5/24 34/5/24
f 35/5/25 34/5/24 33/5/24
f 34/5/24 35/5/25 36/5/25
f 36/5/25 35/5/25 37/5/26
f 37/5/26 35/5/25 38/5/27
f 37/5/26 38/5/27 39/5/28
f 39/5/28 38/5/27 40/5/29
f 39/5/28 40/5/29 41/5/30
f 41/5/30 40/5/29 42/5/31
f 42/5/31 43/7/32 41/5/30
f 43/7/32 42/5/31 44/7/32
f 45/1/33 46/2/34 47/1/33
f 46/2/34 45/1/33 48/2/35
f 48/2/35 49/3/36 46/2/34
f 49/3/36 48/2/35 50/3/36
f 50/3/36 51/4/37 49/3/36
f 51/4/37 50/3/36 52/4/37
f 53/8/38 54/9/38 55/10/38
f 53/8/38 56/11/38 54/9/38
f 53/8/38 57/12/39 56/11/38
f 58/13/38 57/12/39 53/8/38
f 59/14/38 57/12/39 58/13/38
f 59/14/38 60/15/38 57/12/39
f 57/12/39 61/16/38 56/11/38
f 62/17/38 61/16/38 57/12/39
f 62/17/38 63/18/38 61/16/38
f 64/19/38 63/18/38 62/17/38
f 65/8/40 66/10/40 67/9/40
f 65/8/40 67/9/40 68/11/40
f 65/8/40 68/11/40 69/12/41
f 70/13/40 65/8/40 69/12/41
f 71/14/40 70/13/40 69/12/41
f 71/14/40 69/12/41 72/15/40
f 69/12/41 68/11/40 73/16/40
f 74/17/40 69/12/41 73/16/40
f 74/17/40 73/16/40 75/18/40
f 76/19/40 74/17/40 75/18/40
f 77/2/38 78/20/38 79/3/38
f 78/20/38 80/4/38 79/3/38
f 80/4/38 78/20/38 81/21/38
f 82/22/38 80/4/38 81/21/38
f 77/2/38 83/23/38 78/20/38
f 84/1/38 83/23/38 77/2/38
f 83/23/38 84/1/38 85/24/38
f 85/24/38 86/25/38 87/26/38
f 88/27/38 82/22/38 89/28/38
f 90/27/38 89/28/38 91/22/38
f 92/6/38 93/29/38 87/26/38
f 94/6/38 95/26/38 93/29/38
f 96/24/38 95/26/38 97/25/38
f 91/22/38 98/21/38 99/4/38
f 100/20/38 99/4/38 98/21/38
f 99/4/38 100/20/38 101/3/38
f 102/2/38 101/3/38 100/20/38
f 102/2/38 100/20/38 103/23/38
f 104/1/38 103/23/38 96/24/38
f 103/23/38 104/1/38 102/2/38
f 94/6/38 105/5/39 106/5/38
f 105/5/39 107/5/38 106/5/38
f 107/5/38 105/5/39 108/5/38
f 108/5/38 105/5/39 109/5/38
f 110/5/38 109/5/38 105/5/39
f 105/5/39 111/5/38 110/5/38
f 111/5/38 105/5/39 112/5/38
f 112/5/38 105/5/39 92/6/38
f 113/5/39 114/5/38 115/7/38
f 114/5/38 113/5/39 116/5/38
f 116/5/38 113/5/39 117/5/38
f 117/5/38 113/5/39 118/5/38
f 119/5/38 118/5/38 113/5/39
f 113/5/39 120/5/38 119/5/38
f 120/5/38 113/5/39 121/5/38
f 121/5/38 113/5/39 122/7/38
f 123/2/40 124/3/40 125/20/40
f 126/4/40 125/20/40 124/3/40
f 125/20/40 126/4/40 127/21/40
f 128/22/40 127/21/40 126/4/40
f 123/2/40 125/20/40 129/23/40
f 129/23/40 130/1/40 123/2/40
f 130/1/40 129/23/40 131/24/40
f 131/24/40 132/26/40 133/25/40
f 134/27/40 135/28/40 128/22/40
f 136/27/40 137/22/40 135/28/40
f 138/6/40 132/26/40 139/29/40
f 140/6/40 139/29/40 141/26/40
f 142/24/40 143/25/40 141/26/40
f 137/22/40 144/4/40 145/21/40
f 144/4/40 146/20/40 145/21/40
f 146/20/40 144/4/40 147/3/40
f 148/2/40 146/20/40 147/3/40
f 148/2/40 149/23/40 146/20/40
f 149/23/40 150/1/40 142/24/40
f 150/1/40 149/23/40 148/2/40
f 151/5/40 152/5/41 140/6/40
f 153/5/40 152/5/41 151/5/40
f 152/5/41 153/5/40 154/5/40
f 154/5/40 155/5/40 152/5/41
f 156/5/40 152/5/41 155/5/40
f 157/5/40 152/5/41 156/5/40
f 152/5/41 157/5/40 158/5/40
f 138/6/40 152/5/41 158/5/40
f 159/5/41 160/5/40 161/5/40
f 160/5/40 159/5/41 162/5/40
f 162/5/40 159/5/41 163/7/40
f 161/5/40 164/5/40 159/5/41
f 165/5/40 159/5/41 164/5/40
f 166/5/40 159/5/41 165/5/40
f 167/5/40 159/5/41 166/5/40
f 159/5/41 167/5/40 168/7/40
f 169/23/42 170/24/43 171/24/43
f 172/26/44 171/24/43 170/24/43
f 170/24/43 169/23/42 173/23/42
f 171/24/43 172/26/44 174/26/45
f 169/23/42 175/20/46 173/23/42
f 176/29/25 174/26/45 172/26/44
f 173/23/42 175/20/46 177/20/46
f 174/26/45 176/29/25 178/29/25
f 179/21/47 177/20/46 175/20/46
f 178/29/25 176/29/25 180/26/48
f 177/20/46 179/21/47 181/21/47
f 180/26/48 176/29/25 182/26/49
f 183/22/50 181/21/47 179/21/47
f 180/26/48 182/26/49 184/24/51
f 181/21/47 183/22/50 185/22/52
f 184/24/51 182/26/49 186/24/51
f 185/22/52 183/22/50 187/28/13
f 184/24/51 186/24/51 188/23/53
f 187/28/13 189/28/13 185/22/52
f 190/23/53 188/23/53 186/24/51
f 187/28/13 191/22/54 189/28/13
f 188/23/53 190/23/53 192/20/55
f 191/22/54 187/28/13 193/22/56
f 190/23/53 194/20/57 192/20/55
f 191/22/54 193/22/56 195/21/58
f 192/20/55 194/20/57 196/21/58
f 196/21/58 195/21/58 193/22/56
f 195/21/58 196/21/58 194/20/57
f 197/18/59 198/19/60 199/18/59
f 198/19/60 200/19/61 199/18/59
f 201/16/62 197/18/59 199/18/59
f 200/19/61 198/19/60 202/17/63
f 197/18/59 201/16/62 203/16/62
f 202/17/63 204/17/64 200/19/61
f 202/17/63 205/12/65 204/17/64
f 204/17/64 205/12/65 206/12/66
f 207/11/67 203/16/62 201/16/62
f 203/16/62 207/11/67 208/11/67
f 209/9/68 208/11/67 207/11/67
f 208/11/67 209/9/68 210/9/69
f 211/10/70 210/9/69 209/9/68
f 210/9/69 211/10/70 212/10/71
f 213/8/72 212/10/71 211/10/70
f 212/10/71 213/8/72 214/8/72
f 215/13/73 214/8/72 213/8/72
f 215/13/73 216/13/73 214/8/72
f 217/14/74 216/13/73 215/13/73
f 217/14/74 218/14/75 216/13/73
f 218/14/75 217/14/74 219/15/76
f 219/15/76 220/15/77 218/14/75
f 220/15/77 219/15/76 221/12/78
f 222/12/78 220/15/77 221/12/78
