# Blender 5.1.1
# www.blender.org
mtllib xxx02.mtl
o 133262005396915
v 0.372641 -0.062782 -0.564992
v 0.372641 0.037218 -0.564992
v 0.390927 0.037218 -0.498657
v 0.390927 -0.062782 -0.498657
v 0.390927 0.037218 -0.351757
v 0.390927 -0.062782 -0.351757
v 0.374391 0.037218 -0.298570
v 0.374391 -0.062782 -0.298570
v 0.343692 -0.062782 -0.604052
v 0.343692 0.037218 -0.604052
v 0.372641 0.037218 -0.564992
v 0.372641 -0.062782 -0.564992
v 0.310195 -0.062782 -0.628531
v 0.310195 0.037218 -0.628531
v 0.254447 -0.062782 -0.645424
v 0.254447 0.037218 -0.645424
v 0.208670 -0.062782 -0.648468
v 0.208670 0.037218 -0.648468
v 0.162893 0.037218 -0.645424
v 0.162893 -0.062782 -0.645424
v 0.107146 0.037218 -0.628531
v 0.107146 -0.062782 -0.628531
v 0.073648 0.037218 -0.604052
v 0.073648 -0.062782 -0.604052
v 0.044700 0.037218 -0.564992
v 0.044700 -0.062782 -0.564992
v 0.246514 0.037218 -0.526077
v 0.246514 -0.062782 -0.526077
v 0.253368 -0.062782 -0.504496
v 0.227412 0.037218 -0.542547
v 0.253368 0.037218 -0.504496
v 0.227412 -0.062782 -0.542547
v 0.254101 -0.062782 -0.364475
v 0.208670 0.037218 -0.546809
v 0.254101 0.037218 -0.364475
v 0.208670 -0.062782 -0.546809
v 0.248728 -0.062782 -0.336419
v 0.189928 -0.062782 -0.542547
v 0.248728 0.037218 -0.336419
v 0.189928 0.037218 -0.542547
v 0.231628 -0.062782 -0.318515
v 0.170827 -0.062782 -0.526077
v 0.231628 0.037218 -0.318515
v 0.170827 0.037218 -0.526077
v 0.208670 -0.062782 -0.311913
v 0.163973 -0.062782 -0.504496
v 0.208670 0.037218 -0.311913
v 0.163973 0.037218 -0.504496
v 0.185712 0.037218 -0.318515
v 0.163239 -0.062782 -0.364475
v 0.185712 -0.062782 -0.318515
v 0.163239 0.037218 -0.364475
v 0.168612 0.037218 -0.336419
v 0.168612 -0.062782 -0.336419
v 0.374391 -0.062782 -0.298570
v 0.374391 0.037218 -0.298570
v 0.346541 0.037218 -0.259148
v 0.346541 -0.062782 -0.259148
v 0.307982 0.037218 -0.231208
v 0.307982 -0.062782 -0.231208
v 0.253171 0.037218 -0.214816
v 0.253171 -0.062782 -0.214816
v 0.208670 0.037218 -0.211772
v 0.208670 -0.062782 -0.211772
v 0.164170 -0.062782 -0.214816
v 0.164170 0.037218 -0.214816
v 0.109359 -0.062782 -0.231208
v 0.109359 0.037218 -0.231208
v 0.070799 -0.062782 -0.259148
v 0.070799 0.037218 -0.259148
v 0.042949 -0.062782 -0.298570
v 0.042949 0.037218 -0.298570
v -0.168829 0.037218 -0.211843
v -0.284600 0.037218 -0.214127
v -0.216914 0.037218 -0.206824
v -0.128420 0.037218 -0.224900
v -0.338139 0.037218 -0.237999
v -0.091435 0.037218 -0.248331
v -0.378037 0.037218 -0.280330
v -0.057004 0.037218 -0.289784
v -0.230759 0.037218 -0.312971
v -0.199628 0.037218 -0.314635
v -0.042612 0.037218 -0.333869
v -0.392306 0.037218 -0.348755
v -0.180559 0.037218 -0.333641
v -0.245401 0.037218 -0.320885
v -0.041617 0.037218 -0.360131
v -0.254499 0.037218 -0.345929
v -0.171432 0.037218 -0.358903
v -0.162266 0.037218 -0.367247
v -0.048707 0.037218 -0.367247
v -0.245278 0.037218 -0.375275
v -0.378602 0.037218 -0.398228
v -0.207602 0.037218 -0.416251
v -0.343633 0.037218 -0.446861
v -0.084524 0.037218 -0.510137
v -0.234932 0.037218 -0.535501
v -0.041686 0.037218 -0.549975
v -0.388773 0.037218 -0.535501
v -0.399024 0.037218 -0.543595
v -0.399028 0.037218 -0.637042
v -0.034772 0.037218 -0.564768
v -0.034964 0.037218 -0.637042
v -0.045206 0.037218 -0.644664
v -0.388786 0.037218 -0.644664
v -0.168829 -0.062782 -0.211843
v -0.216914 -0.062782 -0.206824
v -0.284600 -0.062782 -0.214127
v -0.128420 -0.062782 -0.224900
v -0.338139 -0.062782 -0.237999
v -0.091435 -0.062782 -0.248331
v -0.378037 -0.062782 -0.280330
v -0.057004 -0.062782 -0.289784
v -0.230759 -0.062782 -0.312971
v -0.199628 -0.062782 -0.314635
v -0.042612 -0.062782 -0.333869
v -0.392306 -0.062782 -0.348755
v -0.180559 -0.062782 -0.333641
v -0.245401 -0.062782 -0.320885
v -0.041617 -0.062782 -0.360131
v -0.254499 -0.062782 -0.345929
v -0.171432 -0.062782 -0.358903
v -0.162266 -0.062782 -0.367247
v -0.048707 -0.062782 -0.367247
v -0.245278 -0.062782 -0.375275
v -0.378602 -0.062782 -0.398228
v -0.207602 -0.062782 -0.416251
v -0.343633 -0.062782 -0.446861
v -0.084524 -0.062782 -0.510137
v -0.234932 -0.062782 -0.535501
v -0.041686 -0.062782 -0.549975
v -0.388773 -0.062782 -0.535501
v -0.399024 -0.062782 -0.543595
v -0.399028 -0.062782 -0.637042
v -0.034772 -0.062782 -0.564768
v -0.034964 -0.062782 -0.637042
v -0.045206 -0.062782 -0.644664
v -0.388786 -0.062782 -0.644664
v 0.390927 0.037218 -0.498657
v 0.254101 0.037218 -0.364475
v 0.390927 0.037218 -0.351757
v 0.374391 0.037218 -0.298570
v 0.248728 0.037218 -0.336419
v 0.231628 0.037218 -0.318515
v 0.253368 0.037218 -0.504496
v 0.372641 0.037218 -0.564992
v 0.246514 0.037218 -0.526077
v 0.372641 0.037218 -0.564992
v 0.227412 0.037218 -0.542547
v 0.374391 0.037218 -0.298570
v 0.208670 0.037218 -0.311913
v 0.042949 0.037218 -0.298570
v 0.185712 0.037218 -0.318515
v 0.372641 0.037218 -0.564992
v 0.208670 0.037218 -0.546809
v 0.044700 0.037218 -0.564992
v 0.189928 0.037218 -0.542547
v 0.170827 0.037218 -0.526077
v 0.044700 0.037218 -0.564992
v 0.168612 0.037218 -0.336419
v 0.042949 0.037218 -0.298570
v 0.163239 0.037218 -0.364475
v 0.026413 0.037218 -0.351757
v 0.026413 0.037218 -0.498657
v 0.163973 0.037218 -0.504496
v 0.044700 0.037218 -0.564992
v 0.208670 0.037218 -0.546809
v 0.073648 0.037218 -0.604052
v 0.107146 0.037218 -0.628531
v 0.162893 0.037218 -0.645424
v 0.208670 0.037218 -0.648468
v 0.254447 0.037218 -0.645424
v 0.310195 0.037218 -0.628531
v 0.343692 0.037218 -0.604052
v 0.208670 0.037218 -0.311913
v 0.346541 0.037218 -0.259148
v 0.374391 0.037218 -0.298570
v 0.307982 0.037218 -0.231208
v 0.253171 0.037218 -0.214816
v 0.208670 0.037218 -0.211772
v 0.164170 0.037218 -0.214816
v 0.109359 0.037218 -0.231208
v 0.070799 0.037218 -0.259148
v 0.042949 0.037218 -0.298570
v 0.390927 -0.062782 -0.498657
v 0.390927 -0.062782 -0.351757
v 0.254101 -0.062782 -0.364475
v 0.374391 -0.062782 -0.298570
v 0.248728 -0.062782 -0.336419
v 0.231628 -0.062782 -0.318515
v 0.253368 -0.062782 -0.504496
v 0.372641 -0.062782 -0.564992
v 0.246514 -0.062782 -0.526077
v 0.227412 -0.062782 -0.542547
v 0.372641 -0.062782 -0.564992
v 0.374391 -0.062782 -0.298570
v 0.208670 -0.062782 -0.311913
v 0.042949 -0.062782 -0.298570
v 0.185712 -0.062782 -0.318515
v 0.372641 -0.062782 -0.564992
v 0.208670 -0.062782 -0.546809
v 0.044700 -0.062782 -0.564992
v 0.189928 -0.062782 -0.542547
v 0.170827 -0.062782 -0.526077
v 0.044700 -0.062782 -0.564992
v 0.042949 -0.062782 -0.298570
v 0.168612 -0.062782 -0.336419
v 0.163239 -0.062782 -0.364475
v 0.026413 -0.062782 -0.351757
v 0.026413 -0.062782 -0.498657
v 0.163973 -0.062782 -0.504496
v 0.044700 -0.062782 -0.564992
v 0.073648 -0.062782 -0.604052
v 0.208670 -0.062782 -0.546809
v 0.107146 -0.062782 -0.628531
v 0.162893 -0.062782 -0.645424
v 0.208670 -0.062782 -0.648468
v 0.254447 -0.062782 -0.645424
v 0.310195 -0.062782 -0.628531
v 0.343692 -0.062782 -0.604052
v 0.208670 -0.062782 -0.311913
v 0.307982 -0.062782 -0.231208
v 0.253171 -0.062782 -0.214816
v 0.346541 -0.062782 -0.259148
v 0.374391 -0.062782 -0.298570
v 0.208670 -0.062782 -0.211772
v 0.164170 -0.062782 -0.214816
v 0.109359 -0.062782 -0.231208
v 0.070799 -0.062782 -0.259148
v 0.042949 -0.062782 -0.298570
v 0.044700 -0.062782 -0.564992
v 0.026413 0.037218 -0.498657
v 0.044700 0.037218 -0.564992
v 0.026413 -0.062782 -0.498657
v 0.026413 0.037218 -0.351757
v 0.026413 -0.062782 -0.351757
v 0.042949 0.037218 -0.298570
v 0.042949 -0.062782 -0.298570
v -0.034772 -0.062782 -0.564768
v -0.034772 0.037218 -0.564768
v -0.041686 0.037218 -0.549975
v -0.034964 -0.062782 -0.637042
v -0.041686 -0.062782 -0.549975
v -0.034964 0.037218 -0.637042
v -0.084524 0.037218 -0.510137
v -0.045206 -0.062782 -0.644664
v -0.084524 -0.062782 -0.510137
v -0.045206 0.037218 -0.644664
v -0.207602 0.037218 -0.416251
v -0.388786 -0.062782 -0.644664
v -0.207602 -0.062782 -0.416251
v -0.388786 0.037218 -0.644664
v -0.245278 0.037218 -0.375275
v -0.399028 -0.062782 -0.637042
v -0.245278 -0.062782 -0.375275
v -0.399028 0.037218 -0.637042
v -0.254499 0.037218 -0.345929
v -0.399024 -0.062782 -0.543595
v -0.254499 -0.062782 -0.345929
v -0.399024 0.037218 -0.543595
v -0.245401 0.037218 -0.320885
v -0.388773 -0.062782 -0.535501
v -0.245401 -0.062782 -0.320885
v -0.388773 0.037218 -0.535501
v -0.234932 -0.062782 -0.535501
v -0.234932 0.037218 -0.535501
v -0.230759 0.037218 -0.312971
v -0.230759 -0.062782 -0.312971
v -0.199628 0.037218 -0.314635
v -0.199628 -0.062782 -0.314635
v -0.180559 0.037218 -0.333641
v -0.180559 -0.062782 -0.333641
v -0.171432 0.037218 -0.358903
v -0.171432 -0.062782 -0.358903
v -0.162266 0.037218 -0.367247
v -0.162266 -0.062782 -0.367247
v -0.048707 0.037218 -0.367247
v -0.048707 -0.062782 -0.367247
v -0.041617 0.037218 -0.360131
v -0.041617 -0.062782 -0.360131
v -0.042612 0.037218 -0.333869
v -0.042612 -0.062782 -0.333869
v -0.057004 0.037218 -0.289784
v -0.057004 -0.062782 -0.289784
v -0.091435 0.037218 -0.248331
v -0.091435 -0.062782 -0.248331
v -0.128420 0.037218 -0.224900
v -0.128420 -0.062782 -0.224900
v -0.168829 0.037218 -0.211843
v -0.168829 -0.062782 -0.211843
v -0.216914 0.037218 -0.206824
v -0.216914 -0.062782 -0.206824
v -0.284600 0.037218 -0.214127
v -0.284600 -0.062782 -0.214127
v -0.338139 0.037218 -0.237999
v -0.338139 -0.062782 -0.237999
v -0.378037 0.037218 -0.280330
v -0.378037 -0.062782 -0.280330
v -0.392306 0.037218 -0.348755
v -0.392306 -0.062782 -0.348755
v -0.378602 0.037218 -0.398228
v -0.378602 -0.062782 -0.398228
v -0.343633 0.037218 -0.446861
v -0.343633 -0.062782 -0.446861
v -0.234932 0.037218 -0.535501
v -0.234932 -0.062782 -0.535501
vn 0.8989 0.0005 -0.4382
vn 0.9909 0.0004 -0.1343
vn 0.9887 -0.0000 0.1501
vn 0.9887 0.0003 0.1500
vn 0.8970 0.0005 0.4421
vn 0.7045 0.0004 -0.7097
vn 0.4466 0.0004 -0.8947
vn 0.4465 0.0003 -0.8948
vn 0.1789 0.0005 -0.9839
vn 0.1790 0.0005 -0.9839
vn -0.0000 0.0005 -1.0000
vn -0.1797 0.0004 -0.9837
vn -0.4466 0.0006 -0.8947
vn -0.4466 0.0005 -0.8947
vn -0.7045 0.0004 -0.7097
vn -0.7044 0.0005 -0.7098
vn -0.8988 0.0005 -0.4383
vn -0.8347 0.0005 0.5508
vn -0.9878 -0.0000 0.1557
vn -0.4506 0.0003 0.8927
vn -0.9878 0.0003 0.1558
vn -0.4507 -0.0000 0.8927
vn -0.9957 0.0005 -0.0923
vn -0.0000 0.0005 1.0000
vn -0.8890 0.0004 -0.4578
vn 0.4507 -0.0000 0.8927
vn 0.4506 0.0003 0.8927
vn -0.5177 -0.0000 -0.8556
vn 0.8347 0.0005 0.5507
vn -0.5178 0.0005 -0.8555
vn 0.8346 -0.0000 0.5508
vn 0.9878 0.0005 0.1558
vn 0.9878 0.0004 0.1558
vn 0.5179 0.0006 -0.8554
vn 0.9957 0.0004 -0.0922
vn 0.9957 0.0004 -0.0923
vn 0.8891 0.0004 -0.4578
vn 0.8889 -0.0000 -0.4581
vn 0.8969 0.0005 0.4422
vn 0.7113 0.0003 0.7029
vn 0.4427 0.0006 0.8967
vn 0.1788 0.0005 0.9839
vn 0.1787 0.0003 0.9839
vn -0.1786 0.0003 0.9839
vn -0.1787 0.0005 0.9839
vn -0.4427 0.0005 0.8967
vn -0.7113 0.0003 0.7029
vn -0.8969 0.0005 0.4422
vn -0.0000 1.0000 0.0005
vn -0.0000 1.0000 0.0006
vn -0.0000 1.0000 0.0003
vn -0.0000 -1.0000 0.0005
vn -0.0000 -1.0000 0.0006
vn -0.0000 -1.0000 0.0003
vn -0.8989 0.0005 -0.4382
vn -0.9909 0.0005 -0.1344
vn -0.9887 -0.0000 0.1501
vn -0.9887 0.0003 0.1500
vn -0.8970 0.0005 0.4421
vn 0.9765 0.0004 0.2155
vn 0.9765 -0.0000 0.2156
vn 0.8083 0.0005 0.5888
vn 0.8930 0.0003 -0.4500
vn 0.8083 0.0004 0.5888
vn 0.8930 -0.0000 -0.4501
vn 0.6447 0.0003 0.7645
vn 0.3146 0.0004 -0.9492
vn 0.6445 -0.0000 0.7646
vn 0.3146 0.0005 -0.9492
vn 0.6739 0.0003 0.7388
vn -0.3145 0.0003 -0.9492
vn 0.8656 0.0005 0.5007
vn -0.8936 0.0006 -0.4488
vn 0.9998 0.0005 -0.0220
vn -0.8999 0.0003 0.4362
vn 0.9998 0.0003 -0.0220
vn 0.7571 -0.0000 -0.6533
vn -0.3283 0.0004 0.9446
vn 0.7571 -0.0000 -0.6532
vn 0.2190 0.0004 -0.9757
vn -0.4064 0.0003 -0.9137
vn -0.4063 0.0003 -0.9137
vn -0.8435 0.0005 -0.5371
vn -0.8435 0.0007 -0.5372
vn -0.8311 0.0004 -0.5561
vn -0.3606 0.0004 -0.9327
vn -0.3607 0.0003 -0.9327
vn 0.3832 0.0003 -0.9237
vn 0.9314 0.0004 -0.3641
vn 0.9845 0.0005 0.1753
vn 0.8755 0.0005 0.4832
vn 0.8755 0.0004 0.4832
vn 0.6603 -0.0000 0.7510
vn 0.6605 0.0004 0.7509
vn 0.4250 0.0004 0.9052
vn 0.4250 0.0005 0.9052
vn 0.2071 0.0004 0.9783
vn 0.2071 0.0005 0.9783
vn -0.0019 0.0005 1.0000
vn -0.2607 0.0004 0.9654
vn -0.5788 -0.0000 0.8155
vn -0.5786 0.0004 0.8156
vn -0.8867 -0.0000 0.4624
vn -0.9995 0.0004 -0.0326
vn -0.9017 0.0005 -0.4323
vn -0.7282 -0.0000 -0.6853
vn -0.7281 0.0004 -0.6855
vn -0.6319 0.0005 -0.7750
vn -0.6319 0.0006 -0.7750
vt 0.921038 0.000000
vt 0.111095 0.000000
vt 0.199601 0.000000
vt 0.785283 0.000000
vt 0.000000 0.000000
vt 0.078500 0.000000
vt 0.974101 0.000000
vt 0.955917 0.000000
vt 0.917157 0.000000
vt 0.860339 0.000000
vt 0.816017 0.000000
vt 0.838611 0.000000
vt 0.823920 0.000000
vt 0.809683 0.000000
vt 0.225330 0.000000
vt 0.641872 0.000000
vt 0.686442 0.000000
vt 0.662663 0.000000
vt 0.621307 0.000000
vt 0.709431 0.000000
vt 0.598560 0.000000
vt 0.735060 0.000000
vt 0.569169 0.000000
vt 0.289475 0.000000
vt 0.324025 0.000000
vt 0.543929 0.000000
vt 0.766331 0.000000
vt 0.363348 0.000000
vt 0.270725 0.000000
vt 0.517331 0.000000
vt 0.238928 0.000000
vt 0.409291 0.000000
vt 0.437633 0.000000
vt 0.484644 0.000000
vt 0.212956 0.000000
vt 0.792878 0.000000
vt 0.184269 0.000000
vt 0.822216 0.000000
vt 0.136551 0.000000
vt 0.863486 0.000000
vt 0.120954 0.000000
vt 0.877604 0.000000
vt 0.911127 0.000000
vt 0.955028 0.000000
vt 0.093320 0.000000
vt 0.044972 0.000000
vt 0.011553 0.000000
vt 0.988447 0.000000
vt 0.909464 0.000000
vt 0.781751 0.000000
s 1
f 1/1/1 2/1/1 3/2/2
f 1/1/1 3/2/2 4/2/2
f 4/2/2 3/2/2 5/3/3
f 4/2/2 5/3/3 6/3/4
f 6/3/4 5/3/3 7/4/5
f 6/3/4 7/4/5 8/4/5
f 9/5/6 10/5/6 11/6/1
f 9/5/6 11/6/1 12/6/1
f 10/5/6 9/5/6 13/5/7
f 13/5/7 14/5/8 10/5/6
f 14/5/8 13/5/7 15/5/9
f 15/5/9 16/5/10 14/5/8
f 16/5/10 15/5/9 17/5/11
f 17/5/11 18/5/11 16/5/10
f 18/5/11 17/5/11 19/5/12
f 19/5/12 17/5/11 20/5/12
f 19/5/12 20/5/12 21/5/13
f 21/5/13 20/5/12 22/5/14
f 21/5/13 22/5/14 23/5/15
f 23/5/15 22/5/14 24/5/16
f 24/5/16 25/6/17 23/5/15
f 25/6/17 24/5/16 26/6/17
f 27/7/18 28/7/18 29/8/19
f 30/9/20 28/7/18 27/7/18
f 27/7/18 29/8/19 31/8/21
f 28/7/18 30/9/20 32/9/22
f 29/8/19 33/10/23 31/8/21
f 34/11/24 32/9/22 30/9/20
f 31/8/21 33/10/23 35/10/23
f 32/9/22 34/11/24 36/11/24
f 35/10/23 33/10/23 37/12/25
f 36/11/24 34/11/24 38/9/26
f 35/10/23 37/12/25 39/12/25
f 38/9/26 34/11/24 40/9/27
f 41/13/28 39/12/25 37/12/25
f 38/9/26 40/9/27 42/7/29
f 39/12/25 41/13/28 43/13/30
f 42/7/29 40/9/27 44/7/31
f 43/13/30 41/13/28 45/14/11
f 42/7/29 44/7/31 46/8/32
f 45/14/11 47/14/11 43/13/30
f 48/8/33 46/8/32 44/7/31
f 45/14/11 49/13/34 47/14/11
f 46/8/32 48/8/33 50/10/35
f 49/13/34 45/14/11 51/13/34
f 48/8/33 52/10/36 50/10/35
f 49/13/34 51/13/34 53/12/37
f 50/10/35 52/10/36 54/12/38
f 54/12/38 53/12/37 51/13/34
f 53/12/37 54/12/38 52/10/36
f 55/15/39 56/15/39 57/5/40
f 55/15/39 57/5/40 58/5/40
f 59/5/41 58/5/40 57/5/40
f 58/5/40 59/5/41 60/5/41
f 61/5/42 60/5/41 59/5/41
f 60/5/41 61/5/42 62/5/43
f 63/5/24 62/5/43 61/5/42
f 62/5/43 63/5/24 64/5/24
f 64/5/24 63/5/24 65/5/44
f 65/5/44 63/5/24 66/5/45
f 65/5/44 66/5/45 67/5/46
f 67/5/46 66/5/45 68/5/46
f 67/5/46 68/5/46 69/5/47
f 69/5/47 68/5/46 70/5/47
f 70/5/47 71/15/48 69/5/47
f 71/15/48 70/5/47 72/15/48
f 73/16/49 74/17/49 75/18/50
f 76/19/49 74/17/49 73/16/49
f 76/19/49 77/20/49 74/17/49
f 78/21/49 77/20/49 76/19/49
f 78/21/49 79/22/49 77/20/49
f 80/23/49 79/22/49 78/21/49
f 80/23/49 81/24/49 79/22/49
f 80/23/49 82/25/49 81/24/49
f 83/26/49 82/25/49 80/23/49
f 81/24/49 84/27/51 79/22/49
f 83/26/49 85/28/49 82/25/49
f 86/29/49 84/27/51 81/24/49
f 87/30/49 85/28/49 83/26/49
f 88/31/49 84/27/51 86/29/49
f 87/30/49 89/32/49 85/28/49
f 87/30/49 90/33/49 89/32/49
f 91/34/49 90/33/49 87/30/49
f 92/35/49 84/27/51 88/31/49
f 92/35/49 93/36/49 84/27/51
f 94/37/49 93/36/49 92/35/49
f 94/37/49 95/38/49 93/36/49
f 96/39/49 95/38/49 94/37/49
f 96/39/49 97/40/49 95/38/49
f 98/41/51 97/40/49 96/39/49
f 98/41/51 99/42/49 97/40/49
f 98/41/51 100/43/49 99/42/49
f 98/41/51 101/44/51 100/43/49
f 102/45/49 101/44/51 98/41/51
f 103/46/49 101/44/51 102/45/49
f 104/47/49 101/44/51 103/46/49
f 104/47/49 105/48/49 101/44/51
f 106/16/52 107/18/53 108/17/52
f 109/19/52 106/16/52 108/17/52
f 109/19/52 108/17/52 110/20/52
f 111/21/52 109/19/52 110/20/52
f 111/21/52 110/20/52 112/22/52
f 113/23/52 111/21/52 112/22/52
f 113/23/52 112/22/52 114/24/52
f 113/23/52 114/24/52 115/25/52
f 116/26/52 113/23/52 115/25/52
f 114/24/52 112/22/52 117/27/54
f 116/26/52 115/25/52 118/28/52
f 119/29/52 114/24/52 117/27/54
f 120/30/52 116/26/52 118/28/52
f 121/31/52 119/29/52 117/27/54
f 120/30/52 118/28/52 122/32/52
f 120/30/52 122/32/52 123/33/52
f 124/34/52 120/30/52 123/33/52
f 125/35/52 121/31/52 117/27/54
f 125/35/52 117/27/54 126/36/52
f 127/37/52 125/35/52 126/36/52
f 127/37/52 126/36/52 128/38/52
f 129/39/52 127/37/52 128/38/52
f 129/39/52 128/38/52 130/40/52
f 131/41/54 129/39/52 130/40/52
f 131/41/54 130/40/52 132/42/52
f 131/41/54 132/42/52 133/43/52
f 131/41/54 133/43/52 134/44/54
f 135/45/52 131/41/54 134/44/54
f 136/46/52 135/45/52 134/44/54
f 137/47/52 136/46/52 134/44/54
f 137/47/52 134/44/54 138/48/52
f 139/2/49 140/10/49 141/3/49
f 140/10/49 142/4/49 141/3/49
f 142/4/49 140/10/49 143/12/49
f 144/13/49 142/4/49 143/12/49
f 139/2/49 145/8/49 140/10/49
f 146/1/49 145/8/49 139/2/49
f 145/8/49 146/1/49 147/7/49
f 147/7/49 148/49/49 149/9/49
f 150/50/49 144/13/49 151/14/49
f 152/50/49 151/14/49 153/13/49
f 154/6/49 155/11/49 149/9/49
f 156/6/49 157/9/49 155/11/49
f 158/7/49 157/9/49 159/49/49
f 153/13/49 160/12/49 161/4/49
f 162/10/49 161/4/49 160/12/49
f 161/4/49 162/10/49 163/3/49
f 164/2/49 163/3/49 162/10/49
f 164/2/49 162/10/49 165/8/49
f 166/1/49 165/8/49 158/7/49
f 165/8/49 166/1/49 164/2/49
f 156/6/49 167/5/51 168/5/49
f 167/5/51 169/5/49 168/5/49
f 169/5/49 167/5/51 170/5/49
f 170/5/49 167/5/51 171/5/49
f 172/5/49 171/5/49 167/5/51
f 167/5/51 173/5/49 172/5/49
f 173/5/49 167/5/51 174/5/49
f 174/5/49 167/5/51 154/6/49
f 175/5/51 176/5/49 177/15/49
f 176/5/49 175/5/51 178/5/49
f 178/5/49 175/5/51 179/5/49
f 179/5/49 175/5/51 180/5/49
f 181/5/49 180/5/49 175/5/51
f 175/5/51 182/5/49 181/5/49
f 182/5/49 175/5/51 183/5/49
f 183/5/49 175/5/51 184/15/50
f 185/2/52 186/3/52 187/10/52
f 188/4/52 187/10/52 186/3/52
f 187/10/52 188/4/52 189/12/52
f 190/13/52 189/12/52 188/4/52
f 185/2/52 187/10/52 191/8/52
f 191/8/52 192/1/52 185/2/52
f 192/1/52 191/8/52 193/7/52
f 193/7/52 194/9/52 195/49/52
f 196/50/52 197/14/52 190/13/52
f 198/50/52 199/13/52 197/14/52
f 200/6/52 194/9/52 201/11/52
f 202/6/52 201/11/52 203/9/52
f 204/7/52 205/49/52 203/9/52
f 199/13/52 206/4/52 207/12/52
f 206/4/52 208/10/52 207/12/52
f 208/10/52 206/4/52 209/3/52
f 210/2/52 208/10/52 209/3/52
f 210/2/52 211/8/52 208/10/52
f 211/8/52 212/1/52 204/7/52
f 212/1/52 211/8/52 210/2/52
f 213/5/52 214/5/54 202/6/52
f 215/5/52 214/5/54 213/5/52
f 214/5/54 215/5/52 216/5/52
f 216/5/52 217/5/52 214/5/54
f 218/5/52 214/5/54 217/5/52
f 219/5/52 214/5/54 218/5/52
f 214/5/54 219/5/52 220/5/52
f 200/6/52 214/5/54 220/5/52
f 221/5/54 222/5/52 223/5/52
f 222/5/52 221/5/54 224/5/52
f 224/5/52 221/5/54 225/15/52
f 223/5/52 226/5/52 221/5/54
f 227/5/52 221/5/54 226/5/52
f 228/5/52 221/5/54 227/5/52
f 229/5/52 221/5/54 228/5/52
f 221/5/54 229/5/52 230/15/53
f 231/1/55 232/2/56 233/1/55
f 232/2/56 231/1/55 234/2/56
f 234/2/56 235/3/57 232/2/56
f 235/3/57 234/2/56 236/3/58
f 236/3/58 237/4/59 235/3/57
f 237/4/59 236/3/58 238/4/59
f 239/45/60 240/45/61 241/41/62
f 242/46/63 240/45/61 239/45/60
f 239/45/60 241/41/62 243/41/64
f 242/46/63 244/46/65 240/45/61
f 245/39/66 243/41/64 241/41/62
f 244/46/65 242/46/63 246/47/67
f 243/41/64 245/39/66 247/39/68
f 246/47/67 248/47/69 244/46/65
f 249/37/70 247/39/68 245/39/66
f 246/47/67 250/48/71 248/47/69
f 247/39/68 249/37/70 251/37/70
f 252/48/71 248/47/69 250/48/71
f 251/37/70 249/37/70 253/35/72
f 252/48/71 250/48/71 254/44/73
f 251/37/70 253/35/72 255/35/72
f 254/44/73 256/44/73 252/48/71
f 255/35/72 253/35/72 257/31/74
f 258/43/75 256/44/73 254/44/73
f 255/35/72 257/31/74 259/31/76
f 256/44/73 258/43/75 260/43/75
f 259/31/76 257/31/74 261/29/77
f 262/42/78 260/43/75 258/43/75
f 259/31/76 261/29/77 263/29/79
f 260/43/75 262/42/78 264/42/78
f 265/40/24 264/42/78 262/42/78
f 264/42/78 265/40/24 266/40/24
f 263/29/79 261/29/77 267/24/80
f 267/24/80 268/24/80 263/29/79
f 268/24/80 267/24/80 269/25/81
f 269/25/81 270/25/82 268/24/80
f 270/25/82 269/25/81 271/28/83
f 271/28/83 272/28/84 270/25/82
f 273/32/85 272/28/84 271/28/83
f 272/28/84 273/32/85 274/32/85
f 274/32/85 273/32/85 275/33/86
f 275/33/86 276/33/87 274/32/85
f 275/33/86 277/34/88 276/33/87
f 277/34/88 278/34/88 276/33/87
f 278/34/88 277/34/88 279/30/89
f 278/34/88 279/30/89 280/30/89
f 280/30/89 279/30/89 281/26/90
f 280/30/89 281/26/90 282/26/90
f 282/26/90 281/26/90 283/23/91
f 282/26/90 283/23/91 284/23/92
f 284/23/92 283/23/91 285/21/93
f 284/23/92 285/21/93 286/21/94
f 287/19/95 286/21/94 285/21/93
f 286/21/94 287/19/95 288/19/96
f 289/16/97 288/19/96 287/19/95
f 288/19/96 289/16/97 290/16/98
f 291/18/99 290/16/98 289/16/97
f 290/16/98 291/18/99 292/18/99
f 293/17/100 292/18/99 291/18/99
f 292/18/99 293/17/100 294/17/100
f 295/20/101 294/17/100 293/17/100
f 294/17/100 295/20/101 296/20/102
f 297/22/103 296/20/102 295/20/101
f 296/20/102 297/22/103 298/22/103
f 299/27/104 298/22/103 297/22/103
f 300/27/104 298/22/103 299/27/104
f 301/36/105 300/27/104 299/27/104
f 300/27/104 301/36/105 302/36/105
f 303/38/106 302/36/105 301/36/105
f 303/38/106 304/38/107 302/36/105
f 303/38/106 305/40/108 304/38/107
f 305/40/108 306/40/109 304/38/107
