# Blender 5.1.1
# www.blender.org
mtllib xxxbase.mtl
o base
v 0.666565 0.107410 -0.902906
v 0.746389 0.107410 -0.431356
v 0.683735 -0.042590 -0.913207
v 0.770161 -0.042590 -0.402461
v 0.417814 -0.042590 -1.039263
v 0.399845 0.107410 -1.026335
v 0.399845 0.107410 -1.276202
v 0.417812 -0.042590 -1.284360
v 0.000000 -0.042590 -1.481021
v 0.000000 0.107410 -1.460543
v -0.399845 0.107410 -1.276202
v -0.417812 -0.042590 -1.284360
v -0.417814 -0.042590 -1.039263
v -0.399845 0.107410 -1.026335
v -0.666565 0.107410 -0.902906
v -0.683735 -0.042590 -0.913207
v -0.746389 0.107410 -0.431356
v -0.770161 -0.042590 -0.402461
v 1.581907 -0.042590 0.537781
v 1.557108 0.107410 0.537781
v 1.725252 0.107411 0.791409
v 1.767450 -0.042589 0.819416
v 1.471083 -0.042590 0.412028
v 1.446283 0.107410 0.412028
v 1.326515 -0.042590 0.282468
v 1.301716 0.107410 0.282468
v 1.286909 -0.042590 0.254036
v 1.246504 0.107410 0.241450
v -1.581907 -0.042590 0.537781
v -1.725252 0.107411 0.791409
v -1.557108 0.107410 0.537781
v -1.767450 -0.042589 0.819416
v -1.471083 -0.042590 0.412028
v -1.446283 0.107410 0.412028
v -1.326515 -0.042590 0.282468
v -1.301716 0.107410 0.282468
v -1.286909 -0.042590 0.254036
v -1.246504 0.107410 0.241450
v 1.344093 0.107410 0.112769
v 1.530418 0.107410 0.241450
v 1.376682 -0.042590 0.114359
v 1.572281 -0.042590 0.254036
v 1.267204 -0.042590 0.050870
v 1.234615 0.107410 0.049279
v 1.125532 -0.042590 -0.016092
v 1.092941 0.107410 -0.017682
v 1.044920 -0.042590 -0.205898
v 1.014717 0.107410 -0.203513
v 1.128996 0.107410 -0.155480
v 0.974125 -0.042590 -0.227483
v 1.159201 -0.042590 -0.157866
v 1.276493 0.107410 -0.074225
v 1.313324 -0.042590 -0.072958
v 0.943920 0.107410 -0.225098
v 0.926094 -0.042590 -0.238821
v 0.895891 0.107410 -0.236437
v -1.344093 0.107410 0.112769
v -1.376682 -0.042590 0.114359
v -1.530418 0.107410 0.241450
v -1.572281 -0.042590 0.254036
v -1.267204 -0.042590 0.050870
v -1.234615 0.107410 0.049279
v -1.125532 -0.042590 -0.016092
v -1.092941 0.107410 -0.017682
v -1.014717 0.107410 -0.203513
v -1.044920 -0.042590 -0.205898
v -1.128996 0.107410 -0.155480
v -1.159201 -0.042590 -0.157866
v -1.276493 0.107410 -0.074225
v -1.313324 -0.042590 -0.072958
v -0.974125 -0.042590 -0.227483
v -0.943920 0.107410 -0.225098
v -0.926094 -0.042590 -0.238821
v -0.895891 0.107410 -0.236437
v 0.633463 -0.042590 0.157170
v 0.614004 0.107410 0.128555
v 0.634546 0.107410 0.281830
v 0.654005 -0.042590 0.305865
v -0.633463 -0.042590 0.157170
v -0.634546 0.107410 0.281830
v -0.614004 0.107410 0.128555
v -0.654005 -0.042590 0.305865
v 0.000000 -0.042590 0.724955
v 0.000000 0.107411 0.725298
v -0.082844 -0.042590 0.701539
v -0.082981 0.107411 0.701864
v 1.125795 -0.042590 -0.347391
v 0.700542 -0.042590 -0.399693
v 1.074240 0.107410 -0.332090
v 0.677471 0.107410 -0.382802
v -1.074240 0.107410 -0.332090
v -0.677471 0.107410 -0.382802
v -0.700542 -0.042590 -0.399693
v -1.125795 -0.042590 -0.347391
v 0.707001 -0.042590 -0.428849
v 0.700930 0.107410 -0.454241
v 0.677471 0.107410 -0.382802
v 0.700542 -0.042590 -0.399693
v -0.707001 -0.042590 -0.428849
v -0.677471 0.107410 -0.382802
v -0.700930 0.107410 -0.454241
v -0.700542 -0.042590 -0.399693
v 0.342201 0.107410 0.190105
v 0.472364 0.107410 0.544765
v 0.371960 -0.042590 0.216432
v 0.500978 -0.042590 0.580248
v -0.371960 -0.042590 0.216432
v -0.472364 0.107410 0.544765
v -0.342201 0.107410 0.190105
v -0.500978 -0.042590 0.580248
v 0.161198 -0.042590 0.373507
v 0.157764 0.107410 0.347183
v 0.075228 0.107410 0.430000
v 0.075237 -0.042590 0.459673
v -0.161198 -0.042590 0.373507
v -0.075228 0.107410 0.430000
v -0.157764 0.107410 0.347183
v -0.075237 -0.042590 0.459673
v 0.075237 -0.042590 0.459673
v 0.075228 0.107410 0.430000
v 0.000000 0.107410 0.535623
v 0.000000 -0.042590 0.535093
v -0.075237 -0.042590 0.459673
v 0.000000 0.107410 0.535623
v -0.075228 0.107410 0.430000
v 0.000000 -0.042590 0.535093
v 0.107286 -0.042590 0.555422
v 0.107441 0.107410 0.555422
v 0.119488 0.107411 0.615026
v 0.119488 -0.042590 0.615026
v 0.082844 -0.042590 0.701539
v 0.082981 0.107411 0.701864
v 0.000000 0.107411 0.725298
v 0.000000 -0.042590 0.724955
v 0.107286 -0.042590 0.555422
v 0.075186 0.107410 0.500978
v 0.075077 -0.042590 0.500978
v 1.276493 0.107410 -0.074225
v 1.125532 -0.042590 -0.016092
v 1.313324 -0.042590 -0.072958
v 1.092941 0.107410 -0.017682
v -1.125532 -0.042590 -0.016092
v -1.276493 0.107410 -0.074225
v -1.313324 -0.042590 -0.072958
v -1.092941 0.107410 -0.017682
v 0.854984 -0.042590 0.533679
v 1.725252 0.107411 0.791409
v 0.872114 0.107410 0.519409
v 1.767450 -0.042589 0.819416
v 1.530418 0.107410 0.241450
v 1.286909 -0.042590 0.254036
v 1.572281 -0.042590 0.254036
v 1.246504 0.107410 0.241450
v -0.854984 -0.042590 0.533679
v -1.725252 0.107411 0.791409
v -1.767450 -0.042589 0.819416
v -0.872114 0.107410 0.519409
v -1.286909 -0.042590 0.254036
v -1.530418 0.107410 0.241450
v -1.572281 -0.042590 0.254036
v -1.246504 0.107410 0.241450
v 0.161198 -0.042590 0.373507
v 0.472364 0.107410 0.544765
v 0.157764 0.107410 0.347183
v 0.500978 -0.042590 0.580248
v -0.161198 -0.042590 0.373507
v -0.472364 0.107410 0.544765
v -0.500978 -0.042590 0.580248
v -0.157764 0.107410 0.347183
v 1.074240 0.107410 -0.332090
v 0.926094 -0.042590 -0.238821
v 1.125795 -0.042590 -0.347391
v 0.895891 0.107410 -0.236437
v -0.926094 -0.042590 -0.238821
v -1.074240 0.107410 -0.332090
v -1.125795 -0.042590 -0.347391
v -0.895891 0.107410 -0.236437
v -0.119488 -0.042590 0.615026
v -0.119488 0.107411 0.615026
v -0.107286 -0.042590 0.555422
v -0.107441 0.107410 0.555422
v -0.082844 -0.042590 0.701539
v -0.082981 0.107411 0.701864
v -0.075186 0.107410 0.500978
v -0.107286 -0.042590 0.555422
v -0.075077 -0.042590 0.500978
v 0.075237 -0.042590 0.459673
v 0.075228 0.107410 0.430000
v 0.075186 0.107410 0.500978
v 0.075077 -0.042590 0.500978
v -0.075237 -0.042590 0.459673
v -0.075186 0.107410 0.500978
v -0.075228 0.107410 0.430000
v -0.075077 -0.042590 0.500978
v 0.000000 -0.042590 0.535093
v 0.075077 -0.042590 0.500978
v 0.028072 -0.042590 0.547252
v 0.075237 -0.042590 0.459673
v -0.028072 -0.042590 0.547252
v -0.075077 -0.042590 0.500978
v -0.075237 -0.042590 0.459673
v 0.000000 -0.042590 -1.004842
v 0.161198 -0.042590 0.373507
v -0.161198 -0.042590 0.373507
v 0.500978 -0.042590 0.580248
v 0.371960 -0.042590 0.216432
v 0.654005 -0.042590 0.305865
v 0.633463 -0.042590 0.157170
v 0.700542 -0.042590 -0.399693
v 0.926094 -0.042590 -0.238821
v 1.125795 -0.042590 -0.347391
v 0.702236 -0.042590 0.191407
v 0.707001 -0.042590 -0.428849
v 1.125532 -0.042590 -0.016092
v 0.783094 -0.042590 0.274258
v 0.974125 -0.042590 -0.227483
v 1.044920 -0.042590 -0.205898
v 1.159201 -0.042590 -0.157866
v 1.313324 -0.042590 -0.072958
v 0.833147 -0.042590 0.372232
v 1.286909 -0.042590 0.254036
v 0.851238 -0.042590 0.457595
v 1.267204 -0.042590 0.050870
v 1.376682 -0.042590 0.114359
v 1.572281 -0.042590 0.254036
v 0.854984 -0.042590 0.533679
v 1.326515 -0.042590 0.282468
v 1.471083 -0.042590 0.412028
v 1.581907 -0.042590 0.537781
v 1.767450 -0.042589 0.819416
v 0.107286 -0.042590 0.555422
v 0.079418 -0.042590 0.615026
v 0.056145 -0.042590 0.558883
v 0.119488 -0.042590 0.615026
v 0.056145 -0.042590 0.671187
v 0.079418 -0.042590 0.615026
v 0.082844 -0.042590 0.701539
v 0.000000 -0.042590 0.724955
v 0.000000 -0.042590 0.694445
v -0.056145 -0.042590 0.671187
v -0.082844 -0.042590 0.701539
v -0.119488 -0.042590 0.615026
v -0.079418 -0.042590 0.615026
v -0.107286 -0.042590 0.555422
v -0.079418 -0.042590 0.615026
v -0.056145 -0.042590 0.558883
v 0.028072 0.107410 0.547252
v 0.075186 0.107410 0.500978
v 0.000000 0.107410 0.535623
v 0.075228 0.107410 0.430000
v 0.056145 0.107410 0.558883
v 0.107441 0.107410 0.555422
v 0.079418 0.107411 0.615025
v 0.119488 0.107411 0.615026
v 0.056145 0.107411 0.671187
v 0.082981 0.107411 0.701864
v 0.000000 0.107411 0.725298
v 0.000000 0.107411 0.694445
v -0.056145 0.107411 0.671187
v -0.082981 0.107411 0.701864
v -0.119488 0.107411 0.615026
v -0.079418 0.107411 0.615025
v -0.107441 0.107410 0.555422
v -0.056145 0.107410 0.558883
v -0.075186 0.107410 0.500978
v -0.028072 0.107410 0.547252
v -0.075228 0.107410 0.430000
v 0.075077 -0.042590 0.500978
v 0.056145 -0.042590 0.558883
v 0.028072 -0.042590 0.547252
v 0.107286 -0.042590 0.555422
v -0.075077 -0.042590 0.500978
v -0.056145 -0.042590 0.558883
v -0.107286 -0.042590 0.555422
v -0.028072 -0.042590 0.547252
v 0.943920 0.107410 -0.225098
v 1.092941 0.107410 -0.017682
v 1.014717 0.107410 -0.203513
v 1.128996 0.107410 -0.155480
v 1.276493 0.107410 -0.074225
v 0.895891 0.107410 -0.236437
v 0.721695 0.107410 0.184540
v 0.802553 0.107410 0.267391
v 0.614004 0.107410 0.128555
v 1.246504 0.107410 0.241450
v 1.234615 0.107410 0.049279
v 0.852604 0.107410 0.365364
v 1.344093 0.107410 0.112769
v 1.530418 0.107410 0.241450
v 0.870695 0.107410 0.450727
v 1.301716 0.107410 0.282468
v 0.872114 0.107410 0.519409
v 1.446283 0.107410 0.412028
v 1.557108 0.107410 0.537781
v 1.725252 0.107411 0.791409
v 0.677471 0.107410 -0.382802
v 1.074240 0.107410 -0.332090
v 0.342201 0.107410 0.190105
v 0.634546 0.107410 0.281830
v 0.000000 0.107410 -0.991106
v 0.700930 0.107410 -0.454241
v 0.472364 0.107410 0.544765
v 0.157764 0.107410 0.347183
v 0.075228 0.107410 0.430000
v 0.000000 0.107410 0.535623
v -0.075228 0.107410 0.430000
v 0.666565 0.107410 -0.902906
v 0.746389 0.107410 -0.431356
v 0.399845 0.107410 -1.026335
v -0.157764 0.107410 0.347183
v 0.399845 0.107410 -1.276202
v 0.000000 0.107410 -1.460543
v -0.399845 0.107410 -1.026335
v -0.399845 0.107410 -1.276202
v -0.700930 0.107410 -0.454241
v -0.666565 0.107410 -0.902906
v -0.746389 0.107410 -0.431356
v -0.677471 0.107410 -0.382802
v -0.342201 0.107410 0.190105
v -0.472364 0.107410 0.544765
v -0.614004 0.107410 0.128555
v -0.634546 0.107410 0.281830
v -0.895891 0.107410 -0.236437
v -1.074240 0.107410 -0.332090
v -0.721695 0.107410 0.184540
v -1.092941 0.107410 -0.017682
v -0.943920 0.107410 -0.225098
v -1.014717 0.107410 -0.203513
v -1.128996 0.107410 -0.155480
v -1.276493 0.107410 -0.074225
v -0.802553 0.107410 0.267391
v -1.246504 0.107410 0.241450
v -0.852604 0.107410 0.365364
v -1.234615 0.107410 0.049279
v -1.344093 0.107410 0.112769
v -1.530418 0.107410 0.241450
v -0.870695 0.107410 0.450727
v -1.301716 0.107410 0.282468
v -0.872114 0.107410 0.519409
v -1.446283 0.107410 0.412028
v -1.557108 0.107410 0.537781
v -1.725252 0.107411 0.791409
v 0.417814 -0.042590 -1.039263
v 0.683735 -0.042590 -0.913207
v 0.770161 -0.042590 -0.402461
v 0.000000 -0.042590 -1.481021
v 0.417812 -0.042590 -1.284360
v -0.417814 -0.042590 -1.039263
v -0.417812 -0.042590 -1.284360
v -0.707001 -0.042590 -0.428849
v -0.683735 -0.042590 -0.913207
v -0.770161 -0.042590 -0.402461
v -0.700542 -0.042590 -0.399693
v -0.371960 -0.042590 0.216432
v -0.500978 -0.042590 0.580248
v -0.633463 -0.042590 0.157170
v -0.654005 -0.042590 0.305865
v -0.926094 -0.042590 -0.238821
v -1.125795 -0.042590 -0.347391
v -0.702236 -0.042590 0.191407
v -1.125532 -0.042590 -0.016092
v -0.974125 -0.042590 -0.227483
v -0.783094 -0.042590 0.274258
v -1.044920 -0.042590 -0.205898
v -1.159201 -0.042590 -0.157866
v -1.313324 -0.042590 -0.072958
v -0.833147 -0.042590 0.372232
v -1.286909 -0.042590 0.254036
v -0.851238 -0.042590 0.457595
v -1.267204 -0.042590 0.050870
v -1.376682 -0.042590 0.114359
v -1.572281 -0.042590 0.254036
v -0.854984 -0.042590 0.533679
v -1.326515 -0.042590 0.282468
v -1.471083 -0.042590 0.412028
v -1.581907 -0.042590 0.537781
v -1.767450 -0.042589 0.819416
v 0.371960 -0.042590 0.216432
v 0.634546 0.107410 0.281830
v 0.342201 0.107410 0.190105
v 0.654005 -0.042590 0.305865
v -0.371960 -0.042590 0.216432
v -0.634546 0.107410 0.281830
v -0.654005 -0.042590 0.305865
v -0.342201 0.107410 0.190105
v 0.056145 -0.042590 0.558883
v 0.056145 0.107410 0.558883
v 0.028072 -0.042590 0.547252
v 0.028072 0.107410 0.547252
v 0.000000 -0.042590 0.535093
v 0.000000 0.107410 0.535623
v 0.056145 -0.042590 0.558883
v 0.079418 0.107411 0.615025
v 0.079418 -0.042590 0.615026
v 0.079418 -0.042590 0.615026
v 0.056145 0.107411 0.671187
v 0.056145 -0.042590 0.671187
v 0.000000 0.107411 0.694445
v 0.000000 -0.042590 0.694445
v -0.056145 0.107410 0.558883
v -0.056145 -0.042590 0.558883
v -0.028072 -0.042590 0.547252
v -0.028072 0.107410 0.547252
v 0.000000 -0.042590 0.535093
v 0.000000 0.107410 0.535623
v -0.079418 0.107411 0.615025
v -0.056145 -0.042590 0.558883
v -0.079418 -0.042590 0.615026
v -0.056145 0.107411 0.671187
v -0.079418 -0.042590 0.615026
v -0.056145 -0.042590 0.671187
v 0.000000 0.107411 0.694445
v 0.000000 -0.042590 0.694445
v 0.721695 0.107410 0.184540
v 0.633463 -0.042590 0.157170
v 0.702236 -0.042590 0.191407
v 0.614004 0.107410 0.128555
v 0.802553 0.107410 0.267391
v 0.783094 -0.042590 0.274258
v 0.852604 0.107410 0.365364
v 0.833147 -0.042590 0.372232
v 0.870695 0.107410 0.450727
v 0.851238 -0.042590 0.457595
v 0.872114 0.107410 0.519409
v 0.854984 -0.042590 0.533679
v -0.633463 -0.042590 0.157170
v -0.721695 0.107410 0.184540
v -0.702236 -0.042590 0.191407
v -0.614004 0.107410 0.128555
v -0.802553 0.107410 0.267391
v -0.783094 -0.042590 0.274258
v -0.852604 0.107410 0.365364
v -0.833147 -0.042590 0.372232
v -0.870695 0.107410 0.450727
v -0.851238 -0.042590 0.457595
v -0.872114 0.107410 0.519409
v -0.854984 -0.042590 0.533679
v 0.707001 -0.042590 -0.428849
v 0.746389 0.107410 -0.431356
v 0.700930 0.107410 -0.454241
v 0.770161 -0.042590 -0.402461
v -0.707001 -0.042590 -0.428849
v -0.746389 0.107410 -0.431356
v -0.770161 -0.042590 -0.402461
v -0.700930 0.107410 -0.454241
vn 0.7859 0.1361 -0.6032
vn 0.9785 0.1232 -0.1656
vn 0.7910 0.1363 -0.5965
vn 0.9784 0.1237 -0.1656
vn 0.8369 0.1402 -0.5291
vn 0.8338 0.1402 -0.5339
vn 0.8319 0.1363 -0.5379
vn 0.8388 0.1363 -0.5271
vn 0.0005 0.1226 -0.9925
vn -0.8319 0.1363 -0.5379
vn -0.8388 0.1363 -0.5271
vn -0.8369 0.1402 -0.5291
vn -0.8338 0.1402 -0.5339
vn -0.7859 0.1361 -0.6032
vn -0.7910 0.1363 -0.5965
vn -0.9785 0.1232 -0.1656
vn -0.9784 0.1238 -0.1656
vn 0.7899 0.1297 -0.5994
vn 0.7849 0.1286 -0.6062
vn 0.8269 0.1331 -0.5463
vn 0.8268 0.1333 -0.5465
vn 0.7082 0.1171 -0.6963
vn 0.7022 0.1161 -0.7024
vn 0.6295 0.1030 -0.7701
vn 0.6237 0.1011 -0.7751
vn 0.5883 0.0942 -0.8031
vn -0.7899 0.1297 -0.5994
vn -0.8269 0.1331 -0.5463
vn -0.7848 0.1287 -0.6062
vn -0.8268 0.1333 -0.5465
vn -0.7082 0.1171 -0.6963
vn -0.7022 0.1161 -0.7024
vn -0.6295 0.1030 -0.7701
vn -0.6237 0.1011 -0.7751
vn -0.5883 0.0942 -0.8031
vn 0.5320 0.1011 -0.8407
vn 0.5722 0.1031 -0.8136
vn 0.5401 0.1022 -0.8354
vn 0.4675 0.0922 -0.8792
vn 0.4584 0.0902 -0.8841
vn 0.4255 0.0826 -0.9012
vn 0.4258 0.0830 -0.9010
vn 0.3443 0.0842 -0.9351
vn 0.3335 0.0815 -0.9392
vn 0.4282 0.1005 -0.8981
vn 0.2639 0.0684 -0.9621
vn 0.4384 0.1025 -0.8929
vn 0.4796 0.1104 -0.8705
vn 0.2566 0.0670 -0.9642
vn 0.2293 0.0616 -0.9714
vn -0.5320 0.1011 -0.8407
vn -0.5401 0.1022 -0.8354
vn -0.5722 0.1031 -0.8136
vn -0.4675 0.0922 -0.8792
vn -0.4584 0.0902 -0.8841
vn -0.4255 0.0826 -0.9012
vn -0.4258 0.0830 -0.9010
vn -0.3333 0.0820 -0.9392
vn -0.3442 0.0845 -0.9351
vn -0.4282 0.1005 -0.8981
vn -0.4384 0.1025 -0.8929
vn -0.4796 0.1104 -0.8705
vn -0.2639 0.0684 -0.9621
vn -0.2566 0.0670 -0.9642
vn -0.2293 0.0616 -0.9714
vn 0.9855 0.1043 -0.1341
vn 0.9855 0.1041 -0.1343
vn 0.9854 0.1041 -0.1344
vn -0.9855 0.1043 -0.1341
vn -0.9855 0.1041 -0.1343
vn -0.9855 0.1040 -0.1343
vn 0.0005 -0.0024 1.0000
vn 0.0004 -0.0025 1.0000
vn -0.6618 -0.0015 0.7497
vn 0.1235 0.1363 -0.9829
vn 0.1235 0.1362 -0.9830
vn 0.1236 0.1362 -0.9829
vn -0.1236 0.1362 -0.9829
vn -0.1235 0.1361 -0.9830
vn -0.1235 0.1362 -0.9830
vn -0.1235 0.1363 -0.9829
vn 0.9536 0.1011 0.2837
vn 0.9536 0.1011 0.2836
vn -0.9536 0.1011 0.2837
vn -0.9536 0.1011 0.2836
vn 0.9345 0.1129 -0.3376
vn 0.9345 0.1128 -0.3376
vn -0.9345 0.1129 -0.3376
vn -0.9345 0.1128 -0.3376
vn 0.7013 0.1386 0.6993
vn 0.7012 0.1381 0.6995
vn 0.7013 0.1386 0.6992
vn 0.7011 0.1384 0.6995
vn -0.7013 0.1386 0.6993
vn -0.7013 0.1386 0.6992
vn -0.7012 0.1381 0.6995
vn -0.7011 0.1384 0.6995
vn 0.7677 0.0621 0.6378
vn 0.7678 0.0621 0.6377
vn -0.7677 0.0621 0.6378
vn -0.7678 0.0621 0.6377
vn 0.9334 -0.0005 -0.3589
vn 0.9334 -0.0005 -0.3588
vn 0.9951 -0.0010 0.0993
vn 0.9951 -0.0000 0.0992
vn 0.6620 -0.0016 0.7495
vn 0.6618 -0.0015 0.7497
vn 0.0006 -0.0024 1.0000
vn 0.9333 -0.0005 -0.3591
vn 0.9647 -0.0008 -0.2633
vn 0.9333 -0.0005 -0.3590
vn 0.9647 -0.0005 -0.2633
vn 0.2913 0.0767 0.9535
vn 0.2916 0.0761 0.9535
vn 0.2915 0.0767 0.9535
vn 0.2915 0.0766 0.9535
vn -0.2916 0.0761 0.9535
vn -0.2909 0.0769 0.9537
vn -0.2915 0.0767 0.9535
vn -0.2915 0.0766 0.9535
vn -0.2994 0.1089 0.9479
vn 0.0003 0.0836 0.9965
vn -0.0000 0.0836 0.9965
vn 0.0005 0.0836 0.9965
vn 0.2994 0.1089 0.9479
vn -0.5222 0.1187 0.8445
vn 0.5222 0.1187 0.8445
vn 0.4744 0.0775 0.8769
vn 0.4744 0.0776 0.8769
vn 0.4744 0.0777 0.8769
vn -0.4743 0.0777 0.8769
vn -0.4744 0.0775 0.8769
vn -0.4744 0.0777 0.8769
vn -0.9951 -0.0000 0.0992
vn -0.9951 -0.0010 0.0993
vn -0.9334 -0.0005 -0.3589
vn -0.9334 -0.0005 -0.3588
vn -0.6618 -0.0014 0.7497
vn -0.9647 -0.0005 -0.2633
vn -0.9333 -0.0005 -0.3591
vn -0.9333 -0.0005 -0.3590
vn -0.9647 -0.0006 -0.2633
vn 1.0000 -0.0005 0.0015
vn 1.0000 -0.0004 0.0013
vn 0.9647 -0.0005 -0.2632
vn 0.9647 -0.0007 -0.2632
vn -1.0000 -0.0005 0.0015
vn -0.9647 -0.0000 -0.2632
vn -1.0000 -0.0004 0.0013
vn -0.9647 -0.0005 -0.2632
vn -0.0000 -1.0000 -0.0000
vn 0.0005 -1.0000 0.0005
vn 0.0003 -1.0000 0.0003
vn 0.0005 1.0000 0.0005
vn -0.0000 1.0000 -0.0000
vn -0.2993 0.1099 0.9478
vn -0.2993 0.1098 0.9478
vn 0.2993 0.1099 0.9478
vn -0.7071 0.0005 0.7071
vn -0.7071 -0.0000 0.7071
vn -0.3862 -0.0005 0.9224
vn -0.3903 -0.0015 0.9207
vn -1.0000 -0.0000 0.0006
vn -1.0000 0.0005 0.0005
vn -1.0000 -0.0000 0.0005
vn -0.7071 -0.0000 -0.7072
vn -1.0000 0.0005 0.0004
vn -0.7071 -0.0000 -0.7071
vn 0.0003 -0.0000 -1.0000
vn 0.0003 0.0005 -1.0000
vn 0.7071 0.0005 0.7071
vn 0.7071 -0.0000 0.7071
vn 0.3862 -0.0005 0.9224
vn 0.3903 -0.0015 0.9207
vn 1.0000 0.0005 0.0006
vn 1.0000 -0.0000 0.0005
vn 0.7071 -0.0000 -0.7072
vn 1.0000 0.0005 0.0005
vn 1.0000 -0.0000 0.0004
vn 0.7071 -0.0000 -0.7071
vn 0.0005 0.0005 -1.0000
vn 0.0005 -0.0000 -1.0000
vn -0.5960 0.1167 0.7945
vn -0.4527 0.1050 0.8854
vn -0.5827 0.1157 0.8044
vn -0.8073 0.1311 0.5754
vn -0.8031 0.1308 0.5812
vn -0.9338 0.1363 0.3309
vn -0.9840 0.1294 0.1225
vn -0.9843 0.1295 0.1198
vn -0.9917 0.1235 0.0356
vn 0.4527 0.1050 0.8854
vn 0.5960 0.1167 0.7945
vn 0.5827 0.1157 0.8044
vn 0.8073 0.1311 0.5754
vn 0.8031 0.1308 0.5812
vn 0.9338 0.1363 0.3309
vn 0.9840 0.1294 0.1225
vn 0.9843 0.1295 0.1200
vn 0.9917 0.1235 0.0356
vn -0.4097 0.1226 0.9039
vn 0.4097 0.1226 0.9039
vt 0.000000 0.000000
vt 0.000000 0.750000
vt 0.000000 1.000000
vt 0.041667 0.750000
vt 0.041667 1.000000
vt 0.041667 0.875000
vt 0.541667 0.750000
vt 0.711321 0.750000
vt 0.816076 0.750000
vt 0.675321 0.750000
vt 0.726421 0.750000
vt 1.000000 0.750000
vt 0.008394 1.000000
vt 0.020833 1.000000
vt 0.016787 1.000000
vt 0.024691 1.000000
vt 0.029307 1.000000
vt 0.375000 0.713626
vt 0.437500 0.713626
vt 0.375000 0.784760
vt 0.437500 0.784760
vt 0.500000 0.713626
vt 0.500000 0.784760
vt 0.352955 0.713626
vt 0.250000 0.784760
vt 0.250000 0.713626
vt 0.213545 0.713626
vt 0.125000 0.784760
vt 0.125000 0.713626
vt 0.000000 0.784760
vt 0.000000 0.713626
s 1
f 1/1/1 2/1/2 3/1/3
f 3/1/3 2/1/2 4/1/4
f 1/1/1 3/1/3 5/1/5
f 6/1/6 1/1/1 5/1/5
f 5/1/5 7/1/7 6/1/6
f 7/1/7 5/1/5 8/1/8
f 8/1/8 9/1/9 7/1/7
f 10/1/9 7/1/7 9/1/9
f 11/1/10 10/1/9 9/1/9
f 11/1/10 9/1/9 12/1/11
f 13/1/12 11/1/10 12/1/11
f 11/1/10 13/1/12 14/1/13
f 14/1/13 13/1/12 15/1/14
f 15/1/14 13/1/12 16/1/15
f 16/1/15 17/1/16 15/1/14
f 17/1/16 16/1/15 18/1/17
f 19/1/18 20/1/19 21/1/20
f 19/1/18 21/1/20 22/1/21
f 23/1/22 20/1/19 19/1/18
f 23/1/22 24/1/23 20/1/19
f 24/1/23 23/1/22 25/1/24
f 26/1/25 24/1/23 25/1/24
f 26/1/25 25/1/24 27/1/26
f 27/1/26 28/1/26 26/1/25
f 29/1/27 30/1/28 31/1/29
f 30/1/28 29/1/27 32/1/30
f 31/1/29 33/1/31 29/1/27
f 33/1/31 31/1/29 34/1/32
f 34/1/32 35/1/33 33/1/31
f 36/1/34 35/1/33 34/1/32
f 36/1/34 37/1/35 35/1/33
f 38/1/35 37/1/35 36/1/34
f 39/1/36 40/1/37 41/1/38
f 40/1/37 42/1/37 41/1/38
f 39/1/36 41/1/38 43/1/39
f 43/1/39 44/1/40 39/1/36
f 44/1/40 43/1/39 45/1/41
f 46/1/42 44/1/40 45/1/41
f 47/1/43 48/1/44 49/1/45
f 48/1/44 47/1/43 50/1/46
f 49/1/45 51/1/47 47/1/43
f 49/1/45 52/1/48 51/1/47
f 52/1/48 53/1/48 51/1/47
f 50/1/46 54/1/49 48/1/44
f 54/1/49 50/1/46 55/1/50
f 55/1/50 56/1/50 54/1/49
f 57/1/51 58/1/52 59/1/53
f 59/1/53 58/1/52 60/1/53
f 57/1/51 61/1/54 58/1/52
f 62/1/55 61/1/54 57/1/51
f 62/1/55 63/1/56 61/1/54
f 64/1/57 63/1/56 62/1/55
f 65/1/58 66/1/59 67/1/60
f 67/1/60 66/1/59 68/1/61
f 67/1/60 68/1/61 69/1/62
f 69/1/62 68/1/61 70/1/62
f 65/1/58 71/1/63 66/1/59
f 72/1/64 71/1/63 65/1/58
f 72/1/64 73/1/65 71/1/63
f 74/1/65 73/1/65 72/1/64
f 75/1/66 76/1/67 77/1/66
f 75/1/66 77/1/66 78/1/68
f 79/1/69 80/1/70 81/1/70
f 80/1/70 79/1/69 82/1/71
f 83/2/72 84/3/73 85/4/74
f 85/4/74 84/3/73 86/5/74
f 87/1/75 88/1/76 89/1/77
f 90/1/76 89/1/77 88/1/76
f 91/1/78 92/1/79 93/1/80
f 91/1/78 93/1/80 94/1/81
f 95/1/82 96/1/82 97/1/82
f 95/1/82 97/1/82 98/1/83
f 99/1/84 100/1/84 101/1/84
f 100/1/84 99/1/84 102/1/85
f 103/1/86 104/1/87 105/1/86
f 105/1/86 104/1/87 106/1/87
f 107/1/88 108/1/89 109/1/88
f 108/1/89 107/1/88 110/1/89
f 111/1/90 112/1/91 113/1/92
f 111/1/90 113/1/92 114/1/93
f 115/1/94 116/1/95 117/1/96
f 116/1/95 115/1/94 118/1/97
f 119/1/98 120/1/99 121/1/99
f 119/1/98 121/1/99 122/1/98
f 123/1/100 124/1/101 125/1/101
f 124/1/101 123/1/100 126/1/100
f 127/4/102 128/5/103 129/5/104
f 127/4/102 129/5/104 130/4/105
f 129/5/104 131/4/106 130/4/105
f 131/4/106 129/5/104 132/5/107
f 131/4/106 132/5/107 133/3/72
f 133/3/72 134/2/108 131/4/106
f 135/4/109 136/5/110 128/5/111
f 136/5/110 135/4/109 137/6/112
f 138/1/113 139/1/114 140/1/115
f 139/1/114 138/1/113 141/1/116
f 142/1/117 143/1/118 144/1/119
f 143/1/118 142/1/117 145/1/120
f 146/1/121 147/1/121 148/1/121
f 147/1/121 146/1/121 149/1/121
f 150/1/122 151/1/123 152/1/124
f 151/1/123 150/1/122 153/1/123
f 154/1/125 155/1/125 156/1/125
f 155/1/125 154/1/125 157/1/125
f 158/1/123 159/1/122 160/1/124
f 159/1/122 158/1/123 161/1/123
f 162/1/126 163/1/126 164/1/126
f 163/1/126 162/1/126 165/1/126
f 166/1/127 167/1/127 168/1/127
f 167/1/127 166/1/127 169/1/127
f 170/1/128 171/1/129 172/1/130
f 171/1/129 170/1/128 173/1/130
f 174/1/131 175/1/132 176/1/133
f 175/1/132 174/1/131 177/1/133
f 178/4/134 179/5/135 180/4/136
f 181/5/137 180/4/136 179/5/135
f 182/4/74 179/5/135 178/4/134
f 179/5/135 182/4/74 183/5/138
f 184/5/139 185/4/140 181/5/141
f 184/5/139 186/6/142 185/4/140
f 187/6/143 188/5/144 189/5/145
f 187/6/143 189/5/145 190/6/146
f 191/6/147 192/5/148 193/5/149
f 192/5/148 191/6/147 194/6/150
f 195/1/151 196/1/152 197/1/152
f 195/1/151 198/1/152 196/1/152
f 199/1/152 200/1/152 195/1/151
f 200/1/152 201/1/152 195/1/151
f 202/1/151 198/1/152 195/1/151
f 201/1/152 202/1/151 195/1/151
f 202/1/151 203/1/152 198/1/152
f 204/1/152 202/1/151 201/1/152
f 205/1/152 203/1/152 206/1/151
f 202/1/151 206/1/151 203/1/152
f 207/1/152 206/1/151 208/1/152
f 208/1/152 206/1/151 209/1/151
f 202/1/151 209/1/151 206/1/151
f 208/1/152 209/1/151 210/1/151
f 209/1/151 211/1/152 210/1/151
f 210/1/151 212/1/152 208/1/152
f 209/1/151 202/1/151 213/1/152
f 210/1/151 214/1/153 212/1/152
f 214/1/153 215/1/152 212/1/152
f 214/1/153 210/1/151 216/1/152
f 214/1/153 216/1/152 217/1/152
f 218/1/152 214/1/153 217/1/152
f 214/1/153 218/1/152 219/1/152
f 214/1/153 220/1/152 215/1/152
f 221/1/151 220/1/152 214/1/153
f 220/1/152 221/1/151 222/1/152
f 221/1/151 214/1/153 223/1/152
f 223/1/152 224/1/152 221/1/151
f 225/1/152 221/1/151 224/1/152
f 222/1/152 221/1/151 226/1/151
f 226/1/151 221/1/151 227/1/152
f 227/1/152 228/1/152 226/1/151
f 226/1/151 228/1/152 229/1/152
f 226/1/151 229/1/152 230/1/152
f 231/7/152 232/8/152 233/9/152
f 232/8/152 231/7/152 234/7/152
f 234/7/152 235/10/152 236/11/152
f 234/7/152 237/7/152 235/10/152
f 235/10/152 237/7/152 238/12/152
f 239/12/152 235/10/152 238/12/152
f 238/12/152 240/10/152 239/12/152
f 240/10/152 238/12/152 241/7/152
f 241/7/152 242/7/152 240/10/152
f 240/10/152 242/7/152 243/11/152
f 244/7/152 245/8/152 242/7/152
f 245/8/152 244/7/152 246/9/152
f 247/13/154 248/14/154 249/3/154
f 249/3/154 248/14/154 250/14/154
f 251/15/154 248/14/154 247/13/154
f 251/15/154 252/5/154 248/14/154
f 253/16/154 252/5/154 251/15/154
f 252/5/154 253/16/154 254/5/154
f 255/17/154 254/5/154 253/16/154
f 254/5/154 255/17/154 256/5/154
f 255/17/154 257/3/154 256/5/154
f 257/3/154 255/17/154 258/3/154
f 259/17/154 257/3/154 258/3/154
f 257/3/154 259/17/154 260/5/154
f 261/5/154 260/5/154 259/17/154
f 261/5/154 259/17/154 262/16/154
f 262/16/154 263/5/154 261/5/154
f 263/5/154 262/16/154 264/15/154
f 264/15/154 265/14/154 263/5/154
f 266/13/154 265/14/154 264/15/154
f 266/13/154 249/3/154 265/14/154
f 249/3/154 267/14/154 265/14/154
f 268/6/152 269/18/152 270/19/152
f 269/18/152 268/6/152 271/4/152
f 272/6/152 273/18/152 274/4/152
f 273/18/152 272/6/152 275/19/152
f 276/1/154 277/1/155 278/1/154
f 277/1/155 279/1/154 278/1/154
f 277/1/155 280/1/154 279/1/154
f 281/1/155 277/1/155 276/1/154
f 277/1/155 281/1/155 282/1/154
f 277/1/155 282/1/154 283/1/154
f 281/1/155 284/1/154 282/1/154
f 285/1/155 277/1/155 283/1/154
f 277/1/155 285/1/155 286/1/154
f 287/1/154 285/1/155 283/1/154
f 288/1/154 286/1/154 285/1/155
f 285/1/155 289/1/154 288/1/154
f 290/1/154 285/1/155 287/1/154
f 285/1/155 290/1/154 291/1/154
f 292/1/154 291/1/154 290/1/154
f 291/1/154 292/1/154 293/1/154
f 293/1/154 292/1/154 294/1/154
f 294/1/154 292/1/154 295/1/154
f 284/1/154 281/1/155 296/1/155
f 297/1/154 296/1/155 281/1/155
f 296/1/155 298/1/155 284/1/154
f 298/1/155 299/1/154 284/1/154
f 300/1/155 298/1/155 296/1/155
f 301/1/154 300/1/155 296/1/155
f 302/1/154 298/1/155 303/1/154
f 298/1/155 300/1/155 303/1/154
f 303/1/154 300/1/155 304/1/154
f 300/1/155 305/1/154 304/1/154
f 305/1/154 300/1/155 306/1/154
f 307/1/154 301/1/154 308/1/154
f 301/1/154 307/1/154 309/1/154
f 300/1/155 301/1/154 309/1/154
f 300/1/155 310/1/154 306/1/154
f 309/1/154 311/1/154 312/1/154
f 300/1/155 309/1/154 312/1/154
f 313/1/154 312/1/154 314/1/154
f 300/1/155 312/1/154 313/1/154
f 313/1/154 315/1/154 300/1/155
f 316/1/154 315/1/154 313/1/154
f 315/1/154 316/1/154 317/1/154
f 318/1/155 300/1/155 315/1/154
f 300/1/155 319/1/155 310/1/154
f 300/1/155 318/1/155 319/1/155
f 320/1/154 310/1/154 319/1/155
f 321/1/154 319/1/155 318/1/155
f 322/1/154 319/1/155 321/1/154
f 321/1/154 318/1/155 323/1/155
f 318/1/155 324/1/154 323/1/155
f 323/1/155 325/1/154 321/1/154
f 323/1/155 326/1/155 325/1/154
f 326/1/155 323/1/155 327/1/154
f 326/1/155 327/1/154 328/1/154
f 329/1/154 326/1/155 328/1/154
f 326/1/155 329/1/154 330/1/154
f 326/1/155 331/1/154 325/1/154
f 332/1/155 331/1/154 326/1/155
f 331/1/154 332/1/155 333/1/154
f 332/1/155 326/1/155 334/1/154
f 334/1/154 335/1/154 332/1/155
f 336/1/154 332/1/155 335/1/154
f 333/1/154 332/1/155 337/1/154
f 338/1/154 337/1/154 332/1/155
f 337/1/154 338/1/154 339/1/154
f 338/1/154 340/1/154 339/1/154
f 339/1/154 340/1/154 341/1/154
f 339/1/154 341/1/154 342/1/154
f 343/1/152 213/1/152 202/1/151
f 344/1/152 213/1/152 343/1/152
f 213/1/152 344/1/152 345/1/152
f 343/1/152 346/1/152 347/1/152
f 343/1/152 202/1/151 346/1/152
f 348/1/152 349/1/152 346/1/152
f 348/1/152 346/1/152 202/1/151
f 202/1/151 350/1/152 348/1/152
f 350/1/152 351/1/152 348/1/152
f 351/1/152 350/1/152 352/1/152
f 350/1/152 202/1/151 353/1/151
f 202/1/151 354/1/151 353/1/151
f 354/1/151 202/1/151 204/1/152
f 355/1/152 354/1/151 204/1/152
f 353/1/151 354/1/151 356/1/152
f 354/1/151 357/1/152 356/1/152
f 356/1/152 358/1/151 353/1/151
f 359/1/152 353/1/151 358/1/151
f 358/1/151 356/1/152 360/1/152
f 361/1/153 358/1/151 360/1/152
f 358/1/151 361/1/153 362/1/152
f 361/1/153 360/1/152 363/1/152
f 362/1/152 361/1/153 364/1/152
f 361/1/153 365/1/152 364/1/152
f 361/1/153 366/1/152 365/1/152
f 367/1/152 361/1/153 363/1/152
f 361/1/153 367/1/152 368/1/151
f 369/1/152 368/1/151 367/1/152
f 361/1/153 368/1/151 370/1/152
f 371/1/152 370/1/152 368/1/151
f 368/1/151 372/1/152 371/1/152
f 373/1/151 368/1/151 369/1/152
f 368/1/151 373/1/151 374/1/152
f 374/1/152 373/1/151 375/1/152
f 375/1/152 373/1/151 376/1/152
f 373/1/151 377/1/152 376/1/152
f 378/1/156 379/1/156 380/1/157
f 379/1/156 378/1/156 381/1/156
f 382/1/158 383/1/158 384/1/158
f 383/1/158 382/1/158 385/1/158
f 386/18/159 387/20/160 388/19/161
f 388/19/161 387/20/160 389/21/161
f 388/19/161 389/21/161 390/22/162
f 390/22/162 389/21/161 391/23/162
f 392/24/160 393/25/163 387/20/159
f 393/25/163 392/24/160 394/26/164
f 395/27/165 396/28/166 393/25/167
f 396/28/166 395/27/165 397/29/168
f 397/29/168 398/30/169 396/28/166
f 398/30/169 397/29/168 399/31/170
f 400/20/171 401/18/172 402/19/173
f 402/19/173 403/21/173 400/20/171
f 403/21/173 402/19/173 404/22/174
f 404/22/174 405/23/174 403/21/173
f 406/25/175 407/24/171 400/20/172
f 407/24/171 406/25/175 408/26/176
f 409/28/177 410/27/178 406/25/179
f 410/27/178 409/28/177 411/29/180
f 411/29/180 409/28/177 412/30/181
f 412/30/181 413/31/182 411/29/180
f 414/1/183 415/1/184 416/1/185
f 415/1/184 414/1/183 417/1/184
f 416/1/185 418/1/186 414/1/183
f 418/1/186 416/1/185 419/1/187
f 419/1/187 420/1/188 418/1/186
f 420/1/188 419/1/187 421/1/188
f 421/1/188 422/1/189 420/1/188
f 422/1/189 421/1/188 423/1/190
f 423/1/190 424/1/191 422/1/189
f 424/1/191 423/1/190 425/1/191
f 426/1/192 427/1/193 428/1/194
f 427/1/193 426/1/192 429/1/192
f 430/1/195 428/1/194 427/1/193
f 428/1/194 430/1/195 431/1/196
f 432/1/197 431/1/196 430/1/195
f 431/1/196 432/1/197 433/1/197
f 434/1/198 433/1/197 432/1/197
f 433/1/197 434/1/198 435/1/199
f 436/1/200 435/1/199 434/1/198
f 435/1/199 436/1/200 437/1/200
f 438/1/201 439/1/201 440/1/201
f 439/1/201 438/1/201 441/1/201
f 442/1/202 443/1/202 444/1/202
f 443/1/202 442/1/202 445/1/202
