# Blender 5.1.1
# www.blender.org
mtllib xxxrank.mtl
o archrank
v 0.446121 0.059852 -0.672096
v 0.000034 -0.114366 -0.873418
v 0.000034 0.059852 -0.873415
v 0.446121 -0.114366 -0.672100
v -0.446053 0.059852 -0.672096
v 0.000034 0.059852 -0.873415
v 0.000034 -0.114366 -0.873418
v -0.446053 -0.114366 -0.672100
v 0.000034 0.059852 -0.873415
v 0.345959 0.172352 -0.597575
v 0.446121 0.059852 -0.672096
v 0.000034 0.172352 -0.753691
v 0.000034 0.059852 -0.873415
v -0.446053 0.059852 -0.672096
v -0.345890 0.172352 -0.597575
v 0.000034 0.172352 -0.753691
v 0.446121 0.059852 -0.672096
v 0.571938 -0.114366 0.282989
v 0.446121 -0.114366 -0.672100
v 0.571938 0.073733 0.282989
v -0.446053 0.059852 -0.672096
v -0.572479 -0.114366 0.282988
v -0.572479 0.059852 0.282992
v -0.446053 -0.114366 -0.672100
v -0.446053 0.059852 -0.672096
v -0.442520 0.172352 0.127790
v -0.345890 0.172352 -0.597575
v -0.572479 0.059852 0.282992
v 0.446121 0.059852 -0.672096
v 0.442589 0.172352 0.127790
v 0.571938 0.073733 0.282989
v 0.345959 0.172352 -0.597575
v 0.571938 0.073733 0.282989
v 0.000034 0.059852 0.102709
v 0.571938 -0.114366 0.282989
v 0.000034 -0.114366 0.102705
v 0.571938 -0.114366 0.282989
v 0.000034 0.059852 0.102709
v -0.572479 -0.114366 0.282988
v 0.000034 -0.114366 0.102705
v 0.000034 0.059852 0.102709
v -0.572479 0.059852 0.282992
v -0.442520 0.172352 0.127790
v 0.000034 0.059852 0.102709
v 0.000034 0.167783 -0.011390
v -0.572479 0.059852 0.282992
v 0.000034 0.059852 0.102709
v 0.571938 0.073733 0.282989
v 0.442589 0.172352 0.127790
v 0.000034 0.167783 -0.011390
v 0.446121 -0.114366 -0.672100
v 0.442589 -0.114366 0.127785
v 0.345959 -0.114366 -0.597580
v 0.571938 -0.114366 0.282989
v 0.000034 -0.114366 0.102705
v 0.000034 -0.114366 -0.873418
v 0.000034 -0.114366 -0.011394
v 0.312315 -0.114366 -0.027413
v -0.442520 -0.114366 0.127785
v -0.572479 -0.114366 0.282988
v -0.446053 -0.114366 -0.672100
v -0.345890 -0.114366 -0.597580
v 0.000034 -0.114366 -0.753695
v 0.246050 -0.114366 -0.523247
v 0.000034 -0.114366 -0.124015
v 0.000034 -0.114366 -0.634274
v -0.245981 -0.114366 -0.523247
v -0.312246 -0.114366 -0.027413
v 0.000034 0.167783 -0.011390
v 0.442589 0.172352 0.127790
v 0.312313 0.072352 -0.027409
v 0.000034 0.072352 -0.124010
v -0.312246 0.072352 -0.027409
v 0.000034 0.167783 -0.011390
v 0.000034 0.072352 -0.124010
v -0.442520 0.172352 0.127790
v -0.245981 0.072352 -0.523243
v 0.000034 0.072352 -0.124010
v 0.000034 0.072352 -0.634270
v -0.312246 0.072352 -0.027409
v 0.246050 0.072352 -0.523243
v 0.312313 0.072352 -0.027409
v 0.150915 0.011428 0.355083
v 0.290001 0.011428 0.269616
v 0.000000 0.011428 0.179615
v 0.373461 0.011428 0.494957
v 0.000002 0.011428 0.262504
v 0.076952 0.011428 0.352904
v -0.150915 0.011428 0.355083
v 0.000000 0.011428 0.430200
v 0.000002 0.011428 0.506305
v -0.290001 0.011428 0.269616
v -0.373461 0.011428 0.494957
v -0.076952 0.011428 0.352904
v 0.000000 0.045027 0.349842
v 0.000000 0.011428 0.430200
v 0.000002 0.011428 0.262504
v 0.000000 0.011428 0.430200
v 0.000002 0.011428 0.262504
v 0.264751 0.008536 -0.881883
v 0.496069 0.008536 -0.719140
v 0.555582 0.008536 -0.754663
v 0.109955 0.008536 -0.891664
v 0.304792 0.008536 -0.939863
v 0.620743 0.008536 -0.793953
v 0.589830 0.008536 -0.554755
v 0.523767 0.008536 -0.526533
v 0.679390 0.008536 -0.447902
v -0.496069 0.008536 -0.719140
v -0.264751 0.008536 -0.881883
v -0.555582 0.008536 -0.754663
v -0.109955 0.008536 -0.891664
v -0.304792 0.008536 -0.939863
v -0.620743 0.008536 -0.793953
v -0.589830 0.008536 -0.554755
v -0.523767 0.008536 -0.526533
v -0.679390 0.008536 -0.447902
v 1.581675 0.008536 0.731249
v 1.608374 0.008536 0.773896
v 1.608341 0.008536 0.773840
v 1.608374 0.008536 0.773896
v 1.581675 0.008536 0.731249
v 0.922480 0.008536 0.555260
v 1.524273 0.008536 0.652165
v 1.460724 0.008536 0.575763
v 1.389729 0.008536 0.501008
v 0.920851 0.008536 0.519047
v 1.329556 0.008536 0.445357
v 0.911655 0.008536 0.462539
v 1.233276 0.008536 0.368023
v 0.875410 0.008536 0.363479
v 1.151796 0.008536 0.313457
v 1.062460 0.008536 0.263926
v 0.817118 0.008536 0.277982
v 0.962788 0.008536 0.219490
v 0.855057 0.008536 0.184311
v 0.733143 0.008536 0.204003
v 0.739391 0.008536 0.160321
v 0.615891 0.008536 0.149454
v 0.730387 0.008536 -0.131573
v 0.729595 0.008536 0.022214
v 0.781740 0.008536 0.025517
v 0.695724 0.008536 -0.132642
v 0.677486 0.008536 0.022987
v 0.794258 0.008536 -0.127605
v 0.852848 0.008536 -0.119538
v 0.559456 0.008536 -0.273170
v 0.910540 0.008536 -0.228142
v 0.610464 0.008536 -0.266661
v 0.654417 0.008536 -0.400663
v 0.546432 0.008536 -0.373537
v 0.545889 0.008536 -0.373537
v 0.624371 0.008536 -0.129861
v 0.579533 0.008536 -0.125062
v 0.624369 0.008536 -0.129861
v 0.600697 0.008536 0.032810
v 0.625763 0.008536 0.028303
v 0.616430 0.008536 0.149454
v 0.600695 0.008536 0.032810
v 0.739389 0.008536 0.160321
v 0.729593 0.008536 0.022214
v 0.859272 0.008536 0.037094
v 0.920818 0.008536 -0.105100
v 0.855055 0.008536 0.184311
v 0.928383 0.008536 0.053067
v 1.011337 0.008536 -0.077252
v 1.087408 0.008536 -0.045642
v 1.148216 0.008536 -0.014388
v 0.973354 0.008536 0.066245
v 1.024317 0.008536 0.083843
v 0.962786 0.008536 0.219490
v 1.125893 0.008536 0.125736
v 1.062458 0.008536 0.263926
v 1.258236 0.008536 0.194008
v 1.368526 0.008536 0.263926
v -1.581675 0.008536 0.731249
v -1.608341 0.008536 0.773840
v -1.608374 0.008536 0.773896
v -1.608374 0.008536 0.773896
v -0.922480 0.008536 0.555260
v -1.581675 0.008536 0.731249
v -1.524273 0.008536 0.652165
v -1.460724 0.008536 0.575763
v -1.389729 0.008536 0.501008
v -0.920851 0.008536 0.519047
v -1.329556 0.008536 0.445357
v -0.911655 0.008536 0.462539
v -1.233276 0.008536 0.368023
v -0.875410 0.008536 0.363479
v -1.151796 0.008536 0.313457
v -1.062460 0.008536 0.263926
v -0.817118 0.008536 0.277982
v -0.962788 0.008536 0.219490
v -0.855057 0.008536 0.184311
v -0.733143 0.008536 0.204003
v -0.739391 0.008536 0.160321
v -0.615891 0.008536 0.149454
v -0.730387 0.008536 -0.131573
v -0.781740 0.008536 0.025517
v -0.729595 0.008536 0.022214
v -0.794258 0.008536 -0.127605
v -0.852848 0.008536 -0.119538
v -0.695724 0.008536 -0.132642
v -0.677486 0.008536 0.022987
v -0.559456 0.008536 -0.273170
v -0.910540 0.008536 -0.228142
v -0.610464 0.008536 -0.266661
v -0.654417 0.008536 -0.400663
v -0.546432 0.008536 -0.373537
v -0.545889 0.008536 -0.373537
v -0.624371 0.008536 -0.129861
v -0.579533 0.008536 -0.125062
v -0.624369 0.008536 -0.129861
v -0.600697 0.008536 0.032810
v -0.616430 0.008536 0.149454
v -0.625763 0.008536 0.028303
v -0.600695 0.008536 0.032810
v -0.739389 0.008536 0.160321
v -0.729593 0.008536 0.022214
v -0.859272 0.008536 0.037094
v -0.920818 0.008536 -0.105100
v -0.855055 0.008536 0.184311
v -0.928383 0.008536 0.053067
v -1.011337 0.008536 -0.077252
v -1.087408 0.008536 -0.045642
v -1.148216 0.008536 -0.014388
v -0.973354 0.008536 0.066245
v -1.024317 0.008536 0.083843
v -0.962786 0.008536 0.219490
v -1.125893 0.008536 0.125736
v -1.062458 0.008536 0.263926
v -1.258236 0.008536 0.194008
v -1.368526 0.008536 0.263926
v 0.345959 0.172352 -0.597575
v 0.312313 0.072352 -0.027409
v 0.442589 0.172352 0.127790
v 0.246050 0.072352 -0.523243
v -0.345890 0.172352 -0.597575
v -0.312246 0.072352 -0.027409
v -0.245981 0.072352 -0.523243
v -0.442520 0.172352 0.127790
v 0.000034 0.172352 -0.753691
v 0.246050 0.072352 -0.523243
v 0.345959 0.172352 -0.597575
v 0.000034 0.072352 -0.634270
v 0.000034 0.172352 -0.753691
v -0.345890 0.172352 -0.597575
v -0.245981 0.072352 -0.523243
v 0.000034 0.072352 -0.634270
vn 0.4113 -0.0000 -0.9115
vn 0.4116 0.0004 -0.9114
vn -0.4113 -0.0000 -0.9115
vn -0.4111 0.0004 -0.9116
vn -0.4112 0.0003 -0.9116
vn 0.2953 0.6963 -0.6542
vn 0.2954 0.6959 -0.6545
vn 0.2954 0.6960 -0.6545
vn -0.2953 0.6963 -0.6542
vn -0.2960 0.6958 -0.6544
vn -0.2956 0.6960 -0.6544
vn -0.2955 0.6961 -0.6544
vn 0.9914 -0.0000 -0.1306
vn 0.9914 0.0005 -0.1309
vn -0.9914 0.0005 -0.1309
vn -0.9914 0.0003 -0.1311
vn -0.9914 0.0004 -0.1310
vn -0.7127 0.6950 -0.0947
vn -0.7130 0.6947 -0.0946
vn -0.7127 0.6951 -0.0947
vn -0.7128 0.6950 -0.0947
vn 0.6918 0.7154 -0.0976
vn -0.3006 0.0006 0.9537
vn -0.3007 -0.0000 0.9537
vn 0.3003 0.0006 0.9538
vn 0.2173 0.7011 0.6792
vn -0.0006 0.7285 0.6851
vn -0.0016 0.7285 0.6851
vn -0.0007 0.7285 0.6851
vn -0.2206 0.7200 0.6580
vn -0.0019 0.7285 0.6851
vn -0.0000 -1.0000 -0.0000
vn 0.0004 0.7595 -0.6505
vn 0.1948 0.7450 -0.6380
vn -0.1951 0.7450 -0.6379
vn -0.0000 0.7595 -0.6505
vn 0.0002 0.7595 -0.6505
vn -0.0000 1.0000 -0.0000
vn 0.0003 0.9966 -0.0830
vn 0.1088 0.9941 0.0040
vn 0.0003 0.9951 0.0987
vn -0.1091 0.9940 0.0040
vn 0.0004 1.0000 0.0060
vn 0.0003 0.9951 0.0988
vn 0.0003 0.9965 -0.0830
vn 0.0003 1.0000 0.0059
vn -0.0000 1.0000 -0.0002
vn 0.0003 1.0000 0.0009
vn -0.6708 0.7361 0.0900
vn -0.6712 0.7358 0.0894
vn -0.6713 0.7358 0.0894
vn -0.6709 0.7361 0.0900
vn 0.6707 0.7363 0.0896
vn 0.6708 0.7362 0.0899
vn 0.6705 0.7365 0.0896
vn 0.6709 0.7361 0.0897
vn -0.2783 0.7364 0.6166
vn 0.2788 0.7363 0.6166
vn 0.2783 0.7364 0.6166
vt 0.388906 0.586545
vt 0.499990 0.536412
vt 0.499990 0.536413
vt 0.388906 0.586544
vt 0.611073 0.586545
vt 0.611073 0.586544
vt 0.413849 0.605102
vt 0.499990 0.566226
vt 0.586131 0.605102
vt 0.357576 0.824378
vt 0.642556 0.824377
vt 0.642556 0.824379
vt 0.610193 0.785730
vt 0.389786 0.785730
vt 0.499990 0.779485
vt 0.499990 0.779484
vt 0.499990 0.751072
vt 0.389786 0.785729
vt 0.413849 0.605100
vt 0.499990 0.751071
vt 0.422227 0.747082
vt 0.610193 0.785729
vt 0.586131 0.605100
vt 0.499990 0.566225
vt 0.438727 0.623611
vt 0.499990 0.723027
vt 0.499990 0.595963
vt 0.561252 0.623611
vt 0.577753 0.747082
vt 0.422227 0.747083
vt 0.499990 0.723028
vt 0.577753 0.747083
vt 0.561252 0.623612
vt 0.499990 0.595964
vt 0.438727 0.623612
vt 0.462418 0.842331
vt 0.427783 0.821048
vt 0.499998 0.798636
vt 0.407000 0.877162
vt 0.499998 0.819277
vt 0.480836 0.841788
vt 0.537579 0.842331
vt 0.499998 0.861036
vt 0.499998 0.879988
vt 0.572214 0.821048
vt 0.592997 0.877162
vt 0.519161 0.841788
vt 0.499998 0.841025
vt 0.434071 0.534304
vt 0.376469 0.574830
vt 0.361649 0.565984
vt 0.472617 0.531868
vt 0.424100 0.519866
vt 0.345422 0.556200
vt 0.353120 0.615765
vt 0.369571 0.622793
vt 0.330818 0.642373
vt 0.623528 0.574830
vt 0.565926 0.534304
vt 0.638348 0.565984
vt 0.527379 0.531868
vt 0.575897 0.519866
vt 0.654574 0.556200
vt 0.646876 0.615765
vt 0.630426 0.622793
vt 0.669179 0.642373
vt 0.106133 0.936002
vt 0.099485 0.946623
vt 0.099493 0.946608
vt 0.270285 0.892178
vt 0.120428 0.916309
vt 0.136252 0.897284
vt 0.153931 0.878669
vt 0.270690 0.883160
vt 0.168915 0.864811
vt 0.272980 0.869089
vt 0.192891 0.845553
vt 0.282006 0.844421
vt 0.213181 0.831965
vt 0.235427 0.819631
vt 0.296522 0.823131
vt 0.260247 0.808565
vt 0.287074 0.799805
vt 0.317433 0.804709
vt 0.315877 0.793831
vt 0.346631 0.791125
vt 0.318119 0.721145
vt 0.318316 0.759440
vt 0.305331 0.760263
vt 0.326751 0.720879
vt 0.331293 0.759633
vt 0.302214 0.722132
vt 0.287624 0.724142
vt 0.360684 0.685884
vt 0.273258 0.697097
vt 0.347982 0.687505
vt 0.337037 0.654136
vt 0.363927 0.660891
vt 0.364062 0.660891
vt 0.344519 0.721571
vt 0.355685 0.722766
vt 0.344520 0.721571
vt 0.350414 0.762079
vt 0.344172 0.760956
vt 0.346496 0.791125
vt 0.350415 0.762079
vt 0.318317 0.759440
vt 0.286024 0.763146
vt 0.270699 0.727737
vt 0.268815 0.767123
vt 0.248158 0.734671
vt 0.229215 0.742543
vt 0.214072 0.750326
vt 0.257616 0.770405
vt 0.244925 0.774787
vt 0.260248 0.808565
vt 0.219631 0.785219
vt 0.235428 0.819631
vt 0.186676 0.802220
vt 0.159211 0.819631
vt 0.893863 0.936002
vt 0.900504 0.946608
vt 0.900512 0.946623
vt 0.729712 0.892178
vt 0.879570 0.916309
vt 0.863744 0.897284
vt 0.846065 0.878669
vt 0.729306 0.883160
vt 0.831081 0.864811
vt 0.727017 0.869089
vt 0.807106 0.845553
vt 0.717991 0.844421
vt 0.786816 0.831965
vt 0.764570 0.819631
vt 0.703475 0.823131
vt 0.739749 0.808565
vt 0.712923 0.799805
vt 0.682564 0.804709
vt 0.684120 0.793831
vt 0.653366 0.791125
vt 0.681877 0.721145
vt 0.694665 0.760263
vt 0.681681 0.759440
vt 0.697783 0.722132
vt 0.712373 0.724142
vt 0.673246 0.720879
vt 0.668705 0.759633
vt 0.639313 0.685884
vt 0.726739 0.697097
vt 0.652015 0.687505
vt 0.662960 0.654136
vt 0.636070 0.660891
vt 0.635934 0.660891
vt 0.655478 0.721571
vt 0.644312 0.722766
vt 0.655477 0.721571
vt 0.649582 0.762079
vt 0.653501 0.791125
vt 0.655825 0.760956
vt 0.681680 0.759440
vt 0.713972 0.763146
vt 0.729299 0.727737
vt 0.712922 0.799805
vt 0.731182 0.767123
vt 0.751839 0.734671
vt 0.770782 0.742543
vt 0.785925 0.750326
vt 0.742381 0.770405
vt 0.755071 0.774787
vt 0.780366 0.785219
vt 0.813322 0.802220
vt 0.840786 0.819631
s 1
f 1/1/1 2/2/1 3/3/2
f 2/2/1 1/1/1 4/4/1
f 5/5/3 6/3/4 7/2/3
f 5/5/3 7/2/3 8/6/5
f 9/3/6 10/7/7 11/1/8
f 10/7/7 9/3/6 12/8/6
f 13/3/9 14/5/10 15/9/11
f 13/3/9 15/9/11 16/8/12
f 17/1/13 18/10/14 19/4/13
f 18/10/14 17/1/13 20/10/14
f 21/5/15 22/11/15 23/12/16
f 22/11/15 21/5/15 24/6/17
f 25/5/18 26/13/19 27/9/20
f 25/5/18 28/12/21 26/13/19
f 29/1/22 30/14/22 31/10/22
f 30/14/22 29/1/22 32/7/22
f 33/10/23 34/15/23 35/10/23
f 36/16/24 37/10/24 38/15/24
f 39/11/25 40/16/25 41/15/25
f 39/11/25 41/15/25 42/12/25
f 43/13/26 44/15/27 45/17/28
f 44/15/27 43/13/26 46/12/26
f 47/15/29 48/10/30 49/14/30
f 49/14/30 50/17/31 47/15/29
f 51/4/32 52/18/32 53/19/32
f 51/4/32 54/10/32 52/18/32
f 55/16/32 52/18/32 54/10/32
f 56/2/32 51/4/32 53/19/32
f 52/18/32 55/16/32 57/20/32
f 53/19/32 52/18/32 58/21/32
f 57/20/32 58/21/32 52/18/32
f 59/22/32 57/20/32 55/16/32
f 55/16/32 60/11/32 59/22/32
f 61/6/32 59/22/32 60/11/32
f 56/2/32 62/23/32 61/6/32
f 59/22/32 61/6/32 62/23/32
f 56/2/32 53/19/32 63/24/32
f 62/23/32 56/2/32 63/24/32
f 53/19/32 58/21/32 64/25/32
f 63/24/32 53/19/32 64/25/32
f 64/25/32 58/21/32 65/26/32
f 58/21/32 57/20/32 65/26/32
f 63/24/32 64/25/32 66/27/32
f 66/27/32 64/25/32 65/26/32
f 67/28/32 63/24/32 66/27/32
f 63/24/32 67/28/32 62/23/32
f 66/27/32 65/26/32 67/28/32
f 68/29/32 65/26/32 57/20/32
f 67/28/32 65/26/32 68/29/32
f 68/29/32 62/23/32 67/28/32
f 57/20/32 59/22/32 68/29/32
f 62/23/32 68/29/32 59/22/32
f 69/17/33 70/14/34 71/30/34
f 71/30/34 72/31/33 69/17/33
f 73/32/35 74/17/36 75/31/37
f 74/17/36 73/32/35 76/13/35
f 77/33/38 78/31/38 79/34/38
f 78/31/38 77/33/38 80/32/38
f 78/31/38 81/35/38 79/34/38
f 81/35/38 78/31/38 82/30/38
f 83/36/38 84/37/38 85/38/38
f 84/37/38 83/36/38 86/39/38
f 83/36/38 85/38/38 87/40/39
f 83/36/38 87/40/39 88/41/40
f 89/42/38 87/40/39 85/38/38
f 90/43/41 83/36/38 88/41/40
f 83/36/38 90/43/41 91/44/38
f 89/42/38 91/44/38 90/43/41
f 89/42/38 85/38/38 92/45/38
f 92/45/38 93/46/38 89/42/38
f 87/40/39 89/42/38 94/47/42
f 89/42/38 90/43/41 94/47/42
f 95/48/43 96/43/44 88/41/40
f 95/48/43 88/41/40 97/40/45
f 95/48/46 94/47/42 98/43/44
f 95/48/46 99/40/45 94/47/42
f 100/49/38 101/50/38 102/51/38
f 103/52/38 101/50/38 100/49/38
f 100/49/38 104/53/38 103/52/38
f 102/51/38 104/53/38 100/49/38
f 104/53/38 102/51/38 105/54/38
f 101/50/38 106/55/38 102/51/38
f 106/55/38 105/54/38 102/51/38
f 101/50/38 107/56/38 106/55/38
f 105/54/38 106/55/38 108/57/38
f 106/55/38 107/56/38 108/57/38
f 109/58/38 110/59/38 111/60/38
f 110/59/38 109/58/38 112/61/38
f 110/59/38 112/61/38 113/62/38
f 113/62/38 111/60/38 110/59/38
f 111/60/38 113/62/38 114/63/38
f 111/60/38 115/64/38 109/58/38
f 114/63/38 115/64/38 111/60/38
f 109/58/38 115/64/38 116/65/38
f 115/64/38 114/63/38 117/66/38
f 115/64/38 117/66/38 116/65/38
f 118/67/47 119/68/47 120/69/47
f 121/68/38 122/67/38 123/70/38
f 123/70/38 122/67/38 124/71/38
f 125/72/38 123/70/38 124/71/38
f 123/70/38 125/72/38 126/73/38
f 126/73/38 127/74/38 123/70/38
f 128/75/38 127/74/38 126/73/38
f 128/75/38 129/76/38 127/74/38
f 130/77/38 129/76/38 128/75/38
f 130/77/38 131/78/38 129/76/38
f 132/79/38 131/78/38 130/77/38
f 133/80/38 131/78/38 132/79/38
f 133/80/38 134/81/38 131/78/38
f 135/82/38 134/81/38 133/80/38
f 136/83/38 134/81/38 135/82/38
f 136/83/38 137/84/38 134/81/38
f 138/85/38 137/84/38 136/83/38
f 139/86/38 137/84/38 138/85/38
f 140/87/38 141/88/38 142/89/38
f 140/87/38 143/90/38 141/88/38
f 141/88/38 143/90/38 144/91/38
f 140/87/38 142/89/38 145/92/38
f 145/92/38 142/89/38 146/93/38
f 140/87/38 147/94/38 143/90/38
f 148/95/38 147/94/38 140/87/38
f 149/96/38 147/94/38 148/95/38
f 150/97/38 147/94/38 149/96/38
f 150/97/38 151/98/38 147/94/38
f 151/98/38 152/99/38 147/94/38
f 143/90/38 147/94/38 153/100/38
f 153/100/38 147/94/38 154/101/38
f 155/102/38 144/91/38 143/90/38
f 156/103/38 155/102/38 154/101/38
f 144/91/38 155/102/38 156/103/38
f 144/91/38 157/104/38 158/105/38
f 157/104/38 159/106/38 158/105/38
f 160/85/38 144/91/38 158/105/38
f 161/107/38 144/91/38 160/85/38
f 142/89/38 161/107/38 160/85/38
f 142/89/38 160/85/38 162/108/38
f 146/93/38 142/89/38 162/108/38
f 146/93/38 162/108/38 163/109/38
f 162/108/38 160/85/38 164/83/38
f 165/110/38 163/109/38 162/108/38
f 165/110/38 162/108/38 164/83/38
f 163/109/38 165/110/38 166/111/38
f 166/111/38 165/110/38 167/112/38
f 168/113/38 167/112/38 165/110/38
f 169/114/38 165/110/38 164/83/38
f 170/115/38 169/114/38 164/83/38
f 171/116/38 170/115/38 164/83/38
f 170/115/38 171/116/38 172/117/38
f 173/118/38 172/117/38 171/116/38
f 173/118/38 174/119/38 172/117/38
f 174/119/38 173/118/38 175/120/38
f 176/121/47 177/122/48 178/123/47
f 179/123/38 180/124/38 181/121/38
f 180/124/38 182/125/38 181/121/38
f 183/126/38 182/125/38 180/124/38
f 180/124/38 184/127/38 183/126/38
f 184/127/38 180/124/38 185/128/38
f 186/129/38 184/127/38 185/128/38
f 186/129/38 185/128/38 187/130/38
f 188/131/38 186/129/38 187/130/38
f 188/131/38 187/130/38 189/132/38
f 190/133/38 188/131/38 189/132/38
f 191/134/38 190/133/38 189/132/38
f 191/134/38 189/132/38 192/135/38
f 193/136/38 191/134/38 192/135/38
f 194/137/38 193/136/38 192/135/38
f 194/137/38 192/135/38 195/138/38
f 196/139/38 194/137/38 195/138/38
f 197/140/38 196/139/38 195/138/38
f 198/141/38 199/142/38 200/143/38
f 198/141/38 201/144/38 199/142/38
f 199/142/38 201/144/38 202/145/38
f 198/141/38 200/143/38 203/146/38
f 200/143/38 204/147/38 203/146/38
f 198/141/38 203/146/38 205/148/38
f 206/149/38 198/141/38 205/148/38
f 207/150/38 206/149/38 205/148/38
f 208/151/38 207/150/38 205/148/38
f 208/151/38 205/148/38 209/152/38
f 209/152/38 205/148/38 210/153/38
f 203/146/38 211/154/38 205/148/38
f 211/154/38 212/155/38 205/148/38
f 204/147/38 213/156/38 203/146/38
f 214/157/38 212/155/38 213/156/38
f 213/156/38 204/147/38 214/157/38
f 204/147/38 215/158/38 216/159/38
f 216/159/38 215/158/38 217/157/38
f 218/139/38 215/158/38 204/147/38
f 219/160/38 218/139/38 204/147/38
f 199/142/38 218/139/38 219/160/38
f 220/161/38 218/139/38 199/142/38
f 202/145/38 220/161/38 199/142/38
f 202/145/38 221/162/38 220/161/38
f 220/161/38 222/163/38 218/139/38
f 221/162/38 223/164/38 220/161/38
f 223/164/38 222/163/38 220/161/38
f 223/164/38 221/162/38 224/165/38
f 224/165/38 225/166/38 223/164/38
f 226/167/38 223/164/38 225/166/38
f 227/168/38 222/163/38 223/164/38
f 228/169/38 222/163/38 227/168/38
f 228/169/38 229/136/38 222/163/38
f 229/136/38 228/169/38 230/170/38
f 231/134/38 229/136/38 230/170/38
f 230/170/38 232/171/38 231/134/38
f 232/171/38 233/172/38 231/134/38
f 234/7/49 235/30/50 236/14/51
f 235/30/50 234/7/49 237/35/52
f 238/9/53 239/32/54 240/33/55
f 238/9/53 241/13/56 239/32/54
f 242/8/57 243/35/57 244/7/57
f 243/35/57 242/8/57 245/34/57
f 246/8/58 247/9/58 248/33/59
f 246/8/58 248/33/59 249/34/58
